<?xml version="1.0" encoding="UTF-8" standalone="no"?>
<!-- Generator: Adobe Illustrator 27.2.0, SVG Export Plug-In . SVG Version: 6.00 Build 0)  -->

<svg
   version="1.1"
   id="Layer_1"
   x="0px"
   y="0px"
   viewBox="0 0 321.1 321.1"
   style="enable-background:new 0 0 321.1 321.1;"
   xml:space="preserve"
   sodipodi:docname="alabama.svg"
   inkscape:version="1.2.2 (732a01da63, 2022-12-09, custom)"
   xmlns:inkscape="http://www.inkscape.org/namespaces/inkscape"
   xmlns:sodipodi="http://sodipodi.sourceforge.net/DTD/sodipodi-0.dtd"
   xmlns="http://www.w3.org/2000/svg"
   xmlns:svg="http://www.w3.org/2000/svg"><defs
   id="defs24"><linearGradient
     id="linearGradient4367"
     inkscape:swatch="solid"><stop
       style="stop-color:#add8e6;stop-opacity:1;"
       offset="0"
       id="stop4365" /></linearGradient></defs><sodipodi:namedview
   id="namedview22"
   pagecolor="#505050"
   bordercolor="#ffffff"
   borderopacity="1"
   inkscape:showpageshadow="0"
   inkscape:pageopacity="0"
   inkscape:pagecheckerboard="1"
   inkscape:deskcolor="#505050"
   showgrid="false"
   inkscape:zoom="2.653379"
   inkscape:cx="32.78838"
   inkscape:cy="160.55"
   inkscape:window-width="1920"
   inkscape:window-height="1031"
   inkscape:window-x="0"
   inkscape:window-y="25"
   inkscape:window-maximized="1"
   inkscape:current-layer="Layer_1" />
<style
   type="text/css"
   id="style18">
	.st0{fill:#FE8E69;}
</style>
<path
   id="Alabama_00000059271172586741079450000002316970702673127581_"
   class="st0"
   d="m 255.44722,256.77567 c -0.24719,-0.29103 -0.22504,-0.56034 -0.20294,-0.82923 -0.92126,-1.9724 -5.43019,-3.15621 -5.45573,-6.13825 0.0885,-1.07654 0.60079,-4.01488 1.15736,-7.49157 0.60129,-4.01432 1.49364,-8.27594 2.0058,-11.21432 0.1328,-1.61488 0.51281,-2.93817 0.2655,-3.22974 -0.40549,-1.65862 -4.45317,-11.74538 -5.17534,-16.13973 -0.22514,-0.56048 -0.18088,-1.09882 -0.15877,-1.36774 0.17703,-2.15321 2.27878,-7.94121 3.17101,-12.20286 0.42378,-1.86168 0.82595,-3.45402 0.64503,-4.5527 0,0 0,0 0,0 -0.31693,-2.7358 3.91529,-8.07752 5.81781,-11.44343 0.6268,-1.03189 0.96211,-1.81741 1.00632,-2.35522 0.15493,-1.88431 -1.97565,-2.3302 -3.5243,-3.27022 -0.78497,-0.33579 -1.23479,-1.45657 -1.37097,-3.09305 -0.1588,-1.36772 -0.27284,-3.27362 -0.14008,-4.88849 0.13281,-1.61501 -0.29482,-3.0047 -0.99143,-4.41652 -0.94376,-1.70349 -2.13446,-3.69791 -3.52809,-6.5217 0,0 0,0 0,0 -0.94391,-1.70341 -2.04597,-4.77446 -3.37321,-8.40589 -0.85489,-2.77952 -1.68803,-5.82848 -2.52132,-8.87731 -1.4634,-5.26801 -2.3886,-10.4918 -2.88645,-14.32628 0.0442,-0.53781 -0.20255,-0.82935 -0.15829,-1.36769 0.0221,-0.26877 -0.20255,-0.82922 -0.15828,-1.36755 -0.54227,-3.29578 -1.62558,-9.88761 -3.33969,-18.69855 -0.20305,-0.8294 -0.40558,-1.65915 -0.60862,-2.48854 -0.78891,-3.58716 -1.53319,-7.712241 -2.27782,-11.837756 -0.94718,-4.954832 -2.11967,-10.470065 -3.29205,-15.984882 -0.15826,-1.368077 -0.58598,-2.757901 -0.74427,-4.125456 -0.60849,-2.488529 -0.94769,-4.954903 -1.57791,-7.174476 -0.96932,-4.68543 -1.96076,-9.101955 -2.68343,-13.496365 -1.15024,-5.784255 -2.32221,-11.299423 -3.24723,-16.523702 -0.18095,-1.098314 -0.36134,-2.196966 -0.56439,-3.026357 -0.20252,-0.829863 -0.38329,-1.928546 -0.58586,-2.757898 -0.94731,-4.954855 -1.93925,-9.371421 -2.70564,-13.227468 -0.7668,-3.856078 -1.30854,-7.1518102 -1.93916,-9.3714119 -4.61907,0.1622199 -9.21651,0.054964 -13.83557,0.2170506 -7.60218,0.1882008 -15.45056,0.084407 -23.32153,0.2503954 -8.67817,0.099222 -17.35647,0.1984345 -26.01252,0.028754 -0.80777,-0.06641 -1.34598,-0.1106599 -2.17536,0.092256 -6.77224,-0.014804 -13.5445,-0.030123 -20.04787,-0.022839 -6.77227,-0.014939 -13.81344,-0.051852 -20.58573,-0.066659 -6.77228,-0.014806 -13.544555,-0.02961 -20.047913,-0.022441 -4.328144,-0.085118 -8.386769,-0.1475414 -12.467978,0.058364 l 6.130616,7.8194953 0.494079,0.582465 c 0,0 -0.866821,7.244219 -2.087143,18.794353 -0.199137,2.422124 -0.39827,4.844248 -0.888422,7.513167 -0.265535,3.229743 -0.844713,6.9753 -1.154462,10.742862 -0.354009,4.305888 -1.021203,9.128025 -1.419473,13.972257 -0.06637,0.807237 -0.132768,1.614878 -0.199136,2.422115 -0.800277,6.436463 -1.375572,13.433915 -2.219733,20.408721 -0.376161,4.575335 -1.021697,9.127999 -1.397857,13.703325 -0.442517,5.38243 -1.153972,10.74292 -1.574347,15.85604 -0.800411,6.43645 -1.309339,12.62666 -2.087143,18.79436 -0.132722,1.61436 -0.265489,3.22923 -0.376118,4.57481 -0.910563,7.78246 -1.530074,15.31772 -2.374786,22.29302 -0.530994,6.4586 -1.286681,12.35726 -1.729209,17.73983 -0.154871,1.88378 -0.331901,4.037 -0.464626,5.65136 -0.951413,11.57226 -1.570966,19.10804 -1.43478,20.74451 0,0 0,0 0,0 0.136639,1.63716 0.298343,6.25616 0.530807,13.32002 0.139935,4.88837 0.460443,10.87511 0.467736,17.37848 0.276082,6.52549 0.508604,13.58883 0.471157,20.62996 0.04815,2.71371 0.117908,5.15794 0.166112,7.87112 0.05142,5.96503 0.394044,11.68274 0.467736,17.37847 0.324272,9.23865 0.423448,17.91733 0.655312,24.98064 0.560437,-0.22467 0.874114,-0.74086 0.874114,-0.74086 0.0664,-0.8076 0.132768,-1.61487 1.769247,-1.75107 1.906055,-0.11451 6.975341,0.84422 8.298755,1.22428 1.032318,0.62633 5.754805,-7.38432 6.134719,-8.70763 0.379566,-1.32384 1.559531,-9.08377 2.433177,-9.82515 0.873997,-0.74072 2.082923,-2.26725 2.912767,-2.46962 0,0 0.268792,0.0221 0.538204,0.0442 1.076172,0.0884 2.624675,1.02836 3.612848,2.19353 1.234817,1.45608 8.61149,20.48652 8.81403,21.31588 0.22467,0.56043 -10.422041,4.83321 -10.75783,5.61831 -0.06634,0.80724 10.51783,0.59398 12.15484,0.45733 1.63699,-0.13615 11.90415,-3.08558 16.02963,-3.82985 1.6293,-6.63952 4.9773,-20.99508 3.853,-23.79726 -1.8656,-3.67515 -6.95647,-4.36495 -7.63097,-6.04581 -0.6971,-1.41237 -6.75747,-6.78707 -6.6247,-8.40196 0.13281,-1.61501 2.0536,-8.50117 2.59181,-8.45692 0,0 0,0 0.26889,0.0221 1.615,0.13281 11.39186,-0.14738 25.49685,-0.34227 5.96466,-0.0516 12.73693,-0.0368 19.80074,-0.26874 1.63651,-0.13658 3.25137,-0.004 5.15727,-0.11784 5.69574,-0.0737 11.39188,-0.14738 17.35653,-0.19894 3.52074,0.0188 7.0638,-0.23183 10.5846,-0.21361 2.71314,-0.0476 5.42627,-0.0953 7.87054,-0.16563 10.5846,-0.21361 21.16867,-0.42686 30.65412,-0.46011 11.12243,-0.16952 20.8994,-0.44913 28.23214,-0.65936 -1.64043,-3.11481 -2.29277,-5.06548 -2.76473,-5.91698 z"
   style="stroke-width:2.70011;fill:#373e48;fill-opacity:1;fill-rule:nonzero" />
</svg>
