<?xml version="1.0" encoding="UTF-8" standalone="no"?>
<!-- Generator: Adobe Illustrator 27.2.0, SVG Export Plug-In . SVG Version: 6.00 Build 0)  -->

<svg
   version="1.1"
   id="Layer_1"
   x="0px"
   y="0px"
   viewBox="0 0 321.1 321.1"
   style="enable-background:new 0 0 321.1 321.1;"
   xml:space="preserve"
   sodipodi:docname="alaska.svg"
   inkscape:version="1.2.2 (732a01da63, 2022-12-09, custom)"
   xmlns:inkscape="http://www.inkscape.org/namespaces/inkscape"
   xmlns:sodipodi="http://sodipodi.sourceforge.net/DTD/sodipodi-0.dtd"
   xmlns="http://www.w3.org/2000/svg"
   xmlns:svg="http://www.w3.org/2000/svg"><defs
   id="defs12958" /><sodipodi:namedview
   id="namedview12956"
   pagecolor="#505050"
   bordercolor="#ffffff"
   borderopacity="1"
   inkscape:showpageshadow="0"
   inkscape:pageopacity="0"
   inkscape:pagecheckerboard="1"
   inkscape:deskcolor="#505050"
   showgrid="false"
   inkscape:zoom="2.653379"
   inkscape:cx="102.13392"
   inkscape:cy="220.85047"
   inkscape:window-width="1920"
   inkscape:window-height="1031"
   inkscape:window-x="0"
   inkscape:window-y="25"
   inkscape:window-maximized="1"
   inkscape:current-layer="Layer_1" />
<style
   type="text/css"
   id="style12923">
	.st0{fill:#FE8E69;}
</style>
<g
   id="g12953"
   transform="matrix(1.2646979,0.3388748,-0.3388748,1.2646979,27.023339,-110.58582)"
   style="fill:#373e48">
	<g
   id="g12951"
   style="fill:#373e48">
		<path
   class="st0"
   d="m 107.1,126.5 c -0.5,1.2 -1,2.3 -1.3,3.5 -0.2,0.6 0.4,1.4 1,1.4 2.2,0.2 4.3,0.4 6.7,0.5 -0.1,-0.3 -0.1,-0.9 -0.3,-1 -0.7,-0.5 -0.7,-1.3 -0.5,-1.9 0.3,-1 -0.3,-1.7 -0.8,-2.4 -0.4,-0.7 -0.9,-1.3 -1.2,-2 -0.2,-0.3 -0.2,-0.7 -0.3,-1.1 -1.4,-0.5 -2.8,-1 -3.7,-2.3 -0.4,-0.6 -0.7,-1.5 -0.8,-2.2 -0.3,-1.7 -1,-3.1 -2.2,-4.3 -1.4,-1.4 -2.8,-2.9 -4.3,-4.3 -0.7,-0.7 -1.6,-1.2 -2.4,-1.7 -0.6,-0.4 -0.6,-0.7 0,-1 0.2,-0.1 0.5,-0.3 0.8,-0.3 0.7,-0.1 1,-0.6 1.1,-1.2 0.2,-0.6 0.3,-1.3 0.4,-2 0.2,-1.4 0.4,-1.5 1.8,-1.3 2.2,0.4 4.3,0.5 6.4,-0.6 1.4,-0.8 2.4,-2 2.9,-3.5 0.7,-2.3 2,-4.2 3.3,-6.1 0.5,-0.7 1,-1.4 1.6,-2 0.4,-0.4 0.7,-0.9 1.5,-0.5 0.4,0.2 1.2,0.1 1.6,-0.2 0.9,-0.6 1.8,-1.3 2.6,-2 1.1,-0.9 2,-2 3.1,-2.9 0.7,-0.6 1.4,-0.3 2.3,-0.1 0.9,0.2 1.9,0.3 2.9,0.2 0.4,0 0.8,-0.6 1.1,-1 1.1,-1.5 2.2,-3 3.2,-4.5 0.1,-0.2 0.4,-0.3 0.5,-0.4 0.1,0.1 0.2,0.1 0.2,0.1 0,1.2 1.1,1.6 1.9,2.1 0.2,0.1 0.5,0.3 0.7,0.4 0.4,0.1 0.9,0.3 1.2,0.2 0.8,-0.2 1.2,-0.1 1.5,0.6 0.3,0.6 0.5,1.3 0.7,1.9 0.2,0.7 0.4,0.8 1,0.4 0.9,-0.5 1.7,-1.2 2.6,-1.3 1.2,-0.1 2.5,0.3 3.7,0.5 0.5,0.1 0.6,1 0.2,1.6 -0.1,0.2 -0.3,0.4 -0.5,0.6 0.2,0.1 0.3,0.2 0.4,0.2 0.9,0.1 1.7,0.4 2.3,1.2 0.2,0.2 0.8,0.2 1.2,0.1 1.1,-0.3 2.2,-0.7 3.4,-1 0.7,-0.2 1.5,-0.3 2.2,-0.3 0.8,0 1.6,0.2 2.4,0.4 1,0.2 1.9,0.4 2.9,0.6 0.3,0.1 0.7,0.1 0.8,0.3 0.5,0.9 1.4,0.6 2.1,0.6 1.4,-0.1 2.8,-0.3 4.2,-0.3 0.7,0 1.3,0.3 2,0.5 1.5,0.6 2.7,0 3.9,-0.9 0.5,-0.4 1.1,-0.8 1.7,-1.1 0.5,-0.2 1.1,-0.2 1.5,0 1.4,0.4 2.8,0.9 4.1,1.4 0.8,0.3 1.7,0.6 2.5,1 0.5,0.3 1,0.8 1.1,1.3 0.7,2.2 1.2,4.5 1.8,6.8 0.4,1.6 1,3.2 1.4,4.8 0.4,1.6 0.8,3.1 1.2,4.7 0.3,1.1 0.6,2.1 0.9,3.2 0.5,1.7 0.9,3.4 1.4,5.2 0.4,1.6 0.9,3.1 1.3,4.7 0.5,1.7 0.9,3.4 1.3,5.1 0.3,1.1 0.6,2.1 0.9,3.2 0.6,2.2 1.1,4.5 1.8,6.8 0.3,1.1 0.7,2.2 1,3.3 0.3,1.2 0.6,2.3 0.9,3.5 0.5,1.8 0.9,3.7 1.4,5.5 0.4,1.6 1,3.2 1.4,4.8 0.5,1.7 0.8,3.4 1.2,5.1 0.3,1 0.6,2 0.9,3 0.5,1.7 0.9,3.4 1.3,5 0.3,1.1 0.6,2.2 0.9,3.3 0.4,1.7 0.8,3.4 1.3,5.1 0.4,1.6 1,3.2 1.4,4.8 0.2,0.7 0.3,1.5 1.1,1.7 1.2,0.4 2.4,0.6 3.5,-0.1 0.2,-0.1 0.6,-0.2 0.8,-0.1 0.9,0.4 1.5,-0.1 2.1,-0.7 0.6,-0.5 1.1,-1.1 1.7,-1.8 0.2,0.3 0.4,0.6 0.5,0.9 0.2,1.3 1,2.1 2.3,2.2 0.4,0 0.8,0.3 1,0.6 1,1.4 2.6,2 4,2.9 1.1,0.7 2.1,1.3 3.1,2.1 0.5,0.4 0.8,1 1.1,1.6 0.3,0.6 0.8,0.7 1.4,0.5 1.2,-0.3 1.6,-1.5 0.9,-2.4 -0.1,-0.1 -0.1,-0.2 -0.3,-0.5 0.7,-0.1 1.4,-0.4 2,-0.4 1.3,0 1.6,-1.1 1.6,-2 0,-0.5 0,-1.1 0.1,-1.6 0.1,-0.7 0.2,-1.3 0.3,-2 0,-0.2 0.1,-0.4 0.2,-0.5 0.4,-0.5 0.9,-1 1.4,-1.4 0.6,-0.5 1.5,-0.3 1.9,0.6 1.1,2 2.3,3.9 3,6 0.4,1.2 1.1,2.4 1.6,3.6 0.4,0.9 0.8,1.7 1.2,2.6 0.2,0.4 0.4,0.5 0.6,0.2 1,-1.1 2.3,-1.5 3.6,-2.1 0.2,-0.1 0.6,0 0.8,0.1 0.3,0.1 0.5,0.4 0.7,0.6 0.2,-0.4 0.3,-0.8 0.5,-1.1 0.1,-0.2 0.4,-0.3 0.6,-0.3 0.1,0 0.2,0.2 0.3,0.3 0.6,1.3 0.6,1.5 2,1.2 1.2,-0.2 2,0.2 2.6,1 1.5,1.7 3.3,3 4.5,5 0.4,0.6 0.7,1.2 1.5,1.3 0.1,0 0.3,0.1 0.4,0.3 0.3,0.8 1.1,1.1 1.8,1.5 0.4,0.2 0.7,0.6 0.9,0.9 0.3,0.4 0.7,0.5 1.1,0.4 1.7,-0.2 3.3,-0.1 5,0.3 1.5,0.4 3.1,0.6 4.6,1 0.7,0.2 0.8,0.8 0.9,1.4 0.1,0.5 0.2,0.9 0.4,1.4 0.1,0 0.2,0 0.3,0 0,-0.8 0,-1.7 0,-2.5 0,-0.2 0.2,-0.5 0.4,-0.7 0.2,0.2 0.5,0.4 0.6,0.6 0.2,0.7 0.2,1.4 0.4,2.1 0.1,0.3 0.3,0.5 0.5,0.8 0.3,-0.7 0.6,-1.2 0.9,-1.9 0.5,0.6 0.9,1.2 1.4,1.8 0.1,-0.1 0.2,-0.2 0.4,-0.3 0.4,-0.2 0.8,-0.3 1.1,0.3 0.3,0.7 0.6,1.4 0.7,2.1 0.4,1.7 0.7,3.5 1.1,5.2 0.1,0.4 0.1,0.9 0.2,1.3 0.1,0.6 0.3,1.1 0.4,1.7 0.2,1.1 -0.7,3.1 -1.7,3.6 -0.1,0.1 -0.4,0 -0.6,-0.2 -0.5,-0.3 -0.8,-1 -1.5,-1 -0.1,0 -0.2,-0.1 -0.2,-0.2 -0.7,-1 -1.2,-2 -0.9,-3.3 0.2,-1 0.3,-2 0.5,-3 -0.1,-0.1 -0.2,-0.1 -0.3,-0.2 -0.2,0.2 -0.4,0.3 -0.5,0.5 -0.3,0.8 -0.4,1.6 -0.7,2.3 -0.6,1.4 -1.5,1.1 -2.6,0.2 -0.4,-0.3 -0.6,-0.7 -0.9,-1.1 -0.7,-0.9 -1.2,-1.8 -1.2,-3 0,-1.1 -0.4,-2.3 -0.7,-3.4 -0.3,-1.1 -2.3,-1.8 -3.2,-1.4 -0.6,0.2 -1,1.1 -1,2 -0.1,1.2 -0.1,2.4 -0.4,3.5 -0.2,0.7 0,1.1 0.3,1.3 1.1,0.5 1.2,1.6 1.7,2.4 0.5,0.8 0.7,1.7 1.2,2.6 0.3,0.5 0.2,0.9 -0.3,1.2 -0.9,0.6 -1.9,0.5 -2.6,-0.2 -0.3,-0.3 -0.7,-0.4 -1,-0.6 -0.7,-0.6 -1.6,-1 -2.2,-1.7 -0.4,-0.4 -0.7,-0.6 -1.3,-0.5 0.3,1 1,1.7 1.8,2.4 0.5,0.4 1,0.8 1.5,1.1 0.4,0.3 0.7,0.7 0.3,1.1 -0.2,0.2 -0.9,0.3 -1.2,0.1 -0.9,-0.5 -1.7,-1.1 -2.4,-1.8 -0.8,-0.7 -1.5,-1.6 -2.7,-1.7 -0.3,0 -0.5,-0.4 -0.8,-0.6 0.4,-0.8 0.8,-1.6 1.3,-2.5 -0.3,-0.1 -0.5,-0.2 -0.7,-0.2 -1.4,-0.5 -2,-1.1 -1.1,-2.6 0.2,-0.4 0.2,-0.7 -0.1,-1 -0.3,-0.3 -0.6,-0.6 -0.8,-1 -0.4,-0.7 -1.1,-0.8 -1.8,-0.7 -0.7,0.1 -1,0.6 -1.2,1.4 -0.1,0.6 -0.5,1.1 -0.7,1.7 -1.7,-1 -2.7,-2.3 -3,-4.1 -0.2,-1.3 -1.2,-2.1 -2,-3.1 0,-0.1 -0.2,0 -0.4,0 0.4,1.1 0.7,2.2 1.1,3.2 0.4,1 1.1,1.9 1.2,3.2 -0.3,-0.1 -0.6,-0.1 -0.7,-0.2 -1.5,-1.1 -3,-2.2 -4.5,-3.4 -0.6,-0.4 -1.1,-0.9 -1.6,-1.5 -0.3,-0.3 -0.3,-0.8 -0.6,-1.3 -0.4,0.2 -0.8,0.4 -1.2,0.6 -0.4,0.1 -0.8,0.2 -1.2,0.1 -0.2,-0.1 -0.3,-0.6 -0.4,-0.9 -0.2,-0.6 -0.4,-1.3 -0.7,-1.9 0,-0.1 -0.2,-0.1 -0.2,-0.2 -0.2,-2 -2.2,-2.3 -3.4,-3.2 -0.9,-0.7 -1,-0.7 -0.6,-1.7 0.1,-0.2 0,-0.6 -0.1,-0.9 -0.4,-0.8 -0.9,-1.5 -1.4,-2.3 -0.2,0.3 -0.4,0.8 -0.7,1.2 -1.7,-0.6 -3.2,-1.2 -4.9,-1.6 -2,-0.6 -3.4,-1.9 -4.9,-3.2 -0.3,-0.3 -0.7,-0.4 -1.1,-0.4 -0.8,-0.1 -1.6,-0.1 -2.4,-0.3 -1.5,-0.4 -3,-0.8 -4.5,-1.2 -0.6,-0.2 -1.1,-0.3 -1.7,-0.5 -0.3,-0.1 -0.5,-0.3 -0.7,-0.5 0.5,-0.7 0.9,-1.2 1.4,-1.8 0.4,-0.5 -0.1,-0.8 -0.4,-0.9 -0.2,-0.1 -0.6,0 -0.8,0.1 -0.7,0.5 -1.3,1.2 -2.1,1.7 -0.4,0.3 -1,0.4 -1.5,0.4 -1.2,0.1 -2.3,0.1 -3.5,0 -0.6,-0.1 -1.3,-0.7 -1.9,-0.7 -1.5,-0.1 -3.1,-0.1 -4.6,0.1 -1.9,0.3 -3.7,1 -5.5,1.5 -0.5,0.1 -1,0.3 -1.5,0.5 -0.7,0.2 -1.2,-0.1 -1.6,-0.7 -0.2,-0.3 -0.6,-0.7 -1,-0.7 -0.8,-0.2 -1.5,-0.2 -2.3,-0.3 -0.2,0 -0.6,-0.2 -0.6,-0.4 -0.2,-0.7 -0.5,-0.6 -0.9,-0.3 -0.6,0.4 -1.3,0.2 -1.9,0 -0.9,-0.4 -1.6,0 -2.3,0.5 -0.8,0.5 -1.6,1.1 -2.3,1.7 -0.4,0.3 -0.7,0.2 -0.9,-0.1 -0.2,-0.5 -0.5,-1.1 -0.4,-1.6 0.1,-0.4 0.7,-0.8 1.2,-1.1 0.4,-0.2 0.8,-0.3 1.3,-0.5 0,-0.1 0,-0.2 0,-0.3 -0.8,-0.2 -1.5,-0.3 -2.3,-0.5 -0.2,-0.4 -0.4,-0.8 -0.6,-1.2 -0.4,-0.8 -1,-0.9 -1.9,-0.5 -1,0.5 -2.1,0.9 -3.2,1.3 -0.2,0.1 -0.5,-0.1 -0.7,-0.2 -0.3,-0.1 -0.6,-0.2 -1.1,-0.3 0,0.9 0.4,1.4 0.8,2 0.2,0.2 0.4,0.5 0.6,0.7 0.7,0.5 0.6,1.1 0.3,1.7 -0.3,0.7 -0.6,1.3 -0.4,2.1 0.1,0.5 0.1,0.9 -0.5,1.3 -0.3,0.2 -0.4,0.8 -0.6,1.2 -0.3,0.8 -1,1.3 -1.8,1.2 -0.6,-0.1 -1.2,-0.1 -1.8,0 -0.1,0 -0.2,0.2 -0.3,0.4 -0.2,0.4 -0.4,1 -1.1,0.4 -0.1,1.9 -0.3,2.1 -2.1,2.8 -0.5,0.2 -1,0.5 -1.3,0.9 -0.5,0.7 -1.2,1 -1.9,1.4 -0.5,0.3 -0.8,0.9 -1.1,1.5 -0.3,0.7 -0.8,1.1 -1.6,1.2 -1.1,0.1 -2.2,0.3 -3.3,0.4 -1,0.1 -1.6,-0.6 -1.2,-1.5 0.2,-0.5 0.4,-1 0.7,-1.4 0.2,-0.3 0.5,-0.5 0.8,-0.6 0.4,-0.3 0.5,-0.5 0.1,-0.8 -0.2,-0.2 -0.4,-0.4 -0.7,-0.5 -1.2,-1 -1.4,-1.7 -0.8,-3.2 0.6,-1.5 1.3,-2.9 1.7,-4.4 0.2,-0.7 -0.1,-1.7 -0.4,-2.4 -0.2,-0.7 -0.1,-1 0.4,-1.4 1.1,-0.9 2.3,-1.8 3.3,-2.7 0.6,-0.5 1,-0.6 1.7,-0.3 0.3,0.1 0.6,0.2 0.9,0.2 0,-0.1 0.1,-0.1 0.1,-0.2 -0.3,-0.4 -0.6,-0.8 -0.8,-1.2 -0.3,-0.7 -0.8,-0.3 -1.2,-0.3 -0.3,0 -0.6,-0.2 -1,-0.2 -1.1,0 -1.5,0.9 -2,1.7 -0.3,0.5 -0.6,1 -1.3,1.1 -1.1,0.2 -1.6,1.2 -1.1,2.2 0.2,0.5 -0.1,1.1 -0.6,1 -0.9,-0.1 -1.1,0.5 -1.3,1.1 -0.6,1.6 -1.2,3.3 -1.6,5 -0.2,1.1 -0.5,2 -1.5,2.5 -0.1,0.1 -0.1,0.3 -0.1,0.4 -0.4,1 -0.8,1.8 -1.9,2.2 -0.6,0.2 -1.1,0.8 -1.5,1.3 -0.7,0.8 -1.4,1.7 -2,2.6 -0.3,0.4 -0.4,0.8 0.5,0.8 1.5,0 2.8,0.6 3.8,1.8 0.2,0.2 0.2,0.6 0.1,0.9 -0.4,0.7 -0.8,1.4 -1.3,2.1 -0.1,0.2 -0.3,0.3 -0.5,0.4 -1.1,0.1 -1.4,1.1 -1.6,1.9 -0.5,2 -1.5,3.6 -3.4,4.5 -0.5,0.2 -1,0.3 -1.4,0.5 -0.4,0.2 -0.7,0.6 -1,1 -0.3,0.4 -0.5,0.8 -0.7,1.2 -0.1,0.1 -0.2,0.3 -0.4,0.4 -0.9,0.2 -1.4,0.8 -1.8,1.5 -0.1,0.1 -0.2,0.3 -0.3,0.3 -0.7,-0.1 -0.9,0.4 -1.3,0.9 -0.3,0.3 -0.8,0.5 -1.4,0.7 0.4,1.4 -0.6,2.6 -1.2,4 -0.2,0.3 -0.6,0.6 -1,0.8 -0.8,0.4 -1.6,0.7 -2.4,1.2 -0.7,0.4 -1.3,0.7 -1.5,1.6 0,0.3 -0.4,0.5 -0.7,0.7 -0.4,0.2 -0.9,0.3 -1.2,0.6 -0.6,0.5 -1.1,0.6 -1.8,0.4 -0.3,-0.1 -0.7,0.1 -0.9,0.2 -0.3,0.2 -0.4,0.5 0,0.7 0.2,0.1 0.3,0.3 0.4,0.3 0.7,0.2 0.8,0.7 0.7,1.4 -0.1,0.7 -0.6,1 -1.1,1.2 -0.2,0.1 -0.4,0.3 -0.6,0.5 -0.2,0.1 -0.3,0.3 -0.5,0.4 -0.4,0.2 -0.7,0.3 -1.1,0.4 -0.9,0.2 -1.8,0.5 -2.7,0.7 -0.8,0.2 -1.7,0.9 -1.8,1.8 -0.1,0.9 -0.6,1.4 -1.3,1.1 -0.2,-0.1 -0.4,-0.3 -0.5,-0.5 -0.1,-0.4 -0.1,-0.9 -0.2,-1.4 -1,0.4 -1.9,0.9 -2.6,1.6 -0.8,0.8 -1,1.8 -0.8,2.9 0.1,0.9 -0.5,1.3 -1.2,1.5 -0.3,0.1 -0.7,0.3 -1.2,0.4 -1,-1.1 -0.1,-2.4 -0.4,-3.6 -0.7,0.2 -1.3,0.5 -2,0.7 -0.4,0.1 -0.9,0 -1.3,0 -0.8,-0.2 -1.7,0.4 -2,1.5 -0.1,0.4 -0.2,0.9 -0.4,1.4 -1,0.2 -2,0.3 -3,0.6 -1.1,0.4 -2.1,0.4 -3.1,0.2 -0.6,-0.1 -0.6,0.5 -0.7,0.9 -0.1,0.6 -0.3,1.2 -0.4,1.8 -0.1,-0.1 -0.1,-0.1 -0.2,-0.2 -0.5,0 -0.9,0.1 -1.4,0.1 -1,0 -2,0.1 -3,0.1 -1,0 -1.8,0.3 -2.5,1 -0.3,0.2 -0.6,0.4 -0.8,0.7 -1.1,0.9 -1.4,0.8 -2.4,-0.2 -0.7,-0.7 -0.7,-1.8 0,-2.6 0.5,-0.5 0.9,-1 1.4,-1.5 0.7,-0.7 1.5,-1.2 2.4,-1.4 0.7,-0.2 1.4,-0.5 2.1,-0.7 0.7,-0.2 1.4,-0.6 2.2,0 0.4,0.3 0.8,0.4 1.2,-0.3 0.5,-0.9 1.5,-1.3 2.4,-1.6 0.8,-0.2 1.4,-0.8 1.9,-1.4 1.4,-1.8 3,-3.3 5,-4.3 0.9,-0.5 2,-0.8 3.1,-1 0.7,-0.1 1.5,0 2.1,0.2 0.3,0.1 0.4,0.6 0.7,1 0.4,-0.8 0.9,-1.5 1.2,-2.3 0.6,-1.3 1.6,-2.3 2.6,-3.3 1,-1 2.2,-1.4 3.4,-1.9 0.8,-0.3 1.5,-1.1 2.3,-1.5 1.2,-0.7 1.5,-2.1 2.3,-3 1,-1.1 2.1,-2.1 3.2,-3.2 0.7,-0.7 1.2,-1.3 1.2,-2.5 -0.1,-1.1 0.3,-2.2 0.4,-3.3 0.1,-1 0.1,-2 0.4,-3 0.3,-0.8 0.8,-1.7 1.4,-2.3 0.6,-0.5 1.1,-0.9 0.8,-1.9 -0.6,0.3 -1.1,0.5 -1.6,0.8 -1,0.5 -2,1.1 -3.1,1.6 -0.7,0.3 -1.2,-0.2 -1.5,-0.8 -0.1,-0.2 -0.2,-0.4 -0.3,-0.5 -0.3,-0.3 -0.6,-0.5 -1.1,-0.3 -0.5,0.2 -0.6,0.6 -0.5,1 0.1,0.2 0.2,0.5 0.3,0.7 0.4,1 0.2,1.4 -0.6,1.8 -0.6,0.3 -1.4,0.1 -1.8,-0.6 -0.4,-0.7 -0.8,-1.5 -1.2,-2.1 -0.3,-0.5 -0.7,-0.9 -1.1,-1.3 -0.1,-0.1 -0.6,-0.1 -0.7,0 -0.7,0.5 -0.7,0.4 -1.3,-0.2 -0.6,-0.7 -1.4,-1.2 -2.2,-1.6 -0.4,-0.3 -1.1,0.6 -1.1,1.4 0,1 -0.6,1.8 -1.2,2.5 -0.2,0.3 -0.6,0.6 -1.1,0.3 -0.4,-0.3 -0.7,-0.6 -0.4,-1.1 0.2,-0.3 0.3,-0.6 0.5,-0.9 0.2,-0.3 0.4,-0.6 0.7,-0.9 -0.9,-0.1 -1.4,0.3 -1.5,1 -0.1,0.6 -2.5,2 -2.9,1.6 -0.6,-0.6 -1.3,-0.8 -2.1,-1.1 -0.4,-0.1 -0.3,-0.7 0.3,-1 1.4,-0.7 1.7,-1.2 1.1,-2.8 -0.2,-0.6 -0.6,-1.1 -0.7,-1.7 -0.1,-0.4 0.1,-0.9 0.3,-1.3 0.1,-0.4 0.3,-0.7 0.6,-1 0.9,-1 0.5,-2 -0.1,-3 -0.3,-0.5 -0.5,-1.2 -0.8,-1.7 -0.6,-1 -1,-1.1 -2.1,-0.7 -1.1,0.5 -2.2,1.1 -3.4,1.3 -1.4,0.3 -3,0.3 -4.2,-0.6 -0.4,-0.3 -0.6,-1 -0.7,-1.6 -0.1,-1.2 -0.8,-2 -1.7,-2.5 -1.1,-0.7 -2,-1.7 -2.8,-2.6 -0.1,-0.1 -0.2,-0.2 -0.3,-0.4 -0.7,-0.7 -0.6,-1.1 0.3,-1.6 0.5,-0.3 0.9,-0.6 1.3,-1 0.4,-0.5 0.7,-1.1 -0.2,-1.5 -0.2,-0.1 -0.2,-0.4 -0.4,-0.6 -0.2,-0.2 -0.4,-0.5 -0.6,-0.5 -1,0 -1,-0.8 -1,-1.4 0,-0.7 -0.1,-1.3 -1,-1.5 -0.1,0 -0.3,-0.3 -0.2,-0.4 0.2,-1.1 -0.5,-1.7 -1,-2.5 -0.1,-0.2 -0.2,-0.5 -0.2,-0.7 0.3,-0.7 0.5,-1.4 0.9,-2.1 0.1,-0.2 0.6,-0.3 1,-0.3 0.5,0 0.7,-0.1 0.8,-0.6 0.3,-2 1.3,-3.6 2.9,-4.9 0.9,-0.7 1.6,-1.6 1.9,-2.8 0.4,-1.5 1.2,-3 2.4,-4.1 0.9,-0.8 1.7,-0.9 2.7,-0.3 0.8,0.5 1.6,0.8 2.3,1.4 0.6,0.5 1.1,0.3 1.6,0 0.6,-0.4 1,-0.9 1.5,-1.5 0.6,-0.7 1.1,-1.4 1.6,-2.2 0.3,-0.5 0.8,-0.2 1.1,-0.2 0.7,0.1 1.3,0.3 2,0.4 1.9,0.1 2.7,-0.3 3.5,-2.1 0.2,-0.4 0,-0.9 -0.1,-1.3 -0.3,-1.3 -0.6,-2.6 -0.9,-3.9 -0.2,-0.8 -0.8,-0.6 -1.3,-0.8 -0.1,-0.1 -0.3,-0.1 -0.4,-0.2 -0.1,-0.8 0.7,-1.5 1.9,-1.8 0.9,-0.2 1.3,-0.7 1.2,-1.5 -0.2,-0.7 -1.1,-1.2 -1.5,-0.6 -0.6,0.9 -1.6,0.9 -2.5,1.1 -1.4,0.3 -2.2,1 -3,2.1 -0.3,0.5 -0.6,0.9 -1,1.5 -0.3,-0.3 -0.6,-0.5 -0.9,-0.8 -0.1,-0.1 -0.3,-0.3 -0.5,-0.3 -0.9,0.1 -1.3,-0.6 -2,-1 -1,-0.6 -2.2,-1.1 -3.4,-0.7 -1.7,0.6 -3.4,0.7 -5,0.1 -1.2,-0.4 -2.4,-1.1 -3.4,-1.9 -0.6,-0.4 -0.8,-1.2 -0.5,-2.1 0.2,-0.6 0.4,-1.3 -0.4,-1.9 -0.8,-0.6 -1.3,-1.5 -1.1,-2.6 0.2,-1.1 -0.6,-1.4 -1.3,-1.9 -0.9,-0.6 -1.8,-1.3 -2.6,-2 -0.2,-0.2 -0.3,-0.7 -0.2,-1.1 0,-0.2 0.4,-0.3 0.7,-0.4 0.5,-0.1 1,-0.1 1.4,-0.3 0.3,-0.2 0.5,-0.6 0.8,-0.9 0.2,-0.2 0.4,-0.4 0.6,-0.4 1.6,-0.2 2.7,-1.3 4,-1.9 0.4,-0.2 0.8,-0.4 1.2,-0.3 0.6,0.1 0.9,-0.1 1.2,-0.5 0.9,-1.2 2,-1.9 3.6,-1.9 0.9,0 1.9,-0.4 2.7,-0.8 1.8,-1.2 2.9,-0.8 3.9,-0.3 z"
   id="path12925"
   style="fill:#373e48" />
		<path
   class="st0"
   d="m 153.7,211.1 c -1,-1.3 -0.2,-2.1 0.7,-3 0.7,-0.7 1.1,-1.8 1.8,-2.6 0.4,-0.4 1.1,-0.5 1.7,-0.8 0.1,0.3 0.4,0.6 0.4,0.8 -0.1,0.7 -0.1,1 0.7,1.2 0.9,0.2 1.2,0.9 1,1.8 0,0.1 0,0.2 0,0.2 0.3,1.2 -0.7,1.8 -1.8,2.1 -0.4,0.1 -0.7,0.2 -1,0.3 0.6,0.7 1.2,1.2 1.7,1.9 0.2,0.3 0,0.9 0.2,1.2 0.2,0.3 0.8,0.4 1.2,0.6 -1.1,3.3 -3.6,4.8 -6.7,5.4 0,0.5 0,1 0,1.5 0.1,1 -0.7,1.4 -1.3,1.9 -0.5,0.5 -1.2,0.9 -1.7,1.4 -0.4,0.3 -0.7,0.3 -1.1,-0.2 -0.5,-0.6 -1.1,-1.2 -1.7,-1.7 -0.7,-0.6 -0.7,-1.4 -0.8,-2.2 -0.1,-0.4 -0.1,-0.7 -0.6,-0.9 -0.7,-0.2 -0.9,-1 -0.6,-1.8 0.4,-0.9 0.9,-1.7 1.5,-2.5 0.3,-0.4 1,-0.8 1.5,-0.8 0.8,0 1.1,-0.4 1.1,-1 0.1,-0.9 0.8,-1.3 1.4,-1.6 0.7,-0.5 1.4,-0.8 2.4,-1.2 z"
   id="path12927"
   style="fill:#373e48" />
		<path
   class="st0"
   d="m 286.8,234.5 c 0.1,1.4 0,1.3 1.4,1.3 0.6,0 0.6,0.4 0.5,0.7 -0.1,0.5 -0.2,1 -0.5,1.3 -0.4,0.6 -1.1,0.6 -1.8,0.1 -1.6,-1.2 -3.3,-2.1 -5.2,-2.8 -0.7,-0.3 -1.3,-0.7 -1.9,-1.1 -0.6,-0.3 -1.2,-0.7 -1.7,-1.1 -0.5,-0.3 -0.9,-0.7 -1.3,-1.1 -0.1,-0.1 -0.1,-0.3 -0.2,-0.3 -1.5,-0.2 -1.8,-2.1 -3.2,-2.4 -0.3,-0.1 -0.6,-0.5 -0.7,-0.8 -0.2,-0.6 -0.6,-0.8 -1,-1.1 -0.9,-0.7 -1.1,-1.9 -1.3,-2.9 -0.1,-0.3 -0.1,-0.6 -0.1,-0.8 0,-0.2 0.1,-0.4 0.3,-0.5 1.3,-0.4 2.7,-0.8 4,-1.2 0.1,0 0.3,-0.1 0.5,0 1.2,0.5 1.8,-0.4 2.4,-1.2 0.2,-0.3 0.6,-0.4 0.9,-0.6 0.2,0.3 0.4,0.6 0.5,1 0.4,1.8 0.7,3.6 1,5.4 0.1,0.5 0.2,1.1 0.4,1.5 0.1,0.3 0.4,0.5 0.7,0.6 1,0.5 2,0.9 2.4,2.1 0.2,0.5 0.2,1.2 0.1,1.8 -0.2,1 0.4,1.8 1.5,1.9 0.7,-0.1 1.5,0.1 2.3,0.2 z"
   id="path12929"
   style="fill:#373e48" />
		<path
   class="st0"
   d="m 67,253.9 c 0.5,-0.7 0.9,-1.4 1.4,-1.8 0.9,-0.7 1.9,-0.4 2.9,0 0.2,0.1 0.3,0.4 0.5,0.6 0.2,0.3 0.4,0.8 0.6,0.9 0.8,0.2 1.7,0.2 2.1,-0.7 0.3,-0.7 0.5,-1.4 0.6,-2.1 0.1,-1 0.7,-1.9 1.7,-2.2 0.4,-0.1 0.9,-0.2 1.4,-0.3 0.4,-0.1 0.9,-0.1 1,0.5 0,0.1 0.4,0.1 0.6,0.1 1.2,-0.1 1.5,0.2 1.4,1.4 0,0.3 -0.1,0.6 -0.1,0.9 0,1.3 -0.8,1.8 -1.8,2.1 -0.2,0.1 -0.4,0.3 -0.6,0.4 -0.4,0.2 -0.8,0.6 -1.3,0.7 -1.2,0.4 -2.4,0.6 -3.5,1.1 -0.8,0.4 -1.5,0.3 -2.3,0 -1.3,-0.5 -2.6,-0.5 -3.8,0.5 -0.5,0.4 -1,0.8 -1.5,1.1 -0.9,0.5 -1.9,1 -2.8,1.5 -0.3,0.1 -0.6,0.1 -0.9,0.1 -0.3,-0.1 -0.5,-0.3 -0.1,-0.7 0.5,-0.3 0.9,-0.7 1.3,-1.1 0.4,-0.4 0.6,-0.9 0.8,-1.4 0.5,-1 1.3,-1.7 2.4,-1.6 z"
   id="path12931"
   style="fill:#373e48" />
		<path
   class="st0"
   d="m 67.7,152.6 c 0.2,-1.1 0.1,-2.4 1,-3.4 0.4,-0.4 0.7,-0.4 1,0.1 0.5,1 1.3,1.6 2.2,1.8 0.5,0.1 1.1,-0.2 1.7,-0.4 1.2,-0.4 1.9,-0.1 2.5,1.1 0.5,1 1,2 2,2.5 0.8,0.4 1.6,0.8 2.4,1 0.8,0.2 1.3,0.6 1.3,1.3 0,0.6 -0.1,1.3 -0.9,1.6 -0.4,0.1 -0.9,0.1 -1.3,0 -0.9,-0.3 -1.6,0 -2.1,0.6 -0.7,0.9 -1,0.9 -1.7,-0.1 -0.9,-1.3 -2,-2.5 -2.9,-3.7 -0.6,-0.8 -1.3,-0.7 -2.1,-0.7 -0.4,0 -0.8,0.1 -1.2,0.2 -1.1,0.2 -2,-0.6 -1.9,-1.9 z"
   id="path12933"
   style="fill:#373e48" />
		<path
   class="st0"
   d="m 88.4,193.7 c -1.7,-1.2 -3.4,-2.3 -4.9,-3.6 -0.6,-0.5 -1,-1.2 -1.5,-1.9 -0.3,-0.4 0.3,-1.2 0.8,-1.1 1.5,0.3 2.8,-0.3 4.1,-0.8 1.5,-0.6 2.9,0.1 4.2,0.7 0.3,0.1 0.5,0.9 0.4,1.3 0,0.8 -0.2,1.5 0.3,2.2 0.4,0.5 -0.1,1.4 -0.8,1.6 -0.3,0.1 -0.6,0.2 -0.8,0.3 -0.3,0.1 -0.7,0.2 -1,0.4 -0.4,0.2 -0.6,0.6 -0.8,0.9 z"
   id="path12935"
   style="fill:#373e48" />
		<path
   class="st0"
   d="m 181.7,184.2 c 0.8,0 1.5,1.1 1.2,1.8 -0.6,1.4 -1.3,2.7 -1.9,4.1 -0.4,0.8 -1.2,1.1 -2,1.3 -0.1,0 -0.5,-0.1 -0.5,-0.3 -0.1,-0.2 -0.1,-0.5 0,-0.7 0.6,-1.3 1.3,-2.5 1.9,-3.8 0.2,-0.5 0.3,-1 0.4,-1.5 0,-0.5 0.3,-0.8 0.9,-0.9 z"
   id="path12937"
   style="fill:#373e48" />
		<path
   class="st0"
   d="m 85.2,246.6 c 0.8,-0.1 1.1,0.6 1.3,1.1 0.1,0.2 -0.3,0.8 -0.6,0.9 -1,0.4 -2.1,0.6 -3.2,0.9 0,0 -0.1,0 -0.1,0 -0.5,-0.1 -1,-0.9 -0.9,-1.7 0.1,-0.5 0.3,-0.8 0.9,-0.9 0.9,0 1.7,-0.2 2.6,-0.3 z"
   id="path12939"
   style="fill:#373e48" />
		<path
   class="st0"
   d="m 118.6,238.8 c 0.7,0.3 0.4,0.9 0.2,1.3 -0.4,0.9 -1,1.8 -1.5,2.7 -0.2,0.3 -0.4,0.6 -0.6,0.9 -0.1,0.1 -0.3,0.2 -0.4,0.2 -0.1,0 -0.3,-0.3 -0.3,-0.4 0.1,-0.9 0.1,-1.9 0.3,-2.8 0.1,-0.5 0.7,-0.8 1.1,-1.2 0.3,-0.2 0.7,-0.4 1.2,-0.7 z"
   id="path12941"
   style="fill:#373e48" />
		<path
   class="st0"
   d="m 59.8,255.1 c 0.3,1.1 0.4,2.1 -0.3,2.9 -0.2,0.3 -0.7,0.6 -1,0.5 -0.5,-0.1 -1,-0.5 -1.5,-0.8 0.3,-0.4 0.6,-1.1 0.9,-1.1 0.8,0 1.1,-0.5 1.4,-1.1 0,0 0.2,-0.2 0.5,-0.4 z"
   id="path12943"
   style="fill:#373e48" />
		<path
   class="st0"
   d="m 275.8,213.1 c -0.9,-0.6 -1.7,-1.3 -1.8,-2.5 0,-0.3 0.1,-0.7 0.3,-0.9 0.1,-0.1 0.5,0 0.7,0.2 0.3,0.2 0.6,0.4 0.8,0.7 0.9,0.8 0.9,1.4 0,2.5 z"
   id="path12945"
   style="fill:#373e48" />
		<path
   class="st0"
   d="m 52.7,259.9 c -0.5,0 -1.1,0 -1.1,-0.7 0,-0.6 0.8,-1.6 1.5,-1.5 0.6,0.1 1.1,0.1 1,0.9 0,0.7 -0.6,1.3 -1.4,1.3 z"
   id="path12947"
   style="fill:#373e48" />
		<path
   class="st0"
   d="m 87,248.4 c 0.5,0 1,0 1.5,0.1 0.3,0.1 0.7,0.4 0.7,0.5 -0.1,0.3 -0.3,0.6 -0.6,0.8 -0.1,0.1 -0.5,0 -0.7,-0.1 -0.6,-0.2 -1.3,-0.3 -0.9,-1.3 z"
   id="path12949"
   style="fill:#373e48" />
	</g>
</g>
</svg>
