<?xml version="1.0" encoding="UTF-8" standalone="no"?>
<!-- Generator: Adobe Illustrator 27.2.0, SVG Export Plug-In . SVG Version: 6.00 Build 0)  -->

<svg
   version="1.1"
   id="Layer_1"
   x="0px"
   y="0px"
   viewBox="0 0 321.1 321.1"
   style="enable-background:new 0 0 321.1 321.1;"
   xml:space="preserve"
   sodipodi:docname="arizona.svg"
   inkscape:version="1.2.2 (732a01da63, 2022-12-09, custom)"
   xmlns:inkscape="http://www.inkscape.org/namespaces/inkscape"
   xmlns:sodipodi="http://sodipodi.sourceforge.net/DTD/sodipodi-0.dtd"
   xmlns="http://www.w3.org/2000/svg"
   xmlns:svg="http://www.w3.org/2000/svg"><defs
   id="defs12921" /><sodipodi:namedview
   id="namedview12919"
   pagecolor="#505050"
   bordercolor="#ffffff"
   borderopacity="1"
   inkscape:showpageshadow="0"
   inkscape:pageopacity="0"
   inkscape:pagecheckerboard="1"
   inkscape:deskcolor="#505050"
   showgrid="false"
   inkscape:zoom="1.3266895"
   inkscape:cx="38.44155"
   inkscape:cy="113.81714"
   inkscape:window-width="1920"
   inkscape:window-height="1031"
   inkscape:window-x="0"
   inkscape:window-y="25"
   inkscape:window-maximized="1"
   inkscape:current-layer="Layer_1" />
<style
   type="text/css"
   id="style12915">
	.st0{fill:#FE8E69;}
</style>
<path
   id="Arizona_2_"
   class="st0"
   d="M 255.6408,8.2702212 C 244.36489,8.0195623 233.34555,7.9626336 222.74452,7.6171767 214.45631,7.4056818 206.39303,7.1622695 198.58637,7.1125648 179.4722,6.587394 161.73932,6.0972755 146.03113,5.3225362 140.24905,4.988097 134.72358,4.8472064 129.4231,4.6743985 108.41438,3.7270784 91.774701,2.8540473 80.435574,2.1536356 80.298136,6.0728093 80.129099,9.7670193 79.928531,13.236218 c -0.912018,19.627366 -1.485916,31.866335 -1.422672,32.316244 0.316129,2.249593 -1.613654,3.208999 -3.36102,8.730811 -1.747366,5.52188 -5.501186,3.296618 -7.040601,2.136439 -1.539506,-1.160041 -2.495277,-4.696141 -3.264995,-5.276173 -0.769719,-0.580033 -7.578061,-1.687803 -9.184401,-1.691415 -1.606293,-0.0023 -7.58533,1.524831 -8.808661,2.614359 -1.191664,1.314495 2.05016,30.910564 2.816267,33.096936 0.54105,2.217993 3.815768,17.357071 1.720674,20.404351 -1.128443,1.7644 -1.905522,4.39703 -2.425945,7.22302 -0.390323,2.11949 -0.555702,4.20736 -0.622581,5.36372 0.154475,2.73115 3.198072,6.43263 5.313861,8.42929 2.115836,1.99666 4.691349,13.79301 7.190215,16.88284 1.95409,2.47821 5.771153,5.15339 7.500232,7.66322 0.544776,0.61164 0.864608,1.25487 0.959406,1.92979 0.892663,3.08612 -12.162322,8.13253 -14.833859,10.34324 0,0 0,0 0,0 -2.446595,2.17903 -3.838917,6.96275 -4.176968,14.35114 -0.337983,7.3884 -2.79555,14.38645 -4.152593,17.78877 -0.646911,1.92617 -1.933441,2.56579 -3.283192,2.75543 -1.093118,0.38317 -2.024627,0.28462 -2.86127,0.86088 -1.448229,1.12118 -1.540642,13.52187 -0.201954,18.15113 1.563859,4.59766 6.903209,1.78267 8.699189,3.13608 0.256588,0.19332 0.513199,0.38666 0.801364,0.805 1.152772,1.67317 1.082213,4.43591 1.011722,7.19866 -0.0068,3.21268 -6.088464,7.27897 -7.793281,8.20673 -0.868243,0.35139 -2.86127,0.86093 -4.885874,1.1455 -0.291868,1.18803 -1.96872,3.9471 -2.836894,4.29853 -1.093163,0.38317 -1.799706,0.25286 -1.673218,1.1528 0.126306,0.89979 -0.879192,5.17035 0.178782,6.1687 0.288074,0.41833 30.779214,13.33824 65.860633,27.90704 33.636833,14.08363 71.382473,29.6544 90.770313,37.02333 7.02965,2.68247 11.62003,4.33135 12.80808,4.62322 2.11942,0.39032 13.36375,0.41572 28.75213,0.54709 19.30756,0.26863 44.97718,0.10223 66.30936,0.0863 l -0.12153,-59.62746 0.0438,-19.27594 0.0863,-23.86999 -0.0254,-31.19509 0.0986,-43.37086 0.079,-20.65726 0.0645,-56.671441 0.0645,-56.6713285 c -15.32516,0.3185145 -29.10724,0.1908225 -42.4394,0 z"
   style="fill:#373e48;stroke-width:2.2717" />
</svg>
