<?xml version="1.0" encoding="UTF-8" standalone="no"?>
<!-- Generator: Adobe Illustrator 27.2.0, SVG Export Plug-In . SVG Version: 6.00 Build 0)  -->

<svg
   version="1.1"
   id="Layer_1"
   x="0px"
   y="0px"
   viewBox="0 0 321.1 321.1"
   style="enable-background:new 0 0 321.1 321.1;"
   xml:space="preserve"
   sodipodi:docname="arkansas.svg"
   inkscape:version="1.2.2 (732a01da63, 2022-12-09, custom)"
   xmlns:inkscape="http://www.inkscape.org/namespaces/inkscape"
   xmlns:sodipodi="http://sodipodi.sourceforge.net/DTD/sodipodi-0.dtd"
   xmlns="http://www.w3.org/2000/svg"
   xmlns:svg="http://www.w3.org/2000/svg"><defs
   id="defs12913" /><sodipodi:namedview
   id="namedview12911"
   pagecolor="#505050"
   bordercolor="#ffffff"
   borderopacity="1"
   inkscape:showpageshadow="0"
   inkscape:pageopacity="0"
   inkscape:pagecheckerboard="1"
   inkscape:deskcolor="#505050"
   showgrid="false"
   inkscape:zoom="2.653379"
   inkscape:cx="102.13392"
   inkscape:cy="160.55"
   inkscape:window-width="1920"
   inkscape:window-height="1031"
   inkscape:window-x="0"
   inkscape:window-y="25"
   inkscape:window-maximized="1"
   inkscape:current-layer="Layer_1" />
<style
   type="text/css"
   id="style12907">
	.st0{fill:#FE8E69;}
</style>
<path
   id="Arkansas_00000135691212212841100100000000015972774292775330_"
   class="st0"
   d="m 318.14586,57.671695 c -1.61333,-0.711608 -4.20835,-1.457498 -3.77827,-4.391191 l -17.37777,0.376061 -20.32288,0.273216 -4.26549,0.17868 -1.30895,-0.04571 c 0,0 7.63342,-12.183549 9.03379,-14.755723 0.33866,-0.315808 0.3501,-0.643044 0.68875,-0.958852 1.70474,-1.906278 4.02967,-2.807992 7.06621,-5.323032 3.37519,-2.830845 3.19652,-7.096334 2.94927,-9.39841 -0.24724,-2.302076 -3.68685,-7.009073 -5.57027,-9.368287 -0.936,-1.343225 -2.88799,-1.739023 -4.85139,-1.807587 -1.30894,-0.04571 -2.61789,-0.09141 -2.61789,-0.09141 -5.25863,0.471634 -12.16485,1.213366 -20.04136,1.593581 -4.26549,0.178681 -8.8582,0.345934 -13.77816,0.501761 -6.55615,0.09869 -13.77819,0.501759 -21.31602,0.566167 -5.57444,0.132968 -11.14887,0.265945 -17.05052,0.387482 -1.30895,-0.04571 -2.29067,-0.07999 -3.61103,0.201536 -4.59273,0.167249 -9.17402,0.0073 -13.76675,0.174518 -9.50124,-0.0042 -19.32975,-0.01974 -29.15823,-0.03532 -0.32725,-0.01141 -0.65448,-0.02286 -0.98173,-0.03428 -7.86507,0.05298 -15.73014,0.10596 -23.5838,-0.168296 -5.23577,-0.182834 -10.8102,-0.04987 -16.04596,-0.232706 -1.63619,-0.05713 -3.27236,-0.114268 -4.90853,-0.171412 -9.17403,0.0073 -18.336626,-0.312665 -26.856171,-0.282568 -0.65447,-0.02286 -1.636175,-0.05713 -2.290656,-0.07999 -5.563,-0.194257 -11.13743,-0.06129 -16.373197,-0.244129 -5.89024,-0.205699 -11.791907,-0.08415 -17.027675,-0.266992 -4.581299,-0.159979 -9.174022,0.0073 -13.100847,-0.129861 C 22.181602,13.917668 9.7466511,13.483429 2.2088079,13.547838 l -0.045713,1.308943 3.3284494,26.654631 0.79887,5.270051 0.327235,0.01141 3.328451,26.654631 c 0,0 0,0 -0.327238,-0.01141 l 1.3162137,9.219731 1.810701,13.823873 0.517343,3.949682 -0.137123,3.92683 -1.23415,35.34144 0.327229,0.0117 -0.514229,14.72559 -0.327229,-0.0117 -0.651357,18.65242 -0.8456227,24.21543 -0.697066,19.96137 -0.822765,23.56096 -0.102846,2.94512 c 0,0 6.0346377,5.45288 8.0094787,5.19421 1.97484,-0.25868 5.361468,-3.41675 7.336308,-3.67542 1.97484,-0.25867 11.791906,0.0841 12.682194,2.7363 0,0 -0.01141,0.32724 -0.01141,0.32724 0.258671,1.97484 0.288797,10.49437 0.216075,21.95905 0.110127,6.2289 -0.129861,13.10085 -0.04259,19.98422 l 13.100847,0.12986 20.638696,0.0655 1.963409,0.0686 16.700448,0.2556 15.718723,0.22127 18.34805,-0.0145 42.25909,0.16519 40.29568,0.0966 1.9634,0.0686 10.48297,0.0385 7.53785,-0.0644 c 0.67732,-0.63161 1.0274,-1.27466 1.70473,-1.90626 0.70019,-1.28609 1.40037,-2.57218 1.78473,-4.19694 0.82587,-4.88567 2.00185,-10.4144 1.0887,-12.41208 -0.91314,-1.99771 -6.39198,-13.98385 -6.3577,-14.96557 0.0229,-0.65446 3.90396,0.79161 4.28834,-0.83316 0.37294,-1.29751 -4.73713,-5.07992 -6.62055,-7.43915 -0.63161,-0.67731 -0.93599,-1.34322 -0.92457,-1.67046 0.38438,-1.62475 5.31577,-2.1078 6.02738,-3.72112 0.38437,-1.62475 -4.88568,-0.82589 -2.0164,-7.93365 2.86928,-7.10777 3.93514,-18.8654 5.62846,-20.44443 1.70474,-1.90627 9.27685,-2.95239 10.99302,-5.1859 1.71618,-2.23351 2.0777,-3.20379 0.17139,-4.90853 -0.94742,-1.016 -1.90626,-1.70476 -2.21065,-2.37065 -0.30438,-0.6659 -0.2701,-1.64759 0.43009,-2.93368 1.73902,-2.88799 9.09091,-16.39192 10.7728,-17.64372 1.35464,-1.26323 8.49669,0.62436 10.59724,-3.2339 1.05026,-1.92915 1.16454,-5.20149 0.96301,-8.81251 -0.21298,-3.28378 -0.4145,-6.89481 -0.0187,-8.84679 0.0117,-0.32723 0.0229,-0.65446 0.0342,-0.98171 0.78017,-3.57674 8.97664,-13.11954 9.67682,-14.40563 0.0117,-0.32724 0.33867,-0.31582 0.67733,-0.63163 1.68188,-1.2518 6.29747,-2.07352 6.64755,-2.71656 0,0 0.0117,-0.32723 0.0342,-0.98171 -0.25868,-1.97483 -1.06897,-6.91765 -1.29336,-9.8742 0.0342,-0.98171 0.0572,-1.63619 0.0686,-1.96342 0.74588,-2.59501 3.93824,-0.1901 5.28147,-1.12609 1.34323,-0.936 1.79616,-4.52417 2.835,-6.12607 1.03885,-1.60188 2.92225,0.75732 5.22435,0.51009 2.30206,-0.24725 3.35234,-2.17638 3.39804,-3.48533 -0.28152,-1.32037 -3.20378,-2.07768 -3.15807,-3.38663 0.0457,-1.30893 2.77786,-4.48988 0.8373,-5.21291 -1.92913,-1.05028 -6.80337,-2.20338 -5.1215,-3.45519 2.00913,-1.2404 4.29979,-1.1604 3.72531,-3.4739 -0.28154,-1.32036 -1.16041,-4.29976 -1.41907,-6.274601 -0.28154,-1.32037 -0.24725,-2.302077 0.10281,-2.94512 0.70018,-1.286088 2.43506,5.327181 4.07123,5.384321 0.65447,0.0229 1.3318,-0.60877 1.69332,-1.57904 0.71159,-1.613326 0.78016,-3.576735 0.48721,-4.569868 -0.28152,-1.320371 -1.16039,-4.299772 0.19422,-5.563005 1.34323,-0.935998 2.54933,2.054831 3.5196,2.416349 0.97029,0.361516 4.20835,1.457496 3.00226,-1.533332 -0.29294,-0.993134 -0.92457,-1.67046 -1.22894,-2.336358 -0.92458,-1.670459 -1.872,-2.686447 -1.53334,-3.002255 0.3501,-0.643044 3.62244,-0.528771 4.68414,-2.785139 1.37751,-1.917703 1.44606,-3.881115 0.80304,-4.231206 -0.64306,-0.35009 -2.41637,3.519599 -3.66816,1.837713 -1.24038,-2.009123 -2.10781,-5.31576 -0.76459,-6.251757 1.34322,-0.935999 1.60189,1.038843 4.27691,-0.505916 2.67503,-1.54476 3.35235,-2.176376 4.70699,-3.43961 1.01599,-0.947423 1.30895,0.04571 3.30666,-0.867432 1.99769,-0.913141 3.43232,-4.467024 1.48034,-4.862823 -1.95198,-0.3958 -3.55387,-1.434642 -3.51959,-2.41635 0.3615,-0.970278 1.38894,-2.244938 3.97253,-1.171813 2.25637,1.061698 4.26549,-0.178681 4.29977,-1.160388 0.0229,-0.65447 -0.29296,-0.993133 -0.94742,-1.015988 z"
   style="fill:#373e48;stroke-width:3.27436" />
</svg>
