<?xml version="1.0" encoding="UTF-8" standalone="no"?>
<!-- Generator: Adobe Illustrator 27.2.0, SVG Export Plug-In . SVG Version: 6.00 Build 0)  -->

<svg
   version="1.1"
   id="Layer_1"
   x="0px"
   y="0px"
   viewBox="0 0 321.1 321.1"
   style="enable-background:new 0 0 321.1 321.1;"
   xml:space="preserve"
   sodipodi:docname="california.svg"
   inkscape:version="1.2.2 (732a01da63, 2022-12-09, custom)"
   xmlns:inkscape="http://www.inkscape.org/namespaces/inkscape"
   xmlns:sodipodi="http://sodipodi.sourceforge.net/DTD/sodipodi-0.dtd"
   xmlns="http://www.w3.org/2000/svg"
   xmlns:svg="http://www.w3.org/2000/svg"><defs
   id="defs12905" /><sodipodi:namedview
   id="namedview12903"
   pagecolor="#505050"
   bordercolor="#ffffff"
   borderopacity="1"
   inkscape:showpageshadow="0"
   inkscape:pageopacity="0"
   inkscape:pagecheckerboard="1"
   inkscape:deskcolor="#505050"
   showgrid="false"
   inkscape:zoom="1.8762223"
   inkscape:cx="90.074616"
   inkscape:cy="165.75861"
   inkscape:window-width="1920"
   inkscape:window-height="1031"
   inkscape:window-x="0"
   inkscape:window-y="25"
   inkscape:window-maximized="1"
   inkscape:current-layer="Layer_1" />
<style
   type="text/css"
   id="style12898">
	.st0{fill:#FE8E69;}
</style>
<path
   class="st0"
   d="m 295.61571,254.83751 c -1.23552,-1.40313 -3.75477,-2.75538 -5.125,-4.12294 -1.74653,-1.70054 -4.17204,-8.69871 -5.60582,-9.7612 -1.4338,-1.06251 -3.55654,-3.09604 -3.84896,-4.74835 -0.17799,-0.67365 -0.0942,-1.99297 -0.0105,-3.31232 -6.39613,-5.66081 -16.76067,-14.88537 -29.17673,-25.87403 -2.25746,-1.99794 -4.68527,-4.09501 -6.9783,-6.22767 -10.94669,-9.79142 -23.19245,-20.68093 -35.26786,-31.4713 -6.0199,-5.32784 -12.07541,-10.79039 -17.92502,-16.01908 -5.09708,-4.56273 -10.02387,-9.0263 -14.87944,-13.22045 -7.01391,-6.36239 -13.616,-12.25706 -19.46557,-17.48575 -2.08714,-1.8988 -4.00396,-3.69849 -5.88519,-5.36342 -2.29306,-2.13268 -4.38021,-4.03148 -6.29702,-5.83115 -2.66931,-2.46565 -4.96237,-4.59832 -6.84359,-6.26325 -2.70491,-2.6004 -4.24549,-4.06708 -4.45139,-4.30093 -0.0357,-0.13473 -0.0712,-0.26948 -0.14239,-0.53891 -0.0712,-0.26947 -0.0789,-0.843961 -0.0866,-1.41845 -0.007,-0.574535 -0.051,-1.283759 -0.0942,-1.993004 -0.051,-1.283735 -0.13745,-2.702181 -0.1604,-4.425716 -0.0866,-1.418459 -0.0383,-2.872525 -0.0257,-4.461314 -0.0383,-2.872547 -0.0487,-6.184848 -0.13018,-9.766613 -0.15588,-14.227925 -0.20272,-32.952769 -0.11211,-48.975411 0.0171,-11.39099 -0.0139,-21.3279226 0.0721,-27.5483615 -7.46858,0.099559 -14.7033,-0.00674 -21.63298,-0.049619 -4.9011,-0.00229 -9.53274,-0.075721 -14.164385,-0.1491859 C 90.009205,1.4383237 83.178675,1.2251762 76.688795,1.210288 67.999992,1.0557174 60.119578,0.68756036 53.289045,0.47441296 50.820696,0.40591446 48.487081,0.30182166 46.28818,0.16213466 c -2.908126,-0.0964282 -5.546796,-0.26406312 -7.880425,-0.36815359 -3.787686,-0.15230909 -7.13558,-0.27668512 -9.774261,-0.4443098 0.205921,0.23385929 0.241518,0.36858551 0.241518,0.36858551 0.106793,0.40418208 -0.06849,2.46834922 0.223931,4.12067532 0.256835,1.5175976 0.38661,3.6452966 0.806109,4.6875189 0.383904,0.9074958 0.625411,1.2760828 0.767796,1.814992 0.142387,0.538911 1.439189,6.538108 1.418897,7.552395 0,0 0,0 0.0356,0.13473 -0.127059,0.610099 -2.157457,13.109547 -2.050668,13.513729 0.106792,0.404181 0.51862,0.871901 0.391562,1.482001 -0.127081,0.610105 -1.448673,5.42739 -2.971243,7.847523 -1.558153,2.285404 -5.416597,9.502544 -5.500412,10.82188 -0.08381,1.319336 0.623153,6.177182 1.106189,6.914352 0.483034,0.737174 7.100426,7.780859 8.165626,9.084879 0.0356,0.134728 0.0356,0.134728 0.170323,0.09912 0.31271,0.638039 3.643028,4.5145 3.785414,5.05341 0.142388,0.53891 2.504384,7.842129 2.222305,9.502113 -0.282078,1.659984 -2.335883,4.79701 -1.873129,6.548464 0.462756,1.751464 1.53874,14.006691 2.881054,15.814031 0.447437,0.60246 2.059202,2.33857 3.912486,4.4433 4.047219,4.40772 9.805327,10.38126 10.118035,11.01928 0.348319,0.77277 2.514307,3.51554 3.587166,5.39406 0.312709,0.63804 0.554228,1.00662 0.62542,1.27608 0.114441,0.97869 0.269881,7.56771 0.646136,7.90072 0.376233,0.33298 10.440663,7.33071 11.015163,7.32306 0.574524,-0.007 1.276102,-0.62543 1.47434,-0.96607 0.198261,-0.34065 0.793058,-1.3626 0.282085,-1.65998 -0.510984,-0.29741 -1.703251,-0.99132 -1.441428,-1.63701 0.261778,-0.64571 -0.06891,-5.17056 0.533509,-5.618 0,0 0,0 0,0 0.638027,-0.3127 1.87852,-1.07285 2.318274,-1.04491 0.134746,-0.0357 0.305078,0.0635 0.475398,0.16266 1.021946,0.59478 2.903151,2.25973 3.009956,2.6639 0,0 0.03565,0.13473 0.03565,0.13473 0.0068,0.57451 -0.658323,1.32701 -1.969989,1.81769 -1.410823,0.66101 -2.524238,0.81105 -2.112401,1.27878 0.411848,0.46772 1.718552,2.14032 2.193951,2.303 0,0 0,0 0.134699,-0.0357 0.43979,0.0279 0.610111,0.12706 0.483055,0.73719 -0.127077,0.61008 -0.119409,1.18458 0.157682,1.6879 0.277101,0.50332 2.890546,3.84853 3.139718,4.79161 0.177978,0.67363 1.372942,4.10535 1.594184,5.48822 0.07119,0.26947 0.0068,0.57452 0.0068,0.57452 -0.368594,0.24152 -1.759121,-0.11178 -2.270094,-0.40915 -0.510974,-0.29739 -4.222507,-2.34354 -4.400473,-3.01717 -0.177988,-0.67365 -0.684002,-3.13434 -0.584876,-3.30465 0,0 0.09908,-0.17033 0.09908,-0.17033 0.09908,-0.17033 0.503317,-0.27712 0.566845,-0.58219 0.198262,-0.34063 -0.236568,-2.53187 -0.783115,-2.96397 -0.546583,-0.43215 -2.971661,0.2086 -3.098728,0.81871 -0.127066,0.6101 0.15767,1.68791 0.406877,2.63102 0,0 0.03565,0.13472 0.03565,0.13472 0.185657,1.24812 -0.15727,5.95096 -0.04285,6.92965 0.249172,0.9431 1.818135,9.60893 2.336764,10.48082 0.277114,0.50334 1.164326,1.13369 1.710908,1.56581 0.376227,0.333 0.752477,0.66598 0.958406,0.89983 0.348299,0.77277 1.939785,3.52322 2.791411,4.01885 0.986336,0.46006 2.364259,2.40212 4.484285,1.69785 2.29038,-0.60516 1.97766,-1.24318 2.48864,-0.94579 0.51095,0.2974 1.73883,1.12605 2.54222,3.07576 0.10685,0.40417 0.38391,0.90749 0.49071,1.31166 0.49069,1.3117 0.81105,2.52424 0.0536,4.02157 -0.78541,1.93709 -0.50063,3.01491 -1.43605,3.83859 -0.93545,0.82368 -2.72249,1.15171 -2.71483,1.72621 -0.028,0.43979 1.2639,8.60228 1.74693,9.33944 0.48302,0.73719 1.3779,1.94206 1.85328,2.10474 0.47537,0.16267 1.45406,0.0481 2.27775,0.98365 0.82367,0.93542 5.52424,6.17946 5.83696,6.81749 0.44744,0.60243 0.71959,3.26905 1.20262,4.00622 0.44743,0.60245 2.49899,2.36651 2.98201,3.10369 0.20593,0.23386 0.27711,0.5033 0.34831,0.77276 0.34833,0.77278 0.42715,1.61674 0.81107,2.52422 0.62541,1.2761 2.669325,2.46567 3.734515,3.76968 1.06518,1.30401 7.14863,6.3268 8.01556,7.97147 0.86694,1.64466 3.58718,5.39406 3.82869,5.76264 0.27711,0.50332 2.24213,0.84892 2.42012,1.52255 0.17799,0.67365 0.28019,3.2411 -0.0658,5.20617 -0.0991,0.17032 -0.0279,0.43979 -0.0559,0.87955 -0.15997,3.21318 0.49381,11.68838 0.94892,12.86534 0.49071,1.31168 3.80567,4.03913 4.41578,4.16618 0.61013,0.12708 11.3757,-1.13185 12.56795,-0.43792 1.05755,0.72949 3.06584,1.78435 3.81067,1.87581 0.61009,0.12707 3.78768,0.15232 5.40441,-0.27486 1.75147,-0.46274 3.75209,0.0177 4.50458,0.68357 0.17033,0.0991 0.34066,0.19827 0.58217,0.56686 1.77443,1.26076 6.41643,4.64652 7.92907,6.55298 1.61943,2.31067 5.49362,3.88143 6.78503,4.40502 0.17031,0.0991 0.30504,0.0635 0.61009,0.12708 1.69558,0.4168 4.6749,0.7827 6.79495,0.0786 2.42508,-0.64073 4.48926,-0.46551 5.39178,1.31394 1.03726,1.7438 2.52195,4.09004 2.50935,5.67883 -0.0125,1.58879 -1.23284,1.33465 -1.01925,2.143 0.21357,0.80838 3.74713,2.18091 5.12999,1.95966 1.38288,-0.22128 2.82163,-1.32203 3.43172,-1.19497 0,0 0.17034,0.0991 0.51098,0.29741 2.42015,1.52255 12.52014,8.65502 12.932,9.12274 0.41183,0.46771 0.99399,1.03454 1.30672,1.67258 0.0357,0.13473 0.0712,0.26947 0.20592,0.23386 0.27712,0.50332 1.2202,0.25415 1.80236,0.821 0.58217,0.56684 5.61572,5.43461 6.84629,9.00106 1.23055,3.56645 2.48679,11.59423 3.18341,13.13976 0.59748,1.71586 2.29576,4.87046 2.672,5.20344 0.17032,0.0991 13.53133,-1.7014 28.37431,-3.89348 18.31796,-2.67785 38.72804,-5.62016 38.86277,-5.65576 0,0 0.0357,0.13472 -0.0635,0.30504 1.07781,-0.28476 2.3895,-0.77546 2.89281,-1.05257 0.87191,-0.51863 4.37978,-3.60745 4.15088,-5.56482 -0.29242,-1.65232 -0.45014,-3.34025 -1.13909,-4.31129 -0.17032,-0.0991 -0.37625,-0.33298 -0.54657,-0.4321 -1.15665,-0.5592 -4.24007,1.40855 -5.52652,-1.27836 -1.28643,-2.68687 -1.9961,-10.28254 -1.19539,-11.07062 0.33298,-0.37625 1.00663,-0.55423 1.68024,-0.73221 0.77278,-0.3483 1.50995,-0.83133 1.7997,-1.91682 0.57947,-2.17095 1.56808,-6.61199 1.23734,-11.13684 -0.33076,-4.52486 0.1699,-7.53977 1.50187,-9.04476 0,0 0,0 0,0 1.33195,-1.50497 8.88164,-5.66168 8.28416,-7.37755 -0.58215,-0.56685 -0.9584,-0.89982 -1.19993,-1.26842 z"
   id="path12900"
   style="stroke-width:1.39351;fill:#373e48" />
</svg>
