<?xml version="1.0" encoding="UTF-8" standalone="no"?>
<!-- Generator: Adobe Illustrator 27.2.0, SVG Export Plug-In . SVG Version: 6.00 Build 0)  -->

<svg
   version="1.1"
   id="Layer_1"
   x="0px"
   y="0px"
   viewBox="0 0 321.1 321.1"
   style="enable-background:new 0 0 321.1 321.1;"
   xml:space="preserve"
   sodipodi:docname="colorado.svg"
   inkscape:version="1.2.2 (732a01da63, 2022-12-09, custom)"
   xmlns:inkscape="http://www.inkscape.org/namespaces/inkscape"
   xmlns:sodipodi="http://sodipodi.sourceforge.net/DTD/sodipodi-0.dtd"
   xmlns="http://www.w3.org/2000/svg"
   xmlns:svg="http://www.w3.org/2000/svg"><defs
   id="defs8" /><sodipodi:namedview
   id="namedview6"
   pagecolor="#505050"
   bordercolor="#ffffff"
   borderopacity="1"
   inkscape:showpageshadow="0"
   inkscape:pageopacity="0"
   inkscape:pagecheckerboard="1"
   inkscape:deskcolor="#505050"
   showgrid="false"
   inkscape:zoom="2.653379"
   inkscape:cx="102.13392"
   inkscape:cy="160.55"
   inkscape:window-width="1920"
   inkscape:window-height="1031"
   inkscape:window-x="0"
   inkscape:window-y="25"
   inkscape:window-maximized="1"
   inkscape:current-layer="Layer_1" />
<style
   type="text/css"
   id="style2">
	.st0{fill:#FE8E69;}
</style>
<path
   id="Colorado_2_"
   class="st0"
   d="m 309.8942,16.195498 c -2.6491,0.0367 -11.28706,0.462768 -23.79193,0.812346 -0.71566,0.07508 -1.43131,0.150394 -2.17201,-0.01199 -8.90157,0.21204 -19.23443,0.574428 -30.76005,1.062334 -2.64913,0.0367 -5.53681,0.09906 -8.39939,0.400428 -6.72955,0.224993 -13.69765,0.474931 -20.90429,0.750032 -12.98198,0.399804 -26.17745,1.063052 -39.15943,1.462761 -3.12622,0.08755 -6.0139,0.149675 -8.87648,0.450608 -1.43132,0.150395 -2.64915,0.0367 -4.31899,0.21276 -10.5714,0.387476 -24.55774,0.409447 -40.23899,0.370326 -1.69493,-0.06308 -3.62837,-0.10098 -5.3233,-0.16407 C 118.21543,21.389196 110.243,21.262378 101.79346,21.185672 95.277391,21.147055 88.736253,20.869744 82.220206,20.831057 73.507031,20.540919 64.818969,20.489324 56.105792,20.199209 39.897301,19.732099 23.927353,19.23997 8.67304,18.672571 L 8.0798806,38.270916 7.1843967,64.171851 6.0868995,97.329577 5.79676,106.04273 5.4063335,113.80168 3.6784258,163.90863 v 0 l -0.7063512,20.81616 v 0 l -0.567398,15.25429 -0.7192319,22.9882 -1.00867576,27.11874 c 9.69244406,0.4284 19.35979906,0.61825 29.29076506,1.02156 13.797955,0.47927 27.834408,0.93345 42.084362,1.12403 1.217814,0.11297 2.649128,-0.0367 3.866951,0.0755 13.534298,0.26574 27.545703,0.4814 41.557113,0.69707 6.99316,-0.012 14.0114,0.21567 21.24312,0.17919 4.10549,0.0507 8.21097,0.10171 12.31648,0.15257 7.7088,-0.0866 15.44271,0.0652 23.15152,-0.0216 1.45635,0.088 2.64913,-0.0367 4.10549,0.0508 17.58965,-0.16048 34.91569,-0.53437 52.48028,-0.93284 1.19275,-0.12544 2.17201,0.012 3.36476,-0.11248 12.98199,-0.39982 25.72543,-0.77439 38.23029,-1.12396 0.71567,-0.0753 1.19276,-0.12546 1.93349,0.0377 15.60604,-0.67553 30.97353,-1.32599 46.10246,-1.95134 l -0.82525,-21.61995 -0.65044,-15.36748 -0.1499,-6.01389 -1.20061,-29.78076 -0.91335,-20.16355 -0.28795,-5.03464 -0.96349,-20.64064 -0.23795,-4.55754 -1.20133,-25.19816 -1.16334,-27.131649 c 0,0 0,0 0,0 v 0 c 0,0 0,0 0,0 0,0 0,0 0,0 0,0 0,0 0,0 l -0.63756,-17.539496 -0.12472,-5.775348 -0.55018,-14.413278 -0.11249,-3.364787 -0.52507,-14.174733 -0.17557,-1.669861 c -0.0753,-0.715657 -0.3138,-0.690567 -0.79089,-0.640412 z"
   style="stroke-width:2.39864;fill:#373e48" />
</svg>
