<?xml version="1.0" encoding="UTF-8" standalone="no"?>
<!-- Generator: Adobe Illustrator 27.2.0, SVG Export Plug-In . SVG Version: 6.00 Build 0)  -->

<svg
   version="1.1"
   id="Layer_1"
   x="0px"
   y="0px"
   viewBox="0 0 321.1 321.1"
   style="enable-background:new 0 0 321.1 321.1;"
   xml:space="preserve"
   sodipodi:docname="connecticut.svg"
   inkscape:version="1.2.2 (732a01da63, 2022-12-09, custom)"
   xmlns:inkscape="http://www.inkscape.org/namespaces/inkscape"
   xmlns:sodipodi="http://sodipodi.sourceforge.net/DTD/sodipodi-0.dtd"
   xmlns="http://www.w3.org/2000/svg"
   xmlns:svg="http://www.w3.org/2000/svg"><defs
   id="defs196" /><sodipodi:namedview
   id="namedview194"
   pagecolor="#505050"
   bordercolor="#ffffff"
   borderopacity="1"
   inkscape:showpageshadow="0"
   inkscape:pageopacity="0"
   inkscape:pagecheckerboard="1"
   inkscape:deskcolor="#505050"
   showgrid="false"
   inkscape:zoom="1.8762223"
   inkscape:cx="71.953096"
   inkscape:cy="171.08847"
   inkscape:window-width="1920"
   inkscape:window-height="1031"
   inkscape:window-x="0"
   inkscape:window-y="25"
   inkscape:window-maximized="1"
   inkscape:current-layer="Layer_1" />
<style
   type="text/css"
   id="style189">
	.st0{fill:#FE8E69;}
</style>
<path
   class="st0"
   d="m 279.98817,169.1503 c 0.15402,-0.69471 -0.70129,-13.27454 -1.48123,-29.48184 -0.23265,-2.23807 -0.46533,-4.47618 -0.69799,-6.71424 -0.46532,-4.47619 -0.77665,-9.64706 -1.24196,-14.12324 -1.39929,-19.988786 -2.79856,-39.977571 -3.18854,-48.081221 -0.23268,-2.238089 0.0754,-3.62748 0.0754,-3.62748 l -37.12344,-0.212874 -5.17086,0.311326 -50.24396,-0.206288 -29.1738,0.09186 -2.00214,9.030994 -4.47617,0.465332 -2.16604,-9.955073 -22.61354,0.08856 -5.86557,0.157312 -55.414819,0.105036 c -0.07537,3.627476 -0.458724,8.644328 -0.455443,15.204593 -0.380061,11.577124 -1.376178,25.933003 -1.831618,41.137603 -0.380081,11.57711 -1.454842,23.00021 -1.680913,33.88265 -0.226068,10.88239 -0.992815,20.91614 -1.143519,28.17109 -0.304734,7.94962 -0.534092,12.27182 -0.534092,12.27182 l 10.502338,11.80317 -31.323338,22.93805 9.19491,20.98821 c 0.848715,-0.54068 1.002728,-1.23538 1.002728,-1.23538 2.005408,-2.47075 -0.07868,-2.93277 6.402932,-5.86885 7.176294,-2.78208 44.597865,-23.63936 51.620124,-25.72673 5.32491,-1.00602 7.40899,-0.54398 9.49305,-0.082 0.6947,0.15402 1.54341,-0.38668 2.23809,-0.23267 3.93551,-1.31403 -1.16002,-4.6302 4.62691,-7.72026 5.78689,-3.09009 17.66545,-17.21993 19.44149,-15.3685 1.77607,1.85143 0.54399,7.40897 6.56356,6.55696 6.01957,-0.852 22.99693,-5.10542 33.57132,-3.48996 3.47347,0.77004 6.40626,0.6914 8.49034,1.15343 5.01685,0.38336 8.79833,-0.23595 12.73384,-1.55002 6.3276,-2.24136 6.17357,-1.54668 10.64974,-2.012 0,0 0.69471,0.15401 0.69471,0.15401 4.47618,-0.46532 11.4231,1.07476 13.42852,-1.39599 2.70012,-2.31674 2.0808,-6.09821 4.62691,-7.72027 2.3921,-0.92736 1.38936,0.30802 4.55481,2.46745 3.16546,2.15943 5.24952,2.62146 7.40897,-0.54398 2.15944,-3.16545 1.46474,-3.31947 7.02227,-2.08739 5.55755,1.23208 7.40898,-0.54398 10.80376,-2.7067 3.39483,-2.16274 12.34718,-3.09339 11.03645,-0.46865 -0.46203,2.08407 -1.77274,4.70886 1.70071,5.4789 0.84541,-7.10095 2.61487,-18.37005 3.0769,-20.45413 1.31074,-2.62475 6.71426,-0.698 6.86826,-1.39268 z"
   id="path191"
   style="fill:#373e48;stroke-width:7.1156" />
</svg>
