<?xml version="1.0" encoding="UTF-8" standalone="no"?>
<!-- Generator: Adobe Illustrator 27.2.0, SVG Export Plug-In . SVG Version: 6.00 Build 0)  -->

<svg
   version="1.1"
   id="Layer_1"
   x="0px"
   y="0px"
   viewBox="0 0 321.1 321.1"
   style="enable-background:new 0 0 321.1 321.1;"
   xml:space="preserve"
   sodipodi:docname="delaware.svg"
   inkscape:version="1.2.2 (732a01da63, 2022-12-09, custom)"
   xmlns:inkscape="http://www.inkscape.org/namespaces/inkscape"
   xmlns:sodipodi="http://sodipodi.sourceforge.net/DTD/sodipodi-0.dtd"
   xmlns="http://www.w3.org/2000/svg"
   xmlns:svg="http://www.w3.org/2000/svg"><defs
   id="defs225" /><sodipodi:namedview
   id="namedview223"
   pagecolor="#505050"
   bordercolor="#ffffff"
   borderopacity="1"
   inkscape:showpageshadow="0"
   inkscape:pageopacity="0"
   inkscape:pagecheckerboard="1"
   inkscape:deskcolor="#505050"
   showgrid="false"
   inkscape:zoom="2.653379"
   inkscape:cx="102.13392"
   inkscape:cy="160.55"
   inkscape:window-width="1920"
   inkscape:window-height="1031"
   inkscape:window-x="0"
   inkscape:window-y="25"
   inkscape:window-maximized="1"
   inkscape:current-layer="Layer_1" />
<style
   type="text/css"
   id="style219">
	.st0{fill:#FE8E69;}
</style>
<path
   id="Delaware_2_"
   class="st0"
   d="m 184.9979,192.44618 c -0.33442,-2.44093 -1.22107,-0.77597 -1.88634,0.001 -0.66526,0.77714 -3.32874,0.11306 -4.99371,-0.77357 -1.55429,-1.33054 -12.10229,-11.9761 -11.77145,-15.19417 0.11063,-0.44392 0.33203,-1.33174 0.10951,-2.33024 0.22016,-2.77416 0.32967,-5.1044 -1.00327,-7.32277 -2.22076,-2.43973 -6.43853,-4.43437 -6.33023,-8.65093 0.10829,-4.21658 1.88036,-9.43286 1.43406,-13.3162 -0.33562,-4.32725 0.32727,-8.87706 -4.8902,-12.53546 -1.55429,-1.33056 -3.44182,-3.21569 -4.88543,-4.99014 -3.55369,-4.65811 -6.33143,-10.53727 -5.88871,-12.31292 0.66409,-2.66348 -0.11306,-3.32875 1.21748,-4.88304 1.33055,-1.55429 1.77208,-5.21627 0.99493,-5.88155 -0.77714,-0.66527 -4.88423,-3.10381 -3.443,-5.102011 0.9973,-2.108885 3.32516,-5.772065 4.32486,-4.108284 0.33324,0.554589 0.33324,0.554589 0.22255,0.998508 0.44272,-1.77565 1.32935,-3.440621 3.21449,-5.328152 2.32905,-1.776841 4.43555,-4.552193 6.54205,-7.327544 1.33055,-1.554293 2.66109,-3.108583 3.43705,-4.329643 -4.21778,-1.994621 -10.7658,-4.09874 -16.42478,-4.095157 -0.99851,0.222551 -2.33025,-0.109487 -3.32876,0.11307 -5.43644,1.002082 -10.53726,6.331425 -14.08498,11.104979 l 1.44243,-0.111869 1.58411,48.488833 0.22614,6.65749 0.45107,11.42867 1.13066,33.28749 0.67959,21.85885 0.33801,8.0999 0.22852,10.43017 28.96144,1.09128 25.18877,1.09368 c -1.11397,-6.87886 -2.35172,-34.06345 -2.79683,-36.06046 z"
   style="stroke-width:4.57503;fill:#373e48" />
</svg>
