<?xml version="1.0" encoding="UTF-8" standalone="no"?>
<!-- Generator: Adobe Illustrator 27.2.0, SVG Export Plug-In . SVG Version: 6.00 Build 0)  -->

<svg
   version="1.1"
   id="Layer_1"
   x="0px"
   y="0px"
   viewBox="0 0 321.1 321.1"
   style="enable-background:new 0 0 321.1 321.1;"
   xml:space="preserve"
   sodipodi:docname="florida.svg"
   inkscape:version="1.2.2 (732a01da63, 2022-12-09, custom)"
   xmlns:inkscape="http://www.inkscape.org/namespaces/inkscape"
   xmlns:sodipodi="http://sodipodi.sourceforge.net/DTD/sodipodi-0.dtd"
   xmlns="http://www.w3.org/2000/svg"
   xmlns:svg="http://www.w3.org/2000/svg"><defs
   id="defs255" /><sodipodi:namedview
   id="namedview253"
   pagecolor="#505050"
   bordercolor="#ffffff"
   borderopacity="1"
   inkscape:showpageshadow="0"
   inkscape:pageopacity="0"
   inkscape:pagecheckerboard="1"
   inkscape:deskcolor="#505050"
   showgrid="false"
   inkscape:zoom="2.653379"
   inkscape:cx="102.13392"
   inkscape:cy="130.39977"
   inkscape:window-width="1920"
   inkscape:window-height="1031"
   inkscape:window-x="0"
   inkscape:window-y="25"
   inkscape:window-maximized="1"
   inkscape:current-layer="Layer_1" />
<style
   type="text/css"
   id="style248">
	.st0{fill:#FE8E69;}
</style>
<path
   class="st0"
   d="m 299.04966,279.67534 c 0.60229,-0.3434 -0.12474,-0.9725 0.86118,-1.28907 0.9725,-0.12475 3.10934,-0.36085 3.36822,-1.30653 0.25889,-0.94568 -0.23609,-2.13684 0.55802,-2.46682 0.79409,-0.32999 1.93159,-0.0576 2.48022,0.36619 0.35682,0.41047 0.70022,1.01275 1.28909,0.86117 0.58887,-0.15158 0.68276,-1.49431 1.28503,-1.83771 0.41048,-0.35681 1.17775,-0.30315 1.56138,-0.27633 0.58887,-0.15158 0.62911,-0.72704 0.68277,-1.49432 0.0537,-0.76727 3.97989,-4.54061 3.86855,-5.70495 -0.0979,-1.35614 -1.30249,-0.66934 -1.34676,-2.79277 -0.0576,-1.93159 -0.83838,-1.79343 -0.33402,-3.49297 0.50436,-1.69955 2.09791,-7.9491 2.74043,-8.86795 0.64254,-0.91885 1.29846,-2.02953 1.88734,-2.1811 0.58887,-0.15159 0.48156,1.38297 0.5929,2.54729 0.11133,1.16433 0.81154,2.17707 1.00337,2.19049 0.19181,0.0134 0.0228,-3.08252 0.6653,-4.00137 0.64254,-0.91886 0.96849,-2.82363 1.04896,-3.97454 0.0268,-0.38364 -0.14218,-3.47957 -0.0792,-7.13754 -0.14621,-6.17845 -0.35013,-14.2885 -0.26966,-15.43942 0,0 0.0134,-0.19182 0.0268,-0.38363 0.0228,-3.08252 -0.0725,-21.01557 -0.36225,-22.38513 -0.15158,-0.58887 -1.4581,-3.9571 -2.94304,-7.53056 -1.47152,-3.76528 -3.13484,-7.54398 -3.84847,-8.3649 -0.35682,-0.41047 -1.19519,-2.20391 -2.39038,-4.40781 -1.85515,-3.7921 -4.57551,-8.99401 -6.41725,-12.97793 -1.51176,-3.18983 -2.70695,-5.39372 -2.70695,-5.39372 0,0 -1.82833,-4.17575 -3.51849,-7.57081 -0.85179,-1.60162 -1.52517,-2.998 -2.06039,-3.61369 -1.57882,-2.23073 -5.89142,-9.47155 -6.00679,-13.33475 -0.11537,-3.86322 -0.81961,-7.57484 0.23337,-8.85052 1.24482,-1.26225 2.54731,-0.5929 2.61438,-1.55198 0.067,-0.95911 -1.60566,-1.84711 -1.90882,-3.02484 -0.30316,-1.17775 -1.84174,-3.98392 -2.9256,-5.0235 -0.54862,-0.42387 -3.2247,-3.50236 -5.51715,-6.55402 -2.12745,-2.65461 -4.06308,-5.29579 -4.40649,-5.89808 -0.85179,-1.60162 -11.53333,-16.998075 -12.44281,-20.53129 -0.165,-0.397057 -0.32999,-0.794105 -0.48156,-1.382977 -1.15495,-2.779352 -3.94238,-7.022166 -5.97594,-11.019503 -0.65997,-1.588205 -1.33334,-2.98459 -1.62308,-4.354149 -0.86925,-4.108679 -5.51586,-14.842473 -7.34822,-21.717097 -0.63315,-1.971841 -0.89607,-3.725039 -0.81558,-4.875952 0.34874,-4.987293 -1.73444,-5.518477 -2.216,-6.90145 0,0 0,0 0,0 -0.15159,-0.58887 -0.80217,-5.067772 -1.42593,-9.930313 -1.7532,0.262919 -4.08185,0.485598 -6.95914,0.284399 -6.12479,-0.621045 -9.63522,-2.794087 -11.12953,-3.47685 0,0 -0.19182,-0.01342 -0.19182,-0.01342 -1.52114,-0.299125 -3.76527,1.47152 -4.59962,2.376961 -0.83434,0.905441 -0.71897,4.768646 -0.42922,6.138206 0.28974,1.369559 1.86453,0.901408 1.54261,5.505062 -0.30851,4.411837 0.66804,6.985963 -1.09857,7.4407 0,0 0,0 -0.19183,-0.01342 -1.945,0.249505 -3.46212,2.649258 -5.1791,-0.36216 -1.71699,-3.011416 -1.9303,-8.230768 -1.9303,-8.230768 v 0 l -8.28844,-0.0014 -1.34274,-0.09389 -4.63048,0.06172 -4.23344,-0.10328 -17.91964,-0.09652 -6.54866,-0.07241 -3.46616,-0.04962 -8.86392,-0.04156 -5.39776,0.008 -10.39846,-0.148861 -3.27433,-0.03621 -7.50777,-0.13948 -4.0416,-0.08986 L 111.48748,34.48024 110.91202,34.44 c 0,0 -0.15158,-0.58887 -0.65997,-1.588203 -0.98995,-2.382308 -2.95645,-7.338742 -4.44138,-10.912203 -5.21935,0.213299 -12.178483,0.497696 -20.096713,0.715027 -6.767317,0.297812 -14.301908,0.541969 -21.823087,0.594307 -1.931603,0.05769 -3.863206,0.115373 -5.602989,0.186472 -2.50706,0.01745 -5.027534,0.226712 -7.534593,0.244157 -4.246844,0.08855 -8.301867,0.190504 -12.356892,0.292464 -1.164327,0.111339 -2.50706,0.01745 -3.671386,0.128785 -5.219351,0.213298 -9.849833,0.275017 -14.096677,0.363564 -10.041651,0.261602 -16.9873725,0.354182 -18.1516992,0.46552 0,0 -0.191819,-0.01342 -0.191819,-0.01342 -0.3836378,-0.02682 -1.69147813,4.893401 -1.77195786,6.044315 -0.0804797,1.150912 4.29514886,4.733754 4.79012616,5.924907 0.5083907,0.999336 4.1261245,1.637825 5.4863029,4.238778 1.016781,1.998668 -1.2286751,12.057768 -2.5365148,16.977993 0.3970503,-0.164992 0.7806883,-0.138166 0.9725083,-0.124753 1.1643265,-0.111338 13.6821765,-2.705629 20.7217925,-4.140941 2.342067,-0.414496 4.095264,-0.677414 4.492315,-0.842407 0.191818,0.01342 0.191818,0.01342 0.383638,0.02683 2.507059,-0.01745 12.330066,0.09118 15.988038,0.154207 0.767276,0.05365 1.342733,0.09389 1.342733,0.09389 0.767276,0.05365 11.731816,3.133453 14.939086,4.128754 0.383637,0.02683 0.562042,0.23206 0.753861,0.245473 1.110674,0.655936 14.973977,9.142871 15.906245,9.593576 0.740449,0.43729 3.224716,3.502357 5.307897,4.033546 0.945682,0.258884 1.891363,0.517766 2.810218,1.160292 1.110673,0.655939 2.016115,1.490281 2.716324,2.503029 1.016782,1.998675 1.484931,3.573467 1.350799,5.491646 -0.134133,1.91819 -0.736416,2.261588 0.619729,2.163665 0.575457,0.0402 2.136835,-0.236088 3.506395,-0.525836 1.36956,-0.289737 2.73912,-0.579495 3.32798,-0.731068 1.19116,-0.49498 3.06911,0.214609 4.04162,0.0899 0.95908,0.06704 2.36889,-0.798146 3.73845,-1.087884 1.36956,-0.289748 5.32666,-1.747853 6.18783,-3.036928 0.84775,-1.09726 10.33271,-7.180501 11.49703,-7.29184 1.16433,-0.111339 0.89203,1.02616 1.64589,1.271633 0.75387,0.245473 2.44,0.941649 3.27435,0.0362 0.61568,-0.535217 0.86116,-1.289079 0.91482,-2.056355 0.0402,-0.575456 -0.11135,-1.164328 -0.48158,-1.382972 -0.72702,-0.62911 -1.23542,-1.628446 -1.14153,-2.971178 0.0939,-1.342733 2.65462,-2.127454 3.64054,-2.444025 0.58887,-0.15158 5.24618,-0.596937 8.15028,-0.779376 0.97251,-0.124753 1.73979,-0.0711 2.11,0.147546 0.19184,0.01342 0.56205,0.23206 0.74046,0.437292 1.67272,0.887995 4.75927,3.609668 6.48563,3.730387 1.91819,0.134132 6.94977,2.6063 7.45814,3.605635 0.71362,0.820928 2.82768,3.667354 3.13084,4.845092 0.30315,1.177745 0.97654,2.57412 1.9088,3.024837 0.93227,0.450697 4.31795,1.651237 4.86657,2.075109 0.17841,0.205232 0.165,0.397057 0.31657,0.98592 0.45474,1.766617 0.77534,5.451414 0.92693,6.040276 0.32998,0.794105 4.38904,3.391029 5.32131,3.841736 0.94568,0.258883 1.93161,-0.05764 2.82363,0.968472 0.89202,1.026162 1.64992,3.970514 1.9665,4.956434 0,0 0,0 0,0 0.13816,0.780688 0.7002,1.012755 1.85112,1.09323 1.15091,0.08051 1.72636,0.120717 2.48426,3.065073 0.75789,2.94435 0.18245,2.90411 1.52518,2.998 1.34274,0.0939 0.888,-1.67272 1.66868,-1.81088 0.78069,-0.13818 6.5755,-0.31123 7.12412,0.11264 0.54864,0.42389 1.24885,1.43664 1.01679,1.99868 -0.0402,0.57545 -1.20457,0.6868 -1.03957,1.08384 0.15157,0.58887 1.89135,0.51778 2.23476,1.12007 0.15157,0.58886 -0.12071,1.72636 0.004,2.69887 -0.0134,0.19182 0.16499,0.39705 0.34339,0.60228 0.72703,0.62912 5.34814,3.45809 5.26767,4.609 -0.0402,0.57547 -0.10327,4.23344 -0.0147,8.48028 -0.17033,5.19253 -0.1891,10.97393 -0.4614,12.11143 0,0 -0.0135,0.19182 -0.0135,0.19182 -0.47752,1.31591 -4.25753,11.26769 -4.10595,11.85656 -0.0134,0.19183 0.17841,0.20524 0.16499,0.39705 0.35681,0.41048 1.11067,0.65594 1.24884,1.43663 -0.067,0.9591 -0.15289,7.69958 -0.38495,8.26163 -0.21864,0.37023 -2.05233,1.78407 -2.11939,2.74315 -0.067,0.95909 1.85515,3.79211 2.95242,4.63986 1.09725,0.84776 2.37293,1.90074 2.60902,4.03758 0.0443,2.12343 -0.50033,4.39843 0.0751,4.43866 0.57547,0.0402 2.28841,0.35279 1.97185,-0.63313 -0.31657,-0.98592 -1.23542,-1.62846 -0.94972,-2.95777 0.47754,-1.31591 1.95844,-0.44133 2.76595,-0.96314 0.61569,-0.5352 1.0664,-1.46748 0.5446,-2.27499 -0.32998,-0.79411 0.12071,-1.72637 0.92823,-2.24818 0.7941,-0.32997 0.0939,-1.34273 0.32595,-1.90477 0.0402,-0.57546 0.62911,-0.72703 1.01275,-0.70021 0.38364,0.0268 1.07044,1.23139 1.64589,1.27163 0.57546,0.0402 2.28841,0.35278 2.32866,-0.22267 0.0402,-0.57547 -0.70022,-1.01275 -0.82496,-1.98526 -0.11135,-1.16433 -0.61973,-2.16366 -0.22269,-2.32865 0.39706,-0.16499 0.31658,0.98592 1.27567,1.05297 0.76727,0.0537 1.39639,-0.67337 1.93161,-0.0576 0.5352,0.6157 1.14152,2.97118 0.69083,3.90345 -0.4373,0.74045 -5.05971,6.19993 -5.72907,7.50243 -0.0134,0.19181 -0.0134,0.19181 -0.0134,0.19181 -0.0537,0.76728 0.0576,1.93161 -0.5446,2.27501 -0.60228,0.34339 -3.58284,4.37562 -4.939,4.47354 -1.35613,0.0979 -0.66933,1.30249 0.0443,2.12342 0.16499,0.39706 1.05701,1.42322 2.12745,2.65462 1.94906,2.44937 4.80355,5.73309 4.96854,6.13014 0.32998,0.79409 5.46753,10.02016 6.51114,11.6352 0.35681,0.41046 0.70022,1.01274 1.22201,1.82025 1.75723,2.43597 4.18784,6.26832 4.53125,6.8706 0.32998,0.7941 0.33402,3.49299 0.47217,4.27368 0.13817,0.78069 3.0678,8.50306 4.15164,9.54263 1.09726,0.84776 2.53793,2.2978 3.67542,2.57009 1.1375,0.2723 2.52048,-0.20926 3.14959,-0.9363 0.61569,-0.53521 0.84776,-1.09725 0.27229,-1.13749 -0.56204,-0.23206 -1.28907,-0.86117 -1.90478,-0.32595 -0.6157,0.5352 -2.19049,1.00336 -3.2475,-0.41985 -1.05702,-1.42321 -4.08054,-7.80287 -4.39711,-8.78879 -0.30315,-1.17773 -0.78473,-2.5607 -0.14219,-3.47955 0.64252,-0.91886 0.98592,-0.31658 1.945,-0.24952 0.95911,0.067 1.78004,-0.64655 1.88735,-2.1811 0.1073,-1.53455 -1.81493,-4.36757 -1.58287,-4.92961 0.21864,-0.37022 2.07915,-2.16768 2.84643,-2.11403 0.76727,0.0537 1.35613,-0.0979 1.52113,0.29912 0.16499,0.39704 -0.98593,0.31656 -1.4098,0.86519 -0.23206,0.56205 -0.46411,1.1241 0.27633,1.56139 0.74045,0.43729 1.53455,0.1073 1.67273,0.88799 -0.0268,0.38365 -0.18779,2.68547 -0.33534,4.79547 -0.14754,2.11001 -0.29508,4.22002 -0.3085,4.41184 -0.0268,0.38364 -1.05703,-1.4232 -1.63248,-1.46345 -0.56204,-0.23206 -2.30183,-0.16096 -2.34208,0.41449 -0.0402,0.57546 1.41384,1.83368 1.90882,3.02484 0.48156,1.38297 1.66334,3.77869 1.8015,4.55938 0.13817,0.78069 -0.31253,1.71295 -0.13413,1.91819 0.37022,0.21864 1.50772,0.49094 1.72637,0.12072 0.21864,-0.37023 0.1073,-1.53455 0.69617,-1.68613 0.58888,-0.15159 1.90479,0.32596 1.87796,0.70959 -0.0268,0.38364 -0.067,0.95909 0.49497,1.19116 0.76727,0.0537 2.06977,0.72299 2.6184,1.14687 0.35681,0.41046 3.09996,2.52985 4.26833,5.11739 0.15157,0.58887 0.31657,0.98592 0.46815,1.57479 0.53924,3.31459 2.14892,7.86055 2.24686,9.21669 0.11134,1.16434 4.66002,10.54198 5.61912,10.60905 0.95909,0.067 0.66935,-1.30249 1.12005,-2.23476 0.6291,-0.72704 5.28641,-1.17239 6.98595,-0.66804 1.69955,0.50436 5.63386,2.12876 5.97726,2.73105 -0.0135,0.19182 0.16499,0.39706 0.15158,0.58888 0.11134,1.16431 -0.24144,3.45274 0.32061,3.68479 0.74045,0.43729 1.87794,0.70959 2.60497,1.3387 0.53523,0.6157 3.91152,4.70693 4.02285,5.87126 0.31659,0.98592 -0.65593,1.11067 -0.32595,1.90477 0.13817,0.78069 2.24818,0.92824 2.37293,1.90075 0.31657,0.98592 0.22268,2.32865 0.56608,2.93093 0.3434,0.60228 1.4809,0.87458 1.61905,1.65527 0.13818,0.78069 -1.19114,0.49498 -1.24479,1.26226 -0.24547,0.75386 -1.0892,4.55 -0.56739,5.35751 0.32998,0.79411 3.37628,4.09123 4.71902,4.18513 1.15092,0.0805 7.4635,-1.98395 8.68147,-2.86256 0.20524,-0.17839 0.60228,-0.34339 0.79412,-0.32999 1.36955,-0.28973 3.4259,0.62509 3.78272,1.03554 0.63314,1.97185 1.75722,2.43597 2.35951,2.09257 z"
   id="path250"
   style="stroke-width:1.92288;fill:#373e48" />
</svg>
