<?xml version="1.0" encoding="UTF-8" standalone="no"?>
<!-- Generator: Adobe Illustrator 27.2.0, SVG Export Plug-In . SVG Version: 6.00 Build 0)  -->

<svg
   version="1.1"
   id="Layer_1"
   x="0px"
   y="0px"
   viewBox="0 0 321.1 321.1"
   style="enable-background:new 0 0 321.1 321.1;"
   xml:space="preserve"
   sodipodi:docname="georgia.svg"
   inkscape:version="1.2.2 (732a01da63, 2022-12-09, custom)"
   xmlns:inkscape="http://www.inkscape.org/namespaces/inkscape"
   xmlns:sodipodi="http://sodipodi.sourceforge.net/DTD/sodipodi-0.dtd"
   xmlns="http://www.w3.org/2000/svg"
   xmlns:svg="http://www.w3.org/2000/svg"><defs
   id="defs284" /><sodipodi:namedview
   id="namedview282"
   pagecolor="#505050"
   bordercolor="#ffffff"
   borderopacity="1"
   inkscape:showpageshadow="0"
   inkscape:pageopacity="0"
   inkscape:pagecheckerboard="1"
   inkscape:deskcolor="#505050"
   showgrid="false"
   inkscape:zoom="2.653379"
   inkscape:cx="102.13392"
   inkscape:cy="198.99155"
   inkscape:window-width="1920"
   inkscape:window-height="1031"
   inkscape:window-x="0"
   inkscape:window-y="25"
   inkscape:window-maximized="1"
   inkscape:current-layer="Layer_1" />
<style
   type="text/css"
   id="style278">
	.st0{fill:#FE8E69;}
</style>
<path
   id="Georgia__x28_U.S._state_x29__2_"
   class="st0"
   d="m 301.8216,200.58042 c -0.53639,-0.33728 -2.3666,0.90701 -2.5381,-0.24866 0.0277,-0.28201 0.0552,-0.56401 0.0829,-0.84602 -3.94815,-0.3868 -11.19754,-1.95117 -13.74135,-5.04757 -1.29955,-1.26619 -1.92455,-3.60515 -2.49429,-6.50812 -0.94036,-4.93234 -0.95182,-10.6278 -1.43868,-14.37683 -0.26013,-3.15737 -3.76048,-5.2086 -7.00647,-6.95019 -2.42757,-1.37671 -4.9104,-2.18937 -5.95555,-3.14592 0,0 -0.25439,-0.30964 -0.25439,-0.30964 -1.55393,-1.57581 -1.19476,-5.24196 -1.65399,-9.27298 -0.14385,-1.43769 -0.56975,-2.903 -0.968,-4.65033 -1.75878,-5.2972 -4.30832,-11.24131 -7.58765,-15.54865 -0.50877,-0.61926 -1.27193,-1.54818 -1.78069,-2.16746 -0.50876,-0.61928 -1.29953,-1.2662 -2.09029,-1.9131 -2.65435,-1.96835 -5.87269,-3.99195 -8.80904,-5.98792 -2.39996,-1.65871 -4.54552,-3.00778 -6.15471,-4.01959 0,0 -0.28201,-0.0277 -0.25438,-0.30963 -3.41748,-2.89725 -2.06841,-5.04283 -2.38377,-7.63619 -0.11625,-1.71969 -4.21397,-6.3919 -7.5762,-9.85317 -0.25439,-0.30965 -0.79077,-0.64692 -1.04515,-0.95656 -1.58157,-1.293824 -2.8811,-2.560006 -3.6995,-2.9249 -0.28201,-0.02769 -0.8184,-0.364895 -1.07278,-0.674525 -1.86356,-1.321438 -3.89862,-3.798558 -5.34204,-6.502418 -0.73551,-1.210938 -1.47103,-2.421863 -1.92454,-3.605159 -1.64253,-3.577528 -8.33361,-7.934372 -10.30768,-8.12777 -1.97408,-0.193399 -6.06609,-2.01788 -7.81915,-4.467361 -0.25438,-0.309641 -0.73551,-1.210926 -1.47103,-2.421855 -0.48114,-0.901289 -1.21665,-2.112215 -1.69779,-3.013504 -2.40568,-4.50644 -5.54687,-10.223807 -7.04553,-12.363652 -0.25439,-0.30964 -0.50878,-0.619279 -0.73552,-1.210928 -0.73552,-1.210927 -1.18902,-2.394226 -1.89692,-3.887163 -1.86928,-4.169174 -4.19207,-9.521647 -6.1995,-12.280768 -2.48858,-3.66041 -4.14727,-1.260458 -6.45861,-0.917464 -0.28201,-0.02763 -0.87367,0.199124 -1.15568,0.171496 -1.12804,-0.110514 -1.94645,-0.475411 -2.45522,-1.094687 -0.79076,-0.646907 -1.8083,-1.885463 -3.10783,-3.151646 -0.76315,-0.928917 -1.8083,-1.885462 -3.13547,-2.869636 -2.9087,-2.277985 -6.0718,-4.865612 -8.10686,-7.342721 -0.76316,-0.928918 -1.27192,-1.548195 -1.75306,-2.449484 -0.48113,-0.901288 -0.65262,-2.056957 -0.56973,-2.902989 0.64117,-3.638508 6.49668,-8.189757 9.93034,-11.2699692 2.16747,-1.7806746 1.76922,-3.527994 1.28808,-4.4292829 -0.50875,-0.6192767 -1.01751,-1.2385543 -1.01751,-1.2385543 -6.3424,0.8022251 -14.12244,1.7483219 -23.00291,2.3018921 -6.59675,0.492588 -14.03954,0.9022895 -21.76432,1.2843648 -3.7214,0.2048556 -7.7248,0.3820695 -11.72821,0.559293 -3.12973,-0.021904 -6.287105,0.2382021 -9.416849,0.2163038 -5.131451,0.066708 -10.572536,0.3878041 -16.268003,0.3992518 -2.847732,0.00573 -5.977474,-0.016176 -8.852837,0.2715609 -0.564021,-0.055255 -1.128042,-0.1105092 -2.0017,0.088662 -2.847736,0.00568 -5.977477,-0.016223 -8.82521,-0.010496 -5.131446,0.066708 -10.544902,0.1057885 -15.958356,0.1448691 -2.001702,0.088612 -3.693765,-0.077163 -5.695467,0.011453 -1.719691,0.1162386 -3.129743,-0.021907 -4.849434,0.094337 -2.847733,0.00572 -5.695467,0.011452 -8.261189,0.044807 0.315367,2.5933513 1.139495,5.805981 1.880739,9.864639 0.741243,4.058661 1.709241,8.708971 2.62198,13.923301 0.199125,0.87366 0.370622,2.029331 0.569747,2.90299 0.171498,1.155671 0.370623,2.029329 0.542119,3.185001 1.167123,5.523968 2.024608,11.30232 3.136471,17.390312 0.967999,4.650309 1.908368,9.582628 2.594354,14.205311 0.597376,2.620974 0.912739,5.21433 1.537745,7.553294 0.425877,1.465315 0.569747,2.902994 0.713614,4.340672 1.139495,5.805981 1.996978,11.584336 3.191727,16.8263 0.713616,4.340662 1.454859,8.399352 2.196105,12.457982 0.199124,0.87367 0.398249,1.74734 0.597375,2.621 1.653984,9.27297 2.937347,16.51662 3.197452,19.67401 0.226757,0.59165 0.171498,1.15567 0.143867,1.43768 -0.05526,0.56402 0.199125,0.87365 0.143867,1.43769 0.459233,4.03102 1.626355,9.555 2.793478,15.07896 0.82413,3.21263 1.648256,6.42527 2.500015,9.35588 1.050884,3.80428 2.439032,7.07217 3.401305,8.87474 0,0 0,0 0,0 1.697789,3.01351 2.914442,5.12572 3.594702,6.90067 0.707889,1.49292 1.133768,2.95823 0.967998,4.65031 -0.165771,1.69206 -0.07715,3.69377 0.06671,5.13145 0.143866,1.43766 0.597378,2.62096 1.38815,3.26789 1.609177,1.01179 3.837633,1.51483 3.644235,3.48891 -0.05526,0.564 -0.420154,1.38242 -1.094689,2.4552 -2.333242,3.47274 -6.607203,9.31779 -6.291839,11.91114 0,0 0,0 0,0 0.171498,1.15567 -0.276285,2.82012 -0.751692,4.76654 -1.315715,4.7113 -3.305966,10.49538 -3.526993,12.75146 -0.02763,0.28202 -0.08289,0.84603 0.143866,1.43769 0.685986,4.62267 4.767552,15.27236 5.1658,17.01969 -0.05526,0.56402 -0.16577,1.69206 -0.33154,3.38411 -0.585924,3.0745 -1.619628,7.81343 -2.288435,11.73394 -0.641181,3.63851 -1.227105,6.71299 -1.337618,7.84103 -0.04956,3.41176 4.689389,4.44546 5.624032,6.53005 -0.02763,0.28201 0.254382,0.30965 0.199125,0.87366 0.453507,1.1833 1.133768,2.95825 2.295166,5.63448 2.040782,5.32485 4.734196,12.70666 6.094719,16.25654 0.425878,1.46532 0.907014,2.3666 0.907014,2.3666 l 0.846031,0.0829 27.802785,1.01555 5.94986,0.29818 11.05366,0.51347 4.82179,0.18774 15.31147,0.6459 7.95154,0.2096 13.05537,0.42481 5.10381,0.21533 9.64361,0.37534 26.39276,0.87738 6.23185,0.32581 6.82351,0.0991 1.97408,0.1934 12.20933,0.34207 v 0 c 0,0 0.10006,7.69718 2.50573,12.20361 2.40569,4.50644 4.73892,1.03372 7.61429,0.74596 0,0 0,0 0.28201,0.0277 2.62098,-0.59736 1.26045,-4.14726 1.92355,-10.91551 0.66308,-6.76826 -1.6759,-6.14325 -2.04651,-8.1726 -0.37062,-2.02932 -0.38203,-7.72479 0.88412,-9.0243 1.26616,-1.29956 4.64457,-3.81574 6.87303,-3.31271 0,0 0.282,0.0277 0.282,0.0277 2.20083,0.78506 7.25512,4.41211 16.25182,5.57824 4.23016,0.41442 7.66953,0.18187 10.26289,-0.13343 -0.69171,-7.47041 -1.32817,-15.50485 -0.99664,-18.88897 0.0829,-0.84603 0.13811,-1.41006 0.16577,-1.69207 1.03944,-1.89118 7.33128,-13.80233 9.49303,-18.43074 0.3649,-0.81839 0.42015,-1.38242 0.44778,-1.66442 0.1934,-1.97409 1.51957,-15.5106 2.16647,-16.30136 0.30964,-0.25439 0.30964,-0.25439 0.59164,-0.22677 0.84604,0.0829 1.69208,0.16578 2.13986,-1.49864 0.78504,-2.20084 1.30998,-7.55902 0.82885,-8.46032 -0.22675,-0.59165 -0.81841,-0.36488 -1.66444,-0.44777 -0.87366,0.19912 -2.84774,0.006 -2.73722,-1.12232 0.0276,-0.28202 0.33728,-0.53641 0.33728,-0.53641 0.30963,-0.25437 0.90128,-0.48112 1.43767,-0.14384 0.28202,0.0276 0.56403,0.0552 0.8184,0.3649 0.79077,0.6469 1.3548,0.70216 2.62098,-0.59738 0.98418,-1.32718 13.86703,-16.57863 14.31483,-18.24307 0.50876,0.61929 0.36489,-0.81841 -0.17149,-1.15567 z"
   style="fill:#373e48;stroke-width:2.83361" />
</svg>
