<?xml version="1.0" encoding="UTF-8" standalone="no"?>
<!-- Generator: Adobe Illustrator 27.2.0, SVG Export Plug-In . SVG Version: 6.00 Build 0)  -->

<svg
   version="1.1"
   id="Layer_1"
   x="0px"
   y="0px"
   viewBox="0 0 321.1 321.1"
   style="enable-background:new 0 0 321.1 321.1;"
   xml:space="preserve"
   sodipodi:docname="hawaii.svg"
   inkscape:version="1.2.2 (732a01da63, 2022-12-09, custom)"
   xmlns:inkscape="http://www.inkscape.org/namespaces/inkscape"
   xmlns:sodipodi="http://sodipodi.sourceforge.net/DTD/sodipodi-0.dtd"
   xmlns="http://www.w3.org/2000/svg"
   xmlns:svg="http://www.w3.org/2000/svg"><defs
   id="defs331" /><sodipodi:namedview
   id="namedview329"
   pagecolor="#505050"
   bordercolor="#ffffff"
   borderopacity="1"
   inkscape:showpageshadow="0"
   inkscape:pageopacity="0"
   inkscape:pagecheckerboard="1"
   inkscape:deskcolor="#505050"
   showgrid="false"
   inkscape:zoom="2.653379"
   inkscape:cx="102.13392"
   inkscape:cy="160.55"
   inkscape:window-width="1920"
   inkscape:window-height="1031"
   inkscape:window-x="0"
   inkscape:window-y="25"
   inkscape:window-maximized="1"
   inkscape:current-layer="Layer_1" />
<style
   type="text/css"
   id="style307">
	.st0{fill:#FE8E69;}
</style>
<g
   id="Hawaii_00000095299912005066423010000018270297701348485567_"
   transform="matrix(1.9192547,0.33841637,-0.33841637,1.9192547,-108.64182,-231.35674)"
   style="fill:#373e48">
	<g
   id="g325"
   style="fill:#373e48">
		<path
   class="st0"
   d="m 111.3,139 c -0.7,-0.2 -1,0.3 -1.6,1.2 -0.5,1 -2.2,1.2 -2.4,1.3 -0.6,0.1 0,2.3 0.5,2.7 0.5,0.4 0.6,-1 0.9,-1.6 0.4,-0.6 1.6,-0.4 1.8,-0.7 0.4,-0.4 1.5,-2.7 0.8,-2.9 z"
   id="path309"
   style="fill:#373e48" />
		<path
   class="st0"
   d="m 126.6,132.7 c -0.6,-0.2 -4.9,-0.3 -5.4,0.2 -0.5,0.6 -1.3,1.4 -2.3,2 -1,0.6 -1.8,1.9 -1.9,2 -0.3,0.4 -0.1,1 0,1.5 0.1,0.5 1.9,1.1 2.6,1.2 0.7,0.1 1.2,0.8 1.7,1.4 0.5,0.6 3.2,0.3 3.6,0.5 0.4,0.2 2.3,-1.9 2.4,-2.3 0.1,-0.4 0.2,-1.6 0.2,-2.3 0,-0.7 0.7,-1.7 0.7,-2.5 -0.2,-0.8 -1,-1.6 -1.6,-1.7 z"
   id="path311"
   style="fill:#373e48" />
		<path
   class="st0"
   d="m 165.4,152.2 c -0.6,-0.1 -0.6,-0.4 -0.8,-0.9 -0.2,-0.5 0,-0.8 -0.6,-0.9 -0.6,0 -0.2,-0.4 -0.1,-1 0.1,-0.7 -0.7,-0.4 -1,-0.2 -0.3,0.2 0.1,0.7 -0.3,0.9 -0.5,0.2 -1.4,-1.4 -1.5,-1.8 -0.1,-0.4 0.3,-0.7 0.2,-1 0,-0.4 -0.4,-0.4 -0.9,-0.5 -0.5,-0.1 -0.4,-0.9 -1,-2.3 -0.6,-1.3 -1.3,-1.2 -1.9,-1.1 -0.6,0.2 -2.2,2.4 -2.8,3 -0.6,0.7 -3.6,0.6 -3.6,0.6 -0.3,0 1,0.9 1.1,1.2 0.1,0.3 -0.1,0.8 0,1 0.1,0.2 1.2,1 1.2,1.6 0,0.6 0.5,0.8 1.1,1.1 0.6,0.4 0.5,1.5 0.9,1.7 0.4,0.2 4.4,-0.7 5,-0.7 0.6,0 1.3,0.8 1.7,1 0.5,0.2 1.5,-0.5 1.7,-0.6 0.2,-0.1 0.2,0 0.3,0.5 0.1,0.5 0.8,-0.7 1.4,-1 0.9,-0.3 0.5,-0.5 -0.1,-0.6 z"
   id="path313"
   style="fill:#373e48" />
		<path
   class="st0"
   d="m 184.9,154.1 c -0.9,0.1 -1.4,0.7 -3.4,0.5 -2,-0.2 -6.5,-0.7 -6.9,-0.5 0,0 -1.3,2.6 -1,3 0.3,0.3 4,-0.4 5.7,-0.2 1.6,0.2 4,0.8 4.7,0.8 0.7,0 3.1,-1.9 3.2,-2.9 0.2,-1.1 -1.4,-0.9 -2.3,-0.7 z"
   id="path315"
   style="fill:#373e48" />
		<path
   class="st0"
   d="m 183.8,160.8 c -1.1,-0.4 -3.8,0.3 -3.8,0.3 -0.3,0.1 -0.1,0.9 0.5,1.3 0.6,0.4 1.2,2.5 1.5,3.1 0.3,0.6 3.2,-0.7 3.6,-1.6 0.5,-0.9 -0.7,-2.7 -1.8,-3.1 z"
   id="path317"
   style="fill:#373e48" />
		<path
   class="st0"
   d="m 204.4,162.7 c -0.7,-0.7 -2.1,-0.5 -3.1,-1.2 -1,-0.7 -2.9,-2.3 -2.9,-2.4 -0.1,-0.1 -1.7,-0.3 -2.1,0 -0.4,0.3 -2.1,1.7 -3,1.5 -0.9,-0.2 -0.8,-2.2 -1.8,-2.6 -1,-0.4 -1.9,-0.9 -2.2,-0.5 -0.3,0.4 -1.2,1.4 -1.2,2.1 0,0.7 0.2,1.7 1,2.5 0.8,0.7 2.2,1.8 2.5,1.8 0.3,0 0.8,-0.9 1.1,-0.9 0.2,0 0.9,-0.2 1,1.9 0.1,2.1 0.3,3.4 1,3.4 0.7,0 3.8,-0.4 5.1,-1 1.3,-0.6 3.4,-1.1 4,-1.8 0.6,-0.9 1.3,-2.1 0.6,-2.8 z"
   id="path319"
   style="fill:#373e48" />
		<path
   class="st0"
   d="m 191.7,168 c -0.5,-0.1 -2.2,0.9 -2.7,1 -0.3,0.1 -1.2,0.7 -0.7,1.1 0.4,0.3 1.3,0.4 2,0.3 0.7,-0.1 2.2,-0.3 2.1,-1.2 -0.2,-0.9 -0.2,-1.1 -0.7,-1.2 z"
   id="path321"
   style="fill:#373e48" />
		<path
   class="st0"
   d="m 233,190.5 c -0.7,-0.2 -3.2,-1.2 -3.4,-2.1 -0.2,-0.9 -0.3,-2.2 -0.8,-2.5 -0.5,-0.3 -1.9,0.9 -2,-0.1 -0.1,-1 0.1,-2.5 -0.7,-3.1 -0.8,-0.6 -2.8,-3.1 -4.6,-3.4 -1.8,-0.3 -2.6,-1.6 -5.7,-1.9 -3.1,-0.2 -4.4,-1.1 -4.8,-1.8 -0.4,-0.7 -1.1,-1 -2,-1.1 -0.8,-0.1 -1.2,0 -1.6,0.2 -0.2,0.1 -0.7,1.4 -0.4,2.4 0.3,1 1.7,2.3 1.9,3 0.2,0.7 0,2.1 -1.4,3.4 -1.4,1.3 -3.2,2.7 -3.3,3.8 -0.1,1 1,1.8 1.6,2.8 0.6,1.1 3.1,5.3 3.1,6.5 0.1,1.2 -0.7,5 -0.3,5.7 0.4,0.7 0.5,2 1.6,2.2 1.1,0.2 3.3,0.7 3.7,1.3 0.4,0.7 0.2,0.9 0.9,0.4 0.7,-0.4 2.1,-4.1 3,-4.9 0.9,-0.8 4.8,-3.1 5.1,-3.6 0.3,-0.5 1.9,-0.1 3.1,-0.6 1.3,-0.6 3.4,-2.2 3.6,-2.5 0.2,-0.2 3.3,-2.5 3.4,-3.2 0.1,-0.4 0.7,-0.7 0,-0.9 z"
   id="path323"
   style="fill:#373e48" />
	</g>
</g>
</svg>
