<?xml version="1.0" encoding="UTF-8" standalone="no"?>
<!-- Generator: Adobe Illustrator 27.2.0, SVG Export Plug-In . SVG Version: 6.00 Build 0)  -->

<svg
   version="1.1"
   id="Layer_1"
   x="0px"
   y="0px"
   viewBox="0 0 321.1 321.1"
   style="enable-background:new 0 0 321.1 321.1;"
   xml:space="preserve"
   sodipodi:docname="idaho.svg"
   inkscape:version="1.2.2 (732a01da63, 2022-12-09, custom)"
   xmlns:inkscape="http://www.inkscape.org/namespaces/inkscape"
   xmlns:sodipodi="http://sodipodi.sourceforge.net/DTD/sodipodi-0.dtd"
   xmlns="http://www.w3.org/2000/svg"
   xmlns:svg="http://www.w3.org/2000/svg"><defs
   id="defs369" /><sodipodi:namedview
   id="namedview367"
   pagecolor="#505050"
   bordercolor="#ffffff"
   borderopacity="1"
   inkscape:showpageshadow="0"
   inkscape:pageopacity="0"
   inkscape:pagecheckerboard="1"
   inkscape:deskcolor="#505050"
   showgrid="false"
   inkscape:zoom="2.653379"
   inkscape:cx="102.13392"
   inkscape:cy="160.55"
   inkscape:window-width="1920"
   inkscape:window-height="1031"
   inkscape:window-x="0"
   inkscape:window-y="25"
   inkscape:window-maximized="1"
   inkscape:current-layer="Layer_1" />
<style
   type="text/css"
   id="style363">
	.st0{fill:#FE8E69;}
</style>
<path
   id="Idaho_2_"
   class="st0"
   d="m 249.38862,197.63395 c -1.62439,-1.78791 -4.85841,-6.96681 -6.9824,-7.75971 -0.17023,0.0362 -0.20623,-0.13389 -0.37632,-0.0977 -1.50526,-0.39113 -2.34501,0.67619 -3.18472,1.74352 -0.13389,0.20622 -0.30403,0.24239 -0.43796,0.44863 -0.91205,0.72716 -1.46256,3.15513 -2.70409,4.84116 -0.13389,0.20623 -0.13389,0.20623 -0.26784,0.41247 l 0.26784,-0.41247 c -0.40178,0.61873 -0.83972,1.06733 -1.4839,1.38202 -2.50443,1.59893 -12.99447,-0.0823 -16.05595,0.56852 -3.06149,0.65074 -3.24636,2.28993 -5.7976,2.83223 -2.55125,0.54227 -9.89682,-0.56289 -12.16952,0.45351 -1.76245,0.90792 -0.6483,2.80432 -0.90549,4.10334 v 0 c -0.13389,0.20624 -0.26787,0.41247 -0.40177,0.61869 -1.38616,1.00572 -2.53646,-1.06075 -4.22249,-2.30227 -0.61869,-0.40181 -0.96955,-1.21606 -1.15032,-2.06647 -0.43382,-2.04099 -0.29567,-4.73685 -0.80189,-7.11799 -0.68689,-3.23157 -3.08941,-4.4986 -4.3375,-6.18872 -1.24809,-1.69015 -1.67535,-0.35496 -2.84047,-0.81839 -0.95886,-0.32948 -2.92341,-2.04509 -4.47554,-3.49288 -1.382,-1.4839 -6.59783,-12.64116 -8.6922,-16.64016 -2.13055,-4.16909 -2.69007,-10.98305 -4.25284,-13.3174 -0.7633,-1.08213 -1.41816,-1.65397 -2.1708,-1.84954 -0.92272,-0.15945 -1.77313,0.0214 -2.58736,0.37242 -1.42229,0.83561 -3.11653,4.57332 -3.99245,5.47057 -0.87588,0.89723 -5.10659,3.57417 -6.30784,2.94068 -1.20127,-0.63352 -1.59893,-2.50443 -2.90863,-3.64816 -1.13965,-1.17991 -2.4173,0.3362 -3.07219,-0.23583 0,0 0,0 0,0 0,0 -0.0362,-0.17023 -0.0362,-0.17023 -0.42318,-1.15441 0.23992,-5.56177 -0.19391,-7.60277 -0.0362,-0.17023 -0.0722,-0.34016 -0.0722,-0.34016 v 0 c 0,0 0,0 0,0 -0.60391,-2.00483 4.51016,-24.77945 5.67282,-30.18182 0.38044,-2.39182 0.56533,-4.03103 0.34839,-5.05151 -0.0722,-0.34018 -0.10833,-0.51027 -0.18078,-0.85042 -0.3147,-0.64417 -0.89724,-0.87588 -1.57755,-0.73128 -1.56693,0.15528 -2.13879,0.81015 -4.08199,0.86765 -0.51026,0.10833 -1.09282,-0.12328 -1.46912,-0.22104 -1.1651,-0.46341 -1.79448,-1.75176 -1.9391,-2.43211 -0.18078,-0.85038 -1.44366,-0.9375 -2.9744,-0.61213 -0.51025,0.10833 -0.9227,-0.15945 -1.37132,-0.59734 -0.89725,-0.87591 -1.59893,-2.50443 -2.53232,-3.5504 -1.41816,-1.65398 -1.64578,-3.56104 -2.06892,-4.71546 0,0 -0.0363,-0.17023 -0.27854,-0.47411 -1.35652,-2.200388 -8.39644,-11.90332 -9.15973,-12.985441 -0.7995,-1.252231 -4.85598,-1.101041 -6.26349,-1.86847 -1.40749,-0.76743 -5.85756,-4.976774 -6.25522,-6.847695 0,0 0,0 0,0 0,0 0,0 0,0 -0.10833,-0.510258 -0.0823,-1.226775 -0.0937,-2.113279 0.17422,-2.52578 0.47168,-6.144324 0.21861,-7.334931 -0.36159,-1.700795 -7.79256,-9.898478 -9.07678,-11.758723 0,0 -0.0362,-0.170231 -0.10833,-0.51024 0,0 -0.0363,-0.170231 -0.0363,-0.170231 -0.2892,-1.360647 -0.36722,-5.077069 -0.45763,-9.679908 -0.0428,-3.54626 -0.0238,-7.638913 -0.005,-11.731575 0.0377,-8.185321 0.20959,-16.576875 0.36243,-20.875772 -9.24197,0.009 -18.483938,0.01802 -27.762056,-0.14307 -0.05095,1.432964 -0.09129,3.752495 -0.05912,6.412191 -0.110067,7.845159 -0.336949,20.15929 -0.516935,33.530067 0.01043,0.886592 0.02139,1.773148 0.03199,2.659687 -0.171796,8.391561 -0.235054,17.293363 -0.406798,25.684924 -0.05095,1.432947 -0.101895,2.865929 -0.152842,4.298893 0.02139,1.773113 0.007,3.376169 -0.0087,4.979225 -0.150408,10.164668 -0.249851,18.896418 -0.283549,24.592108 -0.0035,2.48963 0.01739,4.26274 -0.0699,5.52563 0.01043,0.88658 -0.05095,1.43297 -0.05095,1.43297 0.314675,0.64418 4.203553,6.39492 3.725325,9.16309 -0.38042,2.39184 -2.066452,1.1503 -0.569413,6.52066 0.546391,0.0616 0.716483,0.0254 0.752633,0.19556 0.484784,0.60802 1.522513,4.65384 3.172396,5.72529 0.206224,0.13389 0.206224,0.13389 0.412449,0.26786 1.613732,0.90136 4.186339,2.1322 5.629979,3.0697 1.649865,1.07145 3.414771,6.02934 3.631672,7.04984 0.217092,1.02048 -5.150969,8.3833 -6.396609,12.55895 -0.195566,0.75265 -0.427264,1.33519 -0.62283,2.08782 -0.952283,3.0467 -2.002394,6.46971 -2.939898,7.91335 -0.09772,0.37632 -0.40179,0.61871 -0.571881,0.65484 -1.179896,1.13964 -1.426392,3.32524 -1.111717,3.96942 0.278542,0.47409 -0.369761,3.27841 -1.13719,4.68589 -0.13389,0.20624 -0.09772,0.37631 -0.267866,0.41248 -0.937487,1.44364 -4.194546,2.84701 -4.828034,4.04828 -0.669639,1.03115 -5.06801,9.61004 -4.840415,11.51709 0.191358,1.73698 0.06416,5.31941 0.559449,6.814 0,0 0.03634,0.17023 0.03634,0.17023 0.629368,1.28835 2.583266,2.1174 3.98008,1.99827 1.396814,-0.11911 3.52077,0.67378 3.882306,2.37459 0.14467,0.68034 0.08225,1.22678 -0.112502,1.97938 -0.329507,0.95887 -0.658979,1.91773 -0.648303,2.8043 0.08225,1.22677 0.918603,2.64901 0.05338,4.43282 -0.231716,0.58256 -0.658979,1.91773 -1.050076,3.42301 -0.61217,2.9744 -1.177479,7.00542 -1.192259,8.60846 0.03617,0.17023 0.03617,0.17023 0.07233,0.34015 0.05338,4.43284 -0.774124,34.82912 -0.557223,35.8496 0.180786,0.85042 -0.479115,25.34476 -0.774124,34.82912 0.340183,-0.0723 0.54639,0.0616 0.886574,-0.0104 0.546408,0.0616 1.26289,0.0871 1.77313,-0.0214 21.556106,0.21782 41.266767,0.11685 58.864137,0.10954 8.35541,0.002 16.16442,-0.0582 23.59709,-0.21601 2.48961,0.003 4.97924,0.009 7.26261,-0.12155 11.69543,-0.17496 22.33419,-0.30311 31.88018,-0.55449 9.71607,-0.28753 18.54558,-0.5644 26.31843,-0.79445 0.51026,-0.10833 1.05663,-0.0468 1.56689,-0.15528 6.88629,-0.21937 12.84987,-0.59813 18.30316,-0.86843 5.62345,-0.30644 10.36024,-0.60228 14.58685,-0.78955 l -1.08121,-21.81328 -1.08124,-21.81329 -0.73196,-12.64363 -0.42552,-7.02022 -1.03441,-20.75665 -1.13213,-20.38031 c -0.82495,-0.53572 -1.89228,-1.37546 -2.61943,-2.2875 z"
   style="fill:#373e48;stroke-width:1.73882" />
</svg>
