<?xml version="1.0" encoding="UTF-8" standalone="no"?>
<!-- Generator: Adobe Illustrator 27.2.0, SVG Export Plug-In . SVG Version: 6.00 Build 0)  -->

<svg
   version="1.1"
   id="Layer_1"
   x="0px"
   y="0px"
   viewBox="0 0 321.1 321.1"
   style="enable-background:new 0 0 321.1 321.1;"
   xml:space="preserve"
   sodipodi:docname="illinois.svg"
   inkscape:version="1.2.2 (732a01da63, 2022-12-09, custom)"
   xmlns:inkscape="http://www.inkscape.org/namespaces/inkscape"
   xmlns:sodipodi="http://sodipodi.sourceforge.net/DTD/sodipodi-0.dtd"
   xmlns="http://www.w3.org/2000/svg"
   xmlns:svg="http://www.w3.org/2000/svg"><defs
   id="defs398" /><sodipodi:namedview
   id="namedview396"
   pagecolor="#505050"
   bordercolor="#ffffff"
   borderopacity="1"
   inkscape:showpageshadow="0"
   inkscape:pageopacity="0"
   inkscape:pagecheckerboard="1"
   inkscape:deskcolor="#505050"
   showgrid="false"
   inkscape:zoom="2.653379"
   inkscape:cx="102.13392"
   inkscape:cy="100.24953"
   inkscape:window-width="1920"
   inkscape:window-height="1031"
   inkscape:window-x="0"
   inkscape:window-y="25"
   inkscape:window-maximized="1"
   inkscape:current-layer="Layer_1" />
<style
   type="text/css"
   id="style392">
	.st0{fill:#FE8E69;}
</style>
<path
   id="Illinois_00000013169887590924469470000011998379625593986465_"
   class="st0"
   d="m 245.74937,211.58047 c -0.19667,-0.47276 -0.60534,-1.18989 -0.78582,-1.89103 -0.18064,-0.70113 -0.36094,-1.40229 -0.54142,-2.10345 0.0481,-0.68518 -0.14859,-1.15791 0.11173,-1.59873 0.55259,-1.33842 -1.39593,-6.29435 -2.44205,-7.74454 -0.6213,-0.96149 -1.68342,-2.18331 -1.73615,-4.71157 -0.13256,-1.38634 0.0114,-3.44187 0.87205,-5.90626 0.032,-0.45678 0.29228,-0.89757 0.32422,-1.35437 0.90876,-3.14957 1.60509,-6.54352 1.82868,-9.741 0.23969,-3.42587 0.46317,-6.62337 0.36255,-8.46646 0.0641,-0.91358 0.11172,-1.59873 0.12775,-1.82713 0.0137,-0.22827 -0.0895,-5.28496 -0.21567,-13.32658 -0.16919,-4.143 -0.0462,-9.18358 -0.11974,-14.69693 -0.0735,-5.51336 -0.0991,-11.71187 -0.35302,-17.92636 0.0137,-0.22826 0.032,-0.4568 0.0481,-0.68518 -0.1534,-4.37138 -0.0783,-8.7268 -0.23163,-13.09818 -0.10554,-5.05655 -0.22689,-9.884734 -0.10394,-14.925309 0.0114,-3.441866 0.007,-6.655333 -0.22689,-9.884734 -0.0687,-2.299889 -0.1534,-4.371401 -0.009,-6.426933 0.0114,-3.44182 0.0229,-6.883687 -0.22689,-9.884734 -0.10531,-5.056556 -0.24277,-9.656334 -0.19964,-13.554955 -0.21247,-0.244358 -0.21247,-0.244358 -0.21247,-0.244358 -0.57338,-1.646673 -4.62535,-6.061163 -4.41776,-9.030249 0.20766,-2.969086 -1.88945,-9.082953 -2.29831,-9.800091 -0.21224,-0.244358 -1.65146,-2.640063 -3.30289,-5.280148 -1.22665,-2.151347 -2.66566,-4.547052 -3.05856,-5.492544 -0.76985,-2.119432 -0.33383,-5.072537 0.41513,-5.938195 0.50472,-0.653238 0.79219,-4.764301 0.77142,-7.7493676 -4.81222,-0.1069194 -12.16866,0.067082 -20.87948,-0.08288 -4.81222,-0.1069194 -10.09716,-0.018316 -15.83891,0.040066 -1.14196,-0.079674 -2.29989,0.068685 -3.67022,-0.027016 -2.07149,0.084482 -4.12702,-0.059069 -6.19854,0.025642 -5.51333,0.073493 -11.2391,-0.097304 -16.98084,-0.039837 -0.68517,-0.04785 -1.37035,-0.095701 -1.84309,0.1005089 -5.97015,0.04144 -11.6959,-0.1293565 -17.43763,-0.07189 -1.14198,-0.079674 -2.07149,0.084482 -3.21347,0.00458 -7.79726,-0.086314 -14.90935,-0.1245485 -21.09188,-0.327352 -3.21346,0.00458 -5.95415,-0.1872807 -8.48244,-0.1341644 -0.032,0.4567772 0.14859,1.157935 0.13256,1.3863121 0.37695,1.173916 5.04541,3.336435 7.6264,5.811998 0.63726,0.733073 1.27452,1.466169 1.455,2.167327 0.93434,3.048943 -1.15313,3.361963 0.75867,5.561252 1.91177,2.199266 1.99163,1.057289 3.47859,2.767839 0,0 0.21224,0.244335 0.42481,0.488716 1.92781,1.970888 6.37265,7.330871 6.70168,9.189964 0,0 0,0 0,0 0.16461,0.929535 -0.43601,2.953128 -1.03653,4.976698 -0.63247,2.48037 -1.7217,4.928802 -2.01397,5.826375 -0.27632,0.66922 -0.78102,1.322458 -1.51411,1.959739 -0.99342,1.078055 -2.23121,2.368552 -2.50751,3.037748 -0.0137,0.228263 -0.27631,0.669219 -0.30825,1.125997 -0.11173,1.598731 0.15339,4.371378 -0.85605,5.677856 -1.4981,1.731316 -5.94455,6.240064 -7.33087,6.372626 -1.38633,0.132561 -7.04338,2.261586 -9.09893,2.117851 -0.45675,-0.03205 -1.14193,-0.0799 -1.82713,-0.127754 -2.98507,0.02061 -8.04162,0.126152 -9.035033,1.204298 -0.733096,0.637235 -1.806389,2.857266 -2.879635,5.077321 -1.073292,2.220032 -1.705765,4.700402 -1.525262,5.401537 0.360962,1.402316 2.549032,2.932362 4.264391,4.65887 1.715339,1.726508 2.989849,3.192678 2.633719,5.003852 -0.0137,0.228262 -0.0137,0.228262 -0.032,0.456777 -0.37213,2.039574 -0.69156,6.607391 -1.21222,7.489007 -0.52067,0.881638 -5.051768,3.318897 -5.195503,5.374404 -0.14378,2.05554 0.13737,4.59978 -0.447138,6.395 -0.260339,0.44079 -0.520677,0.88161 -0.78097,1.32243 -0.765057,1.09406 -1.514111,1.9597 -2.443646,2.1242 -0.701135,0.18064 -2.52829,0.0529 -4.15896,0.39771 -1.157935,0.14858 -2.576208,0.7379 -3.341243,1.83193 -1.774404,2.40052 -2.018762,2.61294 -1.641842,3.78685 0.3929,0.94549 1.852705,6.32627 0.630916,7.38839 -0.488739,0.42486 -1.466193,1.27451 -2.411686,1.66741 -0.616492,2.25199 -2.162519,4.66847 -3.03935,7.36125 -0.03205,0.4568 -0.276319,0.66922 -0.308258,1.126 -0.03205,0.45678 -0.06388,0.91356 -0.0957,1.37036 -0.287424,4.11104 2.08589,9.55571 1.894236,12.29642 -0.03205,0.45677 0.148588,1.15793 0.100509,1.84308 0.493524,2.78861 2.261563,7.04343 3.636725,10.35269 0.589339,1.41827 1.407101,2.8525 1.815982,3.56962 0.212236,0.24436 0.424839,0.48874 0.637258,0.7331 1.274516,1.46616 2.793413,2.71989 4.737148,4.4624 1.078055,0.99339 1.927755,1.97087 2.989875,3.19268 1.683374,2.18329 3.759671,5.31209 6.308726,8.24443 1.699381,1.95491 3.627131,3.92579 5.815251,5.45584 2.41647,1.54603 3.44662,3.22462 4.2484,4.88725 0.76984,2.11941 0.87044,3.96252 1.67223,5.62513 1.16274,3.06492 -0.87684,2.69279 -1.24895,4.73234 -0.35615,1.81117 0.44558,3.4738 2.19288,4.74351 0.21247,0.24438 0.44082,0.26034 0.65324,0.50472 1.97567,1.28567 2.86846,-1.63548 7.22388,-1.56043 0.22827,0.0137 0.22827,0.0137 0.45678,0.032 2.96909,0.20766 6.07076,1.80156 8.51919,2.89079 1.10999,0.53663 1.99163,1.05731 2.90521,1.12119 2.25197,0.61649 3.05375,2.27912 2.92599,4.10625 -0.032,0.45678 -0.0481,0.68518 -0.0797,1.14196 -0.40407,2.49635 -2.65604,1.87986 -3.43706,3.20229 -0.0137,0.22826 -0.26034,0.4408 -0.26034,0.4408 -0.0797,1.14198 1.21067,2.37977 1.09887,3.9785 -0.0137,0.22826 -0.032,0.4568 -0.29228,0.8976 -0.56859,1.56678 -1.68978,4.47202 -3.02337,7.13287 -1.08927,2.44841 -2.4069,4.88088 -2.94353,5.99087 -0.0137,0.22827 -0.0137,0.22827 -0.26034,0.44082 -1.10521,2.67683 -1.91814,4.45605 -1.53641,8.84338 0.10051,1.84314 2.20886,4.51514 4.57743,6.74634 0.63728,0.7331 1.2905,1.23777 2.15616,1.98685 2.59697,2.24716 4.9815,4.24997 6.28796,5.25938 1.51892,1.25373 3.39875,3.90979 5.78328,5.91262 1.74728,1.26971 3.72297,2.55542 6.21932,2.95947 2.26793,0.38809 3.59036,1.16911 4.45602,1.91816 1.73132,1.49811 1.81596,3.5696 2.63372,5.00386 1.03014,1.67858 2.84612,5.2482 3.78046,8.29715 l 0.45678,0.0321 -0.48872,0.42484 c 0.19644,0.47276 0.16462,0.92956 0.36096,1.40232 0.46159,3.24535 4.39696,6.04516 4.2053,8.78586 -0.42005,2.72473 -1.89101,0.7858 -2.67202,2.10824 0,0 -0.0137,0.22826 -0.0137,0.22826 -0.30826,1.126 -0.43601,2.95313 0.36577,4.61574 0.19644,0.47278 0.3929,0.94551 0.81774,1.43425 1.47098,1.93893 2.85095,8.46166 5.44788,10.70884 0,0 0.21246,0.24436 0.21246,0.24436 1.9757,1.28571 6.07078,1.80158 8.58309,1.97725 0.0137,-0.22826 -0.19644,-0.47276 -0.18064,-0.70116 -0.96631,-2.59216 -2.06034,-3.3572 -1.53967,-4.23881 0,0 0.24439,-0.21247 0.26034,-0.44082 1.72651,-1.71531 8.82898,-8.10394 10.0029,-8.48086 0,0 0,0 0.22826,0.0137 1.82716,0.12776 13.5007,7.14082 17.0911,8.30991 0.45676,0.032 0.6692,0.27629 0.91356,0.0639 0.45678,0.0321 0.92953,-0.16462 1.15793,-0.14859 1.4023,-0.36096 2.39571,-1.43902 2.1146,-3.98329 -0.47756,-3.017 -4.18453,-5.80082 -3.84433,-7.38357 0.34017,-1.5828 1.40863,-7.01628 3.05528,-7.58966 0.70116,-0.18064 1.15796,-0.14859 1.37038,0.0957 0.44082,0.26034 0.65324,0.5047 1.82713,0.12776 0.47276,-0.19644 0.94552,-0.3929 1.43421,-0.81774 0.9615,-0.6213 1.93895,-1.47098 3.814,-2.0284 2.80459,-0.72193 7.14403,-0.41848 7.90906,-1.51251 0.26034,-0.44082 -0.16461,-0.92954 -0.57338,-1.64668 -0.8497,-0.97743 -1.9118,-2.19924 -2.50116,-3.61749 0.0137,-0.22826 -0.19644,-0.47278 -0.18064,-0.70116 -0.26512,-2.77264 -0.10555,-5.05658 1.13238,-6.34707 1.00937,-1.30646 2.9004,-2.09228 3.30445,-4.58861 0.0321,-0.45678 0.0797,-1.14195 0.0957,-1.37035 -0.11654,-1.61471 -1.17868,-2.83653 -1.11481,-3.7501 0.0137,-0.22827 0.0137,-0.22827 0.26034,-0.4408 0.24438,-0.21247 0.68516,0.0481 1.14196,0.0797 0.45677,0.0321 1.12599,0.30826 1.17391,-0.37689 0.29228,-0.89762 0.10853,-14.68098 1.76637,-18.6962 l -0.21246,-0.24438 0.45677,0.032 c 0.0137,-0.22826 0.24438,-0.21246 0.26034,-0.44082 1.98683,-2.15613 6.61376,-5.96374 8.97274,-10.15943 0.26031,-0.44082 0.27629,-0.66922 0.53661,-1.11004 1.07329,-2.22003 1.72172,-4.9288 2.77901,-6.92043 0.84489,-2.23601 2.1146,-3.9833 3.56484,-5.02942 2.2312,-2.36857 2.59853,-7.62159 1.79675,-9.2842 z"
   style="fill:#373e48;stroke-width:2.28949" />
</svg>
