<?xml version="1.0" encoding="UTF-8" standalone="no"?>
<!-- Generator: Adobe Illustrator 27.2.0, SVG Export Plug-In . SVG Version: 6.00 Build 0)  -->

<svg
   version="1.1"
   id="Layer_1"
   x="0px"
   y="0px"
   viewBox="0 0 321.1 321.1"
   style="enable-background:new 0 0 321.1 321.1;"
   xml:space="preserve"
   sodipodi:docname="indiana.svg"
   inkscape:version="1.2.2 (732a01da63, 2022-12-09, custom)"
   xmlns:inkscape="http://www.inkscape.org/namespaces/inkscape"
   xmlns:sodipodi="http://sodipodi.sourceforge.net/DTD/sodipodi-0.dtd"
   xmlns="http://www.w3.org/2000/svg"
   xmlns:svg="http://www.w3.org/2000/svg"><defs
   id="defs427" /><sodipodi:namedview
   id="namedview425"
   pagecolor="#505050"
   bordercolor="#ffffff"
   borderopacity="1"
   inkscape:showpageshadow="0"
   inkscape:pageopacity="0"
   inkscape:pagecheckerboard="1"
   inkscape:deskcolor="#505050"
   showgrid="false"
   inkscape:zoom="2.653379"
   inkscape:cx="102.13392"
   inkscape:cy="130.39977"
   inkscape:window-width="1920"
   inkscape:window-height="1031"
   inkscape:window-x="0"
   inkscape:window-y="25"
   inkscape:window-maximized="1"
   inkscape:current-layer="Layer_1" />
<style
   type="text/css"
   id="style421">
	.st0{fill:#FE8E69;}
</style>
<path
   id="Indiana_2_"
   class="st0"
   d="m 262.69015,229.23811 c -1.04506,-3.04152 -4.5217,-8.2625 -5.03003,-9.94592 0,0 0.0294,-0.32556 0.0294,-0.32556 -0.23968,-1.00434 1.99644,-4.08655 3.43997,-5.59918 0.70748,-0.59368 1.0897,-1.21584 1.0897,-1.21584 l -0.67111,-14.80911 -0.50032,-16.76094 -0.0131,-3.60674 -0.54503,-12.50361 -0.58572,-15.78504 -0.37823,-6.91661 -0.85011,-24.00285 -0.0131,-3.60677 -0.50033,-16.760907 -0.48808,-13.154177 -0.64263,-15.134446 -0.19527,-5.261671 -0.8379,-20.39615 -0.15445,-1.980236 -0.51656,-12.828911 -0.34976,-7.241941 -0.43119,-13.8047747 -0.18319,-1.6549377 -0.0408,-3.2814338 -20.98976,0.1302895 -6.23757,0.110044 -21.6404,0.073471 -8.18936,-0.061063 -14.42694,0.048981 -10.49489,0.064982 -16.73246,0.1750255 -16.40717,0.2034344 c -5.13563,2.5007745 -4.59886,3.8589199 -8.05104,5.8514021 -0.70752,0.5936498 -2.03719,0.8051167 -3.42374,1.6671827 -7.11583,2.655293 -11.86925,4.533944 -13.19888,4.745378 0,0 0,0 0,0 -0.65057,-0.05682 -14.41071,-3.883051 -16.813879,-6.387809 -0.158372,5.558496 -0.07706,12.121396 -0.05257,19.33483 -0.07347,4.58263 -0.146943,9.165228 0.07739,14.101633 0.06923,2.956134 0.110044,6.237568 -0.146943,9.165261 -0.07347,4.58263 -0.146943,9.165228 0.07739,14.101633 0.0529,6.888166 0.07739,14.101632 -0.223353,21.286624 0.110044,6.237601 -0.105473,12.446695 0.0033,18.684266 -0.02939,0.32556 -0.05715,0.6506 -0.08523,0.97589 -0.146943,9.16523 0.0898,17.70837 0.05715,25.57244 -0.03266,7.86403 -0.0065,15.07749 -0.194618,20.96132 -0.01959,11.4708 0.0033,18.68426 -0.02286,19.00953 -0.02939,0.32556 -0.113963,1.30123 -0.227599,2.60243 0.09796,2.6308 -0.300743,7.18499 -0.727694,12.06444 -0.398575,4.55416 -1.475896,9.3767 -2.850238,13.8455 -0.382215,0.62212 -0.439131,1.27275 -0.496047,1.92332 -0.963685,3.52137 -1.219823,6.449 -1.390571,8.4008 0.337545,3.63524 1.821702,5.40401 2.358469,6.76209 1.130416,2.06562 4.082599,9.53526 3.289695,11.10481 -0.382215,0.62212 -0.439131,1.27275 -0.19919,2.27709 0.240007,1.00434 0.479851,2.00868 0.71976,3.01305 0.23968,1.00434 0.805117,2.03716 1.073533,2.71623 1.101942,2.39093 0.44736,9.87277 -3.74081,12.78421 -2.094069,1.45574 -3.651404,4.26954 -5.208739,7.0834 -1.260477,3.1676 -2.549429,6.6605 -4.135238,9.79963 -0.382215,0.62213 -0.410657,0.94746 -0.792872,1.56955 -3.46841,5.92451 -10.18978,11.56445 -13.048312,14.26444 -0.02939,0.32557 -0.353774,0.29683 -0.382215,0.62216 0,0 -0.02939,0.32556 -0.353741,0.29683 -2.43563,5.35927 -2.516742,25.01946 -2.984315,26.61745 -0.05682,0.6506 -1.032814,0.56524 -1.683412,0.50833 l -1.626496,-0.14237 c -0.325561,-0.0294 -0.353774,0.29682 -0.382215,0.62212 -0.113963,1.3012 1.045058,3.04153 1.496402,5.3755 0.975898,0.0852 1.951795,0.17078 2.899251,0.58147 1.923321,0.49605 2.785387,1.8826 3.464395,1.61425 0.707547,-0.59368 1.528926,-2.48856 1.3459,-4.1435 -0.183189,-1.65497 -1.850176,-5.07871 -0.817363,-5.64391 0,0 0,0 0,0 1.329639,-0.21128 8.811488,0.44318 12.74352,0.45924 0.325561,0.0294 0.325561,0.0294 0.650599,0.0568 3.606733,-0.0131 2.84227,1.232 1.964008,3.77748 -0.906737,2.87074 1.752573,2.44784 2.403171,2.50476 0.650599,0.0571 3.452182,-1.99248 3.862871,-2.93991 0.08523,-0.97589 -2.911464,-4.1882 -3.151373,-5.19254 0.08523,-0.9759 1.345868,-4.1435 2.293291,-3.73281 0.947456,0.41069 2.939938,3.86287 5.30239,3.0862 1.00434,-0.23968 1.980238,-0.15446 2.956138,-0.0692 1.62646,0.14237 3.19604,0.93518 5.47314,1.1344 0.97589,0.0852 1.92332,0.49605 3.13912,1.58578 0.62216,0.38218 1.24429,0.76443 2.16323,1.50038 3.6759,2.94392 7.91703,6.92063 8.8929,7.00602 1.62649,0.14237 4.09057,-5.54233 4.91191,-7.43715 0.0294,-0.32556 0.73599,-0.91898 1.7688,-1.48422 3.1838,-2.67152 10.08817,-6.65649 12.06844,-6.81104 0.32556,0.0294 0.32556,0.0294 0.32556,0.0294 1.59799,0.46764 6.20511,7.75422 9.23037,10.64119 0.91898,0.73599 1.54114,1.1182 2.1917,1.17512 2.65935,-0.4229 4.55818,-7.14032 5.32261,-8.38457 0.76443,-1.24428 0.10188,-4.90796 1.19131,-6.12377 0.35378,-0.29682 0.70755,-0.59368 1.41503,-1.18733 0.67907,-0.26842 1.38659,-0.86203 2.0941,-1.45575 2.41937,-1.42724 6.19685,-3.39128 9.29529,-5.08694 1.03282,-0.56517 1.71189,-0.83356 2.06566,-1.13042 2.7162,-1.0735 0.86204,1.38656 0.39446,2.98461 -0.52455,2.24862 2.85452,4.83874 4.39562,5.95694 1.56958,0.79291 7.75023,1.33363 11.68223,1.34985 0.97589,0.0852 1.98027,-0.15445 2.30557,-0.12604 0.32556,0.0294 0.67904,-0.26842 1.06125,-0.89051 1.50042,-2.16323 0.44318,-8.81148 1.64671,-11.32849 0.0568,-0.6506 0.43913,-1.27272 0.82135,-1.89488 1.20356,-2.51697 3.41149,-5.27391 4.91188,-7.43714 0.38221,-0.62216 1.47194,-1.83793 3.2123,-2.99682 2.12254,-1.78105 4.59886,-3.85889 7.42889,-6.23362 3.89131,-3.26521 8.10795,-6.50197 9.84831,-7.66086 2.09404,-1.45572 2.8585,-2.7 2.97233,-4.00116 0.43914,-1.27272 0.19919,-2.2771 0.31283,-3.57829 0.0294,-0.32556 0.0294,-0.32556 0.0571,-0.6506 0.93518,-3.19604 4.00913,-12.10517 5.07039,-12.99568 0.35377,-0.29682 0.65063,0.0568 1.30119,0.11397 1.92333,0.49604 4.73719,2.05341 6.98581,2.5779 0.6506,0.0568 1.30116,0.11396 1.62649,0.14237 1.00434,-0.24001 4.8103,-2.52925 9.29529,-5.08694 4.48503,-2.55772 9.67754,-5.70906 12.15382,-7.78693 1.06129,-0.89051 1.76881,-1.48419 1.79728,-1.80949 0.59365,0.70751 0.29683,0.35377 0.0294,-0.32556 z"
   style="fill:#373e48;stroke-width:3.2654" />
</svg>
