<?xml version="1.0" encoding="UTF-8" standalone="no"?>
<!-- Generator: Adobe Illustrator 27.2.0, SVG Export Plug-In . SVG Version: 6.00 Build 0)  -->

<svg
   version="1.1"
   id="Layer_1"
   x="0px"
   y="0px"
   viewBox="0 0 321.1 321.1"
   style="enable-background:new 0 0 321.1 321.1;"
   xml:space="preserve"
   sodipodi:docname="iowa.svg"
   inkscape:version="1.2.2 (732a01da63, 2022-12-09, custom)"
   xmlns:inkscape="http://www.inkscape.org/namespaces/inkscape"
   xmlns:sodipodi="http://sodipodi.sourceforge.net/DTD/sodipodi-0.dtd"
   xmlns="http://www.w3.org/2000/svg"
   xmlns:svg="http://www.w3.org/2000/svg"><defs
   id="defs456" /><sodipodi:namedview
   id="namedview454"
   pagecolor="#505050"
   bordercolor="#ffffff"
   borderopacity="1"
   inkscape:showpageshadow="0"
   inkscape:pageopacity="0"
   inkscape:pagecheckerboard="1"
   inkscape:deskcolor="#505050"
   showgrid="false"
   inkscape:zoom="2.653379"
   inkscape:cx="160.55"
   inkscape:cy="160.55"
   inkscape:window-width="1920"
   inkscape:window-height="1031"
   inkscape:window-x="0"
   inkscape:window-y="25"
   inkscape:window-maximized="1"
   inkscape:current-layer="Layer_1" />
<style
   type="text/css"
   id="style450">
	.st0{fill:#FE8E69;}
</style>
<path
   id="Iowa_00000079470624263333475990000011762557628579988397_"
   class="st0"
   d="m 319.00266,143.14266 c 0,0 0,0 0,0 -0.20688,-2.2323 -6.12562,-8.54233 -8.54695,-11.12372 -0.26917,-0.28683 -0.26917,-0.28683 -0.53809,-0.57363 -1.88323,-2.00775 -1.9366,-0.34019 -4.34903,-3.19948 -2.42135,-2.58138 0.0979,-3.05722 -1.17626,-6.71474 -0.25138,-0.84269 -1.05837,-1.70315 -1.86547,-2.56362 -3.24622,-2.88595 -9.0116,-5.2961 -9.523,-6.70353 -0.26917,-0.28683 -0.24248,-1.12062 -0.22468,-1.67646 -0.19799,-2.51025 -0.0645,-6.67917 -1.97447,-7.85313 -1.36299,-0.87826 -5.49635,-2.12332 -9.36067,-3.081609 -3.03055,-0.931564 -6.06107,-1.863157 -6.87707,-2.445687 -1.89215,-1.729822 -5.00501,-8.784725 -6.04558,-11.043716 -0.5203,-1.129495 -0.97837,-4.204512 -1.16737,-6.992671 -0.21578,-1.954391 -0.43137,-3.908783 -0.37804,-5.576345 0.0356,-1.111727 0.0623,-1.945522 0.0712,-2.223453 0.34016,-1.936596 5.00043,-8.464611 4.25556,-11.270566 -0.74489,-2.805984 -5.13838,-4.615806 -6.47468,-6.327832 -0.52919,-0.851564 -0.5025,-1.685358 -0.46693,-2.797057 0.0356,-1.111727 0.34903,-2.214555 0.10678,-3.335152 0.008,-0.277793 -0.23358,-1.398529 -0.47584,-2.519126 -5.02051,0.395806 -11.15272,0.756047 -18.66569,0.79392 -1.94549,-0.06229 -4.17781,0.144597 -6.40124,0.07341 -5.01158,0.117902 -10.57906,0.218007 -16.42444,0.309214 -5.8454,0.09121 -12.23775,-0.113453 -18.63899,-0.03976 -1.38966,-0.04449 -3.05722,-0.09788 -4.44685,-0.142372 -7.51297,0.03782 -15.29497,-0.211056 -23.36378,-0.191035 -0.55586,-0.01668 -0.83379,-0.02781 -1.38966,-0.04449 -6.67027,-0.21328 -13.62738,-0.157666 -20.57558,-0.380039 -2.77929,-0.08898 -5.55858,-0.177965 -8.33787,-0.26667 -5.00271,-0.160169 -10.00543,-0.320087 -15.01701,-0.202157 -4.44688,-0.142373 -8.89373,-0.284522 -13.34948,-0.148768 -3.05719,-0.09788 -6.11441,-0.195484 -9.44956,-0.302319 -6.94821,-0.222178 -13.618488,-0.435681 -20.297662,-0.371141 -0.833795,-0.02781 -1.66759,-0.05339 -2.501357,-0.08008 C 77.072957,43.87107 69.290955,43.622057 61.786884,43.381971 60.675185,43.346378 59.563459,43.310785 58.45176,43.275192 51.225621,43.044115 44.833249,42.839511 38.718837,42.643916 35.383685,42.537137 32.326465,42.439534 29.547176,42.350496 21.48727,42.092724 14.816967,41.879249 10.370116,41.736988 5.9232656,41.594616 3.4219087,41.51481 3.4219087,41.51481 c 0,0 -0.016684,0.555863 -0.062288,1.945521 -0.016684,0.555836 -0.035593,1.111699 -0.3312934,1.658664 -0.3579326,2.492459 4.0177875,4.858173 4.2423574,6.534633 0.2335793,1.398529 -0.3846274,3.326254 -1.4874279,3.012757 -1.1028283,-0.313497 -2.2323235,0.206884 -2.0522171,3.272892 -0.00834,0.277792 -0.016684,0.555863 0.2602741,0.564761 0.7626366,2.250092 3.8287551,2.069958 4.9048886,3.21725 1.0761613,1.147264 1.7854646,5.064946 1.4186336,7.835336 -0.0083,0.278071 -0.01668,0.555864 -0.313497,1.102829 -0.6269941,2.205656 -2.4457153,6.877077 -3.9776345,11.279491 -1.5318913,4.402387 -3.3506125,9.073808 -3.7085729,11.566294 -1.0115933,5.531883 0.9872343,3.926553 2.6014624,5.647477 0.8071001,0.860465 1.5430975,3.944345 2.2790672,7.028235 0.2424776,1.1206 0.4847328,2.24122 0.7359974,3.08389 1.9365954,0.34016 3.5863894,0.94936 3.8376534,1.79205 0.502502,1.68536 -0.35568,11.11713 0.173516,11.96869 0.269173,0.28683 0.79823,1.1384 1.058365,1.70316 0.520298,1.12949 0.762664,2.25009 0.171292,3.34402 0,0 -0.0083,0.27807 -0.0083,0.27807 -0.600299,1.37186 0.458066,3.07499 2.018933,6.46347 0.780433,1.69426 2.063395,5.07385 3.34633,8.45346 1.282934,3.37959 2.296864,6.47238 2.799365,8.15774 0.269172,0.2868 0.251376,0.84266 0.242478,1.12059 0.475834,2.51916 -0.671458,3.59529 1.087339,9.49403 0.242478,1.1206 0.762637,2.25009 1.274037,3.65752 1.560893,3.38849 3.381895,7.34173 5.211822,11.01705 1.560867,3.38848 2.843801,6.76807 2.790467,8.43566 -0.0083,0.27807 -0.01668,0.55584 -0.02781,0.83377 -0.133474,4.16895 -0.562453,8.88483 -0.346782,10.83922 0.23358,1.39853 0.771563,1.97216 1.587561,2.55469 0.269173,0.28683 0.815999,0.58253 1.076134,1.14729 0.269172,0.28683 0.251376,0.84267 0.233579,1.39853 0.215783,1.95439 0.1268,4.73368 0.06451,6.67918 -0.0083,0.27779 -0.01669,0.55586 -0.02781,0.83379 0.224682,1.67646 1.202934,5.88095 1.383041,8.94706 -0.03559,1.1117 -0.06229,1.9455 -0.357933,2.49246 -0.896027,1.91883 -2.608053,3.25513 -1.31622,6.35678 -0.0083,0.27807 0.260274,0.56476 0.251376,0.8427 1.300731,2.82372 2.799365,8.15773 4.360232,11.54621 6.392344,0.20438 12.784716,0.40899 18.899128,0.60461 2.779289,0.089 5.836509,0.18659 8.615798,0.27557 5.002714,0.16017 10.005427,0.32009 14.73021,0.47125 4.44685,0.14237 8.893701,0.28452 13.071518,0.13987 3.05722,0.0979 6.114432,0.19548 9.171632,0.29339 3.61308,0.11568 7.22613,0.23107 10.84812,0.069 4.16892,0.13347 8.0688,-0.0195 11.95982,0.10428 4.16891,0.13347 8.0688,-0.0195 11.95979,0.10455 3.89101,0.12458 7.7909,-0.0289 11.68189,0.0954 3.05722,0.0979 5.8454,-0.0912 8.62469,-0.002 4.73365,-0.1268 9.45846,0.025 13.91418,-0.11123 6.95711,-0.0556 13.08045,-0.13792 18.92583,-0.22913 1.94549,0.0623 3.62195,-0.16239 5.56747,-0.10011 5.01159,-0.1179 9.74527,-0.2447 13.63626,-0.12012 2.77928,0.089 5.01161,-0.1179 7.51296,-0.0378 5.01162,-0.1179 9.18943,-0.2625 12.53346,-0.43368 5.8454,-0.0912 9.46736,-0.2536 10.30115,-0.2269 0.83377,0.0278 1.38963,0.0445 1.9366,0.34016 3.03942,0.65366 3.53305,2.61695 4.02666,4.58021 0.75376,2.52805 1.63202,1.16506 4.78045,7.10827 1.8388,3.39738 3.78429,3.45961 5.46965,2.95711 1.12949,-0.5203 2.27676,-1.59643 2.85042,-2.13452 1.43409,-1.34517 -0.58484,-7.80867 -1.10514,-8.93817 -0.5203,-1.12949 -0.23358,-1.39853 1.81872,-4.67142 0.87826,-1.36296 2.28569,-1.87436 3.97102,-2.37689 1.96329,-0.4936 4.18671,-0.42247 5.02941,-0.67374 1.12059,-0.24248 1.98995,-1.3274 2.86818,-2.69036 0.2957,-0.54696 0.59143,-1.09393 0.88713,-1.6409 0.89603,-1.91882 0.16907,-5.28064 0.24888,-7.782 0.0801,-2.50135 5.46735,-5.66755 6.05878,-6.76148 0.5914,-1.09396 0.76926,-6.65251 1.12719,-9.14497 0.008,-0.27807 0.0167,-0.55586 0.0167,-0.55586 0.34017,-1.93662 -0.98723,-3.92658 -3.42635,-5.9521 -2.1612,-2.01663 -4.88711,-3.77312 -5.38964,-5.45847 -0.25138,-0.84267 0.39352,-3.60416 1.60305,-6.62582 1.20061,-2.74372 2.40124,-5.48744 3.2617,-6.29454 1.43409,-1.3452 7.28837,-1.71434 10.91035,-1.87667 1.1117,0.0356 1.9455,0.0623 2.22343,0.0712 2.49246,0.35796 9.26053,-2.48587 10.94589,-2.98837 1.67646,-0.22468 6.87479,-6.17898 8.60459,-8.07111 1.44299,-1.62313 0.71592,-4.98495 0.77815,-6.93044 0.0167,-0.55586 0.0278,-0.83379 0.3224,-1.38076 0.31349,-1.1028 1.74759,-2.44799 2.90375,-3.80209 0.86046,-0.8071 1.44299,-1.6231 1.74759,-2.44799 0.3135,-1.10283 1.52302,-4.12449 2.17668,-7.16391 1.19173,-2.46579 1.54969,-4.95825 1.58526,-6.06998 z"
   inkscape:transform-center-x="-2.0877856"
   inkscape:transform-center-y="9.4296147"
   style="stroke-width:2.78071;fill:#373e48" />
</svg>
