<?xml version="1.0" encoding="UTF-8" standalone="no"?>
<!-- Generator: Adobe Illustrator 27.2.0, SVG Export Plug-In . SVG Version: 6.00 Build 0)  -->

<svg
   version="1.1"
   id="Layer_1"
   x="0px"
   y="0px"
   viewBox="0 0 321.1 321.1"
   style="enable-background:new 0 0 321.1 321.1;"
   xml:space="preserve"
   sodipodi:docname="kansas.svg"
   inkscape:version="1.2.2 (732a01da63, 2022-12-09, custom)"
   xmlns:inkscape="http://www.inkscape.org/namespaces/inkscape"
   xmlns:sodipodi="http://sodipodi.sourceforge.net/DTD/sodipodi-0.dtd"
   xmlns="http://www.w3.org/2000/svg"
   xmlns:svg="http://www.w3.org/2000/svg"><defs
   id="defs485" /><sodipodi:namedview
   id="namedview483"
   pagecolor="#505050"
   bordercolor="#ffffff"
   borderopacity="1"
   inkscape:showpageshadow="0"
   inkscape:pageopacity="0"
   inkscape:pagecheckerboard="1"
   inkscape:deskcolor="#505050"
   showgrid="false"
   inkscape:zoom="2.653379"
   inkscape:cx="160.55"
   inkscape:cy="160.55"
   inkscape:window-width="1920"
   inkscape:window-height="1031"
   inkscape:window-x="0"
   inkscape:window-y="25"
   inkscape:window-maximized="1"
   inkscape:current-layer="Layer_1" />
<style
   type="text/css"
   id="style479">
	.st0{fill:#FE8E69;}
</style>
<path
   id="Kansas_2_"
   class="st0"
   d="m 313.67801,219.19542 -0.0319,-1.52895 -0.2971,-14.19753 -0.0457,-2.18423 -0.0959,-4.58689 c 0,0 -0.12802,-6.11586 -0.51553,-14.19295 -0.0131,-0.65527 -0.0229,-1.09212 -0.0365,-1.74738 -0.10967,-5.24217 -0.4561,-11.35345 -0.57952,-17.25088 -0.0321,-1.52897 -0.064,-3.05792 -0.0959,-4.58689 -0.11426,-5.46058 -0.21475,-10.26589 -0.28796,-13.76067 -0.0457,-2.18423 -0.0824,-3.93163 0.12234,-4.59145 -0.0131,-0.65529 0.19094,-1.31511 0.17281,-2.18882 0.16364,-2.62565 0.0859,-6.33883 -0.2058,-9.82905 -0.25041,-1.52441 -0.28242,-3.05336 -0.74669,-4.35477 -0.004,-0.21847 -0.22756,-0.43226 -0.23213,-0.65069 -0.46427,-1.30139 -0.92398,-2.38437 -1.57924,-2.37065 -1.97495,-0.39572 -3.51306,-0.80057 -5.05575,-1.42385 -0.65982,-0.2047 -1.10581,-0.63241 -1.76566,-0.83711 -2.43008,-1.26028 -4.05045,-5.59675 -5.65257,-9.05952 -0.22299,-0.21389 -0.22756,-0.43227 -0.45512,-0.86456 -1.3654,-2.59364 -3.36778,-4.2999 -4.49188,-5.806 -0.45055,-0.64613 -0.67813,-1.07842 -0.90569,-1.51069 -0.24128,-1.08754 0.38656,-2.411786 1.2374,-3.522187 0.41857,-0.882842 1.06013,-1.551823 1.4787,-2.434665 1.05098,-1.988656 4.10433,-2.271073 4.92775,-4.692018 0.41855,-0.882842 -0.0411,-1.965804 -0.50085,-3.048787 -0.69183,-1.733678 -2.25278,-3.230643 -2.49406,-4.318192 -0.22759,-0.432267 -0.45058,-0.646129 -0.67357,-0.859968 -0.43684,0.0087 -1.07383,0.89654 -1.27854,1.556388 -0.414,1.101248 -1.93838,1.351681 -5.24217,0.109673 -1.7611,-0.618711 -4.66917,-3.835633 -6.92195,-7.066276 -0.44599,-0.427701 -0.67355,-0.859968 -0.90111,-1.292257 l 0.0275,1.310543 c -5.02375,0.105085 -10.91662,0.446971 -17.90614,0.593237 -2.83952,0.05942 -5.67903,0.118848 -8.73695,0.18286 -3.05792,0.06401 -6.33426,0.132612 -9.61063,0.201212 -2.83949,0.05943 -5.67901,0.118849 -8.73693,0.182861 -4.15003,0.08673 -8.51852,0.178272 -13.10541,0.274247 -1.52894,0.0319 -3.05791,0.06401 -4.80531,0.100496 -5.89741,0.123437 -12.01327,0.251395 -18.34756,0.383963 -5.89743,0.123437 -11.79484,0.246829 -18.1337,0.161014 -1.31054,0.02753 -2.62108,0.05484 -3.93163,0.08236 -4.58689,0.09591 -9.17378,0.192036 -13.98366,0.07406 -2.83949,0.05942 -5.89743,0.123436 -8.73692,0.18286 -2.83952,0.05942 -5.67901,0.118849 -8.51852,0.178273 -0.43686,0.0087 -0.65526,0.01311 -1.09212,0.02294 -4.36846,0.09132 -8.52308,-0.0402 -12.67312,0.04675 -1.7474,0.03648 -3.7132,0.07778 -5.46516,-0.104211 -5.902,-0.09503 -11.804,-0.190069 -17.48757,-0.289605 -7.6494,-0.05833 -15.084935,-0.339876 -22.083616,-0.630464 -7.653963,-0.276869 -14.871071,-0.562869 -21.869773,-0.853458 -0.218471,0.0044 -0.655261,0.01311 -0.873688,0.01748 C 56.143501,77.739443 48.48956,77.462574 41.486292,76.95358 40.394176,76.97652 39.297495,76.78077 38.205379,76.803709 28.139604,76.140278 19.602821,75.444862 12.81798,74.93128 c 0,0 0,0 0,0 v 0 c 0,0 0,0 0,0 0,0 0,0 0,0 l -1.012461,24.713831 -0.830583,22.961889 -0.13152,4.15461 -0.69902,18.80727 -0.122344,4.59146 -0.7081746,18.37043 -1.1805964,27.12106 -0.3225727,5.46973 -0.5811552,13.99736 -0.8991618,19.68554 c 0.4368331,-0.009 0.8736881,-0.0175 1.0921156,-0.0229 6.3434201,0.30429 12.6822511,0.39015 18.8072651,0.69902 l 0.218471,-0.004 c 6.998703,0.29057 13.77439,0.3673 20.554665,0.66245 v 0 c 1.310543,-0.0275 2.844057,0.15905 4.1546,0.13152 4.373051,0.12693 8.746079,0.25402 13.119129,0.38104 l 0.218471,-0.004 c 7.653963,0.27687 15.30336,0.33531 22.952757,0.39377 v 0 c 7.867803,0.054 15.521765,0.33072 22.952735,0.39375 0.65526,-0.0131 1.52895,-0.0319 2.18423,-0.0457 6.77569,0.0767 13.55137,0.15337 20.10866,0.23477 6.33885,0.0859 12.45928,0.17631 18.57511,0.0483 2.83952,-0.0594 5.6836,0.0996 8.52309,0.0402 3.27635,-0.0686 6.33885,0.0859 9.39677,0.0219 4.36849,-0.0913 8.74152,0.0356 13.10998,-0.0559 4.80531,-0.1005 9.6152,0.0175 14.20209,-0.0787 4.58689,-0.0959 9.17834,0.0264 13.54683,-0.0649 5.46057,-0.11426 10.70731,-0.007 15.94946,-0.11535 3.27635,-0.0686 6.33429,-0.13261 9.61064,-0.20121 7.64481,-0.15992 14.85735,-0.0924 21.8469,-0.23866 0.43685,-0.009 1.09211,-0.0229 1.52897,-0.0319 2.83949,-0.0594 5.46057,-0.11426 8.08166,-0.16909 3.49477,-0.0732 6.77112,-0.14179 10.04747,-0.21017 1.7474,-0.0365 3.49477,-0.0732 5.24217,-0.10967 4.8053,-0.1005 9.17378,-0.19204 13.32381,-0.27882 1.09212,-0.0229 2.18424,-0.0457 3.27635,-0.0686 5.89743,-0.12343 11.35801,-0.23767 15.9449,-0.33367 l -0.0548,-2.62108 z"
   style="stroke-width:2.18471;fill:#373e48" />
</svg>
