<?xml version="1.0" encoding="UTF-8" standalone="no"?>
<!-- Generator: Adobe Illustrator 27.2.0, SVG Export Plug-In . SVG Version: 6.00 Build 0)  -->

<svg
   version="1.1"
   id="Layer_1"
   x="0px"
   y="0px"
   viewBox="0 0 321.1 321.1"
   style="enable-background:new 0 0 321.1 321.1;"
   xml:space="preserve"
   sodipodi:docname="kentucky.svg"
   inkscape:version="1.2.2 (732a01da63, 2022-12-09, custom)"
   xmlns:inkscape="http://www.inkscape.org/namespaces/inkscape"
   xmlns:sodipodi="http://sodipodi.sourceforge.net/DTD/sodipodi-0.dtd"
   xmlns="http://www.w3.org/2000/svg"
   xmlns:svg="http://www.w3.org/2000/svg"><defs
   id="defs514" /><sodipodi:namedview
   id="namedview512"
   pagecolor="#505050"
   bordercolor="#ffffff"
   borderopacity="1"
   inkscape:showpageshadow="0"
   inkscape:pageopacity="0"
   inkscape:pagecheckerboard="1"
   inkscape:deskcolor="#505050"
   showgrid="false"
   inkscape:zoom="2.653379"
   inkscape:cx="160.55"
   inkscape:cy="160.55"
   inkscape:window-width="1920"
   inkscape:window-height="1031"
   inkscape:window-x="0"
   inkscape:window-y="25"
   inkscape:window-maximized="1"
   inkscape:current-layer="Layer_1" />
<style
   type="text/css"
   id="style508">
	.st0{fill:#FE8E69;}
</style>
<path
   id="Kentucky_00000178183321382356881420000003113952724692595892_"
   class="st0"
   d="m 313.79912,160.17726 c -2.23086,0.0114 -3.93591,-0.81922 -5.55711,-2.53383 -1.40022,-1.69365 -0.9906,-3.66158 -2.15843,-3.10342 -1.16782,0.55817 -1.32595,-0.12583 -2.52614,-1.57744 -0.42101,-0.26292 -1.00015,-1.20975 -1.77933,-2.39852 -1.15825,-1.89368 -2.93758,-4.29222 -4.51688,-6.44881 -1.17924,-1.67269 -2.15842,-3.10341 -2.9795,-3.85022 0,0 -0.20007,-0.24195 -0.20007,-0.24195 -1.4002,-1.69365 0.3258,-1.084 0.45154,-2.40994 0.12583,-1.32593 -1.00015,-1.20974 -2.68422,-2.26136 -1.46311,-1.03068 -2.22131,-2.44047 -2.71663,-4.27127 -0.4953,-1.83079 -1.62119,-1.71459 -1.93743,-3.08246 -0.13708,-0.90491 0.65158,-2.16797 1.26123,-3.894 0.30481,-0.86298 0.60966,-1.72599 0.69348,-2.60995 0.25152,-2.65187 -0.6115,-2.95671 -1.01155,-3.44059 -0.20007,-0.24196 -0.2743,-1.80983 -0.1276,-3.35679 -1.4631,-1.03065 -1.87455,-3.74543 -2.41179,-5.13426 0,0 0.0204,-0.221 -0.20006,-0.24192 -0.75821,-1.40979 -4.51505,-1.76609 -5.9991,-2.57577 0,0 -0.22101,-0.0203 -0.22101,-0.0203 -1.4631,-1.03067 -2.77947,-3.60829 -3.01187,-5.86012 -0.4534,-2.272766 -0.0856,-3.798723 -1.85361,-3.966413 -1.32594,-0.125807 -3.41963,0.790569 -5.09233,1.969808 -0.4839,0.400056 -0.94683,0.579143 -1.20975,1.000153 -1.93559,1.600252 -2.54524,3.326242 -3.25011,3.705362 -0.94685,0.57913 -1.58887,0.29526 -2.45186,-0.01 -0.64202,-0.28387 -1.4517,1.20018 -2.57761,1.31638 -0.22101,-0.0203 -0.44198,-0.0418 -0.66297,-0.0627 -1.305,-0.34676 -5.27325,-3.17587 -6.9783,-4.0065 -1.68409,-1.051632 -2.87286,-0.27244 -5.34569,-0.061 -1.58883,0.29526 -1.91462,1.37926 -1.99846,2.26322 -0.0418,0.44199 -0.084,0.88395 -0.34675,1.305 -0.28387,0.642 -1.58883,0.29524 -2.85192,-0.49348 -0.42101,-0.2629 -0.84202,-0.52581 -1.26305,-0.78872 -1.46311,-1.03067 -4.15874,-5.522914 -5.46373,-5.869646 -0.22102,-0.02021 -0.88395,-0.08394 -1.54692,-0.146675 -1.7889,0.05344 -4.48268,0.243811 -6.05057,0.318065 v 0 c -2.20991,-0.209672 -4.73604,-1.787037 -6.66209,-2.63861 0,0 0,0 -0.221,-0.02032 -1.28402,-0.567734 -1.02111,-0.988744 -0.93728,-1.872712 0.0204,-0.221001 0.0627,-0.662993 0.10476,-1.104961 -0.29526,-1.58884 -2.30698,-6.239198 -2.44414,-7.144109 0.0203,-0.221003 -0.40005,-0.483913 -0.82109,-0.74681 -1.68409,-1.051626 -5.53614,-2.754839 -7.26213,-3.36449 -0.44199,-0.04186 -0.64203,-0.283873 -0.86303,-0.304815 -0.88395,-0.08394 -2.55664,1.095384 -3.92448,1.411607 -0.22102,-0.02021 -0.22102,-0.02021 -0.663,-0.06274 -1.56787,0.07431 -5.72478,-0.765908 -8.13469,-1.217447 -0.98877,1.021127 -2.5243,3.105266 -2.3662,3.789193 0,0 -0.0204,0.221013 -0.0204,0.221013 0.3372,1.146856 2.67469,4.713217 3.37004,6.785969 0.17915,0.46295 0.13707,0.904919 0.11615,1.125912 -0.0203,0.221016 -0.50483,0.621061 -1.23069,1.221145 -1.69364,1.40022 -5.23903,3.516733 -8.30056,5.233175 -3.0615,1.716443 -5.66005,3.253823 -6.34398,3.411923 -0.22101,-0.0203 -0.66298,-0.0627 -1.10495,-0.10476 -1.30497,-0.34675 -3.43105,-1.44029 -4.73604,-1.78704 -0.44197,-0.0419 -0.66297,-0.063 -0.88395,-0.0839 -0.70488,0.3791 -2.85963,6.64108 -3.5112,8.8091 -0.0203,0.22101 -0.0418,0.44198 -0.0418,0.44198 -0.0629,0.66296 0.0743,1.56786 -0.23059,2.43088 -0.30484,0.863 -0.83064,1.70503 -2.04039,2.7052 -1.18877,0.77916 -4.07123,2.95854 -6.73265,5.15891 -1.91465,1.37925 -3.62924,3.00046 -5.08093,4.20064 -0.98875,1.02113 -1.95656,1.82125 -2.19852,2.02128 -1.00968,1.24208 -2.30328,3.12621 -3.37587,5.03129 -0.26291,0.42104 -0.30483,0.86301 -0.56774,1.28402 -0.60965,1.72601 -0.14479,6.22964 -1.17554,7.69275 -0.24194,0.20006 -0.48389,0.40007 -0.72584,0.60009 -0.44199,-0.0418 -0.90493,0.13707 -1.56789,0.0743 -2.67284,-0.0303 -7.09266,-0.44968 -7.93468,-0.97552 -1.28403,-0.56773 -3.32627,-2.54522 -2.95855,-4.07122 0.34673,-1.30495 1.37739,-2.76805 -0.25337,-2.0308 -0.46293,0.17914 -0.92588,0.35813 -1.40976,0.7582 -2.11466,1.13732 -4.69228,2.4537 -6.344,3.41195 -0.48391,0.40003 -1.16784,0.55817 -1.43074,0.97917 -0.48391,0.40008 -0.72586,0.6001 -0.96779,0.80014 -0.74682,0.82109 -0.3145,3.31484 -0.8402,4.15688 -0.52582,0.84206 -1.87088,5.62 -3.65976,5.67332 -0.44199,-0.0418 -0.86299,-0.30483 -1.48404,-0.80968 -2.04226,-1.97751 -5.13796,-6.95365 -6.22194,-7.27944 0,0 -0.22101,-0.0204 -0.22101,-0.0204 -1.56789,0.0743 -6.08107,2.99094 -8.23767,4.5702 -0.70489,0.37911 -0.9678,0.80014 -1.20975,1.00017 -0.54677,1.06303 -2.47096,4.89414 -3.37587,5.03131 -0.662995,-0.0629 -3.526296,-2.78719 -6.010502,-4.80663 -0.421032,-0.2629 -1.042092,-0.76776 -1.463101,-1.03068 -0.842041,-0.52579 -1.705057,-0.83064 -2.126066,-1.09354 -1.546936,-0.14667 -2.851924,-0.49345 -3.714916,-0.79829 -0.662971,-0.0627 -1.32593,-0.12583 -2.009875,0.0325 -1.609803,0.51625 -2.947143,-1.84036 -3.589168,-2.12422 -0.642,-0.28387 -1.51457,1.86315 -1.577429,2.52611 -0.06274,0.66299 2.179369,2.88246 2.116488,3.54542 -0.06274,0.66298 -1.956534,1.82123 -2.640464,1.97934 -0.441985,-0.0418 -2.251827,0.2324 -1.621213,-1.71459 0.609641,-1.726 0.893514,-2.36803 -1.316375,-2.57761 0,0 -0.221014,-0.0203 -0.441986,-0.0418 -2.893828,-0.0515 -7.755624,-0.51258 -8.660547,-0.37537 0,0 0,0 0,0 -0.925875,0.35815 0.190483,2.69382 0.527671,3.84067 0.116149,1.12591 -0.45154,2.40994 -0.935452,2.81 -0.483891,0.40007 -1.063033,-0.54676 -2.347059,-1.11449 -0.441986,-0.0419 -1.304966,-0.34677 -1.967943,-0.40964 -0.04186,0.44199 0.137081,0.90493 -0.125807,1.32593 -0.451539,2.40995 -2.3033,3.12623 -3.313019,4.36835 -1.009717,1.24208 -1.440294,3.43103 -1.249809,6.12484 -0.02021,0.22101 -0.04186,0.44198 0.158,0.68394 0.316223,1.36785 1.537367,2.59856 2.337503,3.56636 0.600095,0.72585 0.779172,1.18877 0.51624,1.6098 -0.546771,1.06304 -4.966559,0.64384 -7.702277,1.27631 -2.05181,0.47434 -2.777655,1.07442 -3.745435,1.87456 -0.462951,0.17915 -0.946838,0.57912 -1.409787,0.7582 -0.925864,0.35816 -1.346894,0.0952 -1.767917,-0.1676 -0.421032,-0.26291 -0.621049,-0.50486 -1.32593,-0.12583 -1.609804,0.51626 -2.97583,5.5152 -3.143498,7.28315 -0.367717,1.52596 3.158582,4.31315 3.549083,7.24889 0.232401,2.25183 -0.535362,3.29389 -2.145188,3.81016 -0.462928,0.17914 -0.683915,0.158 -1.12589,0.11614 -0.221015,-0.0203 -0.441986,-0.0418 -0.883954,-0.084 -3.673022,-1.24024 -14.598603,-8.29686 -16.366518,-8.46453 0,0 -0.221015,-0.0203 -0.221015,-0.0203 -1.146866,0.33719 -8.163382,6.1381 -9.898948,7.9803 -0.241957,0.20007 -0.262897,0.42101 -0.262897,0.42101 -0.525828,0.84205 0.295249,1.58885 1.390666,4.14551 -0.02021,0.22101 0.179141,0.46295 0.157999,0.68393 0.337188,1.14686 0.495298,1.83079 0.190463,2.69377 -0.04186,0.44199 -0.346754,1.30501 -0.430576,2.18897 -0.514421,3.0729 -2.33565,1.11635 -1.524128,4.31499 0.179142,0.46295 0.137069,0.90493 0.337187,1.14688 0.516263,1.6098 1.063034,0.54677 0.71628,1.85177 -0.325777,1.08396 -0.777318,3.4939 -1.828942,5.17799 -0.283873,0.64202 -0.788727,1.26308 -1.272617,1.66314 -1.9356041,1.60025 0.369538,3.15672 -1.177386,3.01002 -1.5469247,-0.14666 -3.0423853,-3.18725 -4.1892633,-2.85006 0,0 -0.2210144,-0.0203 -0.2210144,-0.0203 -0.9468386,0.57915 -2.1032612,3.36818 -3.2387283,5.93621 l 2.6728508,0.0302 21.1198442,0.66439 2.009873,-0.0324 11.775341,0.44794 1.546947,0.14667 17.563004,0.55078 c 0,0 0.441986,0.0419 0.662981,0.0627 0.883977,0.084 2.251827,-0.23238 1.114506,-2.34707 -1.516405,-2.81955 -2.644162,-7.38606 -1.718275,-7.74421 0,0 0.221013,0.0203 0.221013,0.0203 1.325931,0.12582 7.755604,0.51256 8.618608,0.81739 0.862994,0.30482 0.453394,2.27277 0.453394,2.27277 l 6.934514,-0.23424 2.230862,-0.0114 12.964138,-0.3313 9.165409,-0.24564 2.23086,-0.0114 12.28021,-0.17321 c 0,0 0.221,0.0204 0.66296,0.0627 1.52599,0.3677 5.48285,0.96595 8.15569,0.99647 0.44198,0.0418 0.90493,-0.13708 1.34691,-0.0952 0.90492,-0.13706 2.93574,-0.3905 4.94561,-0.42285 2.91479,-0.16952 6.49256,-0.27616 9.36543,-0.004 1.10495,0.10476 2.23086,-0.0114 3.11482,0.0724 1.10495,0.10476 3.3358,0.0935 6.22965,0.1448 2.23084,-0.0114 4.92467,-0.20188 7.81849,-0.1504 4.70366,-0.22285 10.07031,-0.3828 14.31105,-0.42656 2.67283,0.0303 5.14565,-0.18089 6.91357,-0.0132 0.44198,0.0418 0.88395,0.084 1.10495,0.10476 0.44197,0.0418 0.88395,0.084 1.32593,0.12582 1.32593,0.12583 4.66175,0.21905 9.10252,0.41741 3.11482,0.0724 6.89262,0.20717 10.69136,0.12212 7.79753,0.0706 15.81606,0.16236 20.71976,0.18123 0.66297,0.0627 1.10494,0.10476 1.78888,-0.0534 0.22102,0.0203 0.44199,0.0418 0.44199,0.0418 1.3469,-0.0952 5.12469,0.0401 10.27033,-0.14083 0.663,0.0627 1.3469,-0.0952 2.00987,-0.0324 3.35677,-0.12759 7.15553,-0.21328 11.17529,-0.27799 2.81954,-1.51643 6.56497,-3.39098 8.85871,-4.06535 0.22101,0.0203 0.46294,-0.17915 0.68392,-0.158 3.59872,-0.32763 6.8812,-2.02314 8.77488,-3.1814 1.89368,-1.15827 4.0407,-0.28571 4.60844,-1.56974 0.56773,-1.28402 1.58701,-4.97796 2.04995,-5.15704 0.48389,-0.40007 3.75683,0.35631 5.38759,-0.38095 1.16783,-0.55818 2.35663,-1.33734 2.70336,-2.64234 0.26291,-0.421 0.30482,-0.86298 0.34674,-1.30496 0.084,-0.88396 0.1676,-1.76792 0.23059,-2.43088 0.32578,-1.08401 0.87258,-2.14705 2.6824,-2.42135 2.95672,-0.6115 3.68256,-1.21159 3.6083,-2.77947 -0.0743,-1.56791 -0.6115,-2.95672 3.85975,-5.43137 1.16784,-0.55817 2.11467,-1.13732 2.81956,-1.51641 2.35663,-1.33735 3.52446,-1.89552 5.88106,-3.23287 0.94684,-0.57913 2.39853,-1.77933 3.6502,-3.22147 2.96626,-3.06333 6.70031,-7.16875 8.39394,-8.56899 1.45169,-1.20016 3.9131,-3.64246 5.62769,-5.26368 0.084,-0.88395 -1.26305,-0.78873 -2.80998,-0.93545 z"
   style="fill:#373e48;stroke-width:2.21982" />
</svg>
