<?xml version="1.0" encoding="UTF-8" standalone="no"?>
<!-- Generator: Adobe Illustrator 27.2.0, SVG Export Plug-In . SVG Version: 6.00 Build 0)  -->

<svg
   version="1.1"
   id="Layer_1"
   x="0px"
   y="0px"
   viewBox="0 0 321.1 321.1"
   style="enable-background:new 0 0 321.1 321.1;"
   xml:space="preserve"
   sodipodi:docname="louisiana.svg"
   inkscape:version="1.2.2 (732a01da63, 2022-12-09, custom)"
   xmlns:inkscape="http://www.inkscape.org/namespaces/inkscape"
   xmlns:sodipodi="http://sodipodi.sourceforge.net/DTD/sodipodi-0.dtd"
   xmlns="http://www.w3.org/2000/svg"
   xmlns:svg="http://www.w3.org/2000/svg"><defs
   id="defs569" /><sodipodi:namedview
   id="namedview567"
   pagecolor="#505050"
   bordercolor="#ffffff"
   borderopacity="1"
   inkscape:showpageshadow="0"
   inkscape:pageopacity="0"
   inkscape:pagecheckerboard="1"
   inkscape:deskcolor="#505050"
   showgrid="false"
   inkscape:zoom="2.653379"
   inkscape:cx="160.55"
   inkscape:cy="160.55"
   inkscape:window-width="1920"
   inkscape:window-height="1031"
   inkscape:window-x="0"
   inkscape:window-y="25"
   inkscape:window-maximized="1"
   inkscape:current-layer="Layer_1" />
<style
   type="text/css"
   id="style563">
	.st0{fill:#FE8E69;}
</style>
<path
   id="Louisiana_2_"
   class="st0"
   d="m 296.80058,278.69394 c -1.20134,-1.84985 -1.51423,-0.5804 -2.79501,-0.63714 -1.53693,-0.0682 -5.61921,-6.40877 -6.365,-6.95512 -0.74576,-0.54638 -9.08539,-3.48244 -11.3908,-3.58457 -2.04926,-0.0908 -4.88966,0.29669 -6.14774,-0.27238 -1.26942,-0.31289 -11.06658,-5.11014 -10.98714,-6.90324 0.0795,-1.79308 0.8074,-6.63736 1.87741,-7.61657 0.53502,-0.48961 2.09464,-0.93384 3.1306,-1.1446 1.03599,-0.21077 1.80444,-0.17667 2.30541,0.10205 0.75711,0.2902 2.47076,2.16274 3.7402,2.47563 1.01327,0.30154 1.09271,-1.49154 -0.41017,-2.3281 -1.5029,-0.83655 -3.29598,-0.91601 -4.79886,-1.75257 -1.7477,-1.10406 -3.99636,-2.48699 -3.45001,-3.23275 0.54635,-0.74576 5.92564,-0.50743 6.6714,0.039 0.74576,0.54635 2.51618,1.13811 3.57483,0.41502 1.04732,-0.4669 7.59226,-9.15999 7.61498,-9.67229 0.27884,-0.50097 -4.29792,-1.47373 -5.96618,-4.37087 -1.66824,-2.89717 -1.13324,-3.38678 -0.59823,-3.87638 0.79117,-0.47825 2.3281,-0.41018 0.84792,-1.75903 -1.22404,-1.33755 -3.00578,-1.67314 -3.27329,-1.42832 -0.52366,0.23333 -5.30468,3.87152 -5.33873,4.63997 -0.0341,0.76848 -0.49448,5.36793 -1.33104,6.87081 -0.82522,1.24673 -3.66564,1.63421 -4.42276,1.34401 -0.75712,-0.29021 -4.03038,-1.71852 -3.985,-2.74315 0.0454,-1.02463 0.32425,-1.52557 0.0795,-1.79308 -0.24487,-0.26751 -2.35082,0.92248 -3.59755,0.0972 -1.24672,-0.82519 -2.18056,-2.91983 -1.62285,-3.92177 0,0 0,0 0,0 0.55771,-1.00191 1.12676,-2.26 2.66369,-2.19189 1.53695,0.0682 2.26002,1.12675 2.76099,1.40559 0.5123,0.0231 0.56904,-1.25808 1.12675,-2.25999 0.55771,-1.00194 1.55962,-0.44423 2.08328,-0.67769 0.52366,-0.23333 0.30156,-1.01327 0.88197,-2.5275 0.2902,-0.75712 1.37157,-1.99252 2.69773,-2.96038 0.80253,-0.73442 1.84985,-1.20134 2.87448,-1.15596 0.5123,0.0231 1.30347,-0.45555 2.09464,-0.93383 -1.5256,-0.32423 -3.29599,-0.91599 -4.48597,-3.02199 -1.90172,-3.4208 -1.60016,-4.43407 -1.999,-7.01834 -0.21077,-1.03596 -1.64555,-3.40945 -3.31381,-6.30661 -3.11439,-5.0145 -7.20801,-11.09902 -7.37339,-13.15961 0.0103,-0.25615 0.0103,-0.25615 0.0231,-0.5123 -0.0972,-3.59755 1.34724,-13.02991 2.41727,-14.00913 1.07002,-0.97922 2.74312,-3.985 2.56641,-5.78944 0,0 0.0103,-0.25615 0.0103,-0.25615 l -6.15907,-0.0154 -21.56249,0.0713 -4.8783,0.0405 -10.78125,0.0356 -1.0246,-0.0454 -13.08666,-0.0664 -13.8551,-0.10051 -5.39063,0.018 -23.86787,-0.0308 v 0 c 0,0 0.76199,-5.61272 2.08169,-12.22738 1.43319,-9.17621 3.45811,-20.12282 4.28333,-21.36955 1.36021,-1.73633 5.01935,-9.01732 6.92594,-11.49944 0.0102,-0.25615 0.26748,-0.24487 0.53499,-0.48961 1.08137,-1.23537 2.98796,-3.71749 5.17339,-6.70058 4.89451,-6.19961 11.17196,-14.64786 12.26467,-16.13941 0.0102,-0.25615 0.26751,-0.24487 0.26751,-0.24487 0.0103,-0.25615 -5.84131,-7.18857 -5.84131,-7.18857 l 0.76845,0.0341 5.64677,-0.0077 0.11846,-8.464481 c 0,0 -6.64383,-6.454148 -6.05207,-8.224536 0.56904,-1.258086 1.38293,-2.248663 1.68446,-3.261932 0.27887,-0.500968 0.30156,-1.013295 -0.18794,-1.548288 0,0 0,0 0,0 -0.97925,-1.070012 -4.21846,-3.266805 -4.07095,-6.596839 0.14743,-3.330008 -2.69448,-14.49225 -1.55637,-17.008397 0.55771,-1.001936 1.10407,-1.747696 1.91793,-2.738273 l -5.90293,-0.0051 -8.20833,-0.106922 -1.53693,-0.0682 L 131.34308,44.990083 98.25358,44.550704 83.886175,44.427372 71.579358,44.138786 58.504064,43.816149 56.967135,43.747945 40.806624,43.545383 30.549037,43.347437 c -0.12487,2.817733 0.0077,5.646774 -0.129742,8.720658 -0.181536,4.098485 -0.106921,8.20833 -0.277252,12.050666 -0.05026,6.927552 -0.333971,13.331444 -0.560942,18.454558 -0.272381,6.147742 -0.197946,10.257561 -0.22051,10.769888 -0.01026,0.25615 -0.02308,0.512301 -0.04538,1.024628 0.108717,3.341367 0.547967,10.803915 0.980834,12.619705 -0.01026,0.25616 0.478276,0.79117 0.711734,1.31483 1.434777,2.37349 4.617274,5.85106 5.807259,7.95706 0.244869,0.26748 0.23333,0.52366 0.222048,0.77981 0.911143,2.60694 -0.04384,12.57432 1.391034,14.94781 -0.01026,0.25615 0.23333,0.52366 0.47825,0.79116 1.924411,2.90851 7.833823,8.56015 9.468033,12.22577 1.3667,3.91044 1.305086,11.09414 1.760669,12.39761 0,0 -0.01026,0.25615 -0.01026,0.25615 0.478276,0.79117 1.79308,0.0795 2.31674,-0.1541 0,0 0.25615,0.0103 0.25615,0.0103 0.256151,0.0102 -0.175126,9.74526 -0.356687,13.84377 -0.10205,2.30538 0.31938,4.37733 -0.306432,6.91619 -0.346945,2.0379 -1.473699,4.2979 -3.402982,7.29234 -4.695094,7.49174 -7.381496,10.19596 -6.925937,11.49943 0.210766,1.03599 2.738272,1.91795 2.903629,3.97854 0.176665,1.80444 -2.407533,2.20325 -2.777169,4.75345 -0.01026,0.25615 -0.02308,0.51233 -0.02308,0.51233 0.176664,1.80444 0.786298,5.42467 1.117011,9.54585 0.154101,2.31674 0.296689,4.88965 -0.06154,7.1837 -0.335586,1.78175 -0.648479,3.05117 -0.961398,4.32061 -1.160806,3.02848 -2.743119,3.985 -3.835849,5.47655 -0.546352,0.74576 -1.08137,1.23537 -1.360213,1.73633 -0.290201,0.75712 -0.580403,1.51424 -0.881963,2.52751 -0.335585,1.78175 -4.246023,3.14845 -5.082576,4.65133 -0.557711,1.00193 3.103037,5.27065 6.052076,8.22456 0.813862,-0.99058 2.208126,-3.49539 7.086448,-3.53593 5.658107,-0.26264 23.41229,-1.27265 24.693068,-1.21591 1.280779,0.0567 14.732196,3.47596 20.96586,7.60201 5.243087,3.31218 8.772529,4.75186 11.322722,5.12149 0.5123,0.0231 1.02463,0.0454 1.53693,0.0679 2.56156,0.11359 16.78145,3.56675 18.61994,2.62156 1.83846,-0.94517 3.2214,-3.19383 5.01447,-3.1144 1.79311,0.0795 5.65814,-0.26264 6.66007,0.29508 0.74576,0.54635 8.7044,6.28879 11.00981,6.39094 2.30541,0.10205 3.62024,-0.60958 5.24796,-2.59074 1.37157,-1.99251 2.41889,-2.45943 0.65984,-3.30734 -1.75903,-0.84791 -7.75924,-4.4503 -9.04002,-4.50704 -1.28077,-0.0567 -3.40946,1.64556 -5.20254,1.5661 -1.79311,-0.0795 -6.1591,-0.0154 -6.39256,-0.53986 -0.48961,-0.53502 -1.89036,-3.67698 -1.57747,-4.9464 0.0682,-1.53693 6.37471,-4.85076 7.67821,-5.30632 0.25615,0.0103 0.77981,-0.22204 1.30347,-0.45555 2.07195,-0.42154 5.43601,-1.04245 5.69216,-1.03112 0,0 -0.41502,3.57483 -0.49448,5.36793 -0.0231,0.5123 -0.0341,0.76845 -0.0341,0.76845 0.23333,0.52366 2.35082,-0.92247 4.15526,-1.09919 1.81577,-0.43286 7.74141,-0.94032 8.74332,-0.38261 1.00194,0.55771 -0.20435,4.61082 0.51882,5.66947 0.72306,1.05868 2.78365,0.89332 3.55211,0.92737 0.75711,0.2902 0.48476,6.43792 1.76554,6.49466 1.02462,0.0454 11.44757,2.30379 13.71892,3.1744 0.25615,0.0102 0.25615,0.0102 0.50095,0.27887 0.74578,0.54635 3.46134,2.9766 3.64941,4.52486 0.1882,1.54829 -0.61445,2.28271 -0.8706,2.27136 -0.25615,-0.0103 -1.7477,-1.10407 -2.27136,-0.87061 -0.52366,0.23333 -0.61445,2.28272 -1.40562,2.76097 -0.8025,0.73442 -3.65426,1.37806 -3.16465,1.91307 0.48961,0.535 2.69286,2.94256 3.43864,3.48891 0.75712,0.2902 5.85754,1.02947 7.10427,1.85469 1.24673,0.82522 7.09291,2.11087 8.37369,2.16762 1.28078,0.0567 6.58709,7.73492 7.60036,8.03648 1.26942,0.3129 11.10548,-1.56126 11.37299,-1.80605 0.26751,-0.24487 -0.70038,-1.57098 -1.46883,-1.60503 -0.51233,-0.0231 -8.05433,2.20974 -8.29913,1.94223 -0.24486,-0.26751 -0.73442,-0.8025 -0.70037,-1.57098 0.0231,-0.5123 7.00699,-1.74282 7.7868,-1.96495 0.77983,-0.22205 0.99545,-5.08906 1.2516,-5.0777 0.26751,-0.24487 3.06252,0.39232 3.84234,0.17025 0.52366,-0.23333 0.31292,-1.26942 0.33561,-1.78175 0.0231,-0.5123 -1.71365,-1.87251 -1.69096,-2.38484 0.0103,-0.25615 2.11734,-1.44613 2.88582,-1.41208 0.76845,0.0341 2.77232,1.14945 3.01711,1.41695 0.24487,0.26751 -1.59367,1.21268 -1.62772,1.98116 -0.0231,0.5123 -0.3583,2.29405 0.14256,2.57291 0.50097,0.27885 5.61272,0.76197 6.39256,0.53987 0.77981,-0.22205 0.41502,-3.57483 1.74121,-4.54271 0,0 0,0 0,0 1.32616,-0.96789 2.35079,-0.92248 3.08522,-0.12 0.73442,0.80253 1.46882,1.60503 1.69095,2.38484 0.23333,0.52366 -1.05868,0.72307 -1.09273,1.49155 -0.0341,0.76847 -0.35828,2.29404 0.13128,2.82906 0.48961,0.535 3.80828,0.93871 4.01905,1.97467 0.21077,1.03596 -3.95582,2.39133 -5.00314,2.85824 -1.03599,0.21077 -1.84985,1.20132 -1.34888,1.48019 0.50097,0.27884 1.31483,-0.71173 3.37542,-0.87709 2.06059,-0.16538 5.71487,-1.54342 6.54007,-2.79014 0.82522,-1.24673 11.37785,-7.70898 11.67941,-8.72225 0.30156,-1.0133 0.32425,-1.5256 -0.17666,-1.80447 -0.5123,-0.0231 -4.01257,3.67211 -5.04855,3.88288 -1.03596,0.21076 -2.74961,-1.66178 -2.44805,-2.67504 0.0341,-0.76848 3.18735,-2.42538 3.24409,-3.70616 0.0454,-1.0246 0.50584,-5.62406 0.56258,-6.90484 0,0 0.0103,-0.25615 0.0103,-0.25615 0.0341,-0.76845 0.81386,-0.99057 1.59369,-1.21267 0,0 0.25616,0.0103 0.25616,0.0103 0.50096,0.27884 0.45555,1.30347 1.73633,1.36022 1.53693,0.0682 3.21006,-2.93768 4.24602,-3.14845 1.29214,-0.19949 1.75906,0.84791 1.98116,1.62772 0.21077,1.03599 1.16729,2.6183 1.12191,3.64293 -0.0454,1.02463 -2.44159,2.97173 -1.97467,4.01905 0.19948,1.29214 6.90483,0.56258 7.91813,0.86412 1.01327,0.30156 11.12329,3.82938 12.11387,4.64325 0.99058,0.81386 5.51708,8.71414 6.7865,9.02706 1.26945,0.31289 6.42659,-0.22872 7.69603,0.0844 1.26942,0.31289 2.98307,2.18543 3.48403,2.46427 0.50097,0.27885 5.48142,-2.06707 5.78298,-3.08034 0.3129,-1.26945 0.8933,-2.78368 1.70716,-3.77426 1.57098,-0.70038 2.3962,-1.9471 1.19486,-3.79693 z"
   style="stroke-width:2.56407;fill:#373e48" />
</svg>
