<?xml version="1.0" encoding="UTF-8" standalone="no"?>
<!-- Generator: Adobe Illustrator 27.2.0, SVG Export Plug-In . SVG Version: 6.00 Build 0)  -->

<svg
   version="1.1"
   id="Layer_1"
   x="0px"
   y="0px"
   viewBox="0 0 321.1 321.1"
   style="enable-background:new 0 0 321.1 321.1;"
   xml:space="preserve"
   sodipodi:docname="maine.svg"
   inkscape:version="1.2.2 (732a01da63, 2022-12-09, custom)"
   xmlns:inkscape="http://www.inkscape.org/namespaces/inkscape"
   xmlns:sodipodi="http://sodipodi.sourceforge.net/DTD/sodipodi-0.dtd"
   xmlns="http://www.w3.org/2000/svg"
   xmlns:svg="http://www.w3.org/2000/svg"><defs
   id="defs599" /><sodipodi:namedview
   id="namedview597"
   pagecolor="#505050"
   bordercolor="#ffffff"
   borderopacity="1"
   inkscape:showpageshadow="0"
   inkscape:pageopacity="0"
   inkscape:pagecheckerboard="1"
   inkscape:deskcolor="#505050"
   showgrid="false"
   inkscape:zoom="1.8762223"
   inkscape:cx="104.46524"
   inkscape:cy="122.05377"
   inkscape:window-width="1920"
   inkscape:window-height="1031"
   inkscape:window-x="0"
   inkscape:window-y="25"
   inkscape:window-maximized="1"
   inkscape:current-layer="Layer_1" />
<style
   type="text/css"
   id="style592">
	.st0{fill:#FE8E69;}
</style>
<path
   class="st0"
   d="m 229.10362,175.56079 c -0.374,-2.02211 -4.66726,-13.023 -5.67666,-13.50552 -1.00942,-0.48249 -3.96288,-1.52564 -4.19057,-1.39987 -0.40443,0.0748 -0.004,1.33904 -0.78831,2.06978 -0.78502,0.73077 -1.03986,1.61441 -1.84539,0.42496 -0.80554,-1.18943 -4.00393,-5.36604 -3.80008,-6.07295 0.38058,-0.65596 0.53019,0.15285 1.08752,-0.45208 0.43154,-0.8327 0.99217,-2.77675 0.9478,-5.27807 -0.0453,-2.50136 0.11826,-7.04867 -0.43563,-7.78269 -0.37729,-0.68311 -0.32634,-0.85985 -0.85651,-1.01275 -0.35347,-0.1019 -0.3806,0.65595 -1.21328,0.2244 -0.88366,-0.2548 -9.59437,-2.57538 -9.79495,-3.2075 v 0 c -0.14953,-0.80884 -0.2926,-4.29577 0.0371,-4.77503 0.32963,-0.47919 1.13848,-0.6288 1.06368,-1.0332 -0.0239,-0.58117 0.48528,-53.459686 -1.40449,-55.536055 -1.88973,-2.076389 -10.65879,-11.496582 -14.8255,-12.315316 -4.16673,-0.818735 -16.0644,8.575854 -18.31096,7.736571 -2.2465,-0.839263 -4.34343,-0.869695 -4.66647,-3.068545 -0.55073,-2.073097 -0.84992,-3.690799 -0.54412,-4.751202 0.4825,-1.009403 1.0908,-1.791112 0.76445,-2.650914 -0.32632,-0.859832 -5.37668,-1.933381 -5.60438,-1.80765 -0.40444,0.07484 -23.37296,31.928064 -23.7807,33.341872 -0.35676,1.237126 -0.69296,4.394448 -0.97491,6.035969 -0.051,0.17693 -0.1019,0.35345 -0.1019,0.35345 -0.23099,1.4648 -0.41763,5.43099 -1.12783,6.56615 -0.71023,1.13519 -2.73235,1.50917 -3.6941,2.18895 -0.96175,0.67982 -1.69908,2.57287 -2.1816,3.5823 -0.48253,1.00942 -1.57663,4.13959 -1.73282,6.00882 -0.15616,1.86922 -1.00204,6.79381 -0.44804,7.52786 0.55404,0.73406 1.99501,0.38391 2.04266,1.54621 0.0476,1.1623 -2.96991,5.65206 -3.80587,6.55954 -0.83601,0.90749 -2.91569,4.13632 -3.77551,4.46264 -0.22769,0.1258 -0.96174,0.67978 -1.87251,1.18284 -1.4681,1.10804 -3.67026,2.77011 -4.27856,3.55185 -0.7102,1.13517 -3.33323,9.56725 -4.75697,13.17664 -0.30579,1.0604 -0.6864,1.71633 -0.6864,1.71633 -0.6321,0.20057 -2.29745,-0.66254 -3.00109,-2.20542 -0.7546,-1.3662 -1.58727,-1.79775 -2.34517,-1.82487 -0.40443,0.0748 -1.16229,0.0476 -1.97116,0.19737 0.23512,7.15059 0.76017,29.89043 1.27138,48.03199 0.33369,8.13616 0.56871,15.28677 0.63364,19.70831 0.19716,1.97116 0.14292,3.48692 0.16683,4.06808 0.29588,2.95674 0.16351,5.40713 0.082,7.68077 -0.25811,2.22271 -0.59102,4.04098 -0.99876,5.45479 -0.68967,3.05539 5.06432,5.67187 5.36681,5.95051 0.12581,0.2277 0.0886,5.0027 0.23841,5.81155 0,0 0,0 -0.0509,0.17675 0.37729,0.68307 2.72244,2.50793 4.03436,3.26912 0.73403,-0.55403 1.18943,-0.80557 1.21329,-0.2244 0.20054,0.63213 0.55401,0.73405 0.65593,0.38058 0.27868,-0.3025 4.13225,-5.69973 3.75493,-6.38281 -0.32631,-0.85983 -1.33902,-0.004 -0.98228,-1.2404 0.18006,-1.28807 1.19603,-3.48365 2.05584,-3.80998 0.80887,-0.14955 1.59059,0.45869 1.97118,-0.19734 0.32964,-0.47924 3.34391,-3.62997 3.1943,-4.43879 -0.14953,-0.80887 -1.159,-1.29137 -0.90417,-2.17503 0.43154,-0.83268 0.25812,-2.22269 1.29466,-2.49806 v 0 c 1.03655,-0.27536 5.38328,-0.74469 5.41041,-1.50258 0.20386,-0.70691 -2.66819,-4.0237 -2.41336,-4.90736 0.48251,-1.00942 2.07968,-3.2288 2.8647,-3.95956 0.73404,-0.55402 3.62257,-3.93243 4.02699,-4.00723 0.40444,-0.0748 0.52691,1.49194 0.44882,2.42655 -0.25483,0.88363 -1.77721,3.50746 -1.82816,3.68418 -0.051,0.17694 2.12407,-0.72746 2.57946,-0.97896 0.27863,-0.30249 1.84866,-1.76402 2.42984,-1.78785 0,0 0,0 0.17693,0.051 0.30249,0.27867 0.57456,2.65424 1.28145,2.85813 0.88368,0.25482 2.42659,-0.44881 3.18775,-1.76072 0.76118,-1.31192 0.71352,-2.47424 1.16893,-2.72577 0,0 0,0 0.17657,0.051 0.58117,-0.0239 5.81154,-0.2384 6.3689,-0.84334 0.55729,-0.60501 1.4985,-3.20497 1.70236,-3.9119 0.20387,-0.70692 -0.19736,-1.97115 0.83929,-2.24651 0.8598,-0.32634 0.70689,0.20386 1.7673,0.50964 0.17676,0.051 0.35346,0.1019 0.35346,0.1019 1.46481,0.23099 1.39001,-0.17344 1.92018,-0.0215 0.53019,0.15285 0.57787,1.31521 1.28478,1.51905 0.7069,0.20387 2.12404,-0.72745 2.40272,-1.02995 0.27863,-0.30249 -0.37729,-0.68309 -0.0476,-1.16231 0.32962,-0.47921 3.56832,-2.41667 3.89794,-2.89588 0.32963,-0.47922 -0.32633,-0.85982 0.35676,-1.23711 0.68308,-0.37728 0.91079,-0.50307 0.93793,-1.26095 -0.14955,-0.80884 -0.20059,-0.63214 -0.42829,-0.50635 -0.40442,0.0748 -0.91077,0.50306 -0.98558,0.0986 -0.0239,-0.58116 0.1052,-1.69247 0.13224,-2.45036 0.0272,-0.75792 0.35348,0.10189 0.68311,-0.37731 0.32962,-0.47924 0.15284,-0.53019 0.23098,-1.46481 -0.0239,-0.58118 -0.0986,-0.98558 -0.0476,-1.16231 0.051,-0.17676 0.10189,-0.35346 0.3296,-0.47923 0.6831,-0.3773 2.12735,-2.06648 2.4093,-3.70801 0.45872,-1.59059 0.20725,-2.04598 -0.39783,-2.60331 -0.42826,-0.50634 -0.67979,-0.96174 -0.52688,-1.49193 0.10189,-0.35346 1.49194,-0.52688 1.59386,-0.88034 0.10189,-0.35348 -0.0748,-0.40443 0.32962,-0.47923 0.40441,-0.0748 0.3025,0.27865 0.95847,0.65924 0.47921,0.32965 1.64483,-1.05707 2.3279,-1.43436 0.051,-0.17676 0.2277,-0.12581 0.2277,-0.12581 0.40443,-0.0748 0.55403,0.73404 0.22442,1.21324 -0.50636,0.42827 -0.93462,-0.078 -0.93794,1.26096 -0.004,1.33903 0.24825,1.79443 0.0453,2.50133 -0.25482,0.88365 -0.76118,1.31191 -0.33292,1.81826 0.42828,0.50637 1.89307,0.73734 2.45039,0.13225 0.55732,-0.60501 1.6177,-0.2992 1.92019,-0.0216 0.30249,0.27869 4.23822,2.56222 4.48976,3.01763 0.25152,0.45537 1.13517,0.71018 1.28805,0.18007 0.15285,-0.53018 0.13224,-2.4504 -0.52358,-2.83099 -0.42826,-0.50634 -1.03656,0.27539 -1.13518,-0.71021 -0.0986,-0.98558 0.2581,-2.22269 0.28524,-2.98057 0.0782,-0.93463 0.48252,-1.00943 0.83599,-0.90749 0.40442,-0.0749 0.50634,-0.42825 0.785,-0.73074 0.27867,-0.3025 0.65596,0.38059 0.7546,1.36616 0.14952,0.80887 0.35016,1.44097 0.67978,0.96174 0.32963,-0.47923 -0.17344,-1.39 0.0813,-2.27366 0.25481,-0.88365 0.53347,-1.18614 0.83599,-0.90747 0.30249,0.27866 -0.45871,1.59057 0.19734,1.97116 0.65597,0.38058 1.3152,-0.57786 1.94734,-0.77846 0.68309,-0.37726 2.47752,-0.62551 3.03484,-1.23048 0.38057,-0.65596 0.15615,-1.86924 0.73734,-1.89306 0.58115,-0.0239 1.41384,0.40771 2.34844,0.4858 0.75789,0.0272 1.21328,-0.22439 1.74347,-0.0716 0.53019,0.15285 -0.0272,0.75788 0.14623,2.1479 -0.004,1.33904 1.2782,4.19714 2.33856,4.50295 1.06039,0.30578 0.43486,-2.17172 0.99218,-2.77673 0.55732,-0.60499 1.20999,1.11465 1.7673,0.50964 0.38059,-0.65594 -0.0748,-0.40442 0.12912,-1.11132 0.051,-0.17694 0.2277,-0.1258 0.27863,-0.3025 0.63212,-0.20057 1.64152,0.28196 2.09692,0.0308 0.68311,-0.37728 0.68638,-1.71634 0.8664,-3.00439 0.18006,-1.28808 -0.24493,-3.13348 0.26142,-3.56175 0.55731,-0.605 2.41997,2.22927 3.3546,2.30736 0.93462,0.078 0.38057,-0.65595 1.11465,-1.20997 0.73401,-0.554 1.74345,-0.0716 2.55227,-0.22118 0.9856,-0.0986 1.49194,-0.52688 1.69582,-1.2338 0.20385,-0.70694 -0.374,-2.02212 0.007,-2.67808 0.55734,-0.60501 1.16563,-1.38671 1.71964,-0.65266 0.55402,0.73405 0.35018,1.44095 1.51248,1.39329 1.11134,0.12911 2.32793,-1.43436 2.58274,-2.31803 0.078,-0.93461 -0.57785,-1.31518 -0.37399,-2.02213 0.0272,-0.75787 1.24041,-0.98227 1.4171,-0.9313 0.17695,0.051 0.14955,0.80884 0.42498,1.8454 0.32633,0.85982 0.62885,1.13847 0.52691,1.49194 -0.051,0.17694 -1.21329,0.22439 -1.0127,0.85649 0.0239,0.58117 1.31189,0.76118 1.944,0.56064 0.40443,-0.0748 4.96162,-3.92915 6.05242,-5.72028 0.96505,-2.01882 3.64644,-3.35127 3.27245,-5.3734 z m -59.50573,43.71368 c -0.17676,-0.051 -0.55734,0.60499 -0.55734,0.60499 -0.27865,0.30249 0.0215,1.92018 0.39785,2.60331 0.37728,0.68307 0.96173,-0.6798 1.11463,-1.21 0.10189,-0.35347 -0.12581,-0.22768 -0.0986,-0.98558 -0.14954,-0.80884 -0.62883,-1.13845 -0.85652,-1.01272 z m 2.40192,-10.98439 c 0.1019,-0.35344 1.64157,0.28195 1.56675,-0.12231 0.1019,-0.35344 -0.42824,-0.50635 -1.20997,-1.11464 -0.78173,-0.60828 -0.80557,-1.18944 -1.20999,-1.11465 -0.40442,0.0748 -3.11293,2.16514 -3.39158,2.46763 -0.27868,0.30249 -0.43154,0.83269 -0.58444,1.36288 -0.1019,0.35346 0.65595,0.38059 1.26092,0.9379 0.60501,0.55734 0.49975,2.24984 1.23052,3.03486 0.90751,0.83595 3.36447,-1.70976 3.51737,-2.23995 0.20384,-0.70692 -0.42498,-1.84538 -0.6765,-2.3008 -0.14954,-0.80884 -0.55403,-0.73402 -0.50308,-0.91077 z m 6.31465,0.67244 c -0.35349,-0.1019 -1.69582,1.23381 -1.69582,1.23381 -0.50635,0.42828 0.22441,1.21328 0.32303,2.19887 0.0985,0.98556 -0.40769,1.41382 -0.0543,1.51577 0.35346,0.10189 0.73405,-0.55403 1.26422,-0.40113 0.35347,0.1019 0.42829,0.50636 0.85982,-0.32634 0.43158,-0.83268 0.53679,-2.52518 0.51297,-3.10634 -0.37729,-0.68308 -0.85651,-1.01271 -1.20998,-1.11464 z m -0.0455,-2.50132 c 0.38058,-0.65597 0.30909,-2.39942 -0.069,-3.0825 -0.20055,-0.6321 -2.04261,-1.54619 -2.49801,-1.29466 -0.4554,0.25155 0.0748,0.40441 -0.12913,1.11134 -0.15285,0.53019 -0.91077,0.50305 -1.08749,0.4521 -0.17676,-0.051 -0.2277,0.1258 -0.38059,0.65595 -0.15285,0.53019 0.32631,0.85981 0.0215,1.92017 -0.25481,0.88366 -0.0272,0.75788 0.57788,1.31519 0.65594,0.38062 0.6798,0.96175 1.20997,1.11465 0.53019,0.15285 0.15285,-0.53017 0.60827,-0.78171 0.73407,-0.55402 1.54291,-0.70361 1.74676,-1.41053 z m -9.00334,-6.61634 c 0.15286,-0.53019 0.98557,-0.0986 1.11463,-1.20996 0.078,-0.93464 -0.72747,-2.12406 -1.18282,-1.87256 0,0 -1.08752,0.4521 -1.0637,1.03328 0.0239,0.58113 -0.20726,2.04594 -0.28525,2.98056 -0.25483,0.88366 -0.81215,1.48863 -0.96505,2.01883 -0.15285,0.5302 -0.33294,1.81826 0.42497,1.84541 0.7579,0.0272 0.4554,-0.25157 1.06369,-1.03327 0.73403,-0.55403 1.26753,-1.74017 1.24371,-2.32133 0.15284,-0.53019 -0.45213,-1.08751 -0.35018,-1.44096 z m 12.10889,-2.82515 c -0.2515,-0.45539 -0.7817,-0.6083 -0.75787,-0.0272 0.12581,0.22769 0.40113,1.26423 0.24823,1.79443 -0.15286,0.5302 -0.30578,1.06038 0.27535,1.03654 0.70695,0.20385 1.56678,-0.12249 1.18945,-0.80556 -0.0239,-0.58116 -0.7036,-1.54289 -0.95516,-1.99828 z m 1.95141,7.83698 c -0.0239,-0.58118 -0.90421,-2.17502 -1.05709,-1.64485 -0.051,0.17694 -0.45867,1.59058 0.0215,1.92019 0.35347,0.10191 1.06041,0.30578 1.03656,-0.27536 z m -1.90296,3.27978 c 0,0 -0.6831,0.37727 -0.3058,1.06034 0.3773,0.68311 0.45213,1.08752 0.83268,0.43158 0.38062,-0.65597 -0.0716,-1.74347 -0.52688,-1.49192 z m 2.88853,-3.37843 c 0,0 -1.5429,0.70365 -1.99827,0.95515 -0.50637,0.42828 -1.29139,1.15902 -0.58447,1.36288 0.70693,0.20386 1.13849,-0.62883 1.28808,0.18006 0.20056,0.6321 -0.63539,1.5396 0.62882,1.13844 1.21328,-0.22438 1.8454,-0.42495 1.57004,-1.46148 -0.0985,-0.98558 -0.49977,-2.24983 -0.9042,-2.17503 z m 2.90248,1.21987 c 0.20386,-0.70692 0.63543,-1.53961 0.0543,-1.51577 -0.17676,-0.051 -1.33904,-0.004 -1.44094,0.35016 -0.15284,0.53019 -0.18007,1.28808 0.4759,1.66868 0.65596,0.38058 0.70693,0.20386 0.91079,-0.50307 z m -1.36947,2.09362 c -0.22769,0.12581 -0.20385,0.70691 -0.12893,1.11136 0.0239,0.58116 1.51574,0.0542 2.14788,-0.14623 0.63213,-0.20057 -0.55402,-0.73405 -0.98227,-1.24042 -0.55404,-0.73403 -1.03656,0.27538 -1.03656,0.27538 z m 5.66119,-11.00162 c -0.42825,-0.50638 -2.54903,-1.11793 -3.40883,-0.7916 -0.85981,0.32632 -2.40272,1.02994 -2.45367,1.20666 -0.68309,0.37729 -1.14178,1.96787 -1.44758,3.02825 -0.30581,1.06039 0.27206,2.37559 2.11418,3.28968 1.84211,0.91407 1.97117,-0.19736 2.12405,-0.72747 0.1019,-0.35346 -0.0986,-0.98557 0.23098,-1.46479 0.32963,-0.47924 1.44099,-0.35017 2.19888,-0.32304 0.75787,0.0272 1.18942,-0.80555 1.44426,-1.68922 0.078,-0.9346 -0.55073,-2.07309 -0.80227,-2.52847 z m -2.64029,5.17283 c 0,0 -0.27866,0.30251 -0.38061,0.65596 -0.15285,0.53019 1.18616,0.53349 1.86925,0.15615 0.68307,-0.37729 0.78502,-0.73076 0.40771,-1.41383 -0.30249,-0.27867 -1.31519,0.57786 -1.89635,0.60168 z"
   id="path594"
   style="stroke-width:1.83932;fill:#373e48" />
</svg>
