<?xml version="1.0" encoding="UTF-8" standalone="no"?>
<!-- Generator: Adobe Illustrator 27.2.0, SVG Export Plug-In . SVG Version: 6.00 Build 0)  -->

<svg
   version="1.1"
   id="Layer_1"
   x="0px"
   y="0px"
   viewBox="0 0 321.1 321.1"
   style="enable-background:new 0 0 321.1 321.1;"
   xml:space="preserve"
   sodipodi:docname="maryland.svg"
   inkscape:version="1.2.2 (732a01da63, 2022-12-09, custom)"
   xmlns:inkscape="http://www.inkscape.org/namespaces/inkscape"
   xmlns:sodipodi="http://sodipodi.sourceforge.net/DTD/sodipodi-0.dtd"
   xmlns="http://www.w3.org/2000/svg"
   xmlns:svg="http://www.w3.org/2000/svg"><defs
   id="defs629" /><sodipodi:namedview
   id="namedview627"
   pagecolor="#505050"
   bordercolor="#ffffff"
   borderopacity="1"
   inkscape:showpageshadow="0"
   inkscape:pageopacity="0"
   inkscape:pagecheckerboard="1"
   inkscape:deskcolor="#505050"
   showgrid="false"
   inkscape:zoom="2.653379"
   inkscape:cx="160.55"
   inkscape:cy="160.55"
   inkscape:window-width="1920"
   inkscape:window-height="1031"
   inkscape:window-x="0"
   inkscape:window-y="25"
   inkscape:window-maximized="1"
   inkscape:current-layer="Layer_1" />
<style
   type="text/css"
   id="style622">
	.st0{fill:#FE8E69;}
</style>
<path
   class="st0"
   d="m 271.21441,183.47084 c 0.0481,-0.24974 -0.20168,-0.29778 -0.10554,-0.79727 l -14.01459,0.15132 -16.10862,0.26625 -0.44089,-5.78266 -0.43149,-4.48588 -1.03536,-12.11282 -1.62987,-18.44301 -0.59448,-6.33016 -0.32596,-3.68861 -2.33925,-26.86723 -0.7973,0.10555 -13.46704,-0.002 -8.27999,-0.0399 v 0 l -13.96652,-0.0984 -9.8265,-0.0786 -9.8265,-0.0786 -10.07624,-0.12665 -0.24974,-0.0481 -11.92056,0.0364 -28.23083,0.005 -10.87351,-0.0203 -1.79622,-0.0867 -20.949786,-0.14751 -5.18701,0.0376 -23.04381,-0.0325 -3.64054,0.0763 c -0.19354,7.73247 -1.06093,25.69476 -1.32117,31.08345 0.10554,0.79727 0.0102,1.29676 -0.0387,1.54651 0.20168,0.29781 0.70114,0.39394 1.29676,-0.0102 1.6907,-0.71055 4.96657,-2.92886 5.65832,-3.83168 0.29781,-0.20168 1.28738,-1.30614 2.8245,-2.56422 3.81403,-3.66869 10.3564,-9.40214 10.3564,-9.40214 0,0 0.24974,0.0481 0.49946,0.0961 1.20063,0.49011 3.8516,1.51835 4.39913,1.36474 0.54755,-0.15361 8.27175,-7.99045 9.11712,-8.34571 0.79727,-0.10554 1.61333,2.38246 3.86098,2.81509 0.24974,0.0481 0.7492,0.1442 1.24866,0.24033 2.948786,0.8266 7.895466,2.03773 9.134766,0.98133 0,0 0,0 0,0 1.03761,-1.35424 4.49638,-5.86827 5.68762,-6.67495 0.29781,-0.20168 0.79728,-0.10554 1.29676,-0.0102 0.70114,0.39394 1.35421,1.03763 1.9979,0.38456 1.23929,-1.05641 1.72,-3.55379 3.66043,-4.21625 1.94044,-0.66245 5.63843,0.30834 6.5987,2.04711 0.605,0.89341 0.66245,1.94045 1.01772,2.78579 0.15361,0.54755 0.605,0.89343 1.35421,1.03763 1.99789,0.38456 5.73459,-0.19125 6.68545,0.25076 0.95088,0.44201 -2.26753,3.70737 0.0857,4.9373 0.4514,0.34587 1.20063,0.49007 1.40228,0.78788 1.45037,0.53817 2.15151,0.93212 1.91115,2.18081 -0.33649,1.74816 -0.52876,2.7471 1.01772,2.78579 1.5465,0.0387 0.65307,0.64368 0.71993,2.98746 0.0102,1.29673 0.36465,2.1421 1.01772,2.78579 0.45139,0.34587 0.90282,0.69175 1.90176,0.88402 0.24975,0.0481 0.74921,0.1442 1.24867,0.24033 2.74713,0.52876 4.73565,-0.38344 4.7931,0.6636 0.25913,1.3448 0.47016,2.93937 2.66974,3.62174 0.24974,0.0481 0.70114,0.39395 0.95088,0.44202 1.15253,0.73982 0.66246,1.94044 -0.27904,2.79519 -1.23929,1.0564 -2.58411,1.31553 -1.51833,3.85157 1.06579,2.53607 3.07307,4.21739 5.91633,4.24666 1.54651,0.0387 2.64159,-0.26851 3.43886,-0.37403 0.7973,-0.10554 1.49844,0.28843 2.35316,1.22993 1.91115,2.18078 -0.27901,2.79517 1.8244,3.977 1.40228,0.78789 3.79412,0.47131 5.59976,1.85482 l 3.21841,-3.26536 2.20896,1.97913 4.16817,3.91016 -6.33133,7.32802 c 0,0 0,0 0,0 -0.24033,1.24867 -0.68237,2.19955 -1.37412,3.10237 -0.34588,0.45139 -0.69176,0.90281 -1.0857,1.60395 -1.38351,1.80561 -3.66042,4.21625 -4.9478,5.52239 0.40333,0.5956 0.99895,0.19227 1.5465,0.0387 0.54753,-0.15361 1.15254,0.73982 0.25911,1.34482 -0.89341,0.60501 -3.46816,3.2173 -4.0063,4.66764 -0.58624,1.70009 -0.85587,5.79202 -0.50061,6.63738 0.55694,1.14315 1.21939,3.0836 2.21834,3.27587 0.74921,0.1442 3.42948,-1.67079 4.62069,-2.47745 1.44099,-0.75861 1.69071,-0.71055 2.3344,-1.36362 0.64368,-0.65307 2.13271,-1.66141 2.38245,-1.61334 0.49949,0.0961 1.22878,4.38036 1.78572,5.52353 0.80666,1.19122 2.21835,3.27587 3.12114,3.96762 0.90281,0.69176 2.4587,2.0272 3.11177,2.67089 0.40333,0.59562 1.04702,-0.0575 1.19122,-0.80669 0,0 0,0 0,0 0.1442,-0.7492 0.44203,-0.95085 0.84536,-0.35526 0.35526,0.84537 0.56633,2.43994 2.06474,2.72834 1.49843,0.28842 2.488,-0.81604 4.4859,-0.43148 1.9979,0.38455 4.39912,1.36471 4.95606,2.50788 0.55692,1.14315 3.52447,4.56324 4.47535,5.00525 0.95088,0.44204 -0.46078,-1.64263 0.83598,-1.65202 1.29673,-0.0102 3.70737,2.26756 4.06263,3.1129 0.35526,0.84536 2.1128,2.47859 2.61229,2.57475 0.49946,0.0961 0.49008,-1.20063 -0.0669,-2.34378 -0.50887,-1.39289 -0.81606,-2.488 -0.17243,-3.14107 0.39395,-0.70114 0.44201,-0.95086 -1.21939,-3.0836 -1.41166,-2.08465 -2.93825,-6.26333 -2.60176,-8.01148 0,0 0,0 0,0 0.38456,-1.9979 1.92165,-3.25598 0.41383,-4.84116 -1.55586,-1.33544 -6.68431,-6.98438 -6.50142,-9.28009 0.18285,-2.29571 -0.70938,-8.42422 -0.26737,-9.3751 0.0481,-0.24975 0.0481,-0.24975 0.0961,-0.49947 0.1442,-0.74923 -0.75859,-1.44098 -0.86413,-2.23825 -0.3072,-1.09509 -0.86411,-2.23824 0.87466,-3.1985 1.73877,-0.96027 2.72834,-2.06476 2.07526,-2.70845 -0.40335,-0.5956 -0.85474,-0.94147 -1.00833,-1.48903 0.0961,-0.49948 1.52771,-2.55483 2.21946,-3.45765 0.69176,-0.90279 0.0204,-4.14 1.41281,-4.64884 1.14315,-0.55694 2.23823,-0.86414 1.38351,-1.80564 -0.60501,-0.89343 -2.30509,-1.47964 -2.16089,-2.22884 0.34587,-0.45142 0.68237,-2.19958 0.12538,-3.34273 -0.60501,-0.89343 -4.21625,-3.66045 -5.0229,-4.85166 -0.20168,-0.29781 -0.20168,-0.29781 -0.20168,-0.29781 0.0961,-0.49949 0.44204,-0.95089 0.9415,-0.85475 l 0.24974,0.0481 c 0.24975,0.0481 0.49946,0.0961 0.49946,0.0961 0.95089,0.44203 2.85265,1.32605 3.74606,0.72105 1.14317,-0.55691 2.52668,-2.36255 1.92168,-3.25598 -0.35527,-0.84534 -1.30615,-1.28735 -0.56633,-2.43991 0.69176,-0.90279 1.34483,-0.25912 2.19019,-0.61439 0.84534,-0.35526 0.0867,-1.79622 0.27902,-2.79517 0.0481,-0.24974 0.0961,-0.49948 0.1442,-0.7492 0.0961,-0.49949 0.39394,-0.70114 0.5956,-0.40336 0.45142,0.34588 0.51825,2.68966 1.373,3.63115 0.65307,0.64369 0.73982,-1.15253 1.38351,-1.8056 0.64369,-0.65307 8.43472,-6.14616 8.62702,-7.14511 0.49007,-1.20063 0.13479,-2.04597 -0.81607,-2.488 -0.95088,-0.44201 -1.74816,-0.33647 -1.00833,-1.48903 0.34587,-0.4514 0.73982,-1.15253 1.33544,-1.55589 v 0 c 0.64368,-0.65307 1.8349,-1.45973 3.08359,-1.21939 2.29571,0.18285 2.10342,1.18185 1.61334,2.38245 -0.49007,1.20063 -1.93106,1.95922 -1.67193,3.30405 0.25913,1.34482 0.605,0.89343 1.0564,1.23931 0.45142,0.34587 -1.88297,1.70947 -2.07524,2.70842 -0.1442,0.7492 -0.1442,0.7492 0.55691,1.14317 0.70114,0.39395 1.90177,0.88402 0.35527,0.84534 -1.54648,-0.0386 -4.74501,-0.91332 -6.17658,1.14203 -1.43158,2.05535 -6.16834,9.17231 -5.85174,11.56415 0.31658,2.39184 2.17026,3.52561 2.08351,5.32183 -0.13479,2.04599 -1.57578,2.80458 -0.42324,3.5444 1.15256,0.73982 1.60395,1.0857 1.74815,0.3365 0.1442,-0.74921 -0.66246,-1.94045 0.12538,-3.34273 0.78789,-1.40228 1.47964,-2.30509 1.83491,-1.45975 0.20167,0.29781 -0.14421,0.74923 -0.28843,1.49843 -0.0481,0.24975 -0.39394,0.70114 -0.24033,1.2487 0.0102,1.29676 0.50887,1.39289 0.36467,2.1421 0.10554,0.79727 -1.22993,2.35316 -1.97913,2.20896 -0.99895,-0.19227 -2.89133,0.22049 -3.29466,-0.37518 -0.40333,-0.59562 -0.11495,-2.09403 -0.71991,-2.98746 -0.605,-0.89343 -0.78789,1.40227 -1.62387,3.0543 -0.83595,1.65202 -1.8349,1.45975 -1.92165,3.25597 0.16302,1.84432 0.76797,2.73772 0.68123,4.53397 -0.3365,1.74815 -1.62385,3.0543 -0.4807,2.49736 1.14315,-0.55694 2.03658,-1.16194 2.07527,-2.70842 -0.0102,-1.29676 -0.41274,-1.89238 0.18285,-2.29571 0.84537,-0.35526 1.35421,1.03763 1.70009,0.58624 0.34588,-0.45143 -0.41271,-1.89239 0.13479,-2.046 0.54753,-0.15361 1.24867,0.24034 1.74816,0.3365 0.7492,0.1442 0.29781,-0.20168 0.69175,-0.90279 0.39394,-0.70117 1.24869,0.24033 1.30614,1.28735 0.10555,0.79729 0.36465,2.14212 0.4221,3.18914 -0.0961,0.49946 0.0575,1.04701 -0.0387,1.54647 -0.24034,1.2487 -0.78789,1.40231 -1.48903,1.00836 -0.70114,-0.39397 -1.21001,-1.78686 -1.45976,-1.83493 -0.24974,-0.0481 -1.8349,1.45976 -2.27691,2.41064 -0.39394,0.70114 -2.04711,6.59868 -1.58631,8.24131 0.46078,1.64264 2.05535,1.43158 1.9979,0.38456 -0.10554,-0.79727 -1.10449,-0.98956 -0.66245,-1.94044 0.44201,-0.95086 0.83595,-1.65203 1.44096,-0.75859 0.605,0.89343 1.35421,1.03763 1.49841,0.28842 0.1442,-0.7492 -0.0102,-1.29676 0.4901,-1.20062 0.49946,0.0961 0.71991,2.98746 1.62272,3.67921 1.15254,0.73982 1.79623,0.0867 2.40123,0.98018 0.65307,0.64369 0.96027,1.73877 -0.0387,1.54648 0,0 -0.24974,-0.0481 -0.49946,-0.0961 -1.74818,-0.33649 -3.89028,0.0282 -4.87984,1.13264 -0.9415,0.85473 -2.13272,1.66141 -1.32606,2.85263 0.55694,1.14317 2.35316,1.22992 2.20896,1.97913 -0.1442,0.7492 -0.53814,1.45037 -1.88297,1.70947 -1.34483,0.25913 -3.14107,0.17243 -2.28632,1.11388 0.80665,1.19121 3.57255,4.31349 3.08245,5.51412 -0.19227,0.99895 -0.63428,1.94983 0.36467,2.1421 0.74921,0.1442 1.84429,-0.16302 1.9979,0.38456 0.15361,0.54755 -1.89238,0.41273 -1.78686,1.21001 0.10554,0.7973 -0.33647,1.74815 1.11387,2.28632 1.45035,0.53815 1.74816,0.33649 1.8537,1.13377 0.10554,0.79727 1.42105,3.3814 2.71781,3.37202 1.29676,-0.0102 2.39184,-0.31658 1.48902,-1.00833 -0.65307,-0.64369 -2.44929,-0.73044 -2.25702,-1.72939 0.19226,-0.99895 0.58623,-1.70009 1.78686,-1.21001 1.2006,0.49008 0.75859,1.44096 1.3636,2.33439 0.605,0.89343 2.15148,0.93211 2.80455,1.57578 0.70114,0.39397 1.23931,-1.0564 0.93211,-2.15149 -0.30719,-1.09508 -2.10341,-1.18183 -1.36359,-2.33439 0.73982,-1.15253 1.59454,-0.21108 1.8349,-1.45973 0.53817,-1.45037 -0.67184,-3.2372 0.32711,-3.04491 0.79727,-0.10555 3.15043,1.12438 2.9101,2.37305 -0.24033,1.24869 -1.98851,0.9122 -2.43052,1.86308 -0.44204,0.95088 1.21937,3.0836 1.62272,3.67922 0.40333,0.59562 0.89341,-0.60501 1.89235,-0.41272 0.24975,0.0481 0.74924,0.1442 1.20063,0.49008 0.70114,0.39395 1.15253,0.73982 1.60396,1.0857 0.90281,0.69175 1.0564,1.23931 1.00833,1.48903 -0.34588,0.45142 -3.84221,-0.22152 -4.23616,0.47957 -0.39394,0.70114 -1.07631,2.90072 -1.01883,3.94773 0.30719,1.09508 1.30614,1.28738 2.24761,0.43263 0.9415,-0.85475 1.78686,-1.21001 2.53607,-1.06579 0.74921,0.1442 2.29571,0.18286 1.0564,1.23929 -1.23931,1.05642 -2.23826,0.86413 -2.18078,1.91115 0.0575,1.04701 -0.18286,2.2957 0.66246,1.94044 0.59562,-0.40333 1.08569,-1.60395 1.8349,-1.45975 0.74921,0.1442 1.40228,0.78791 0.75862,1.44098 -0.64369,0.65308 -1.94045,0.66246 -2.13274,1.66141 -0.24034,1.24869 -1.63323,1.75754 -1.77746,2.50674 -0.1442,0.74924 0.80669,1.19125 0.61439,2.1902 -0.19226,0.99894 -1.43157,2.05535 -0.43262,2.24764 0.99895,0.19226 3.5256,-2.17028 4.9185,-2.67915 1.14317,-0.55694 3.6886,-0.32597 4.63948,0.11597 1.09511,-0.3072 2.23826,-0.86413 2.93001,-1.76692 0.29782,-0.20168 0.59563,-0.40336 1.14315,-0.55694 2.23826,-0.86414 7.27169,-1.44923 12.30512,-2.03432 0,0 0.0481,-0.24974 0.0481,-0.24974 0.13479,-2.04597 -0.12437,-3.3908 0.76912,-3.9958 0.8934,-0.60501 1.98851,-0.9122 2.52665,-2.36255 0.53817,-1.45034 1.6051,-5.64782 3.09413,-6.65615 1.23928,-1.0564 1.68132,-2.00728 1.78684,-1.21001 0.10554,0.7973 -0.43263,2.24764 0.11495,2.09403 0.79727,-0.10554 1.0857,-1.60393 1.48903,-1.00833 0.40333,0.59562 -1.69185,7.44406 -2.38358,8.34685 -0.29781,0.20168 -1.47967,2.3051 -2.95931,4.61019 -2.1714,3.20791 -4.68867,6.86722 -5.03455,7.31864 -0.9415,0.85472 -1.58518,1.50779 -1.22992,2.35316 0.605,0.8934 1.41169,2.08464 2.55484,1.52771 1.14314,-0.55694 2.60402,-5.45553 4.03559,-7.51091 0.39395,-0.70113 1.18186,-2.10341 2.01782,-3.75543 1.42219,-3.35211 3.23832,-7.40536 3.43061,-8.40431 0.4807,-2.49739 5.06497,-16.89539 4.65226,-18.78777 z"
   id="path624"
   style="stroke-width:2.54321;fill:#373e48" />
</svg>
