<?xml version="1.0" encoding="UTF-8" standalone="no"?>
<!-- Generator: Adobe Illustrator 27.2.0, SVG Export Plug-In . SVG Version: 6.00 Build 0)  -->

<svg
   version="1.1"
   id="Layer_1"
   x="0px"
   y="0px"
   viewBox="0 0 321.1 321.1"
   style="enable-background:new 0 0 321.1 321.1;"
   xml:space="preserve"
   sodipodi:docname="massachuessets.svg"
   inkscape:version="1.2.2 (732a01da63, 2022-12-09, custom)"
   xmlns:inkscape="http://www.inkscape.org/namespaces/inkscape"
   xmlns:sodipodi="http://sodipodi.sourceforge.net/DTD/sodipodi-0.dtd"
   xmlns="http://www.w3.org/2000/svg"
   xmlns:svg="http://www.w3.org/2000/svg"><defs
   id="defs659" /><sodipodi:namedview
   id="namedview657"
   pagecolor="#505050"
   bordercolor="#ffffff"
   borderopacity="1"
   inkscape:showpageshadow="0"
   inkscape:pageopacity="0"
   inkscape:pagecheckerboard="1"
   inkscape:deskcolor="#505050"
   showgrid="false"
   inkscape:zoom="2.653379"
   inkscape:cx="160.55"
   inkscape:cy="160.55"
   inkscape:window-width="1920"
   inkscape:window-height="1031"
   inkscape:window-x="0"
   inkscape:window-y="25"
   inkscape:window-maximized="1"
   inkscape:current-layer="Layer_1" />
<style
   type="text/css"
   id="style652">
	.st0{fill:#FE8E69;}
</style>
<path
   class="st0"
   d="m 263.90434,192.39906 c -0.27917,1.24981 -1.84724,6.80431 -1.67429,7.49898 0.17288,0.6947 2.25697,0.17576 2.81506,-2.32376 0.55812,-2.49968 2.85735,-9.85916 1.92292,-13.02008 -0.93442,-3.16096 -1.23802,-12.08567 -4.2899,-16.04741 -3.05188,-3.96175 -3.25821,-5.97602 -5.23611,-7.40172 -1.97793,-1.42573 -6.28259,-2.71488 -7.91463,-2.75122 -1.63207,-0.0365 -3.23071,1.24686 -2.81509,2.32379 0.41562,1.07689 2.77283,5.21155 3.8163,3.47633 0.73103,-1.80498 0.38517,-3.19434 1.63501,-2.9153 1.24984,0.27917 4.30467,1.28916 4.33511,5.5604 0.032,4.27123 -0.49425,8.09052 0.89512,7.74466 1.07689,-0.41563 1.63206,0.0362 1.42573,-1.97793 -0.13671,-2.32674 0.87055,-2.42989 1.28617,-1.353 0.41563,1.0769 1.65957,7.25925 1.3805,8.50909 -0.27917,1.24984 -3.64928,3.12164 -6.74044,3.7436 -3.09119,0.62196 -5.21159,2.7728 -6.28849,3.18842 -1.07689,0.41565 -0.45199,0.55517 -1.56227,-0.34881 -1.11032,-0.90398 -1.42279,-0.97374 -2.42992,-0.87055 -1.00713,0.10309 -1.45912,0.65833 -3.64634,0.17 -2.11745,-0.8008 -4.20147,-0.28205 -6.10964,-2.02016 -1.90814,-1.7382 -3.67973,-1.14963 -3.01846,-2.64215 0.73104,-1.80498 1.77454,-3.5402 0.006,-5.9033 -1.76865,-2.36311 -1.41984,-3.92538 -2.91236,-4.58666 -1.49251,-0.66127 -1.52888,0.97077 -4.06195,-0.90692 -2.53308,-1.87769 -3.78292,-2.15677 -3.33093,-2.71191 0.45199,-0.55514 1.38937,-0.34586 1.73817,-1.90817 0.34884,-1.56227 1.0435,-1.73522 1.32255,-2.98503 0.27917,-1.24984 -2.04471,-4.06493 -2.70304,-5.52406 -0.41562,-1.07689 -3.08527,-5.28131 -4.54145,-7.57466 -0.48538,-0.76442 -1.04056,-1.21641 -1.35299,-1.28617 -0.93737,-0.20938 -2.25698,-0.17577 -3.50682,-0.45494 -0.6249,-0.13958 -0.93737,-0.20938 -1.18007,-0.59151 -0.72809,-1.14669 -0.90101,-1.84135 -1.83838,-2.05064 -0.31247,-0.0698 -0.62494,-0.13958 -0.93737,-0.20937 v 0 c -0.93741,-0.20938 -1.56231,-0.34884 -1.94454,-0.10597 -0.3822,0.24267 0.79785,0.83418 1.21347,1.91111 0,0 -0.0698,0.31247 0.24268,0.3822 -0.0698,0.31246 -0.20938,0.9374 0.0333,1.3196 0,0 0,0 -0.31246,-0.0698 -0.93738,-0.20938 -3.0912,0.62196 -3.3673,-1.07984 l -0.31246,-0.0698 c 0,0 0,0 0.0698,-0.31247 0.10597,-1.9445 2.32968,-3.08821 1.5682,-5.55447 0,0 0.0698,-0.31247 -0.24268,-0.38223 -0.5188,-2.08406 -2.04769,-1.11326 -1.69888,-2.67557 0.13958,-0.6249 0.20938,-0.93737 0.27917,-1.24981 0.13959,-0.62493 0.27917,-1.24984 0.90395,-1.11031 0.6947,-0.17289 -0.13959,0.6249 0.97079,1.52888 1.11032,0.90398 2.42989,0.87056 2.49965,0.55812 0.45199,-0.55517 -0.10309,-1.00716 -0.76148,-2.46629 -0.97076,-1.52888 -0.72809,-1.14665 -0.0333,-1.31957 0.69466,-0.17288 1.4257,-1.97793 2.7453,-2.01132 1.3196,-0.0333 1.63207,0.0362 1.84135,-0.90103 0.20938,-0.93737 -0.27597,-1.70183 -1.07395,-2.53602 -0.86761,-0.52175 -1.28323,-1.59865 -0.58857,-1.77159 0.6947,-0.17288 0.79785,0.83422 2.32674,-0.13671 1.52888,-0.97076 5.59378,-3.0155 6.60095,-3.11866 0.93737,0.20938 1.04052,1.21642 2.11742,0.8008 1.14668,-0.72809 0.003,-2.95167 1.4621,-3.60997 1.45909,-0.65833 2.32673,-0.1367 2.36307,-1.76864 0.0365,-1.63204 -0.51881,-2.08403 -1.21347,-1.91112 -0.69467,0.17289 -0.76446,0.48542 -0.79785,-0.83418 -0.34586,-1.38937 -0.20618,-2.0143 -0.58857,-1.7716 -0.45199,0.55515 -1.1496,3.67973 -3.26705,2.87894 -2.18721,-0.48833 -4.89618,-0.10918 -5.89739,-5.9092 -0.68877,-5.73036 -2.00837,-5.69697 -1.10145,-9.75893 -2.18721,-0.48833 -4.68689,-1.04645 -5.93673,-1.325487 -2.11745,-0.8008 -5.24498,1.453197 -6.98315,3.361367 -1.73816,1.90817 0.27309,4.65347 -2.36604,4.72028 -2.63917,0.0669 -4.92957,-1.42868 -6.35527,0.54925 -1.42573,1.97793 0.27309,4.65347 -0.0394,4.58371 0,0 0,0 -0.31247,-0.0698 -0.6249,-0.13959 -2.74235,-0.94032 -2.74235,-0.94032 l -1.0435,1.73522 -1.11327,2.04766 -33.40552,-0.24171 -2.25697,-0.17577 -19.02949,0.016 -10.79949,-0.11493 -26.182639,-0.26925 -5.90328,-0.006 -14.44582,0.0551 c 0.48542,0.76446 0.65833,1.45912 0.65833,1.45912 0,0 -1.67433,7.49901 -4.07966,16.803 -3.45181,13.99085 -7.49808,32.11345 -7.29174,34.12772 -0.0698,0.31247 0.10309,1.00713 -0.10597,1.94451 l 24.9328,-0.01 2.63917,-0.0669 10.174579,-0.0256 0.96782,4.48052 2.01427,-0.20618 0.90692,-4.06195 13.12619,-0.0224 22.60607,0.12678 2.32673,-0.13639 16.70279,0.1207 c 0,0 0.17288,0.6947 -0.0365,1.63207 l 16.73913,-1.51118 0.31247,0.0698 7.04997,-0.7222 0.27597,1.70183 -0.38223,0.24268 0.33997,7.29264 2.70896,-0.37926 c 0,0 0.51877,2.08403 0.72511,4.0983 0.10309,1.00716 0.20618,2.0143 0.0669,2.6392 -0.003,2.95167 0.2398,3.33387 2.42694,3.82223 0.93741,0.20938 1.18008,0.59151 1.35303,1.28617 0.31247,0.0698 0.93737,0.20938 0.86761,0.52175 -0.0698,0.31247 -0.0698,0.31247 -0.45199,0.55515 0.24267,0.38223 0.79785,0.83422 1.97793,1.42573 v 0 c 0.20938,-0.93737 0.83419,-0.79785 1.38933,-0.34586 0.24267,0.38223 0.17288,0.69466 -0.20938,0.93737 2.67259,1.25279 3.85267,1.8443 4.61415,4.31056 0.34589,1.38936 0.86172,6.42505 1.13488,11.07852 1.3196,-0.0333 0.27917,-1.24984 1.35593,-1.66546 1.07693,-0.41562 1.73526,1.0435 3.19435,0.38518 1.45912,-0.65833 5.59382,-3.01551 5.90625,-2.94575 0,0 -1.49251,-0.66127 -1.14371,-2.22358 0.4186,-1.87475 0.5247,-3.81925 2.15677,-3.78291 1.70183,-0.27597 2.11745,0.80082 3.50681,0.45493 0.31247,0.0698 0.31247,0.0698 0.69467,-0.17288 1.07689,-0.41562 2.53601,-1.07395 2.3631,-1.76865 -0.17288,-0.69466 -1.5957,-1.6684 -0.58857,-1.77156 0.76446,-0.48541 1.42276,0.97371 2.18722,0.48833 1.00713,-0.10309 0.10597,-1.9445 0.62788,-2.81211 0.52172,-0.86762 0.76442,-0.48539 1.45912,-0.65833 0.69467,-0.17288 0.20938,-0.93737 0.0365,-1.63204 0.13958,-0.62494 -0.34586,-1.38936 1.21645,-1.04056 1.56227,0.34881 2.88187,0.31535 2.74235,0.94032 -0.13958,0.62494 -1.56231,-0.3488 -1.52888,0.9708 0.0333,1.3196 1.5957,1.6684 1.28028,4.55028 -0.31535,2.88191 0.10021,3.9588 -0.17896,5.20864 -0.20938,0.93738 0.48538,0.76443 -1.87772,2.53308 0,0 0,0 -0.3822,0.24267 -2.29334,1.45618 -2.19016,2.46331 -3.71907,3.43411 -1.52889,0.97076 -5.4906,4.02264 -6.87997,4.3685 -1.38936,0.34586 -2.01429,0.20618 -2.70896,0.37928 -0.69466,0.17288 -1.73817,1.90814 -0.87056,2.42989 0.86762,0.52175 1.63204,0.0365 2.95164,0.003 1.3196,-0.0333 3.50976,-2.4967 5.21159,-2.7728 1.7018,-0.27597 3.09116,-0.62196 4.30761,-1.66251 0.52172,-0.86761 2.19016,-2.46331 3.85856,-4.05901 1.21642,-1.04053 2.05064,-1.83838 2.7453,-2.01132 1.70183,-0.27597 5.90331,0.006 7.4322,-0.96488 1.21641,-1.04055 1.46206,-3.60996 2.60875,-4.33805 1.14666,-0.72809 4.23782,-1.35005 5.00228,-1.83543 0.45199,-0.55518 -0.34586,-1.38936 1.59864,-1.28326 2.25697,0.17576 2.67259,1.25278 3.22774,1.70477 0.79785,0.83422 0.90398,-1.11032 1.35597,-1.66546 0.45199,-0.55514 10.38677,-3.91357 11.70637,-3.94699 1.98088,-1.52594 3.02144,-0.30959 3.05483,1.01011 z M 237.704,209.83971 c -1.0769,0.41562 -1.04351,1.73522 -1.49546,2.29036 -0.45199,0.55515 -2.84554,-1.94745 -3.57363,-3.09413 -0.72809,-1.14666 -0.37929,-2.70894 -0.30959,-3.0214 -0.24267,-0.38223 -1.38933,0.34586 -2.01426,0.20617 -0.62491,-0.13958 -0.48539,-0.76445 -1.18008,-0.59151 -0.3822,0.24268 -5.42084,3.71018 -6.53411,5.75787 -1.11326,2.04769 -1.46207,3.60996 -2.67851,4.65052 -1.21642,1.04056 -3.26411,-0.0727 -3.57655,-0.14247 -1.18007,-0.59151 -0.20938,0.93737 -0.41859,1.87475 -0.20938,0.93737 4.26829,2.92119 5.03275,2.4358 0.76442,-0.48541 1.56522,-2.60283 2.95458,-2.94869 1.38936,-0.34589 2.56944,0.24556 3.88904,0.21226 1.3196,-0.0333 2.77873,-0.69172 5.48766,-1.071 2.6392,-0.0669 5.59084,-0.0637 6.04283,-0.61901 0.45199,-0.55515 -0.44901,-2.3965 -0.17,-3.64634 -0.34586,-1.38936 -0.30959,-3.0214 -1.45618,-2.29331 z m 25.03598,0.99734 c -0.79785,-0.83422 -2.11745,-0.8008 -1.14668,0.72808 1.04055,1.21642 0.65538,4.41077 -2.08992,6.42209 -2.74533,2.01132 -10.72972,-0.42744 -10.72972,-0.42744 -2.81212,-0.62785 1.62912,2.98801 6.41917,5.04162 5.10248,2.12334 11.73682,0.32425 12.46785,-1.48073 1.11327,-2.04769 -4.12285,-9.44941 -4.9207,-10.28362 z"
   id="path654"
   style="stroke-width:3.20152;fill:#373e48" />
</svg>
