<?xml version="1.0" encoding="UTF-8" standalone="no"?>
<!-- Generator: Adobe Illustrator 27.2.0, SVG Export Plug-In . SVG Version: 6.00 Build 0)  -->

<svg
   version="1.1"
   id="Layer_1"
   x="0px"
   y="0px"
   viewBox="0 0 321.1 321.1"
   style="enable-background:new 0 0 321.1 321.1;"
   xml:space="preserve"
   sodipodi:docname="michigan.svg"
   inkscape:version="1.2.2 (732a01da63, 2022-12-09, custom)"
   xmlns:inkscape="http://www.inkscape.org/namespaces/inkscape"
   xmlns:sodipodi="http://sodipodi.sourceforge.net/DTD/sodipodi-0.dtd"
   xmlns="http://www.w3.org/2000/svg"
   xmlns:svg="http://www.w3.org/2000/svg"><defs
   id="defs738" /><sodipodi:namedview
   id="namedview736"
   pagecolor="#505050"
   bordercolor="#ffffff"
   borderopacity="1"
   inkscape:showpageshadow="0"
   inkscape:pageopacity="0"
   inkscape:pagecheckerboard="1"
   inkscape:deskcolor="#505050"
   showgrid="false"
   inkscape:zoom="2.653379"
   inkscape:cx="160.55"
   inkscape:cy="160.55"
   inkscape:window-width="1920"
   inkscape:window-height="1031"
   inkscape:window-x="0"
   inkscape:window-y="25"
   inkscape:window-maximized="1"
   inkscape:current-layer="Layer_1" />
<style
   type="text/css"
   id="style731">
	.st0{fill:#FE8E69;}
</style>
<path
   class="st0"
   d="m 281.91292,232.28382 c -0.51053,-0.4123 -1.77786,-2.53883 -2.35341,-4.23648 -0.13145,-0.56035 -0.4275,-1.31855 -0.55894,-1.8789 -0.42752,-1.31853 -0.82181,-2.99957 -0.85363,-4.64739 0.034,-2.37282 0.0859,-4.92687 -0.14383,-6.41007 -0.22968,-1.48318 -3.57094,-6.90677 -3.47132,-7.99426 0.0497,-0.54374 0.0183,-2.19157 -0.19505,-3.856 -0.21305,-1.66443 -0.24486,-3.31225 -0.57414,-3.70796 -0.46072,-0.95605 -2.87776,-8.48819 -4.6072,-9.56046 -1.74605,-0.89103 -3.37588,-3.0508 -5.7487,-3.0854 -2.3728,-0.034 -9.36261,4.44254 -10.30206,4.72203 -0.7582,0.29607 -5.44301,7.54316 -5.74047,8.79528 -0.29749,1.25212 0.0152,1.82906 -0.75961,2.3064 0,0 0,0 -0.19785,0.1647 -0.98925,0.82322 -5.60625,5.335 -6.52908,5.43321 -0.18117,-0.0159 -0.18117,-0.0159 -0.18117,-0.0159 -0.74157,0.1148 -1.08748,-0.0997 -2.14175,-0.56174 -1.23551,-0.47874 -5.94514,-4.93108 -5.69746,-5.63946 0.24766,-0.7084 0.23386,-4.54778 0.59774,-6.52489 0.0333,-0.3625 0.24766,-0.70838 0.28087,-1.07088 0.64337,-1.03766 1.28672,-2.07534 1.88028,-2.56927 0.57695,-0.31269 2.89996,0.26566 4.41636,-0.32649 1.51639,-0.59215 2.90134,-1.74465 3.39667,-3.16141 0.24766,-0.70839 0.24907,-2.7187 0.41509,-4.53117 0.14952,-1.63123 0.10109,-3.09781 0.31549,-3.4437 0.44553,-0.87302 1.46798,-2.05873 2.17636,-1.81106 0.70839,0.24766 0.67518,0.61016 1.07088,0.28087 0.56034,-0.13144 2.52226,-1.59662 2.98437,-2.6509 0.28088,-1.07086 0.72779,-3.95423 0.7942,-4.6792 0.0333,-0.36249 0.16597,-1.81248 0.31549,-3.4437 0.24906,-2.71871 0.36668,-5.99774 0.63096,-6.88738 0.31408,-1.43337 -0.60457,-7.3661 -1.27974,-7.97625 0,0 -0.16471,-0.19787 -0.34589,-0.21447 -1.20231,-0.84121 -4.16729,-2.39221 -4.19909,-4.04004 -0.0152,-1.82908 -0.44271,-3.14762 -0.0137,-3.83939 0.42891,-0.6918 1.20371,-1.1691 1.71424,-0.75681 0.7084,0.24768 0.97126,1.36836 2.58588,1.69905 1.43337,0.31409 2.15836,0.38049 1.54959,-0.95466 -0.60876,-1.33514 -1.90789,-5.10951 -3.0936,-6.13197 -0.34589,-0.21447 -0.67518,-0.61016 -0.98785,-1.1871 -0.80661,-1.17052 -1.56341,-2.88476 -1.67823,-3.62635 -0.0982,-0.92284 -1.56341,-2.88476 -1.92591,-2.91795 -0.52714,-0.23106 -0.0664,0.72499 -2.06013,0.54232 -1.99372,-0.1826 -3.0646,-0.4635 -3.92102,-1.09026 -0.85642,-0.62677 -4.90886,-2.27739 -6.83618,-3.18503 -1.92729,-0.90762 -4.20048,-2.02972 -5.23816,-2.67308 -1.05427,-0.46212 -2.47102,-0.95745 -4.05105,-3.66095 -1.10268,-1.9287 -1.30052,-1.76406 -2.04212,-1.64922 -0.36249,-0.0333 -0.74159,0.1148 -1.08749,-0.0996 -1.58141,-0.69318 -1.77925,-0.52855 -2.3562,-0.21588 -0.57694,0.3127 -2.09334,0.90485 -3.31225,0.24488 -1.03767,-0.64336 -7.11565,-4.12448 -7.42834,-4.70142 -0.14807,-0.3791 0.0664,-0.72498 -0.64196,-0.97264 v 0 c -0.70838,-0.24767 -2.53745,-0.23247 -2.57066,0.12999 -0.0333,0.36249 0.49392,0.59355 0.64196,0.97265 0.13144,0.56034 0.0982,0.92285 -0.61016,0.67518 -0.70837,-0.24767 -5.0417,-0.82741 -5.4208,-0.67936 -0.3791,0.14807 0.62537,1.15389 0.92145,1.91208 0.29607,0.7582 0.0815,1.10408 -0.7098,1.76267 -0.95604,0.46071 -3.42987,3.52391 -3.71074,4.59478 -0.28089,1.07087 -0.26568,2.89996 0.52432,4.25169 0.80662,1.17051 1.26733,2.12655 2.33822,2.40743 1.25212,0.29748 3.27903,0.11772 3.59173,0.69459 0.31267,0.57694 -0.51193,1.598 -1.81388,1.84427 -0.56033,0.13144 -1.82907,0.0152 -2.91655,-0.0844 -1.26872,-0.11625 -2.3728,-0.034 -2.7353,-0.0678 -0.74161,0.11482 -6.57751,3.96664 -7.02302,4.83967 -0.23105,0.52713 -0.13288,1.44997 -0.0511,2.55405 0.0815,1.10409 0.32788,2.40603 0.62395,3.16423 0.60877,1.33514 -0.15222,5.65185 -0.0538,6.57469 -0.083,0.90624 -0.4151,4.53118 -1.2065,5.18975 v 0 c -0.79141,0.65857 -2.37422,1.97573 -2.60529,2.50286 -0.23105,0.52714 -0.94083,2.28978 -1.15528,2.63568 -0.21446,0.34589 -0.7582,0.29608 -0.74159,0.11481 0.0159,-0.18117 -0.0651,-1.28534 0.38048,-2.15836 0.44553,-0.87304 0.84122,-1.20231 1.27014,-1.8941 0.42892,-0.69177 0.002,-2.01031 0.24907,-2.7187 0.24766,-0.70838 -0.0651,-1.28534 0.51193,-1.59801 0.41229,-0.51055 -0.39431,-1.68103 -0.90484,-2.09334 -0.34589,-0.21446 -0.0333,0.3625 -0.28087,1.07087 -0.24766,0.70839 -1.1221,2.27321 -1.35315,2.80034 -0.23106,0.52714 -0.26428,0.88962 0.0815,1.10408 0.52714,0.23106 0.88963,0.26427 0.49394,0.59354 -0.21446,0.34591 -0.70838,-0.24765 -0.59356,0.49394 0.11481,0.74158 0.26286,1.12068 -0.11625,1.26872 -0.3791,0.14808 -0.72498,-0.0664 -0.98926,0.82322 -0.26425,0.88963 -0.1826,1.99372 -0.52852,1.77926 -0.16472,-0.19785 -0.51055,-0.41231 -0.65858,-0.79141 -0.32929,-0.39569 -0.44411,-1.13728 -0.37769,-1.86228 -0.0484,-1.46657 -0.16327,-2.20816 0.28227,-3.08119 0.44551,-0.87302 0.8412,-1.20232 0.38049,-2.15836 -0.46071,-0.95604 -0.52573,-2.24137 -0.11336,-2.75192 0.41231,-0.51053 1.1387,-2.45443 0.82601,-3.03137 -0.49393,-0.59356 -1.00445,-1.00588 -0.72358,-2.07675 0.28087,-1.07087 0.47871,-1.23552 1.25352,-1.71284 0.77481,-0.47732 1.533,-0.7734 1.05567,-1.54821 -0.47733,-0.77479 -0.29608,-0.7582 -1.23552,-0.47872 -0.95605,0.46071 -1.71425,0.75679 -1.9619,1.46518 -0.42891,0.69179 -0.74299,2.12516 -1.02386,3.19603 -0.29748,1.25212 -1.12211,2.27318 -2.06154,2.55266 -0.93944,0.27947 -1.13729,0.44412 -1.20371,1.16911 -0.0664,0.72498 0.27948,0.93944 -0.52853,1.77925 -0.80801,0.83983 -1.68244,2.40463 -2.39082,2.15698 -0.52714,-0.23107 -0.46072,-0.95606 -1.18572,-1.02248 -0.70837,-0.24766 -1.86228,0.37769 -1.87888,0.55894 -0.0159,0.18117 0.0318,1.64784 -0.54513,1.96051 -0.39571,0.3293 -1.20373,1.16911 -1.33515,0.60878 -0.13144,-0.56035 -0.27948,-0.93945 -0.64196,-0.97266 -0.3625,-0.0333 -0.7416,0.1148 -0.61016,0.67517 -0.0497,0.54374 0.29467,2.76851 -0.0526,4.56439 -0.083,0.90623 -0.33069,1.61461 -0.72638,1.94389 -1.00587,1.00447 -4.68062,1.21611 -5.10954,1.9079 -0.4289,0.69178 -0.24906,2.71871 0.047,3.47691 0.31269,0.57694 1.08608,2.10993 0.95325,3.5599 -0.0159,0.18117 -0.0497,0.54376 -0.083,0.90624 -0.4303,2.70211 -1.39054,9.19379 -1.63822,9.90216 -0.23106,0.52713 -1.2217,3.36069 -2.16253,5.65047 -0.46213,1.05427 -0.90764,1.9273 -1.1387,2.45443 -1.05566,1.54822 -3.01759,3.0134 -3.06739,3.55713 -0.0497,0.54373 1.9425,2.73671 2.37002,4.05526 0.27946,0.93942 0.75539,3.72455 0.75399,5.73488 -0.0664,0.72497 -0.11625,1.26873 -0.14952,1.63121 -0.47871,1.23552 -3.26523,3.72176 -3.25003,5.55085 0.0152,1.82907 1.84148,5.8345 2.13756,6.59269 0.16471,0.19785 0.31268,0.57695 0.4275,1.31855 1.01967,2.83494 3.04239,8.68605 3.5031,9.64209 0.44412,1.1373 2.66611,4.81344 2.92897,5.93414 v 0 c 0.26287,1.12069 2.2814,13.00276 2.01714,13.8924 -0.016,0.18116 -0.0497,0.54373 -0.0996,1.08747 -0.48011,3.24584 -1.31032,12.3082 -1.77385,15.37278 -0.0497,0.54374 -0.083,0.90624 -0.28086,1.07088 -0.24767,0.70838 -1.71705,4.77744 -2.41023,6.35885 -0.21446,0.34588 -0.23106,0.52714 -0.23106,0.52714 -0.39569,0.32929 -4.93246,7.95546 -5.39458,9.00973 -0.47873,1.23552 -1.35455,4.81065 -1.96471,5.48582 -0.59355,0.49394 -2.75472,4.13406 -6.38105,5.81231 0,0 -0.18116,-0.0159 -0.19784,0.16471 l 9.14535,-0.076 9.32662,-0.0595 5.8497,-0.0125 8.04129,0.006 4.56438,0.0527 12.06193,0.008 3.47689,-0.047 11.69943,-0.0248 0.0152,1.82907 0.0982,0.92283 13.80936,-1.11087 1.46659,-0.0484 15.47378,-1.32395 3.69137,-0.3929 10.31587,-0.88263 c 0.0159,-0.18117 0.0333,-0.36248 0.0497,-0.54374 0.11625,-1.26874 0.0182,-2.19157 0.41372,-2.52086 0.39569,-0.32929 2.16115,-3.64015 2.96915,-4.47996 0.61016,-0.67517 3.18223,-2.81553 4.2213,-4.18249 0.19785,-0.1647 0.41229,-0.51052 0.4289,-0.69177 0.46213,-1.05428 -0.0484,-1.46658 0.56175,-2.14177 0.61015,-0.67517 0.33067,-1.6146 0.62816,-2.86674 0.29749,-1.25211 0.0526,-4.56437 0.66276,-5.23954 0.42891,-0.69179 0.62817,-2.86674 2.6717,-3.22784 2.04353,-0.3611 3.37867,-0.96986 4.05525,-2.37002 0.24766,-0.70837 0.56175,-2.14174 1.04045,-3.37727 0.31408,-1.43337 0.82602,-3.03138 1.04048,-3.37728 0.42891,-0.69178 2.17777,-3.82138 2.29399,-5.09012 0.0664,-0.72499 0.29748,-1.25212 0.51194,-1.59801 0.19785,-0.16471 0.3957,-0.32929 0.7748,-0.47732 0.74158,-0.11482 2.50424,0.59495 2.47103,0.95744 -0.0333,0.36249 0.0817,1.10409 -0.47872,1.23554 -0.56035,0.13143 -1.07087,-0.2809 -1.30193,0.24624 -0.39571,0.32929 -1.36835,0.97125 -1.07228,1.72945 0.29608,0.7582 0.88823,2.27459 1.9591,2.55546 1.08749,0.0997 0.93945,-0.27946 1.68103,-0.39429 0.72501,0.0664 2.35762,-1.79446 2.62188,-2.68411 0.26428,-0.88961 0.72779,-3.95423 0.97547,-4.66259 0.24765,-0.70839 0.31408,-1.43338 0.34729,-1.79587 -0.0817,-1.10409 1.47497,-12.11033 0.98103,-12.70389 z M 168.30106,107.82847 c 1.48318,-0.22965 0.79139,-0.65856 1.8955,-0.74019 0,0 0,0 0.18115,0.016 1.10409,-0.0817 4.13549,0.74437 5.27278,0.30026 1.1373,-0.44412 1.71564,-2.76711 2.52364,-3.60692 0.98926,-0.82322 1.55101,-2.96498 4.10506,-2.91376 2.53746,0.23245 13.0816,2.84333 14.10266,3.66793 1.00447,1.00586 6.1416,6.77677 6.88319,6.66192 0.90622,0.083 1.68104,-0.39429 1.74745,-1.1193 0.0664,-0.72497 -1.1027,-1.92868 -0.42611,-3.32884 0.67658,-1.40018 0.21725,-4.36654 1.12349,-4.28351 0.92284,-0.0982 8.79668,3.73016 11.35073,3.78136 1.64783,-0.0318 3.52672,-0.59074 4.84525,-1.01826 0.56035,-0.13144 1.1207,-0.26287 1.48319,-0.22965 1.25213,0.29747 0.46073,0.95604 3.37728,1.04047 2.89995,0.26566 3.62494,0.33207 4.02063,0.003 0.3957,-0.32929 -0.14663,-2.38942 -1.33234,-3.41189 -1.00446,-1.00587 -1.26872,-0.11625 -2.14176,-0.56175 -0.87303,-0.44551 -2.43782,-1.31993 -2.15695,-2.39081 0.28087,-1.070889 1.00585,-1.004465 1.23691,-1.531601 0.23107,-0.527137 -3.5087,-1.600804 -4.20048,-2.029731 -0.69179,-0.428907 -1.82908,0.01519 -2.17497,-0.199237 -0.34589,-0.214462 -0.64196,-0.972659 -0.60875,-1.335142 0.21445,-0.345905 2.29118,-1.069482 2.19296,-1.992332 -0.11481,-0.741582 -1.1857,-1.022451 -1.30054,-1.764051 -0.11481,-0.741582 -0.39429,-1.681029 -0.34448,-2.224781 0.0497,-0.543734 -0.65858,-0.79139 -0.97126,-1.368354 -0.1148,-0.741582 0.39711,-2.33959 -0.77199,-3.543309 -1.16912,-1.203702 -1.11929,-1.747454 -2.20677,-1.847073 -1.25213,-0.297484 -3.54334,0.771997 -3.24725,1.530195 0.1148,0.741599 0.41091,1.499796 0.0318,1.647834 -0.56035,0.131442 -0.88963,-0.264273 -1.44998,-0.132886 -0.57695,0.312693 -1.00586,1.004465 -1.71424,0.756808 -0.70839,-0.247676 -0.46071,-0.956045 -0.95464,-1.549606 -0.49394,-0.593543 -0.0817,-1.104083 -2.07536,-1.286723 -1.9937,-0.182603 -3.11578,2.090543 -4.20327,1.990906 -1.08748,-0.09962 -0.32928,-0.395695 -1.38356,-0.857814 -1.03768,-0.643371 -2.01031,-0.0022 -2.50424,-0.594952 -0.29608,-0.758196 -0.3127,-0.576945 -0.70839,-0.247674 -0.3791,0.148075 -0.98926,0.823213 -1.69765,0.575557 -0.70838,-0.247658 -1.38356,-0.857816 -1.03626,-2.653689 0.1826,-1.993722 0.21857,-6.376841 0.66417,-7.249882 0.42891,-0.691772 1.28674,-2.075335 1.71565,-2.767108 0.4289,-0.691772 0.0497,-0.543734 -0.90624,-0.08298 -0.95604,0.460713 -1.36835,0.971252 -2.45584,0.871634 -1.08749,-0.09962 -3.24584,-0.480125 -4.92687,-0.08587 l -0.18117,-0.0159 c -1.69765,0.575557 -6.01715,3.8352 -8.5712,3.783983 -2.55408,-0.05117 -7.6456,-0.334882 -9.29341,-0.303077 -0.18117,-0.0159 -0.36251,-0.03327 -0.72499,-0.06635 -2.38941,0.146631 -8.50341,1.04868 -9.44284,1.328142 -1.1373,0.444115 -4.89648,3.572335 -6.59411,4.147873 -1.69763,0.575557 -4.51597,1.413979 -4.74703,1.941115 -0.23106,0.527137 -0.24766,0.708388 -0.808,0.839811 -0.56035,0.131442 -0.7748,0.477327 -0.80801,0.839829 -0.0333,0.362482 0.0651,1.285316 -0.67657,1.40016 -0.56035,0.131441 -0.7416,0.114808 -0.61015,0.675175 -0.0499,0.543733 0.0651,1.285334 -0.46213,1.054273 -0.54374,-0.04989 -0.83983,-0.808024 -1.02108,-0.824621 -0.16471,-0.197848 -1.31853,0.427519 -1.63121,-0.149519 -0.31267,-0.576964 -0.0651,-1.285333 -1.31714,-1.582818 -1.25213,-0.297484 -1.33514,0.608751 -1.56621,1.135889 -0.23106,0.527136 -0.98925,0.823213 -1.31854,0.427518 -0.31268,-0.576947 -2.04213,-1.649225 -2.12374,-2.753308 -0.0817,-1.104083 -0.42751,-1.318545 -1.515,-1.418164 -1.26873,-0.116252 -0.79141,0.65856 -2.47244,1.052866 -0.18117,-0.0159 -0.19785,0.164709 -0.3791,0.148075 -1.31855,0.427519 -1.91209,0.921444 -4.81205,0.655782 -3.08119,-0.282277 -3.92102,-1.090283 -5.0071,-3.200238 -1.06947,-2.291187 -4.59338,-5.721077 -4.675,-6.82516 -0.0817,-1.104084 0.52853,-1.779258 -0.29469,-2.768516 -0.82321,-0.989256 -5.1053,-4.123069 -7.41172,-4.882655 -2.30639,-0.759605 -4.20188,-0.02025 -5.76668,-0.893824 0,0 -0.18117,-0.0159 -0.16471,-0.197866 -1.56479,-0.874413 -2.53605,-2.242768 -2.89855,-2.27598 -0.36248,-0.03327 -6.479274,4.889473 -7.353685,6.454269 -0.891046,1.746063 -1.467992,2.058737 -1.961917,1.465176 -0.493924,-0.593543 -1.004464,-1.005854 -0.409514,-3.510096 0.264272,-0.889638 0.545141,-1.960509 0.826029,-3.031398 0.247657,-0.70837 0.478717,-1.235506 0.709776,-1.762643 0.46212,-1.054274 0.907626,-1.927297 1.303339,-2.256586 0.791409,-0.658578 3.233431,-5.369598 4.453748,-6.719949 0.197849,-0.164707 0.395696,-0.329288 0.593544,-0.493924 0.93945,-0.279479 4.50078,-3.243045 5.98535,-5.483017 1.46798,-2.058737 2.22616,-2.354814 4.23651,-2.353425 1.82906,-0.01519 5.12472,-0.07883 5.20774,-0.985052 0.083,-0.906235 -0.16326,-2.208166 -2.3216,-2.588665 -2.15836,-0.380499 -7.95828,-0.911832 -11.69943,0.0248 -3.741177,0.936636 -8.456382,4.525568 -8.901906,5.398609 -0.231059,0.527137 -0.676583,1.40016 -1.10549,2.091933 -0.214444,0.345885 -0.610158,0.675174 -0.989257,0.823213 -0.379098,0.148075 -2.703497,1.580021 -4.846646,3.028583 -2.720095,1.761272 -5.456806,3.703777 -5.869116,4.214298 -0.626755,0.856426 -0.528545,1.779258 -1.353148,2.80032 0,0 -0.0159,0.181165 -0.197848,0.164708 -1.005872,1.004464 -12.050924,7.851632 -13.879991,7.866839 -2.026934,0.179844 -5.916129,0.737396 -8.255735,0.340293 -2.158357,-0.380506 -4.268312,0.70559 -5.801303,1.478977 -0.197848,0.164708 -0.395695,0.329289 -0.576946,0.312692 -1.368354,0.971253 -1.090283,3.921018 -4.452359,4.709612 -3.164211,0.623977 -9.031937,2.827939 -10.944025,3.749382 -0.197849,0.164707 -0.379099,0.148074 -0.379099,0.148074 1.350351,1.220317 2.536066,2.242785 2.84874,2.819732 0.806616,1.170507 3.389677,6.890177 4.591989,7.731395 0.345885,0.214464 2.833531,0.990665 6.392066,2.047735 8.715041,2.62607 23.526089,6.541678 25.288732,7.251455 1.054273,0.46212 2.256586,1.30334 3.294262,1.94671 0.51054,0.41232 1.202312,0.84122 1.548199,1.05566 0.51054,0.41231 1.218909,0.65997 1.564813,0.87443 1.598007,0.51193 4.497964,0.7776 5.17314,1.38776 0.329271,0.39571 0.823213,0.98925 1.135887,1.56621 0.329289,0.3957 0.658579,0.79139 1.021061,0.82461 0.906236,0.083 1.797263,-1.66302 5.916129,-0.73739 2.866744,0.62816 7.331496,1.76825 9.621291,2.70908 1.05428,0.46212 1.56482,0.87443 1.71286,1.25353 -0.13289,1.44997 -2.62188,2.68411 -1.99653,3.838 0.31268,0.57694 1.00447,1.00585 2.2566,1.30334 1.41675,0.49533 3.19603,1.02386 5.32117,1.76684 0.70839,0.24768 1.05428,0.46212 1.56479,0.87443 2.02553,1.83048 1.21614,4.68061 0.96707,7.39931 -0.29888,3.26246 -3.95983,7.3135 -2.55967,7.99008 1.21892,0.65996 2.43784,1.31993 3.57514,0.87582 1.13729,-0.44412 0.72638,-1.9439 1.9619,-1.46518 1.43337,0.31408 2.15696,2.39083 1.36556,3.04938 -0.79141,0.65858 -3.24865,3.54053 -2.16257,5.65048 1.08608,2.10995 1.36556,3.04938 2.96358,3.56133 0.52713,0.23103 1.05427,0.4621 1.59801,0.51193 0.64338,-1.03768 1.91489,-4.94209 2.55826,-5.97976 0.65997,-1.21891 4.99749,-6.67012 5.50943,-8.26815 0.24766,-0.70838 1.22171,-3.36067 2.16255,-5.65047 0.94085,-2.28978 2.04633,-4.38173 2.44204,-4.71102 0.77479,-0.47731 2.06012,-0.54232 2.72009,-1.76125 0.64337,-1.03766 1.83048,-2.02553 1.51781,-2.60247 -0.13145,-0.56035 -1.33376,-1.40157 -0.90485,-2.09334 0.4289,-0.69177 1.76405,-1.30054 2.01173,-2.00893 0.24765,-0.70837 0.21584,-2.3562 0.79279,-2.66888 0.39571,-0.32928 0.52714,0.23106 0.65858,0.79139 0.13144,0.56035 -0.69318,1.58141 -0.90765,1.92732 -0.21444,0.34589 -0.0497,0.54373 0.3611,2.04352 0.4109,1.49978 -0.69598,5.60205 0.029,5.66846 0.72499,0.0664 1.53301,-0.77341 3.0992,-1.90929 1.56621,-1.13589 2.78652,-2.48624 2.90276,-3.75498 0.11625,-1.26871 -0.3279,-2.40601 0.0844,-2.91655 0.57694,-0.31267 1.13729,-0.44411 1.79587,0.3473 0.65857,0.7914 1.40016,0.67656 2.14174,0.56173 0.7416,-0.1148 1.07228,-1.72944 2.02832,-2.19015 0.97266,-0.64197 1.33517,-0.60878 1.59803,0.51192 0.0815,1.10408 -0.3307,1.61462 -0.95745,2.47103 -0.62676,0.85642 -0.64337,1.03768 -0.31408,1.43337 0.34588,0.21447 0.13144,0.56035 -0.77479,0.47733 -1.08749,-0.0996 -0.72499,-0.0664 -1.35177,0.79 -0.4455,0.87304 -0.52852,1.77928 -0.74298,2.12517 -0.41231,0.51051 -0.74158,0.1148 -0.97264,0.64196 -0.23107,0.52714 -0.3307,1.61462 0.49252,2.60387 0.83983,0.80802 0.82321,0.98927 1.91069,1.08889 1.08749,0.0996 1.07088,0.28086 0.62676,-0.85644 -0.44411,-1.13729 -0.7402,-1.89549 -0.0318,-1.64781 0.70839,0.24765 1.20231,0.84121 1.30193,-0.24627 -0.0815,-1.10408 -1.06947,-2.2912 0.002,-2.01031 1.25212,0.29747 1.5316,1.23691 1.46658,-0.0484 -0.0651,-1.28533 -0.707,-2.25798 0.52853,-1.77926 0.3625,0.0333 0.70838,0.24766 1.07089,0.28087 0.54373,0.0499 0.92283,-0.0982 1.17048,-0.80662 0.28088,-1.07086 0.42893,-0.69176 1.33515,-0.60874 1.08748,0.0996 1.15391,-0.62537 1.551,-2.96497 0.21586,-2.35621 -0.0137,-3.83939 3.4963,-4.24891 1.43338,0.31408 5.56884,1.05848 7.05203,0.82881 z"
   id="path733"
   style="stroke-width:1.82006;fill:#373e48" />
</svg>
