<?xml version="1.0" encoding="UTF-8" standalone="no"?>
<!-- Generator: Adobe Illustrator 27.2.0, SVG Export Plug-In . SVG Version: 6.00 Build 0)  -->

<svg
   version="1.1"
   id="Layer_1"
   x="0px"
   y="0px"
   viewBox="0 0 321.1 321.1"
   style="enable-background:new 0 0 321.1 321.1;"
   xml:space="preserve"
   sodipodi:docname="minnesota.svg"
   inkscape:version="1.2.2 (732a01da63, 2022-12-09, custom)"
   xmlns:inkscape="http://www.inkscape.org/namespaces/inkscape"
   xmlns:sodipodi="http://sodipodi.sourceforge.net/DTD/sodipodi-0.dtd"
   xmlns="http://www.w3.org/2000/svg"
   xmlns:svg="http://www.w3.org/2000/svg"><defs
   id="defs721" /><sodipodi:namedview
   id="namedview719"
   pagecolor="#505050"
   bordercolor="#ffffff"
   borderopacity="1"
   inkscape:showpageshadow="0"
   inkscape:pageopacity="0"
   inkscape:pagecheckerboard="1"
   inkscape:deskcolor="#505050"
   showgrid="false"
   inkscape:zoom="1.8762223"
   inkscape:cx="174.81937"
   inkscape:cy="157.23084"
   inkscape:window-width="1920"
   inkscape:window-height="1031"
   inkscape:window-x="0"
   inkscape:window-y="25"
   inkscape:window-maximized="1"
   inkscape:current-layer="Layer_1" />
<style
   type="text/css"
   id="style715">
	.st0{fill:#FE8E69;}
</style>
<path
   id="Minnesota_00000063626683666143865070000004013936499435715762_"
   class="st0"
   d="m 291.81108,72.714135 c -1.47243,0.179144 -10.958,2.290129 -12.20762,1.844555 -1.25401,-0.235866 -3.13718,-0.484822 -3.53485,-1.542149 -0.18795,-1.052986 0.69017,-2.92309 -4.1248,-3.442755 -4.81497,-0.519644 -10.70033,-0.01259 -12.80194,0.153762 -2.31134,0.161733 -9.05741,1.700169 -9.67351,1.057936 -0.61611,-0.642255 -2.36858,-7.182943 -3.19877,-7.619832 -0.82582,-0.646597 -2.7395,0.572548 -4.64881,1.581964 -0.4238,0.20096 -1.06605,0.817119 -1.92238,1.638581 -2.56899,2.464426 -6.85062,6.571797 -8.3187,6.541296 -2.0929,-0.253298 -13.01169,0.149357 -14.02111,-1.759975 -1.21914,-1.913674 1.33679,-3.748915 -0.53768,-4.417307 -1.24962,-0.445594 -1.88317,-0.248934 -2.72207,-0.266366 -0.41945,-0.0084 -0.83889,-0.01678 -1.46371,-0.24023 -1.87447,-0.668391 -5.22136,-1.157534 -5.61466,-2.424612 -0.39332,-1.267056 -1.16251,-4.640104 -2.20242,-5.081335 -1.24965,-0.445595 -5.479,1.145075 -7.5719,0.891777 -2.08854,-0.463006 -22.59865,-13.058407 -23.63857,-13.499638 -0.62482,-0.222797 -2.5167,-0.05223 -4.40421,-0.09146 -1.25836,-0.02622 -2.307,-0.04783 -2.92746,-0.480438 -1.03119,-0.860688 -2.08854,-0.463026 -2.93179,-0.27073 -1.05299,0.187955 -6.54505,1.962194 -6.76349,2.377288 -0.21843,0.415094 0.60303,1.27142 0.17054,1.891879 -0.22279,0.624823 -5.2867,1.988352 -8.22283,1.927351 -2.93616,-0.06104 -3.56535,-0.07405 -3.10668,-1.95288 0.4543,-1.669102 -0.13573,-3.569687 -1.39401,-3.595824 -1.25399,-0.235866 -13.43113,0.140546 -13.40499,-1.117742 0.0262,-1.25835 0.89989,-2.918726 -2.66543,-2.992796 -2.72643,-0.05664 -3.15459,0.354093 -3.78814,0.550752 -0.20977,-0.0042 -0.41944,-0.0084 -0.8389,-0.01678 -1.46808,-0.03042 -5.43979,-0.742462 -7.06966,-3.084278 -1.62552,-2.551565 0.71632,-4.18144 -0.0703,-6.715574 -0.78662,-2.534133 -2.87518,-2.99716 -2.85338,-4.045782 0.0218,-1.048622 0.14369,-6.920939 0.14369,-6.920939 0,0 -1.14507,-5.478997 -2.15449,-7.388308 -1.00941,-1.909311 -4.53989,-3.661176 -5.16906,-3.674247 -0.41946,-0.0088 -6.07332,-0.5457985 -6.283051,-0.5501555 -0.209771,-0.0044 -0.370329,17.8266605 -0.370329,17.8266605 0,0 -1.677808,-0.03482 -5.247495,0.100899 -6.505845,0.07468 -18.88835,0.237062 -36.509623,0.08076 -7.969582,-0.165509 -17.197494,-0.35726 -27.474028,-0.570744 0.166138,2.101608 0.537684,4.417307 1.324303,6.95144 1.778602,5.282338 2.377287,6.763486 2.359855,7.6024 -0.01678,0.838893 -2.193109,4.570376 -2.223588,6.038455 -0.0084,0.419458 -0.01259,0.629186 0.192359,0.843257 0.196555,0.633549 0.616096,0.642255 1.00069,2.328768 0.375887,2.105971 -0.248327,11.954342 -0.921082,14.038518 -0.0042,0.20977 -0.218434,0.415094 -0.22716,0.834551 -0.0084,0.419457 -0.01259,0.629186 -0.02182,1.048622 -0.05664,2.72643 0.69948,6.728642 1.704533,8.847682 1.000711,2.328768 5.195807,12.487075 6.161654,16.493631 0.196555,0.63353 0.187954,1.05299 0.179144,1.47244 -0.01259,0.62917 -0.07845,3.77505 -0.156909,7.550107 -0.08705,4.19451 0.01888,9.23227 0.140547,13.43114 -0.03042,1.46806 0.153132,2.73078 0.131316,3.7794 0.153133,2.73079 0.319229,4.8324 0.520252,5.25622 0.804051,1.69522 2.385993,6.34403 1.866329,11.159 -0.515302,4.60524 -1.838996,7.72499 -1.048014,10.04939 -0.0042,0.20977 -0.0042,0.20977 0.20096,0.4238 0.996348,2.5385 6.213929,13.97693 6.952636,18.81806 0.738686,4.8411 -0.169914,8.17927 -0.230916,11.11542 0,0 -0.0042,0.20977 -0.0042,0.20977 -0.03482,1.67781 0.568185,2.94923 0.537684,4.41731 -0.01678,0.83889 -0.03482,1.67781 -0.262004,2.51234 -1.10526,2.70466 -6.059663,8.8962 -7.968974,9.90562 -1.90931,1.00941 -2.75693,1.41144 -1.961585,3.52611 0.20096,0.42382 0.402025,0.84762 0.598685,1.48115 1.201713,2.75257 3.00209,6.98629 4.234303,8.27079 1.437579,1.49856 6.082046,0.12629 7.056598,3.71347 -0.0042,0.20977 0.20096,0.4238 0.192359,0.84325 0.196555,0.63353 0.174949,1.68215 0.358456,2.94487 0.332319,4.20321 0.406976,10.70906 0.512134,15.74682 -0.06104,2.93616 0.0965,5.45721 0.07027,6.71558 -0.0042,0.20977 -0.01259,0.62916 -0.02182,1.04862 -0.03482,1.67779 -0.104466,5.0334 -0.196135,9.43764 -0.03042,1.46808 -0.06104,2.93614 -0.09586,4.61395 -0.108871,5.24313 -0.440644,11.11108 -0.566989,17.19313 -0.122087,5.87229 -0.458076,11.94998 -0.571352,17.40284 -0.357848,7.1263 -0.484193,13.20833 -0.558263,16.77367 3.355595,0.0696 8.388998,0.17432 14.471044,0.30062 2.097244,0.0436 4.613945,0.0959 6.920939,0.1437 4.613945,0.0959 9.647369,0.20033 14.8905,0.30932 v 0 c 6.920919,0.1437 14.261317,0.29626 22.025517,0.24774 v 0 c 5.0334,0.10447 10.0668,0.20914 15.3143,0.10824 2.30697,0.048 4.61396,0.0959 7.13067,0.1481 3.35559,0.0697 6.71121,0.1395 10.07116,-6.1e-4 3.77506,0.0785 7.55011,0.15691 11.32952,0.0256 2.09725,0.0436 4.19451,0.0871 6.29176,0.13068 5.24313,0.10887 10.49062,0.008 15.52403,0.11265 0.41945,0.008 0.62918,0.0126 1.04864,0.0218 6.08639,-0.0833 11.95869,0.0386 17.62564,-0.0535 1.04862,0.0218 2.30697,0.0478 3.35559,0.0696 4.82804,-0.1095 9.65174,-0.008 14.06032,-0.12754 4.4086,-0.11831 8.60745,-0.24084 12.38687,-0.37214 1.6778,0.0348 3.15022,-0.14432 4.82803,-0.1095 5.6713,-0.30181 10.49933,-0.41131 14.07338,-0.7567 -0.36282,-2.73516 -1.31559,-7.3709 -1.87069,-10.94929 -0.37152,-2.3157 -0.74741,-4.42167 -0.94407,-5.0552 0.008,-0.41943 -0.19656,-0.63353 -0.39766,-1.05733 -0.79969,-1.90496 -2.85773,-3.83605 -3.66614,-5.32156 -0.20096,-0.4238 -0.40637,-0.63789 -0.61176,-0.85196 -1.02682,-1.07042 -2.28083,-1.30629 -4.58344,-1.56395 -0.41946,-0.008 -1.04428,-0.2315 -1.66474,-0.66403 -3.11539,-1.53342 -8.27572,-5.62711 -10.53042,-8.19175 -0.20536,-0.21409 -0.41075,-0.42816 -0.61612,-0.64225 -2.0406,-2.77 -3.20747,-7.20038 -3.8105,-8.47179 -0.19655,-0.63353 -2.07111,-1.30192 -4.3563,-2.39848 -1.66474,-0.66403 -3.32946,-1.32806 -4.78447,-1.98772 -1.66474,-0.66403 -3.11539,-1.53345 -3.31639,-1.95725 -0.61176,-0.85196 -0.59869,-1.48114 -0.58998,-1.9006 -0.20096,-0.4238 -0.19236,-0.84326 -1.02683,-1.0704 -1.45937,-0.44996 -4.20323,0.3323 -5.86795,-0.33173 -1.03992,-0.44123 -4.74526,-3.87526 -7.41942,-6.4486 -0.82146,-0.85632 -1.64294,-1.71265 -2.05367,-2.14081 -0.20537,-0.21409 -0.41076,-0.42816 -0.40639,-0.63789 -0.40203,-0.84762 0.26636,-2.72209 0.95653,-5.64516 0.004,-0.20977 0.2228,-0.62482 0.22716,-0.83455 0.49351,-3.55662 -0.68205,-7.56754 -0.86564,-8.83025 -0.19236,-0.84326 0.30557,-4.6096 0.58065,-7.75113 0.24893,-1.88315 0.48916,-3.34689 0.50659,-4.18578 0,0 0.004,-0.20977 0.004,-0.20977 0.24021,-1.46372 2.59511,-3.72278 2.41588,-5.1952 0.0304,-1.46808 -0.74305,-4.6314 -2.17192,-6.54941 -1.42885,-1.91804 -4.37372,-1.55959 -5.19957,-2.20618 -0.61609,-0.64226 -0.59432,-1.69088 -0.36279,-2.73514 0.0126,-0.62918 0.2315,-1.04428 0.2402,-1.46371 0.008,-0.41946 0.44996,-1.45938 1.10963,-2.91439 1.53778,-3.32509 4.15472,-8.09649 4.58722,-8.71697 0.43689,-0.83019 14.45739,-9.14136 14.4661,-9.56082 0.004,-0.20977 0.0304,-1.46808 0.074,-3.56532 -0.13991,-3.35996 -0.24081,-8.60746 -0.3547,-13.22576 -0.1095,-4.82806 -0.24081,-8.60746 -0.23209,-9.02691 0.0126,-0.62919 -0.13991,-3.35996 0.28814,-3.77071 0,0 0,0 0,0 0.4238,-0.20096 2.2852,1.09655 3.34689,0.48916 1.27579,-0.81276 -0.58559,-2.11031 -0.57689,-2.52977 0.008,-0.41946 2.54721,-1.41578 4.45215,-2.21549 -0.41073,-0.42816 -0.61173,-0.85196 -0.3933,-1.26706 0.23587,-1.25399 6.85933,-6.99123 8.54585,-7.37585 0.42382,-0.20096 1.05735,-0.39766 1.48115,-0.59866 1.06171,-0.60739 2.1321,-1.63424 2.77436,-2.25033 0.86069,-1.03122 3.23302,-4.12917 4.51315,-5.15166 1.28014,-1.02248 2.33313,-1.21041 5.339,-4.50503 3.00584,-3.29461 10.32822,-12.37438 11.82678,-13.81196 0.21409,-0.20537 0.64225,-0.61612 1.07041,-1.02685 2.77871,-2.46006 8.76866,-8.000647 10.67798,-9.010067 2.33747,-1.42016 10.1888,-5.663194 15.04298,-7.031066 4.84983,-1.158144 12.90217,-4.977352 14.82018,-6.406225 1.91804,-1.428853 10.39854,-5.658813 11.0495,-6.694367 1.09655,-2.285198 0.68146,-2.503632 -0.79098,-2.324404 z"
   style="stroke-width:2.09771;fill:#373e48" />
</svg>
