<?xml version="1.0" encoding="UTF-8" standalone="no"?>
<!-- Generator: Adobe Illustrator 27.2.0, SVG Export Plug-In . SVG Version: 6.00 Build 0)  -->

<svg
   version="1.1"
   id="Layer_1"
   x="0px"
   y="0px"
   viewBox="0 0 321.1 321.1"
   style="enable-background:new 0 0 321.1 321.1;"
   xml:space="preserve"
   sodipodi:docname="missouri.svg"
   inkscape:version="1.2.2 (732a01da63, 2022-12-09, custom)"
   xmlns:inkscape="http://www.inkscape.org/namespaces/inkscape"
   xmlns:sodipodi="http://sodipodi.sourceforge.net/DTD/sodipodi-0.dtd"
   xmlns="http://www.w3.org/2000/svg"
   xmlns:svg="http://www.w3.org/2000/svg"><defs
   id="defs713" /><sodipodi:namedview
   id="namedview711"
   pagecolor="#505050"
   bordercolor="#ffffff"
   borderopacity="1"
   inkscape:showpageshadow="0"
   inkscape:pageopacity="0"
   inkscape:pagecheckerboard="1"
   inkscape:deskcolor="#505050"
   showgrid="false"
   inkscape:zoom="2.653379"
   inkscape:cx="160.55"
   inkscape:cy="160.55"
   inkscape:window-width="1920"
   inkscape:window-height="1031"
   inkscape:window-x="0"
   inkscape:window-y="25"
   inkscape:window-maximized="1"
   inkscape:current-layer="Layer_1" />
<style
   type="text/css"
   id="style707">
	.st0{fill:#FE8E69;}
</style>
<path
   id="Missouri_00000127018773336581730600000013281353547923232929_"
   class="st0"
   d="m 295.27318,230.22898 c -0.21689,-0.22128 -0.21229,-0.65939 -0.42699,-1.0997 -0.84517,-3.0757 0.88956,-1.30549 1.13969,-4.37008 0.0114,-1.0953 0.23681,-1.75026 0.24126,-2.18837 0.009,-0.87624 0.0128,-1.31436 -0.41148,-2.63316 -2.62868,-0.0265 -6.56953,-0.28567 -8.31089,-1.39871 -0.21908,-0.003 -0.21689,-0.22128 -0.21689,-0.22128 -2.6087,-1.99817 -4.29901,-8.14959 -5.81466,-9.91761 -0.43367,-0.44254 -0.6483,-0.8829 -0.86292,-1.32322 -0.64163,-1.54007 -0.84292,-3.29478 -0.61276,-4.38785 0,0 0.003,-0.21906 0.003,-0.21906 0.67048,-1.3077 2.18835,0.24126 2.43185,-2.16614 0.24569,-2.6265 -3.892,-5.07833 -4.51808,-8.15182 0.004,-0.43811 -0.21008,-0.87845 -0.42479,-1.31878 0.003,-0.21907 -0.21688,-0.22127 -0.21447,-0.44035 -1.06642,-2.85886 -3.00465,-6.16474 -4.08441,-7.70925 -0.86289,-1.32323 -1.06197,-3.29697 -2.80111,-4.62909 -0.86737,-0.88511 -2.39632,-1.33878 -4.36563,-1.57781 -2.40743,-0.24348 -4.37009,-1.13971 -6.10922,-2.47181 -2.39187,-1.77692 -4.339,-4.20656 -5.86129,-5.3174 -1.08641,-0.88732 -3.69737,-2.66642 -6.30607,-4.66462 -0.65051,-0.66384 -1.30326,-1.10862 -2.17283,-1.77465 -2.38744,-2.21502 -4.55582,-4.42782 -4.75712,-6.1825 -0.61498,-4.1688 0.0623,-6.13363 0.96285,-8.53441 0,0 0.003,-0.21906 0.22349,-0.4359 0.45145,-1.30991 1.56894,-3.48941 2.46958,-5.89015 1.12197,-2.6176 2.02707,-5.45651 2.48072,-6.98543 0.004,-0.43813 0.22572,-0.65498 0.22796,-0.87403 0.0154,-1.53343 -1.28773,-2.64202 -1.27665,-3.73734 0.003,-0.21906 0.004,-0.4381 0.22352,-0.43587 0.67051,-1.3077 2.85666,-0.8474 3.10015,-3.2548 0.004,-0.43811 0.007,-0.65719 0.0114,-1.0953 -0.20133,-1.75468 -0.84294,-3.29477 -3.02911,-3.75509 -0.874,-0.22794 -1.748,-0.45587 -2.83886,-0.9051 -2.40076,-0.90067 -5.45427,-2.2461 -8.30202,-2.27498 -0.21908,-0.003 -0.21908,-0.003 -0.43813,-0.004 -4.16431,0.17702 -5.06942,3.01575 -6.81079,1.9027 -0.21688,-0.22129 -0.43589,-0.2235 -0.65271,-0.44478 -1.52232,-1.11085 -2.38303,-2.65313 -2.36527,-4.40561 0.23905,-1.9693 2.20837,-1.73028 0.92288,-4.59132 -0.64163,-1.5401 -0.84072,-3.51385 -1.91822,-5.27741 -0.64165,-1.54008 -1.94046,-3.08682 -4.33679,-4.42558 -2.17725,-1.336569 -4.13324,-2.889941 -5.86573,-4.879259 -2.60205,-2.655368 -4.76379,-5.52534 -6.49625,-7.514616 -0.86513,-1.104176 -1.95154,-1.991526 -3.03795,-2.878847 -1.73913,-1.332114 -3.48053,-2.445166 -4.77932,-3.991913 -0.21689,-0.221285 -0.4337,-0.442571 -0.65052,-0.663828 -0.43146,-0.661634 -1.07529,-1.982651 -1.93821,-3.305876 -1.50233,-3.082369 -3.4339,-7.045393 -4.06442,-9.68076 -0.21228,-0.659398 -0.20572,-1.316573 -0.20133,-1.754685 0.0289,-2.847779 -2.54877,-7.912756 -2.51101,-11.636759 0.004,-0.438112 0.009,-0.876224 0.0128,-1.31435 0.004,-0.438113 0.22573,-0.654954 0.23016,-1.093066 0.68383,-2.622048 2.0226,-5.018367 2.48293,-7.204511 -1.32101,0.643842 -2.85219,0.409223 -4.35898,-2.234992 -2.58428,-4.407816 -3.25033,-3.538273 -3.88752,-5.516451 -0.64164,-1.540052 -0.84516,-3.075688 -3.25035,-3.538245 -0.43814,-0.0043 -0.87402,-0.227952 -1.53121,-0.234619 -0.87624,-0.0085 -3.50716,0.183578 -8.10959,0.356102 -2.63093,0.192339 -5.91903,0.378154 -9.8643,0.557217 -1.75248,-0.01752 -3.72624,0.181399 -5.9168,0.159931 -3.28811,0.185772 -6.79525,0.36935 -10.7383,0.329307 -1.31436,-0.01282 -2.85,0.190145 -4.38341,0.174817 -4.60245,0.172411 -9.42396,0.342584 -14.90263,0.506219 -3.50718,0.183578 -7.01212,0.14788 -10.95738,0.327099 -2.19059,-0.02208 -4.38341,0.174818 -6.79305,0.150287 -3.06681,-0.03105 -6.13586,0.156854 -9.202689,0.125786 -3.066813,-0.03106 -6.135863,0.156854 -9.421725,0.123506 -3.066828,-0.03106 -6.354955,0.153791 -9.421739,0.123506 -2.847765,-0.02878 -5.695543,-0.05784 -8.545529,0.132481 -2.409638,-0.02436 -4.819276,-0.04886 -7.228928,-0.07336 -3.285877,-0.03305 -6.790802,-0.06881 -10.297978,0.114816 -3.723988,-0.03789 -7.667026,-0.07778 -11.61012,-0.117665 -2.190589,-0.02208 -4.381178,-0.04445 -6.790787,-0.0688 -4.819305,-0.04886 -9.857672,-0.09986 -14.896011,-0.150942 0.427029,1.09976 1.07533,1.982651 1.508969,2.425193 0.650537,0.663857 0.867364,0.885128 0.862919,1.323254 -0.0043,0.438112 -0.0114,1.095288 0.194761,2.411875 0.634967,2.197241 1.902678,6.810787 3.422787,8.140693 1.303254,1.108607 2.38743,2.215006 2.376318,3.310307 0,0 -0.0028,0.219064 -0.0028,0.219064 -0.01282,1.314336 3.898635,4.421135 4.971729,6.622821 0.429251,0.880683 1.506789,2.644257 2.801139,4.629074 0.214462,0.440377 0.648286,0.882919 0.862919,1.323254 2.159506,3.089007 4.971729,6.622821 6.717539,7.297789 3.272542,1.347642 4.808193,1.144134 5.257388,0.05328 0.225729,-0.654967 0.891794,-1.524539 1.329906,-1.520094 0.219077,0.0028 0.43589,0.223493 0.6483,0.882905 0.427001,1.099732 1.725824,2.646465 2.36525,4.405594 0.426987,1.099732 0.634953,2.197256 0.407015,3.071258 -0.900669,2.400791 -3.752864,2.810014 -5.084992,4.549158 -0.444779,0.652745 -1.110829,1.522316 -1.55783,2.39411 -0.889558,1.305462 -1.340989,2.615368 -1.349878,3.491606 -0.0043,0.438112 0.427029,1.099746 0.860682,1.542289 1.079746,1.544539 3.250363,3.538244 4.32122,5.959008 0.216869,0.221285 0.214462,0.440334 0.429237,0.880669 1.497901,3.520493 2.986883,7.917203 5.383202,9.255983 0.652745,0.44478 1.307698,0.67051 1.743602,0.894 1.526719,0.67272 3.055702,1.12637 5.022798,1.58447 0.654953,0.22573 1.08419,1.1064 1.508997,2.42519 -0.0028,0.21907 0.214462,0.44035 0.212282,0.6594 0.205701,1.31657 0.411445,2.63316 0.612759,4.38784 0.185772,3.2881 0.145672,7.23115 -0.09986,9.85765 -0.0085,0.87624 -0.234605,1.53119 -0.241257,2.18836 -0.0071,0.65718 -0.241272,2.18837 -0.265717,4.59802 -0.03576,3.50493 -0.08433,8.32422 -0.14003,13.80068 -0.01538,1.5334 -0.03105,3.06683 -0.04658,4.60023 -0.05784,5.69554 -0.119803,11.82918 0.04359,17.30786 -0.0071,0.65717 -0.0114,1.09528 -0.01752,1.75247 -0.08219,8.10515 0.07465,14.24103 0.07465,14.24103 l -0.04673,4.60026 -0.02208,2.19057 -0.144361,14.23879 -0.01539,1.53343 -0.148749,14.67694 -0.0265,2.62868 -0.12664,12.48636 -0.06667,6.57177 -0.07336,7.22893 c 5.038367,0.051 13.36479,-0.0836 23.881831,-0.19608 2.847764,0.0288 5.695514,0.0578 8.76455,-0.13006 3.724021,0.0379 7.450241,-0.14349 11.393271,-0.10356 3.50496,0.0355 7.23115,-0.14568 10.95517,-0.10826 0.4381,0.004 1.09529,0.0114 1.5334,0.0154 5.91677,-0.15991 11.83139,-0.0993 17.96724,-0.25604 1.0953,0.0114 2.19059,0.0221 3.28589,0.0335 3.50495,0.0358 7.23118,-0.14569 10.73609,-0.1104 5.25964,-0.16585 10.51705,-0.11268 15.77668,-0.27819 0.21906,0.003 0.43809,0.004 0.65719,0.007 6.57396,-0.1527 13.14793,-0.30495 19.50287,-0.45955 3.06904,-0.18796 6.13584,-0.15686 9.2049,-0.3448 0.87624,0.009 1.75246,0.0175 2.41185,-0.19453 3.9453,-0.1792 7.67149,-0.36052 11.39772,-0.54172 5.04059,-0.16802 9.86431,-0.55724 14.2477,-0.7319 3.28811,-0.18577 6.35712,-0.37378 9.20712,-0.56391 5.26186,-0.38482 9.86653,-0.77633 13.37811,-1.39796 0,0 0.87626,0.009 1.75249,0.0175 1.09528,0.0114 2.62648,0.24568 3.27478,1.12858 1.29879,1.54673 3.67736,4.63799 3.88088,6.17361 0.20351,1.53564 0.3937,4.38563 -1.81688,6.33493 -1.77024,1.73473 -3.52937,2.37415 -4.63797,3.67739 -0.22129,0.21688 -0.2235,0.43591 -0.44478,0.65275 -0.89621,1.96262 -5.79766,10.01894 -5.79766,10.01894 l 0.87621,0.009 2.84999,-0.19015 13.5883,-0.51951 11.61677,-0.5395 c 0,0 0.003,-0.21907 0.003,-0.21907 0.68604,-2.8411 1.55561,-2.17504 1.57337,-3.92751 0.0175,-1.75247 0.004,-0.43811 1.99374,-2.17061 1.98931,-1.73249 1.768,-1.51566 -0.62164,-3.5116 -0.4359,-0.2235 -0.65052,-0.66384 -0.86736,-0.88511 -1.51786,-1.54896 -2.16392,-2.65091 -1.50008,-3.30142 0.66606,-0.86956 1.95376,1.77246 3.93638,0.69714 1.98263,-1.07531 2.44073,-3.04241 0.91621,-3.93417 -1.52452,-0.89178 -2.61093,-1.77913 -1.28992,-2.42297 0.66161,-0.43146 1.09086,0.44922 1.74581,0.67492 0.43588,0.22352 0.65717,0.007 1.10639,-1.08417 0.90288,-2.61982 -1.509,-2.4252 -1.48901,-4.39671 0.0197,-1.97154 -2.81222,-3.53381 -1.69694,-5.49423 0.89842,-2.18171 2.22611,-3.48273 3.30364,-1.71916 1.07754,1.76356 1.04864,4.61131 1.03976,5.48755 -0.009,0.87624 1.29217,2.20391 1.97377,-0.19913 0.2257,-0.65496 0.45143,-1.30991 0.67938,-2.18392 0.68159,-2.40299 1.58893,-5.46094 2.69088,-6.10701 0,0 0.21906,0.003 0.21906,0.003 1.3188,-0.42479 3.04239,2.44072 4.35674,2.45404 1.53342,0.0154 -0.86292,-1.32322 0.90732,-3.05795 0.44255,-0.43367 0.88733,-1.08638 1.11305,-1.74134 0.894,-1.7436 1.1375,-4.15103 1.36766,-5.24409 0.45587,-1.74805 0.004,-0.4381 -0.63719,-1.97821 z"
   style="fill:#373e48;stroke-width:2.1907" />
</svg>
