<?xml version="1.0" encoding="UTF-8" standalone="no"?>
<!-- Generator: Adobe Illustrator 27.2.0, SVG Export Plug-In . SVG Version: 6.00 Build 0)  -->

<svg
   version="1.1"
   id="Layer_1"
   x="0px"
   y="0px"
   viewBox="0 0 321.1 321.1"
   style="enable-background:new 0 0 321.1 321.1;"
   xml:space="preserve"
   sodipodi:docname="mississippi.svg"
   inkscape:version="1.2.2 (732a01da63, 2022-12-09, custom)"
   xmlns:inkscape="http://www.inkscape.org/namespaces/inkscape"
   xmlns:sodipodi="http://sodipodi.sourceforge.net/DTD/sodipodi-0.dtd"
   xmlns="http://www.w3.org/2000/svg"
   xmlns:svg="http://www.w3.org/2000/svg"><defs
   id="defs729" /><sodipodi:namedview
   id="namedview727"
   pagecolor="#505050"
   bordercolor="#ffffff"
   borderopacity="1"
   inkscape:showpageshadow="0"
   inkscape:pageopacity="0"
   inkscape:pagecheckerboard="1"
   inkscape:deskcolor="#505050"
   showgrid="false"
   inkscape:zoom="2.653379"
   inkscape:cx="160.55"
   inkscape:cy="161.68064"
   inkscape:window-width="1920"
   inkscape:window-height="1031"
   inkscape:window-x="0"
   inkscape:window-y="25"
   inkscape:window-maximized="1"
   inkscape:current-layer="Layer_1" />
<style
   type="text/css"
   id="style723">
	.st0{fill:#FE8E69;}
</style>
<path
   id="Mississippi_2_"
   class="st0"
   d="m 248.95524,279.48519 c -0.24418,-5.67404 -0.48829,-11.34806 -0.9873,-17.30493 -0.12902,-2.70258 -0.2721,-5.1363 -0.40117,-7.83887 -0.44311,-7.03232 -0.8862,-14.06463 -1.08842,-20.54523 -0.47105,-6.49461 -0.70121,-12.4375 -0.98731,-17.30495 -0.45707,-6.76344 -0.74317,-11.63089 -0.92816,-13.25802 0,0 0,0 0,0 -0.19895,-1.35828 0.2065,-9.15525 0.8076,-20.71624 0.0977,-1.88201 0.19573,-3.76404 0.29359,-5.64605 0.27958,-5.37721 0.85602,-11.27817 1.19152,-17.73083 0.36349,-6.99036 1.02377,-14.50448 1.69806,-22.28744 0.084,-1.61315 0.16775,-3.22632 0.23772,-4.57064 0.59037,-6.16978 0.9259,-12.62246 1.51629,-18.79226 0.27961,-5.3772 0.82804,-10.74043 1.09369,-15.848786 0.23773,-4.57061 0.74417,-9.127273 0.98184,-13.697899 0.63233,-6.976369 0.9958,-13.96675 1.60018,-20.405434 0.0419,-0.806568 0.0837,-1.613154 0.12565,-2.419722 0.25173,-4.839477 0.77215,-9.66499 0.99584,-13.96675 0.19573,-3.764074 0.64631,-7.245269 0.82804,-10.740459 0.1398,-2.688606 0.53447,-5.094365 0.66031,-7.51412 0.86999,-11.546995 1.5163,-18.792265 1.5163,-18.792265 l -0.50976,-0.5656601 -6.34406,-7.6087445 c -2.43373,0.1429984 -4.85345,0.016843 -7.28719,0.1601784 -0.26895,-0.013475 -0.53772,-0.02796 -0.80658,-0.04194 -7.2872,0.1601785 -14.57437,0.3205422 -21.59271,0.4947846 -0.80657,-0.041939 -1.34429,-0.070068 -2.16485,0.1569783 -3.24032,0.1010589 -6.48061,0.2022021 -9.45206,0.3172913 -3.24031,0.1012274 -6.74946,0.1881886 -9.98976,0.2893318 -2.7026,0.1290186 -5.39121,-0.010106 -8.09378,0.1182389 -5.39121,-0.010106 -10.52749,0.2614227 -15.38095,0.278569 -1.61317,-0.083711 -2.97145,0.1150388 -4.58461,0.03116 -12.40951,0.1633786 -22.93702,0.4248854 -30.4791,0.3023178 0.14299,2.4337182 0.7539,6.239699 0.92492,8.135716 -0.028,0.537718 -0.0419,0.806569 -0.0419,0.806569 -0.29681,0.523738 -4.10281,1.134605 -5.50301,2.140142 -0.28285,0.254954 -0.55172,0.240941 -0.5657,0.509775 -0.8625,1.033496 -7.46567,8.777761 -8.15717,11.707257 -0.0135,0.268952 -0.028,0.537718 -0.0419,0.806602 -0.0977,1.882004 0.0312,4.584607 -0.10847,7.273212 0.11521,2.971436 -0.0242,5.660042 -0.91517,7.231256 -2.0498,3.128465 -7.63992,1.759453 -8.75732,2.510102 -1.13135,1.019533 -7.63345,12.004118 -9.10357,14.353957 -0.59364,1.047476 -0.63556,1.854061 -0.39465,2.405759 0.24096,0.551697 1.01951,1.131354 1.78414,1.979896 1.54327,1.428182 1.50133,2.23475 -0.20973,4.032892 -1.44214,1.812121 -7.69582,2.834888 -9.11004,4.109292 -1.428168,1.543271 -2.45518,10.925414 -4.913624,16.728505 -2.458444,5.803091 2.154105,5.234163 1.546505,6.550506 -0.607634,1.316343 -4.399635,1.65836 -5.007268,2.974704 -0.01347,0.268951 0.226961,0.820531 0.736703,1.386225 1.784145,1.979872 5.932159,5.161022 5.338489,6.208522 -0.338733,1.3303 -3.509137,0.0872 -3.537114,0.62483 -0.02796,0.53771 4.563131,10.75117 5.016989,12.39228 0.7227,1.65511 -0.32154,6.1838 -1.068953,10.18875 -0.338766,1.3303 -0.663553,2.39178 -1.52604,3.42527 -0.296827,0.52374 -0.862522,1.03351 -1.428216,1.54327 -0.848508,0.76465 -1.428165,1.54327 -2.035782,2.85962 -1.21525,2.63268 1.678791,14.3754 1.497071,17.8706 -0.181721,3.49516 2.932764,5.81382 4.22113,6.95916 0,0 0,0 0,0 0.50978,0.56569 0.49578,0.83454 0.18496,1.62713 -0.324791,1.06147 -1.187279,2.09497 -1.794913,3.41131 -0.635559,1.85406 6.288143,8.68419 6.288143,8.68419 l -0.19249,8.88636 -5.928922,-0.0387 -0.806568,-0.0419 c 0,0 6.08915,7.32586 6.07519,7.59474 0,0 0,0 -0.28285,0.25496 -1.15933,1.55723 -7.818404,10.37695 -13.007393,16.84683 -2.318663,3.11448 -4.609332,5.69125 -5.485816,6.99361 -0.282847,0.25496 -0.29681,0.52374 -0.565694,0.50974 -2.021819,2.59077 -6.191275,10.192 -7.364586,12.0181 -0.862488,1.0335 -3.09077,12.77948 -4.669496,22.40254 -1.170044,6.94843 -2.284168,12.8214 -2.284168,12.8214 v 0 l 25.059922,0.22481 5.660061,0.0242 14.54641,0.21728 13.73984,0.17525 1.07543,0.0561 11.3201,0.0495 5.12233,-0.003 22.6402,0.0989 6.46664,0.0667 c 0,0 -0.0135,0.26895 -0.0135,0.26895 0.17095,1.896 -1.59593,4.7696 -2.74126,6.05798 -1.13136,1.01953 -2.99293,10.89745 -2.65093,14.68945 -0.0135,0.26897 -0.0135,0.26897 -0.028,0.53774 0.15698,2.16485 4.39214,8.85515 7.63568,13.8764 1.72824,3.0553 3.21559,5.55892 3.42852,6.64837 0.39794,2.71655 0.0873,3.50913 2.0423,7.38505 0.96358,2.20679 3.08653,2.85634 4.68572,3.20907 3.32418,-1.71424 8.4013,-6.03323 8.71212,-6.82584 0.32477,-1.06145 0.54847,-5.36321 1.35503,-5.32131 v 0 c 0.80659,0.0419 2.56279,2.55957 3.92107,2.36061 1.35827,-0.19896 19.43857,-5.72893 22.93376,-5.54721 0,0 0.26896,0.0135 0.26896,0.0135 2.66063,0.67753 4.41683,3.19515 5.74717,3.53388 1.33032,0.33877 14.19366,1.8164 15.56594,1.34858 0.82055,-0.22696 2.47566,-0.94963 3.59303,-1.70028 -0.40117,-7.83891 -1.02923,-16.49835 -1.36052,-25.68154 z"
   style="stroke-width:2.69224;fill:#373e48" />
</svg>
