<?xml version="1.0" encoding="UTF-8" standalone="no"?>
<!-- Generator: Adobe Illustrator 27.2.0, SVG Export Plug-In . SVG Version: 6.00 Build 0)  -->

<svg
   version="1.1"
   id="Layer_1"
   x="0px"
   y="0px"
   viewBox="0 0 321.1 321.1"
   style="enable-background:new 0 0 321.1 321.1;"
   xml:space="preserve"
   sodipodi:docname="montana.svg"
   inkscape:version="1.2.2 (732a01da63, 2022-12-09, custom)"
   xmlns:inkscape="http://www.inkscape.org/namespaces/inkscape"
   xmlns:sodipodi="http://sodipodi.sourceforge.net/DTD/sodipodi-0.dtd"
   xmlns="http://www.w3.org/2000/svg"
   xmlns:svg="http://www.w3.org/2000/svg"><defs
   id="defs705" /><sodipodi:namedview
   id="namedview703"
   pagecolor="#505050"
   bordercolor="#ffffff"
   borderopacity="1"
   inkscape:showpageshadow="0"
   inkscape:pageopacity="0"
   inkscape:pagecheckerboard="1"
   inkscape:deskcolor="#505050"
   showgrid="false"
   inkscape:zoom="2.653379"
   inkscape:cx="160.55"
   inkscape:cy="160.55"
   inkscape:window-width="1920"
   inkscape:window-height="1031"
   inkscape:window-x="0"
   inkscape:window-y="25"
   inkscape:window-maximized="1"
   inkscape:current-layer="Layer_1" />
<style
   type="text/css"
   id="style698">
	.st0{fill:#FE8E69;}
</style>
<path
   class="st0"
   d="m 286.63982,73.829111 c -8.71246,-0.144738 -17.58174,-0.275113 -26.45104,-0.405425 -8.71244,-0.144739 -17.43938,-0.446406 -26.47996,-0.719079 -8.88377,-0.28713 -17.92436,-0.559802 -26.97942,-0.989293 -10.32418,-0.470519 -20.80517,-0.926564 -31.45749,-1.524953 -10.33866,-0.627337 -20.83413,-1.240216 -31.48643,-1.838606 -4.2923,-0.236464 -8.7559,-0.615273 -13.20501,-0.837263 -7.6436,-0.559787 -15.44404,-1.105085 -23.41578,-1.792743 C 91.706184,64.45983 75.919533,63.070041 59.790282,61.395546 54.356758,60.789927 48.937711,60.341143 43.504189,59.735525 32.637147,58.524304 21.613276,57.327541 10.574929,55.973959 9.9813808,59.824715 9.0934668,67.340444 8.1910758,74.699338 7.7398805,78.378786 7.2886851,82.058233 6.9508913,85.25272 6.5431238,89.402654 6.20533,92.597141 6.3356136,94.008602 c 0,0 0.01449,0.156866 0.01449,0.156866 0.01449,0.156866 0.028948,0.313653 0.028948,0.313653 0.8010281,1.824052 6.7725734,9.971939 6.9173344,11.540219 0,0 0,0 0,0 0,0 0,0 0,0 0.101333,1.09781 -0.706948,4.33572 -0.974771,6.57475 -0.08445,0.79863 -0.183373,1.44043 -0.139951,1.91092 0.159238,1.72511 3.701149,5.8268 4.900285,6.82326 1.18466,0.83966 4.849633,1.13402 5.435928,2.34523 0.586297,1.2112 6.046333,10.67163 6.861839,12.6525 0.01449,0.15686 0.185782,0.29918 0.185782,0.29918 0.08686,0.94097 0.260568,2.82292 1.36078,4.46119 0.72865,1.0399 1.358373,2.72159 1.90124,3.46231 0.357087,0.44152 0.685222,0.56941 1.155709,0.52597 1.411461,-0.13025 2.538217,0.0821 2.610598,0.86619 0.05791,0.62733 0.6442,1.83852 1.643079,2.37898 0.34261,0.2847 0.827574,0.39812 1.141231,0.36915 1.754072,0.15435 2.181131,-0.35948 3.763899,-0.34742 0.627315,-0.058 1.126754,0.21232 1.355964,0.98199 0.01449,0.15686 0.04342,0.47049 0.07239,0.78415 0.08686,0.94098 -0.253346,2.39586 -0.849302,4.50703 -1.618971,4.73623 -8.635316,24.68004 -8.304773,26.5475 0.01449,0.15687 0.01449,0.15687 0.02895,0.31367 0.173713,1.88195 -0.890322,5.77612 -0.632161,6.85946 0,0 0.01449,0.15686 0.01449,0.15686 0,0 0,0 0,0 0.371562,0.59838 1.681691,-0.62971 2.581645,0.55253 0.899954,1.18226 1.21602,2.8929 2.229374,3.5902 0.49944,0.27023 1.739596,-0.003 2.965277,-0.43189 0,0 -0.156834,0.0142 -0.156834,0.0142 v 0 c 1.382509,-0.44395 2.736066,-1.20156 3.163126,-1.71546 0.883069,-0.71418 2.803631,-3.89661 4.171664,-4.49737 0.299182,-0.18579 0.612841,-0.21473 1.083328,-0.25817 0,0 -0.156834,0.0142 -0.156834,0.0142 0.156834,-0.0142 0.313657,-0.029 0.627317,-0.058 -0.156835,0.0142 -0.156835,0.0142 -0.31366,0.029 0.156835,-0.0142 0.31366,-0.029 0.470487,-0.0435 0.156835,-0.0142 0.470488,-0.0435 0.641794,0.0989 0.656268,0.25576 1.341489,0.82517 1.913315,1.87954 0.386038,0.75519 0.644189,1.83853 0.759996,3.09315 0.130249,1.41147 0.446359,3.12211 0.591113,4.6904 0.316078,1.71064 0.617667,3.26446 1.0616,4.64696 1.474192,3.97623 4.967826,14.40899 6.053555,15.89043 1.085744,1.48143 2.670923,3.2331 3.655319,3.61673 0.827577,0.3981 1.510384,-0.77208 2.468242,1.03749 0.943383,1.65274 2.78432,2.74812 3.187241,5.39975 0.01418,0.15687 0.02898,0.31366 0.04347,0.47049 0.02898,0.31365 0.04347,0.47049 0.07245,0.78414 0.0031,1.7396 -0.137494,3.6505 -0.149621,5.23327 0.01418,0.15687 0.04347,0.47049 0.05796,0.62731 0.07245,0.78415 0.287114,1.39698 0.801039,1.82405 1.541742,1.28118 2.357255,3.26205 3.55397,2.51892 1.353566,-0.7576 -0.303998,-3.29341 1.676873,-4.10892 1.980888,-0.8155 8.628012,0.94342 10.994921,0.88311 2.352436,-0.21716 2.692642,-1.67204 5.515565,-1.93261 2.822922,-0.26057 11.923826,2.37902 14.503056,1.19194 2.42241,-1.17259 3.38753,-4.42499 4.56977,-5.32493 l 0.44154,-0.35709 v 0 c 0.88308,-0.71417 1.73719,-1.742 3.20655,-1.24498 0.15687,-0.0142 0.17131,0.14238 0.32814,0.12789 1.81198,0.78173 4.02928,5.95468 5.45763,7.72082 0.71418,0.88308 1.42834,1.76614 2.4417,2.46344 l 0.4319,-7.31547 0.76729,-12.24955 c 0.17131,0.14237 0.32814,0.12789 0.49945,0.27021 2.92425,0.83725 15.65876,1.71794 33.1271,2.478 9.36871,0.40054 20.16338,0.82764 31.57089,1.03999 3.16552,0.0241 6.50237,0.19063 9.66789,0.21476 3.32238,0.009 6.50237,0.19063 9.82475,0.20029 14.58751,0.39331 29.48867,0.75768 43.4344,1.05208 2.22455,0.11104 4.2778,0.0797 6.34553,0.20509 8.71246,0.14474 16.95444,0.33301 24.24095,0.45126 0.79863,0.0844 1.42593,0.0265 2.22456,0.11104 12.03482,0.1545 21.54589,0.38369 26.45102,0.40542 l -0.0265,-8.8548 -0.24843,-24.96719 0.0266,-1.42594 -0.10379,-13.11815 -0.0142,-10.43757 -0.0482,-3.94968 -0.164,-25.76581 -0.0893,-2.68056 -0.11576,-21.81612 -0.14962,-15.328245 -0.041,-9.011624 -0.10379,-13.118153 c -9.11057,0.682792 -17.66619,0.523516 -26.20733,0.521091 z M 42.319158,192.54559 c 0.156834,-0.0142 0.299182,-0.18578 0.456012,-0.20026 -0.156834,0.0142 -0.156834,0.0142 -0.299182,0.18578 0,0 0,0 -0.156835,0.0142 z m 0.912024,-0.40051 c 0,0 0,0 0,0 0.142344,-0.17131 0.45601,-0.20026 0.598362,-0.37157 0,0 0,0 0,0 -0.142345,0.17131 -0.29918,0.18578 -0.598362,0.37157 z m 0.755192,-0.38604 c 0.156834,-0.0142 0.156834,-0.0142 0.299182,-0.18578 0,0 -0.156835,0.0142 -0.299182,0.18578 0.156834,-0.0142 0.156834,-0.0142 0,0 z m 0.897546,-0.55735 c 0,0 -0.156834,0.0142 0,0 -0.156834,0.0142 0,0 0,0 z m 6.837759,-4.74345 v 0 0 c 0.755193,-0.38604 0.755193,-0.38604 0,0 z"
   id="path700"
   style="stroke-width:1.57496;fill:#373e48" />
</svg>
