<?xml version="1.0" encoding="UTF-8" standalone="no"?>
<!-- Generator: Adobe Illustrator 27.2.0, SVG Export Plug-In . SVG Version: 6.00 Build 0)  -->

<svg
   version="1.1"
   id="Layer_1"
   x="0px"
   y="0px"
   viewBox="0 0 321.1 321.1"
   style="enable-background:new 0 0 321.1 321.1;"
   xml:space="preserve"
   sodipodi:docname="nebraska.svg"
   inkscape:version="1.2.2 (732a01da63, 2022-12-09, custom)"
   xmlns:inkscape="http://www.inkscape.org/namespaces/inkscape"
   xmlns:sodipodi="http://sodipodi.sourceforge.net/DTD/sodipodi-0.dtd"
   xmlns="http://www.w3.org/2000/svg"
   xmlns:svg="http://www.w3.org/2000/svg"><defs
   id="defs845" /><sodipodi:namedview
   id="namedview843"
   pagecolor="#505050"
   bordercolor="#ffffff"
   borderopacity="1"
   inkscape:showpageshadow="0"
   inkscape:pageopacity="0"
   inkscape:pagecheckerboard="1"
   inkscape:deskcolor="#505050"
   showgrid="false"
   inkscape:zoom="2.653379"
   inkscape:cx="160.55"
   inkscape:cy="160.55"
   inkscape:window-width="1920"
   inkscape:window-height="1031"
   inkscape:window-x="0"
   inkscape:window-y="25"
   inkscape:window-maximized="1"
   inkscape:current-layer="Layer_1" />
<style
   type="text/css"
   id="style839">
	.st0{fill:#FE8E69;}
</style>
<path
   id="Nebraska_00000150787662261241753270000011331003742362203052_"
   class="st0"
   d="m 303.30549,204.02517 c -0.967,-1.80634 -4.34101,-4.46222 -4.36653,-5.37817 0,0 -0.005,-0.18323 -0.005,-0.18323 -0.20872,-0.91081 -0.967,-1.80633 -2.09166,-2.69162 -1.31296,-1.06338 -2.51424,-4.69649 -3.11999,-6.69623 -0.39704,-1.0889 -0.22916,-1.64358 -0.23938,-2.00996 -0.0101,-0.36636 -0.19851,-0.54445 -0.76338,-1.07869 -0.3766,-0.35616 -0.76342,-1.07869 -1.33851,-1.97932 -1.16042,-2.1676 -2.53978,-5.61243 -3.3236,-7.42387 -0.18831,-0.17805 -0.1934,-0.36127 -0.19852,-0.54445 -0.79403,-2.17781 0.10144,-2.93611 0.61528,-4.23375 0.17306,-0.37147 0.15774,-0.92104 0.13722,-1.6538 -0.23937,-2.00996 -1.23194,-4.73222 -1.26258,-5.83136 -0.005,-0.18323 -0.0101,-0.36637 -0.0153,-0.54955 -0.0358,-1.28234 -0.0869,-3.1142 -0.30579,-4.39141 -0.0101,-0.36638 -0.20361,-0.72765 -0.20873,-0.91084 -0.19339,-0.36127 -0.3817,-0.53933 -0.75318,-0.71232 -0.37658,-0.35615 -0.93637,-0.70721 -1.14509,-1.61803 -0.21894,-1.27721 -0.12258,-4.39651 -0.1992,-7.14433 -0.005,-0.18323 -0.0101,-0.36638 -0.0153,-0.54956 -0.0358,-1.28232 -1.00787,-3.27184 -2.16828,-5.43946 -1.16553,-2.35079 -2.70253,-4.87455 -3.86295,-7.04217 -0.39192,-0.90573 -0.77873,-1.62824 -0.98234,-2.3559 -1.38957,-3.81119 -0.67726,-4.56437 -1.08961,-6.20285 -0.005,-0.18323 -0.19339,-0.36126 -0.20361,-0.72764 -0.39702,-1.0889 -1.37426,-3.26161 -2.1632,-5.25626 -0.97722,-2.17272 -1.95446,-4.34544 -2.53466,-5.42922 -1.16042,-2.16763 -1.73552,-3.06823 -1.58298,-4.17247 0,0 -0.005,-0.18322 -0.005,-0.18322 0.35105,-0.55979 -0.0408,-1.46551 -0.24447,-2.19317 -0.19851,-0.54445 -0.57511,-0.9006 -0.76339,-1.07868 -0.38172,-0.53934 -0.189,-6.77795 -0.58601,-7.86685 -0.19851,-0.544474 -1.30275,-0.697017 -2.59529,-1.027628 -1.47571,-0.325512 -3.31269,-0.457627 -4.42204,-0.793353 -0.37148,-0.173062 -0.74297,-0.345959 -1.11445,-0.518928 -1.11955,-0.702094 -1.15021,-1.801232 -2.28508,-3.052895 -1.32318,-1.429749 -0.23937,-2.009959 -0.62617,-2.732497 -0.19341,-0.36127 -1.12467,-0.885297 -2.61061,-1.577177 -1.8574,-0.864867 -4.2695,-1.89759 -5.56202,-2.228218 -0.37148,-0.173061 -1.10935,-0.335725 -1.66402,-0.503598 -1.29253,-0.33061 -2.95653,-0.834208 -4.25419,-1.348022 -1.10933,-0.335725 -1.66911,-0.686781 -1.67421,-0.869964 -0.0205,-0.732759 -0.0512,-1.831878 -0.77873,-1.628262 -0.72763,0.20361 -2.4325,-1.765475 -4.07609,-1.536321 -1.64358,0.229154 -1.24146,1.501244 -2.70696,1.542118 -1.09913,0.03066 -0.93637,-0.707209 -1.30785,-0.880198 -0.18322,0.0052 -0.18322,0.0052 -0.36638,0.01016 -0.90572,0.39191 -0.88018,1.307847 -1.80123,1.150188 -0.92103,-0.157731 -0.40722,-1.455273 -1.86763,-1.231235 -0.54445,0.198513 -0.72254,0.386813 -0.90061,0.575113 -0.17306,0.371479 -0.15773,0.921029 -0.89041,0.941461 -1.09912,0.03066 -0.78893,-1.99463 -1.69976,-1.785902 -0.90572,0.39191 -0.3153,1.842086 -1.23634,1.684447 -0.92104,-0.157731 -0.77873,-1.628262 -2.06104,-1.592505 -1.28232,0.03583 -1.24657,1.31806 -1.23123,1.86763 0.0153,0.549551 -1.75016,2.982079 -4.13161,3.048478 -2.19826,0.06132 -3.71993,-1.91292 -4.84971,-2.981399 0,0 0,0 0,0 -1.12978,-1.06848 -2.97187,-1.383778 -5.18543,-1.872046 -0.18323,0.0052 -0.18323,0.0052 -0.37148,-0.173062 -2.2238,-0.854655 -6.02034,-5.515383 -6.02034,-5.515383 0,0 -0.18323,0.0052 -0.54958,0.01533 -2.19825,0.06132 -11.73422,-0.03949 -23.10208,-0.0892 -3.1193,-0.09642 -6.41669,-0.0044 -9.71918,-0.09568 -7.33261,0.02113 -15.03161,0.05247 -21.4483,0.04803 -8.06536,0.04156 -14.48202,0.03714 -17.22985,0.11375 -2.01506,0.05615 -7.8873,-0.146745 -15.96287,-0.471575 C 104.69049,76.648241 95.510672,76.170971 85.598089,75.714026 78.07207,75.373814 70.17456,74.860721 62.648538,74.520899 60.445153,74.39921 58.241789,74.277462 56.221639,74.150025 50.527486,73.75883 45.021653,73.545686 40.065372,73.316851 32.539361,72.976639 26.11249,72.605396 22.072123,72.351799 l -0.964963,17.993272 -2.149537,28.109449 -0.726278,13.40336 -0.396326,5.51094 -0.340143,7.52603 -1.005817,16.52777 c 5.505852,0.21312 10.828506,0.43146 15.967982,0.65476 2.203383,0.12139 4.223525,0.24899 6.421786,0.18766 8.808329,0.30438 16.88392,0.62923 23.494008,0.99491 0.54955,-0.0153 1.09912,-0.0307 1.653787,0.13722 9.546199,0.46711 16.151167,0.64966 18.17134,0.77666 0.36638,-0.0101 0.54957,-0.0153 0.54957,-0.0153 l 0.03583,1.2823 -0.431458,10.82853 -0.111746,2.56971 -0.426288,11.01171 -0.243435,4.40672 -0.543019,13.39827 c 5.694151,0.39121 12.858905,0.92477 21.305964,1.42257 0.91593,-0.0254 1.83698,0.13211 2.75292,0.10655 5.87733,0.38621 12.30424,0.7569 19.27558,0.92921 0.18322,-0.005 0.54957,-0.0153 0.73276,-0.0205 5.87221,0.20299 11.92764,0.40077 18.34943,0.58836 5.87221,0.20299 12.1057,0.21247 18.52749,0.40007 4.76799,0.0504 9.71916,0.0957 14.67034,0.14096 1.46551,-0.0408 3.1142,-0.0868 4.5848,0.0554 3.48057,-0.097 6.96624,-0.0109 10.63002,-0.11306 0.36635,-0.0101 0.54956,-0.0153 0.91593,-0.0255 2.38143,-0.0664 4.76288,-0.1328 7.14432,-0.1992 2.56463,-0.0715 4.94607,-0.13789 7.32751,-0.20429 4.03013,-0.11237 7.87706,-0.21964 11.72913,-0.14371 1.09911,-0.0307 2.19824,-0.0613 3.29738,-0.0919 5.31243,-0.14811 10.2585,-0.28602 15.20969,-0.24075 5.31245,-0.14811 10.4417,-0.29112 15.38777,-0.42902 1.28232,-0.0358 2.74781,-0.0766 4.03012,-0.11238 3.84696,-0.10725 7.5107,-0.2094 10.99128,-0.30647 2.56463,-0.0715 4.94607,-0.13788 7.32751,-0.20429 2.74781,-0.0766 5.49562,-0.15324 8.06025,-0.22473 2.56464,-0.0715 5.12926,-0.14302 7.32751,-0.20431 5.67882,-0.15834 10.80809,-0.30136 15.01629,-0.60202 l -0.0307,-1.09912 c -0.94148,-0.8904 -1.89827,-2.33036 -2.28508,-3.0529 z"
   style="stroke-width:1.83259;fill:#373e48" />
</svg>
