<?xml version="1.0" encoding="UTF-8" standalone="no"?>
<!-- Generator: Adobe Illustrator 27.2.0, SVG Export Plug-In . SVG Version: 6.00 Build 0)  -->

<svg
   version="1.1"
   id="Layer_1"
   x="0px"
   y="0px"
   viewBox="0 0 321.1 321.1"
   style="enable-background:new 0 0 321.1 321.1;"
   xml:space="preserve"
   sodipodi:docname="nevada.svg"
   inkscape:version="1.2.2 (732a01da63, 2022-12-09, custom)"
   xmlns:inkscape="http://www.inkscape.org/namespaces/inkscape"
   xmlns:sodipodi="http://sodipodi.sourceforge.net/DTD/sodipodi-0.dtd"
   xmlns="http://www.w3.org/2000/svg"
   xmlns:svg="http://www.w3.org/2000/svg"><defs
   id="defs837" /><sodipodi:namedview
   id="namedview835"
   pagecolor="#505050"
   bordercolor="#ffffff"
   borderopacity="1"
   inkscape:showpageshadow="0"
   inkscape:pageopacity="0"
   inkscape:pagecheckerboard="1"
   inkscape:deskcolor="#505050"
   showgrid="false"
   inkscape:zoom="2.653379"
   inkscape:cx="160.55"
   inkscape:cy="160.55"
   inkscape:window-width="1920"
   inkscape:window-height="1031"
   inkscape:window-x="0"
   inkscape:window-y="25"
   inkscape:window-maximized="1"
   inkscape:current-layer="Layer_1" />
<style
   type="text/css"
   id="style831">
	.st0{fill:#FE8E69;}
</style>
<path
   id="Nevada_2_"
   class="st0"
   d="m 251.7968,5.1960077 c -7.75356,0.2885155 -15.90145,0.4812677 -24.62057,0.6188233 -18.54007,0.3415949 -38.93009,0.7350369 -61.42807,0.8671248 -0.74808,-0.014654 -1.3193,-0.069834 -1.84993,0.051843 -0.35378,0.081118 -0.57122,-0.055202 -0.92499,0.025916 -13.03076,0.00915 -25.66722,0.1140963 -37.99047,-0.038985 C 112.48264,6.6082097 100.33629,6.4145769 88.761137,6.2761362 88.407364,6.3572541 88.013043,6.2614819 87.65927,6.3426221 80.532117,6.1151158 73.445515,6.0645086 66.672117,5.7558844 66.470603,13.808021 65.908511,26.783596 65.398309,41.609127 c -0.627287,20.810269 -1.368335,45.184136 -1.95171,63.750113 -0.04729,4.66545 -0.175644,8.97711 -0.248805,12.71759 -0.08453,2.0674 0.0079,4.09422 -0.157683,5.80785 -0.04452,2.24426 0.04844,4.2711 0.01929,5.76729 0.06658,1.10188 0.05191,1.84994 0.03724,2.59803 -0.01488,0.74809 0.107112,1.27876 0.05191,1.84997 0.08106,0.35376 0.121596,0.53064 0.16231,0.70753 0.08106,0.35377 2.023485,2.32876 5.609646,5.78862 2.200354,2.2882 5.09362,5.16224 8.639214,8.44524 2.417807,2.42451 5.053069,4.98535 7.946317,7.85938 2.377258,2.24763 4.795066,4.67214 7.430309,7.23299 7.389763,7.05607 15.553503,15.05178 24.587063,23.59277 5.96341,5.70752 12.3617,11.68767 18.80054,17.84471 7.38975,7.05611 14.99695,14.24849 22.64469,21.6178 15.25496,14.5617 30.72736,29.25972 44.55596,42.47286 3.07013,2.83349 5.96339,5.70752 8.8161,8.40467 15.51294,14.8749 28.56753,27.14843 36.86762,34.92669 0.26136,-2.10796 0.83591,-4.47392 1.43641,-5.91491 1.28209,-2.52821 -2.18362,-14.39398 -2.76612,-16.12226 -0.5825,-1.72827 -5.36538,-25.0216 -4.50687,-26.14938 0.85849,-1.12779 5.55319,-2.5767 6.83193,-2.68376 1.27873,-0.10714 6.73283,0.13178 7.42571,0.71759 0.65234,0.40897 1.6551,3.15796 2.95975,3.97589 1.30467,0.81793 4.40408,2.15523 5.45746,-2.18237 1.0128,-4.51448 2.48305,-5.41018 2.07744,-7.179 -0.0811,-0.35378 -0.46205,-10.13416 -1.07962,-25.81819 -0.0778,-2.77492 -0.19611,-5.72673 -0.35501,-8.85543 -0.2074,-7.3998 -0.65815,-15.86091 -0.87683,-24.93377 -0.24796,-7.5767 -0.6176,-15.68402 -0.89147,-24.18568 -0.23668,-5.90362 -0.51388,-11.98411 -0.61424,-18.10519 -0.0112,-1.67305 -0.0225,-3.34614 -0.2513,-5.15553 -0.41815,-12.37844 -0.91738,-25.11064 -1.37608,-37.66595 -0.11499,-5.37298 -0.40685,-10.70539 -0.52182,-16.078364 -0.15892,-3.128688 -0.14092,-6.297957 -0.29981,-9.426655 C 261.2921,73.39621 260.88861,60.269671 260.55162,48.245 259.8968,29.962939 259.36034,14.632677 259.01997,5.0291579 c -2.20372,0.1329707 -4.62487,0.129619 -7.22292,0.1668286 z"
   style="stroke-width:1.81474;fill:#373e48" />
</svg>
