<?xml version="1.0" encoding="UTF-8" standalone="no"?>
<!-- Generator: Adobe Illustrator 27.2.0, SVG Export Plug-In . SVG Version: 6.00 Build 0)  -->

<svg
   version="1.1"
   id="Layer_1"
   x="0px"
   y="0px"
   viewBox="0 0 321.1 321.1"
   style="enable-background:new 0 0 321.1 321.1;"
   xml:space="preserve"
   sodipodi:docname="new-jersey.svg"
   inkscape:version="1.2.2 (732a01da63, 2022-12-09, custom)"
   xmlns:inkscape="http://www.inkscape.org/namespaces/inkscape"
   xmlns:sodipodi="http://sodipodi.sourceforge.net/DTD/sodipodi-0.dtd"
   xmlns="http://www.w3.org/2000/svg"
   xmlns:svg="http://www.w3.org/2000/svg"><defs
   id="defs821" /><sodipodi:namedview
   id="namedview819"
   pagecolor="#505050"
   bordercolor="#ffffff"
   borderopacity="1"
   inkscape:showpageshadow="0"
   inkscape:pageopacity="0"
   inkscape:pagecheckerboard="1"
   inkscape:deskcolor="#505050"
   showgrid="false"
   inkscape:zoom="2.653379"
   inkscape:cx="160.55"
   inkscape:cy="162.05751"
   inkscape:window-width="1920"
   inkscape:window-height="1031"
   inkscape:window-x="0"
   inkscape:window-y="25"
   inkscape:window-maximized="1"
   inkscape:current-layer="Layer_1" />
<style
   type="text/css"
   id="style815">
	.st0{fill:#FE8E69;}
</style>
<path
   id="New_Jersey_2_"
   class="st0"
   d="m 220.39142,195.82447 c 1.55046,-3.15434 7.45565,-11.40994 7.75224,-15.77174 0.42872,-2.3756 1.4113,-10.53841 2.56533,-19.6514 1.23976,-9.58815 2.56528,-19.65139 2.90826,-21.55186 0.6002,-3.32583 1.66143,-17.36154 -0.19987,-20.64096 -1.86113,-3.27949 -2.63988,-4.40121 -4.15098,-4.18334 -1.5111,0.21774 -0.90384,2.28985 0.73939,4.05824 1.08238,2.15771 2.72562,3.92604 0.65366,4.53329 -1.59684,0.693 -4.3618,-0.29643 -6.00505,-2.06491 -1.64329,-1.76833 -6.61236,-4.13692 -10.19541,-3.31178 -3.58307,0.82515 -2.11131,3.54377 -4.31543,2.1648 0,0 0,0 0,0 -2.20409,-1.379 -4.32246,-3.23308 -3.02924,-4.96207 0.64661,-0.86448 0.64661,-0.86448 1.12172,-0.77875 -0.77873,-1.12172 -1.386,-3.19368 -0.004,-5.39779 1.85407,-2.11835 2.19705,-4.01883 2.45429,-5.44418 0.17139,-0.95024 0.42872,-2.37564 0.68595,-3.801004 0.60022,-3.325818 2.41494,-2.507723 6.47312,-3.247131 0.47506,0.0859 1.03598,-0.303671 1.5111,-0.217742 1.03598,-0.303671 2.07201,-0.607252 3.19373,-1.386003 0,0 0.0859,-0.475066 0.0859,-0.475066 1.07533,-3.240083 1.02894,-5.70143 2.45428,-5.444195 0.47508,0.0859 0.86451,0.64661 1.33962,0.732359 0.98959,-2.764972 2.49364,-8.380698 3.99768,-13.996363 1.07533,-3.240083 1.67554,-6.565916 2.66513,-9.330889 l 1.24681,-4.190364 c 1.33261,-4.665444 2.49369,-8.380638 2.57944,-8.855763 0,0 -0.38962,-0.56086 -1.25388,-1.20747 -3.54375,-2.111299 -12.83528,-7.712927 -23.94159,-14.132605 -0.38914,-0.56086 -1.33962,-0.73236 -1.72899,-1.29322 -4.01884,-2.197049 -7.56254,-4.308364 -11.58138,-6.505458 v 0 c -12.92152,-7.237772 -25.45318,-13.914729 -30.81163,-16.844137 -1.85408,2.118362 -4.74413,4.540351 -7.46271,6.012149 -5.52293,3.418616 -7.24487,7.5232 -7.62719,12.360129 -0.77169,4.276055 -1.93277,7.991308 -4.99432,11.363533 -1.85408,2.118363 -2.41494,2.507738 -3.06155,3.372224 v 0 c -0.0859,0.475081 -0.17138,0.950236 -0.81814,1.814737 -0.17139,0.950236 -1.37895,2.204098 -3.14728,3.847335 -3.62242,3.761601 -8.4523,8.777122 -8.79528,10.677594 0,0 -0.0859,0.475066 -0.0859,0.475066 0.43596,3.022207 6.14423,9.448918 5.80126,11.349449 -0.42872,2.375582 -4.39412,8.037654 -5.77307,10.241767 -1.37901,2.204098 -2.50778,-2.41494 -4.92272,0.09263 -2.32919,2.032613 -1.36486,12.999735 -1.35781,18.397528 -0.1714,0.95023 0.21774,1.51109 0.52152,2.54708 1.386,3.19369 4.79757,3.31878 9.76668,5.68736 5.83358,3.01516 3.24715,6.47313 5.15467,12.2139 0.99663,2.63283 4.67248,6.7304 8.73772,11.38879 l 0.47507,0.0859 c 5.31915,5.86585 11.97785,12.46412 14.48558,14.87905 l -0.47508,-0.0859 c 0,0 0,0 0,0 3.67587,4.09752 5.62273,6.90184 3.37928,8.45934 -2.24344,1.55755 -5.31204,-0.46784 -6.7374,-0.72531 -1.5111,0.21774 -1.97916,5.52999 -1.97916,5.52999 0,0 -5.99805,3.33286 -12.64267,7.53024 l -0.47507,-0.0859 c -1.12172,0.77875 -2.1577,1.08238 -3.27942,1.86113 -1.12174,0.77875 -1.6826,1.16811 -2.80437,1.94686 l 0.38962,0.56087 c -3.53668,3.28648 -5.34435,7.86622 -7.93078,11.3242 l -0.47508,-0.0859 c -0.64661,0.8645 -1.37895,2.20411 -2.50067,2.98285 -1.20747,1.25388 -2.32921,2.03261 -3.92604,2.72563 -8.07002,3.94013 -6.90894,0.22497 -10.35987,3.03629 -1.12172,0.77875 -2.41494,2.50774 -3.70815,4.23671 -1.20747,1.25387 -2.02556,3.06866 -3.31883,4.79763 -2.02556,3.0686 -4.4405,5.57634 -6.38033,8.16981 -1.854067,2.11836 -2.672176,3.93308 -3.015145,5.83356 0,0 0,0 -0.0859,0.47508 -0.514453,2.85075 0.957285,5.56931 0.957285,5.56931 1.33961,0.73236 2.76497,0.9896 3.62946,1.63619 0.8645,0.64661 1.5575,2.24346 0.52152,2.54708 -1.5111,0.21775 -1.76833,1.64326 -1.55044,3.15435 0.21774,1.5111 0.82514,3.58306 0.17862,4.44756 -0.6466,0.86448 -1.90047,-0.34279 -2.157707,1.08237 -0.171379,0.95024 0.739407,4.05823 3.418627,5.52293 2.76496,0.98959 4.15098,4.18327 5.70847,6.42673 0,0 0.38913,0.56086 0.38913,0.56086 1.72899,1.29322 2.3756,0.42872 3.24009,1.07533 0.86455,0.64661 -1.29322,1.72898 1.38605,3.19369 2.67922,1.46475 2.3756,0.42872 3.88669,0.21097 1.42536,0.25733 0.43596,3.02221 3.02926,4.96203 2.67922,1.4647 5.00841,-0.56791 5.95865,-0.39638 0.95023,0.17139 1.64323,1.76833 0.82514,3.58306 -0.73235,1.33962 3.54372,2.11132 5.27275,3.40452 1.81473,0.8181 -0.77174,4.27607 1.4324,5.65509 2.11836,1.85406 2.85071,0.51445 5.56929,-0.9573 2.71857,-1.4718 6.30162,-2.29694 7.08037,-1.17516 0.77875,1.12172 -1.85408,2.11834 1.47176,2.71856 2.37559,0.42872 6.43382,-0.31091 8.72366,0.59316 0.95024,0.17139 1.33961,0.73236 1.72899,1.29322 1.5575,2.24345 1.34666,6.13015 -0.28968,9.7596 -1.72194,4.10462 -4.00474,8.59858 -4.5192,11.44929 -0.51452,2.8507 -2.45433,5.44418 -0.16463,6.34802 2.76501,0.98958 4.75123,0.85744 8.67727,-1.86818 3.45093,-2.81136 11.81046,-16.51115 13.31451,-22.12681 1.24683,-4.19034 7.97013,-14.26066 13.36092,-19.6655 1.76833,-1.64324 3.06155,-3.37222 4.09752,-3.67585 4.22968,-1.68963 14.36459,-11.63486 15.26844,-13.92473 0.90384,-2.28984 -1.04304,-5.09414 0.25009,-6.82313 0,0 0.0859,-0.47507 0.56086,-0.38914 2.24344,-1.5575 4.53329,-0.65366 3.84029,-2.2505 -0.693,-1.59685 -5.78717,-0.55381 -4.36885,-5.69441 1.33256,-4.66545 7.41635,-8.47344 9.52766,-12.01715 2.11132,-3.54372 4.69774,-7.00174 3.14024,-9.24518 -1.94687,-2.80432 -3.20073,-4.01179 -1.17516,-7.08039 z"
   style="stroke-width:4.82795;fill:#373e48" />
</svg>
