<?xml version="1.0" encoding="UTF-8" standalone="no"?>
<!-- Generator: Adobe Illustrator 27.2.0, SVG Export Plug-In . SVG Version: 6.00 Build 0)  -->

<svg
   version="1.1"
   id="Layer_1"
   x="0px"
   y="0px"
   viewBox="0 0 321.1 321.1"
   style="enable-background:new 0 0 321.1 321.1;"
   xml:space="preserve"
   sodipodi:docname="new-mexico.svg"
   inkscape:version="1.2.2 (732a01da63, 2022-12-09, custom)"
   xmlns:inkscape="http://www.inkscape.org/namespaces/inkscape"
   xmlns:sodipodi="http://sodipodi.sourceforge.net/DTD/sodipodi-0.dtd"
   xmlns="http://www.w3.org/2000/svg"
   xmlns:svg="http://www.w3.org/2000/svg"><defs
   id="defs813" /><sodipodi:namedview
   id="namedview811"
   pagecolor="#505050"
   bordercolor="#ffffff"
   borderopacity="1"
   inkscape:showpageshadow="0"
   inkscape:pageopacity="0"
   inkscape:pagecheckerboard="1"
   inkscape:deskcolor="#505050"
   showgrid="false"
   inkscape:zoom="2.653379"
   inkscape:cx="160.55"
   inkscape:cy="221.60423"
   inkscape:window-width="1920"
   inkscape:window-height="1031"
   inkscape:window-x="0"
   inkscape:window-y="25"
   inkscape:window-maximized="1"
   inkscape:current-layer="Layer_1" />
<style
   type="text/css"
   id="style807">
	.st0{fill:#FE8E69;}
</style>
<path
   id="New_Mexico_00000107587047559948634270000002170165168497749415_"
   class="st0"
   d="m 287.60281,13.652518 c -11.48887,0.243903 -22.97775,0.487805 -34.67535,0.507691 -1.0817,-0.03836 -1.94705,-0.06882 -3.03638,0.109259 -15.81567,0.09098 -31.63132,0.182058 -47.43933,0.05678 -1.29803,-0.04584 -2.37972,-0.08392 -3.67775,-0.129893 -6.93048,-0.02811 -14.06966,-0.280516 -21.00015,-0.308765 -3.67775,-0.129893 -7.36316,-0.04348 -11.25726,-0.181186 -6.49017,-0.229307 -12.77163,-0.234652 -19.26179,-0.463959 -12.54764,-0.443339 -25.10294,-0.670334 -37.4266,-1.322374 -1.08169,-0.03836 -2.37972,-0.08406 -3.46142,-0.122277 C 93.602802,11.346793 80.846464,10.679464 68.522788,10.027451 59.660553,9.4977142 50.790675,9.1843093 42.144757,8.6622169 l -2.776303,54.0541191 -2.768646,53.837764 -1.128269,19.67153 -2.108976,41.29777 -1.47988,29.62311 -1.235285,22.70027 -0.86606,18.38117 -2.875662,56.86649 c 20.75322,1.16649 36.970986,1.95611 36.970986,1.95611 0,0 0.764388,-21.63387 1.034228,-23.1406 0,0 0.223975,-0.20868 0.872983,-0.18573 3.917036,-0.51145 22.305829,0.13834 39.612927,0.74978 13.18903,0.68263 25.72902,1.34228 31.12985,1.74973 l -3.71296,-11.39486 13.64462,0.0489 16.46469,-0.0681 47.43932,-0.0566 3.46906,-0.094 35.74176,-0.0368 1.73071,0.0611 12.3466,0.003 16.46467,-0.0681 12.13025,-0.004 -0.0864,-3.68542 -0.30203,-22.10476 -0.26381,-23.18645 -0.2638,-23.18646 -0.0888,-9.75053 -0.22095,-12.13791 -0.38078,-26.00649 -0.27146,-22.97014 -0.0504,-10.83222 -0.22098,-12.1379 -0.25614,-23.402799 -0.0404,-4.983433 -0.27678,-16.688662 -0.25616,-23.402788 -0.35021,-26.871888 c -0.23162,0.425047 -0.88063,0.402101 -1.31332,0.386827 z"
   style="fill:#373e48;stroke-width:2.16474" />
</svg>
