<?xml version="1.0" encoding="UTF-8" standalone="no"?>
<!-- Generator: Adobe Illustrator 27.2.0, SVG Export Plug-In . SVG Version: 6.00 Build 0)  -->

<svg
   version="1.1"
   id="Layer_1"
   x="0px"
   y="0px"
   viewBox="0 0 321.1 321.1"
   style="enable-background:new 0 0 321.1 321.1;"
   xml:space="preserve"
   sodipodi:docname="new-hampshire.svg"
   inkscape:version="1.2.2 (732a01da63, 2022-12-09, custom)"
   xmlns:inkscape="http://www.inkscape.org/namespaces/inkscape"
   xmlns:sodipodi="http://sodipodi.sourceforge.net/DTD/sodipodi-0.dtd"
   xmlns="http://www.w3.org/2000/svg"
   xmlns:svg="http://www.w3.org/2000/svg"><defs
   id="defs829" /><sodipodi:namedview
   id="namedview827"
   pagecolor="#505050"
   bordercolor="#ffffff"
   borderopacity="1"
   inkscape:showpageshadow="0"
   inkscape:pageopacity="0"
   inkscape:pagecheckerboard="1"
   inkscape:deskcolor="#505050"
   showgrid="false"
   inkscape:zoom="2.653379"
   inkscape:cx="160.55"
   inkscape:cy="160.55"
   inkscape:window-width="1920"
   inkscape:window-height="1031"
   inkscape:window-x="0"
   inkscape:window-y="25"
   inkscape:window-maximized="1"
   inkscape:current-layer="Layer_1" />
<style
   type="text/css"
   id="style823">
	.st0{fill:#FE8E69;}
</style>
<path
   id="New_Hampshire_00000105414556671405477340000016123161203066244006_"
   class="st0"
   d="m 211.80407,216.12929 c 0,0 0,0 0,0 -0.30322,-1.29479 -0.53858,-9.298 -0.75904,-9.65611 -0.22034,-0.35811 -9.71195,-4.14481 -9.12038,-9.20028 0.33021,-2.6724 1.01851,-5.56524 1.19711,-8.88502 0.2474,-3.60906 -0.0149,-7.64509 -0.71813,-12.39732 -0.083,-0.93668 -0.40001,-3.45746 -0.57952,-6.55679 -0.73115,-7.20419 -1.65579,-18.73367 -2.52554,-31.7784 -2.20834,-29.25762 -5.07899,-66.008684 -5.71433,-77.469344 -0.64741,0.15165 -1.00552,0.37209 -1.07436,0.66136 -0.49576,0.79903 0.45487,1.9422 -0.82598,3.47141 -0.92271,1.30877 -2.21753,1.61198 -4.46295,0.77206 -2.24546,-0.83995 -2.78308,-3.71881 -3.94023,-3.99414 -1.15715,-0.27535 -1.92823,1.68083 -3.78765,3.07236 -1.85939,1.39155 -2.57564,1.83245 -2.85097,2.98959 -0.27535,1.15712 -3.01463,13.95445 -4.37826,14.54696 -0.28934,-0.0687 -1.00553,0.37209 -2.23148,0.38604 1.18504,2.72726 3.11425,7.46554 3.33471,7.82365 0.15165,0.64741 -6.01818,9.87752 -6.07307,11.392784 0.0149,1.22599 3.83047,7.02465 4.50581,9.32497 0.6753,2.30031 -2.25845,4.3532 -2.46497,5.22104 -0.27535,1.15715 0.66136,1.07436 0.31722,2.52078 -0.34416,1.44642 -3.75975,5.52429 -6.3354,7.35674 -0.78506,0.7302 -1.43244,0.88182 -2.07985,1.03345 -1.36363,0.59252 -1.94218,0.45487 -2.36912,0.9646 -0.35815,0.22035 -1.43248,0.88179 -3.15422,1.69477 -2.36915,0.96461 -5.45453,2.37011 -6.88697,3.2519 -2.14869,1.32272 -2.42402,2.47986 -2.8091,6.66749 -0.17871,3.31979 0.41392,4.68342 0.4279,5.90938 -0.069,0.28933 0.15165,0.64741 0.0149,1.22598 -0.41298,1.73569 0.33117,3.74673 -0.94968,5.27594 -0.99158,1.59804 -2.61656,4.57366 -2.53377,5.51034 0.0827,0.93669 1.66688,0.70228 0.46881,3.16816 -1.19806,2.46589 -3.64997,2.49381 -3.84251,4.58761 -0.19269,2.09383 0.26227,4.03604 -0.35716,6.63957 -0.0687,0.28933 -0.20637,0.86788 -0.56463,1.08831 -1.06038,1.88734 -3.56718,3.43049 -4.42108,4.44996 -0.8539,1.01947 -0.81203,4.69736 -1.29384,6.72235 -0.069,0.28933 -0.13768,0.57858 -0.49579,0.79904 -0.92271,1.30874 -2.52075,0.31719 -2.71329,2.41102 -0.19269,2.0938 -1.14127,13.78887 -1.12732,15.01483 0.0827,0.93668 0.9646,2.36915 0.7172,5.97821 -0.34417,1.44642 -0.61949,2.60357 -0.96366,4.04998 -0.70227,1.66685 -1.11527,3.40257 -0.81203,4.69737 0.15166,0.64738 0.37209,1.00552 0.30325,1.29479 0.37206,1.00552 0.52368,1.6529 -0.2474,3.60906 -0.9776,2.82402 -0.9776,2.82402 -0.88087,4.98666 0.45487,1.94221 0.0268,2.45194 -1.47339,3.62303 -1.72174,0.81299 -2.52075,0.3172 -2.49283,2.76914 0.0967,2.16264 -2.1208,3.77462 -1.52825,5.13826 0.4409,0.71625 3.30676,5.37174 6.15868,8.80128 l 10.0282,0.24651 17.67325,0.23165 v 0 l 33.1839,0.55984 2.05193,-3.48539 c 0,0 1.66688,0.70228 2.24546,0.83995 v 0 c 0,0 0,0 0,0 0,0 0,0 0.28933,0.069 0,0 0,0 0,0 0,0 0,0 0,0 0.28933,0.0687 -1.25388,-2.43799 0.0957,-4.25647 1.34965,-1.8185 3.38859,-0.11061 5.90937,-0.4279 2.45194,-0.0268 0.9776,-2.82402 2.25845,-4.35323 1.63896,-1.74966 4.79314,-3.44443 6.52886,-3.03143 1.15715,0.27535 3.47141,0.82598 5.4964,1.30779 0.0687,-0.28933 0.13768,-0.57858 0.20637,-0.86785 1.1013,-4.62855 4.19967,-11.2272 5.05357,-12.24667 0,0 0,0 0.35811,-0.22035 -2.39705,-1.48733 -6.32333,-4.25551 -6.98469,-5.32987 z"
   style="stroke-width:2.9736;fill:#373e48" />
</svg>
