<?xml version="1.0" encoding="UTF-8" standalone="no"?>
<!-- Generator: Adobe Illustrator 27.2.0, SVG Export Plug-In . SVG Version: 6.00 Build 0)  -->

<svg
   version="1.1"
   id="Layer_1"
   x="0px"
   y="0px"
   viewBox="0 0 321.1 321.1"
   style="enable-background:new 0 0 321.1 321.1;"
   xml:space="preserve"
   sodipodi:docname="new-york.svg"
   inkscape:version="1.2.2 (732a01da63, 2022-12-09, custom)"
   xmlns:inkscape="http://www.inkscape.org/namespaces/inkscape"
   xmlns:sodipodi="http://sodipodi.sourceforge.net/DTD/sodipodi-0.dtd"
   xmlns="http://www.w3.org/2000/svg"
   xmlns:svg="http://www.w3.org/2000/svg"><defs
   id="defs805" /><sodipodi:namedview
   id="namedview803"
   pagecolor="#505050"
   bordercolor="#ffffff"
   borderopacity="1"
   inkscape:showpageshadow="0"
   inkscape:pageopacity="0"
   inkscape:pagecheckerboard="1"
   inkscape:deskcolor="#505050"
   showgrid="false"
   inkscape:zoom="2.653379"
   inkscape:cx="160.55"
   inkscape:cy="160.55"
   inkscape:window-width="1920"
   inkscape:window-height="1031"
   inkscape:window-x="0"
   inkscape:window-y="25"
   inkscape:window-maximized="1"
   inkscape:current-layer="Layer_1" />
<style
   type="text/css"
   id="style798">
	.st0{fill:#FE8E69;}
</style>
<path
   class="st0"
   d="m 290.27117,251.32341 c 0.0594,-1.52548 -0.11403,-1.7767 -0.75111,-1.89324 -0.63716,-0.11663 -3.5534,0.22801 -3.64924,-0.44799 -0.0958,-0.676 -0.057,-0.88838 0.79249,-0.733 0.8495,0.15566 1.06187,0.19431 1.21728,-0.65525 0.15566,-0.8495 -0.11403,-1.77672 1.02558,-2.00723 0.92716,-0.26935 1.44778,0.48431 1.81554,-0.32636 0.36776,-0.81065 0.0594,-1.52547 0.44547,-1.23538 0.38589,0.29006 0.26935,0.92715 0.86763,1.25608 0.59827,0.32894 0.25122,-0.17337 0.23304,-1.27425 0.1943,-1.06187 0.48427,-1.44776 1.37263,-1.50477 0.88832,-0.057 1.642,-0.57756 0.61899,-0.98416 -0.81068,-0.36777 -1.23542,-0.44547 -1.15774,-0.87023 0.0777,-0.42473 -0.36519,-1.60315 -1.15768,-0.87018 -1.00491,0.6941 -1.66273,1.89067 -2.91883,2.7583 -1.0049,0.69414 -0.21503,2.375 -4.05839,2.98886 -3.84343,0.61388 -10.16025,2.75066 -15.29611,2.03072 -5.13584,-0.71992 -5.42592,-0.33395 -5.54247,0.30311 -0.11662,0.63712 1.04121,1.50735 0.46106,2.27914 -0.58014,0.77179 -0.34962,1.91137 -2.47335,1.5229 -1.9114,-0.34962 -3.90045,-0.27456 -5.05817,-1.14467 -1.15773,-0.87022 -1.46592,-1.58501 -1.89067,-1.6627 -0.42475,-0.0777 -0.48429,1.44778 -0.77437,1.83368 -0.29007,0.38589 -0.36774,0.81065 -0.67596,0.0958 -0.30824,-0.71481 -2.60548,-1.3545 -3.06909,-1.2198 -0.46361,0.13493 1.50478,1.37264 1.13699,2.18332 -0.0388,0.21223 -0.29004,0.38587 -0.3289,0.59825 -0.32892,0.59827 -0.79252,0.73297 -0.71482,0.30822 -0.0959,-0.67598 0.0594,-1.52548 -1.46592,-1.58502 -1.56431,0.15285 -3.70877,1.07746 -4.11535,2.1005 -0.36779,0.81065 0.0365,2.20145 -0.60088,2.08488 -0.59824,-0.32889 -1.11885,-1.08257 -1.79482,-0.98671 -0.67596,0.0956 -1.10071,0.0172 -0.79248,0.73294 0.3082,0.71483 1.37007,0.90904 0.65525,1.21729 -0.9272,0.26933 -0.81065,-0.36779 -1.31309,-0.0216 -0.25124,0.17336 -0.50244,0.34705 -0.54128,0.55941 -0.0388,0.21223 -0.11662,0.63716 -0.36779,0.81066 -0.25119,0.17336 -0.63711,-0.11663 -0.81065,-0.36777 -0.38592,-0.29005 -0.69409,-1.00488 -0.40405,-1.39077 0.61898,-0.9842 0.63713,0.11663 1.06187,0.19431 0.42476,0.0777 1.5255,0.0594 1.00488,-0.69414 -0.52058,-0.75364 -1.40893,-0.69666 -0.61641,-1.42964 0,0 0.25122,-0.17336 0.29006,-0.38589 1.04374,-0.90647 3.24774,-3.35658 4.11794,-4.51432 l -3.02513,-6.25982 9.23817,-7.30892 -3.31776,-3.4601 c 0,0 0.0594,-1.52547 0.0234,-3.72692 -0.0365,-2.20143 0.0829,-5.25238 0.0283,-8.55455 0.15804,-3.2633 0.14206,-6.77786 0.12695,-10.29238 -0.0347,-4.61526 0.14486,-9.19166 0.0904,-12.49385 -0.075,-1.98907 -0.0151,-3.51452 -0.0347,-4.61524 -0.0958,-0.67598 -0.0172,-1.10071 0.0216,-1.3131 -0.19173,-1.35195 2.27375,-13.63087 4.02182,-23.18773 1.16537,-6.37123 2.31005,-11.42941 2.31005,-11.42941 0,0 -0.13472,-0.4636 -0.48174,-0.96604 -0.48173,-0.96604 -1.09817,-2.39568 -1.23284,-2.85926 0.11663,-0.63715 -0.0365,-2.20145 0.73806,-4.03513 0.0388,-0.21223 0.23305,-1.27426 0.29263,-2.79971 0.13969,-4.36404 -0.0831,-12.74507 -0.32663,-19.81301 -0.24355,-7.06789 -0.46895,-13.03511 -0.64249,-13.28633 -0.34706,-0.50246 -1.00488,0.69411 -1.87254,-0.56199 -0.86763,-1.25611 -0.57757,-1.64201 -1.17584,-1.97092 -0.59828,-0.32891 -1.66017,-0.52314 -2.06677,0.49987 -0.23304,1.27426 -1.43219,3.03027 -2.00976,1.38823 -0.36522,-1.60315 0.52569,-4.07394 1.04884,-5.73413 0.32889,-0.59826 0.52314,-1.66014 0.46614,-2.54849 -0.0172,-1.10072 -0.0362,-2.20144 -0.2668,-3.34099 -0.13473,-0.463617 -0.0959,-0.676 -0.23052,-1.139569 -0.67341,-2.317995 -2.65484,-9.484318 -2.26637,-11.608073 0.38846,-2.123743 0.93485,-7.510797 2.01744,-8.629672 0.5413,-0.55942 0.69666,-1.408931 0.89087,-2.470815 0.19432,-1.061848 0.21504,-2.374963 -0.0544,-3.302159 -0.36521,-1.603159 0.73808,-4.035102 0.97114,-5.309381 0.27194,-1.486616 -0.49731,-4.480563 -1.61618,-5.56314 -0.17336,-0.251243 -0.3859,-0.29008 -0.34706,-0.50244 -1.08003,-1.29496 -1.7923,-3.40056 -0.99723,-6.547338 0.69923,-3.822766 1.51243,-5.868813 1.20424,-6.583613 -0.30822,-0.714836 -2.43196,-1.103282 -2.1212,-2.802293 0.52314,-1.660151 1.8181,-2.740189 1.6264,-4.092105 -0.23051,-1.139592 -0.84693,-2.569228 -1.32866,-3.535248 -4.90532,0.419621 -8.67108,0.608774 -9.52061,0.453369 -1.9502,-0.137319 -10.3131,1.186337 -15.2184,1.606005 -1.10074,0.01723 -2.20148,0.03624 -2.62623,-0.04108 -3.01207,-0.331478 -20.39311,1.098441 -22.30448,0.748844 -0.42473,-0.07779 -0.63714,-0.116627 -1.06186,-0.194311 -1.66016,-0.523145 -3.57153,-0.872778 -4.74996,-0.429879 -1.39079,0.404074 -5.79622,2.890471 -8.01836,4.239861 -2.22213,1.34939 -12.33055,9.81602 -13.12302,10.548975 -0.79252,0.732967 -12.95208,13.214019 -13.59176,15.511286 -0.56199,1.872559 -0.67852,2.509651 -1.21981,3.069106 -0.2512,0.17337 -0.2512,0.17337 -0.50245,0.34706 -0.96605,0.481758 -15.92276,10.256369 -16.00044,10.681125 -0.29008,0.385896 -2.03301,5.115153 -1.8025,6.254709 0.19172,1.351963 3.29705,4.773192 4.53245,5.218653 1.23542,0.445449 2.79973,0.292606 3.7839,0.91159 0.94535,0.83138 1.13701,2.183297 0.51805,3.167473 -0.40663,1.02303 -1.31564,2.39315 -3.05351,2.29474 -1.52546,-0.0594 -3.20631,0.7304 -2.68574,1.48407 0.52059,0.75368 1.31309,0.0216 1.89069,1.6627 0.48173,0.96603 1.07746,3.70879 1.57735,5.77555 0.26936,0.92717 0.32635,1.81553 0.20985,2.45264 -0.0594,1.52548 -0.17854,4.57643 -1.00999,5.52179 -0.83136,0.94531 -2.8981,1.4452 -3.92114,1.0386 -1.02303,-0.40661 -1.58246,-0.94789 -2.50968,-0.67852 -0.88831,0.057 -5.46985,4.70597 -7.36309,5.45706 -0.25119,0.17337 -0.50244,0.34708 -0.71482,0.30822 -1.25607,0.86765 -2.66757,2.5848 -4.00137,3.87721 -0.50244,0.34706 -1.00485,0.69412 -1.29496,1.08004 -1.7197,1.00231 -6.76227,3.37218 -8.46125,3.06141 -1.699,-0.31078 -7.04723,-1.06956 -8.61154,-0.9167 -1.60316,0.36519 -4.133519,0.99974 -5.407797,0.76668 -0.212219,-0.0388 -0.424733,-0.0777 -0.888313,0.057 -1.854391,0.53872 -4.830208,2.40873 -6.529183,2.09793 -1.911407,-0.3496 -7.023998,-4.79643 -8.722986,-5.10721 -1.061871,-0.1943 -4.459881,-0.81575 -7.433124,-1.35961 -1.911371,-0.34961 -3.649231,-0.44799 -4.53759,-0.39102 -2.452671,0.20986 -8.593386,0.18395 -10.118837,0.12457 -0.88836,0.057 -2.162592,-0.17617 -3.47573,-0.19668 -1.313092,-0.0216 -2.4138,-0.001 -3.340984,0.26681 -1.815532,0.32636 -19.740393,4.72949 -19.895785,5.57901 -0.155357,0.8495 0.163313,9.90648 0.510372,10.4089 0,0 0,0 0.212384,0.0388 0.385896,0.29008 0.849488,0.15566 1.235396,0.44546 0.385907,0.29007 -0.466142,2.54849 0.440337,3.59223 0.906491,1.04372 1.968374,1.23794 3.164934,1.89578 0.984187,0.619 3.294498,7.18703 3.100269,8.24888 -0.194229,1.06187 -1.683406,3.20378 -3.711321,3.4913 -2.066764,0.49987 -3.786468,1.50222 -4.193069,2.52526 -0.618984,0.98417 -1.994178,4.90274 -2.96021,5.3845 v 0 c -1.004892,0.6941 -8.018374,4.23984 -8.810883,4.97282 -1.004884,0.69408 -1.025583,2.00718 -2.242844,2.66246 -1.004883,0.6941 -10.5901248,7.50059 -11.980915,7.90464 -0.2123578,-0.0388 -0.7148156,0.30822 -1.42963,0.61644 l -0.2458609,13.34335 c 0,0 2.4138172,0.001 6.8167019,-0.07 4.827633,0.005 12.107936,-0.1995 20.70133,-0.38361 1.989067,-0.075 4.190507,-0.11143 6.179574,-0.18654 7.029074,-0.0309 14.734112,-0.15804 22.651533,-0.24628 1.313115,0.0216 2.626219,0.0411 4.19053,-0.11143 5.715994,-0.0518 11.644337,-0.0654 17.611515,-0.29034 1.776708,-0.11403 3.514567,-0.0151 5.291262,-0.12975 8.342166,-0.0106 16.723194,-0.23341 24.852964,-0.28262 0.42475,0.0778 0.88838,-0.057 1.31311,0.0216 4.82764,0.005 9.44291,-0.0292 14.05817,-0.0617 5.71595,-0.0518 11.0072,-0.18135 15.83483,-0.17617 0.63712,0.11663 1.10072,-0.0172 1.73786,0.0985 10.33122,-0.0855 18.46105,-0.13493 23.50104,-0.0907 2.20145,-0.0365 3.72691,0.0234 4.57641,0.17855 l 0.21223,0.0388 c 0.21223,0.0388 0.42475,0.0778 0.63714,0.11663 3.57152,0.87277 2.48639,4.40545 3.66223,6.37634 0.65528,1.2173 2.29727,0.63969 3.74507,1.12401 v 0 c 0.81066,0.36777 1.50476,1.37265 1.75344,3.61293 0.34451,2.91625 1.57736,5.77553 3.06141,8.46126 1.65759,2.93698 3.81764,5.52688 5.11005,6.86065 1.63944,1.83624 4.26565,1.87765 5.61757,1.68596 -0.21224,-0.0388 -0.21224,-0.0388 -0.42474,-0.0777 0.21223,0.0388 0.21223,0.0388 0.46362,-0.13472 0,0 0,0 0,0 v 0 c 0.4636,-0.13472 0.67596,-0.0958 0.67596,-0.0958 0,0 1.60062,2.0486 1.77412,2.29984 0,0 0.5983,0.32892 1.40894,0.69668 3.2038,1.68341 10.94258,6.17166 18.1219,10.1186 0.3859,0.29006 0.59831,0.32893 0.98421,0.61896 v 0 c 0.17337,0.25125 0.59828,0.32892 0.77179,0.58014 4.95977,2.88253 9.1477,5.18492 10.69133,6.3452 0.38592,0.29006 0.55947,0.54125 0.55947,0.54125 -0.0388,0.21245 -0.56203,1.87256 -1.16286,3.95747 -0.11662,0.63711 -0.23304,1.27423 -0.56195,1.87253 -0.48431,1.44777 -0.75624,2.93441 -1.2017,4.16978 -0.67852,2.50966 -1.35705,5.01934 -1.80248,6.25472 0.17338,0.25122 0.17338,0.25122 0.13473,0.46363 0.13472,0.46358 0.23054,1.13956 0.15264,1.56429 -0.36776,0.81066 -1.08258,1.11885 -0.56198,1.87253 0.52057,0.75366 1.46592,1.58504 1.34939,2.22214 -0.15567,0.84952 0.81065,0.36778 1.95023,0.1373 1.13953,-0.23055 1.89322,-0.75111 1.7767,-0.11403 -0.11663,0.63712 -1.42964,0.61641 -1.54618,1.25354 -0.15567,0.84951 0.73295,0.79252 2.20142,-0.0362 0.25122,-0.17337 0.50242,-0.34708 0.75369,-0.52057 1.25607,-0.86768 2.89808,-1.44523 4.42356,-1.3857 0.67596,-0.0958 1.13958,-0.23051 1.60318,-0.3652 0.96603,-0.48175 1.97091,-1.17587 2.85927,-1.23285 1.35191,-0.19171 2.82041,-1.02048 3.16746,-0.51802 0.34706,0.50242 -1.29495,1.07999 -0.77435,1.83368 0.55943,0.54127 1.15769,0.87017 2.41381,0.001 1.00487,-0.6941 3.07164,-1.19401 4.50128,-1.81042 0.67596,-0.0959 1.1784,-0.44289 1.642,-0.57759 1.64199,-0.57758 1.42963,-0.61641 2.66505,-0.171 1.2354,0.44546 6.87622,-1.59551 9.73551,-2.82833 2.85925,-1.23287 8.15304,-3.77625 9.8339,-4.56619 1.68085,-0.78997 5.66155,-3.35405 7.76714,-4.06632 2.10563,-0.71225 3.96001,-1.251 4.11537,-2.1005 0.15566,-0.8495 0,0 0.0594,-1.52547 z m 9.84664,-16.63531 c -0.13472,-0.4636 0.11663,-0.63714 0.619,-0.9842 0.5413,-0.55941 1.81553,-0.32635 1.81553,-0.32635 0.63714,0.11662 0.38591,0.29009 -0.0777,0.42477 -0.4636,0.13493 -1.00491,0.69413 -1.58504,1.46592 -0.54126,0.55944 -0.42474,-0.0777 -0.77182,-0.58014 z m 5.16448,10.16282 c -0.29005,0.38592 -12.21144,6.76509 -12.21144,6.76509 -0.75365,0.52058 -0.17336,-0.25124 -0.057,-0.88835 0.11662,-0.63712 -0.81068,-0.36777 -1.87254,-0.56199 -1.27425,-0.23304 -0.52059,-0.75366 -0.0172,-1.10072 0.25122,-0.17337 0.75366,-0.52059 0.90904,-1.37009 0.11663,-0.63712 0.32893,-0.59827 0.83136,-0.94533 0.4636,-0.13472 1.08258,-1.11885 1.23796,-1.96837 0.11663,-0.63714 1.00491,-0.69413 2.14444,-0.92465 1.13959,-0.23051 0.23305,-1.27423 0.27196,-1.48661 0.0388,-0.21223 0.77178,0.58012 1.37007,0.90904 0.3859,0.29008 1.35194,-0.19172 1.89319,-0.75111 0.5413,-0.55941 0.27198,-1.48662 0.69671,-1.40893 0.21223,0.0388 0.81064,0.36778 1.48661,0.27192 0.88839,-0.0572 0.79252,-0.73295 1.29496,-1.08001 0.46358,-0.13494 0.98418,0.61898 0.8288,1.46848 -0.15545,0.84949 0.61645,1.42961 1.25355,1.54616 0.55943,0.54127 0.23053,1.13959 -0.0594,1.52547 z m -1.92441,-6.27794 c -0.77182,-0.58015 0.27192,-1.48664 0.52317,-1.66017 0.29005,-0.38592 0.88833,-0.0573 1.83368,0.77437 0.94532,0.83135 -0.15803,3.26331 -0.75622,2.93441 -0.38592,-0.29008 -0.82882,-1.4685 -1.60063,-2.04861 z m 11.48895,0.78458 c -0.0777,0.42475 -8.3861,5.05046 -8.73318,4.54805 -0.13494,-0.46362 0.23304,-1.27426 0.48428,-1.44779 0.25125,-0.17338 0.96606,-0.48174 1.42964,-0.61642 0.4636,-0.13472 0.71482,-0.30822 1.0049,-0.69414 0.29008,-0.38589 0.32892,-0.59825 0.96604,-0.48173 0.63711,0.11662 0.50244,-0.34705 0.61898,-0.98417 0.11663,-0.63714 2.43452,-1.31055 2.47335,-1.52293 0.5413,-0.55941 1.87254,0.56201 1.75599,1.19913 z m -18.47662,-3.37962 c 0.0778,-0.42476 1.71971,-1.00233 1.71971,-1.00233 0.71481,-0.30819 1.52547,0.0594 1.37007,0.90904 -0.11663,0.63714 -1.08259,1.1189 -1.62384,1.67833 -0.79252,0.73295 -1.54363,-1.16027 -1.46594,-1.58504 z m -2.87995,2.54596 c 0.1941,-1.06187 1.27678,-2.18075 1.27678,-2.18075 0.29006,-0.38592 0.81065,0.36777 0.69412,1.00488 -0.15566,0.8495 -0.75366,0.5206 -1.31565,2.39313 -0.56198,1.87253 -0.84949,-0.15566 -0.65525,-1.21726 z m 1.2535,1.54618 c 0.0388,-0.21223 0.90909,-1.3701 1.58504,-1.46595 0.63714,0.11663 1.66016,0.52315 1.92954,1.45034 0.26935,0.9272 1.21471,1.75856 0.32637,1.81556 -0.88837,0.057 -1.11889,-1.08258 -1.58249,-0.94792 -0.46358,0.13472 -0.44544,1.23543 -1.25608,0.86765 -0.84951,-0.15524 -1.29241,-1.33378 -1.00238,-1.71968 z"
   id="path800"
   style="stroke-width:2.15899;fill:#373e48" />
</svg>
