<?xml version="1.0" encoding="UTF-8" standalone="no"?>
<!-- Generator: Adobe Illustrator 27.2.0, SVG Export Plug-In . SVG Version: 6.00 Build 0)  -->

<svg
   version="1.1"
   id="Layer_1"
   x="0px"
   y="0px"
   viewBox="0 0 321.1 321.1"
   style="enable-background:new 0 0 321.1 321.1;"
   xml:space="preserve"
   sodipodi:docname="north-dakota.svg"
   inkscape:version="1.2.2 (732a01da63, 2022-12-09, custom)"
   xmlns:inkscape="http://www.inkscape.org/namespaces/inkscape"
   xmlns:sodipodi="http://sodipodi.sourceforge.net/DTD/sodipodi-0.dtd"
   xmlns="http://www.w3.org/2000/svg"
   xmlns:svg="http://www.w3.org/2000/svg"><defs
   id="defs787" /><sodipodi:namedview
   id="namedview785"
   pagecolor="#505050"
   bordercolor="#ffffff"
   borderopacity="1"
   inkscape:showpageshadow="0"
   inkscape:pageopacity="0"
   inkscape:pagecheckerboard="1"
   inkscape:deskcolor="#505050"
   showgrid="false"
   inkscape:zoom="2.653379"
   inkscape:cx="160.55"
   inkscape:cy="160.55"
   inkscape:window-width="1920"
   inkscape:window-height="1031"
   inkscape:window-x="0"
   inkscape:window-y="25"
   inkscape:window-maximized="1"
   inkscape:current-layer="Layer_1" />
<style
   type="text/css"
   id="style781">
	.st0{fill:#FE8E69;}
</style>
<path
   id="North_Dakota_2_"
   class="st0"
   d="m 311.6429,231.45204 c 0,0 -0.0122,-0.24222 0,0 -0.20169,-3.63503 0.55267,-7.56613 -0.72582,-13.08607 -1.27847,-5.51994 -8.3184,-18.49891 -9.67793,-21.09738 -0.0122,-0.24223 -0.25579,-0.22888 -0.26924,-0.47122 -1.11717,-2.61191 0.37756,-6.34104 0.32409,-11.68584 0.17572,-5.60057 -2.05884,-10.82443 -3.13571,-12.70932 -0.26921,-0.47126 -0.64596,-2.88115 -1.06303,-6.01807 -0.0808,-1.45399 -0.40362,-2.89458 -0.48427,-4.34856 -0.51114,-4.8333 -0.83372,-10.64932 -1.34487,-15.48257 -0.25539,-4.60435 -0.44355,-7.99706 -0.48388,-8.72404 -0.0122,-0.24222 -0.0539,-0.96934 -0.33642,-1.68291 -1.46704,-4.53716 -7.21469,-16.1293 -8.56075,-18.48545 -1.09031,-2.12726 -2.32848,-6.9202 -2.74552,-10.05711 -0.027,-0.48466 -0.0539,-0.96933 -0.0673,-1.21165 -0.0122,-0.24222 -0.0403,-0.72703 0.18859,-0.9828 0.59261,-2.46367 0.4455,-13.880296 -0.17355,-16.276741 -0.34985,-1.925251 -1.07686,-1.884941 -1.35951,-2.598498 -0.0122,-0.242219 -0.26924,-0.471214 -0.29611,-0.955899 -0.10776,-1.938675 2.07386,-6.435091 2.03355,-7.162128 -0.0539,-0.969323 -1.11719,-2.611912 -3.39189,-8.562745 -1.13063,-2.854264 -1.76312,-5.493068 -2.1399,-7.902967 -8.72404,0.483876 -18.43088,0.779161 -28.60894,1.34369 -12.61484,0.456567 -26.44136,0.980358 -41.25068,1.315583 -6.55647,0.120577 -13.11297,0.24113 -20.15412,0.388592 -8.2528,0.21465 -17.00373,0.213849 -25.997,0.226494 -16.03444,0.160089 -33.05162,0.131596 -51.03817,0.156886 C 104.0723,65.272973 97.260054,65.164628 90.447792,65.056303 78.775397,64.974505 66.847253,64.663663 54.67672,64.366987 40.79644,63.921476 26.444918,63.745164 11.581854,63.110987 v 0 0 l -0.580758,20.207882 -0.445511,13.880276 -0.6349274,23.614015 -1.0531792,33.60348 -0.013832,4.13313 -1.201833,39.68878 -0.1487069,6.08524 -0.5669064,16.07474 -0.5807569,20.20788 c 8.7509202,7e-4 24.0717742,0.1233 43.2834402,0.27321 0.72698,-0.0403 1.696332,-0.0942 2.436784,0.10801 11.672376,0.0818 24.556438,0.0966 38.409851,0.0573 18.955892,-0.0791 39.621522,-0.01 60.516092,-0.19636 8.50859,0.0145 17.00376,-0.21382 25.75471,-0.21309 2.18102,-0.12112 4.13312,0.0145 6.31413,-0.10704 9.96263,-0.0665 19.92523,-0.13275 29.63204,-0.42811 3.64846,0.0408 7.28349,-0.16091 10.68962,-0.10679 10.20497,-0.0799 20.15413,-0.38857 29.61861,-0.67043 0.24223,-0.0145 0.4847,-0.027 0.96935,-0.0539 10.9185,-0.3625 20.86768,-0.67124 30.08983,-0.93964 10.9185,-0.36251 20.3696,-0.88669 28.11085,-1.55913 0.37714,-1.96557 -0.43052,-3.37927 -0.53802,-5.31793 z"
   style="stroke-width:2.42707;fill:#373e48" />
</svg>
