<?xml version="1.0" encoding="UTF-8" standalone="no"?>
<!-- Generator: Adobe Illustrator 27.2.0, SVG Export Plug-In . SVG Version: 6.00 Build 0)  -->

<svg
   version="1.1"
   id="Layer_1"
   x="0px"
   y="0px"
   viewBox="0 0 321.1 321.1"
   style="enable-background:new 0 0 321.1 321.1;"
   xml:space="preserve"
   sodipodi:docname="north-carolina.svg"
   inkscape:version="1.2.2 (732a01da63, 2022-12-09, custom)"
   xmlns:inkscape="http://www.inkscape.org/namespaces/inkscape"
   xmlns:sodipodi="http://sodipodi.sourceforge.net/DTD/sodipodi-0.dtd"
   xmlns="http://www.w3.org/2000/svg"
   xmlns:svg="http://www.w3.org/2000/svg"><defs
   id="defs796" /><sodipodi:namedview
   id="namedview794"
   pagecolor="#505050"
   bordercolor="#ffffff"
   borderopacity="1"
   inkscape:showpageshadow="0"
   inkscape:pageopacity="0"
   inkscape:pagecheckerboard="1"
   inkscape:deskcolor="#505050"
   showgrid="false"
   inkscape:zoom="2.653379"
   inkscape:cx="160.55"
   inkscape:cy="160.55"
   inkscape:window-width="1920"
   inkscape:window-height="1031"
   inkscape:window-x="0"
   inkscape:window-y="25"
   inkscape:window-maximized="1"
   inkscape:current-layer="Layer_1" />
<style
   type="text/css"
   id="style789">
	.st0{fill:#FE8E69;}
</style>
<path
   class="st0"
   d="m 307.28373,150.00057 c -0.21676,0.15314 -5.14987,5.58906 -5.39841,5.92718 -0.24853,0.33812 -3.07199,3.47076 -3.53727,3.96203 -0.49707,0.67624 -2.45357,3.19624 -2.79169,2.9477 -0.3699,-0.0636 -1.1993,-0.77739 -0.70222,-1.45363 0.3121,-0.70803 0.80918,-1.38426 1.5172,-1.07216 0.52307,0.28034 2.72231,-1.43626 3.28296,-2.48241 0.56066,-1.04613 0.54043,-3.14422 -0.65887,-3.92161 -1.1993,-0.77738 -2.58357,-1.58656 -2.95348,-1.65015 -0.36991,-0.0636 0.24275,0.80338 0.51729,1.42184 0.27453,0.61843 1.28889,1.36405 0.8554,1.67038 -0.43349,0.30633 -1.6068,0.48549 -2.06628,-0.16477 -0.45951,-0.65023 -2.62979,-4.64121 -2.81476,-4.67301 -0.18503,-0.0317 -0.35547,3.17601 -0.97391,3.45055 -0.61845,0.27454 -1.95071,1.37848 -3.09221,1.37269 -0.73982,-0.12724 -1.2947,-0.22254 -1.63281,-0.47107 -0.15314,-0.21673 -0.30633,-0.43349 -0.0578,-0.7716 0.3121,-0.70803 3.04019,-3.28582 3.19914,-4.21058 0.15896,-0.92476 1.99987,-4.98798 2.31198,-5.69599 0.3121,-0.70803 0.72538,-3.11245 -0.28897,-3.85804 -0.86118,-0.52887 -2.83789,-0.10697 -3.73086,-0.45085 -0.18504,-0.0317 -0.33812,-0.24853 -0.30633,-0.43349 0.15895,-0.92477 0.68779,-1.78597 1.4594,-1.84375 v 0 c 0.77161,-0.0578 3.38699,1.34382 5.45327,1.50855 2.06628,0.16478 6.38381,0.52601 8.26514,0.65898 1.88132,0.13286 4.95332,-3.33782 5.48219,-4.19902 0.52886,-0.86118 0.47686,-2.77431 1.22245,-3.78866 0.77739,-1.1993 2.76568,-3.90425 3.53729,-3.96205 0.18485,0.0317 0.18485,0.0317 0.36991,0.0636 0.92476,0.15895 2.52576,0.81498 3.67308,-0.32074 1.36403,-1.2889 2.12121,-4.58629 1.94205,-5.7596 0.006,-1.14151 -1.47091,-8.05997 -2.91296,-9.64076 -1.44207,-1.58078 -1.28311,-2.50557 -3.13264,-2.82347 -1.84955,-0.31789 -3.86382,1.43048 -4.39269,2.29168 -0.28031,0.52307 -0.71381,0.82939 -0.89877,0.7976 0,0 -0.18485,-0.0317 -0.15313,-0.21673 -0.12142,-0.4017 -0.26298,-2.90149 -1.18774,-3.06043 -0.89298,-0.34391 -1.72817,0.0837 -4.16436,-0.1445 -2.43621,-0.22831 -5.90411,2.22231 -6.67572,2.28011 0,0 -0.18485,-0.0317 -0.18485,-0.0317 -0.55488,-0.0953 -0.79762,-0.89877 -1.50565,-1.21088 -0.70803,-0.31213 -2.59514,0.69645 -3.98519,1.02877 -1.23689,0.54907 -5.87232,2.03734 -6.66992,1.13859 0,0 -0.15314,-0.21676 -0.15314,-0.21676 -0.61265,-0.86698 -0.32654,-2.53156 0.54044,-3.14422 v 0 c 0.86699,-0.61265 1.85533,-0.82361 2.53157,-0.32653 0.67623,0.49707 0.95077,1.1155 1.90734,1.08951 0.95656,-0.0261 2.47956,-2.23967 3.4997,-2.63559 0.21673,-0.15313 0.61843,-0.27453 1.2051,-0.36411 1.82353,-0.63866 5.0689,-1.79461 6.24221,-1.97378 0.4017,-0.12142 1.02014,-0.3959 1.63859,-0.67043 v 0 c 1.70217,-1.04037 3.9014,-2.75695 4.88974,-2.96791 v 0 c 0,0 0.18504,0.0317 0.18504,0.0317 0.73982,0.12724 3.57771,0.2341 5.05735,0.48842 0.3699,0.0636 0.73981,0.12724 0.70802,0.31213 0.12142,0.4017 1.52584,3.30895 2.41883,3.65285 0.89298,0.34391 1.53742,1.02593 1.51141,0.0694 -0.0259,-0.95657 -0.9074,-3.58351 -0.93339,-4.54006 -0.0261,-0.95656 -3.23667,-6.649715 -3.69615,-7.299941 -0.24274,-0.8034 -0.63288,-2.965053 -0.47393,-3.889835 0.15895,-0.924764 -0.51728,-1.421836 -1.01436,-0.745599 -0.46528,0.491292 0.0462,3.054645 -0.47684,2.774309 -0.55487,-0.09533 -1.56923,-0.84097 -1.07215,-1.517207 0.49707,-0.676237 1.2051,-0.364129 0.93056,-0.982565 -0.27454,-0.618435 -0.36413,-1.205099 -0.98257,-0.930562 -0.58664,0.08952 -0.98834,0.210956 -1.1993,-0.777389 -0.0895,-0.586645 -0.79182,-2.040289 -1.15595,-3.24537 -0.95655,0.02609 -2.12986,0.205157 -3.27138,0.199377 -1.72816,0.0837 -3.67308,0.320759 -5.5862,0.372761 -2.31481,0.173404 -4.8146,0.314961 -7.31437,0.456555 -0.18486,-0.03172 -0.18486,-0.03172 -0.36991,-0.06362 v 0 c -0.36991,-0.06362 -0.58665,0.08952 -0.95656,0.0259 v 0 c -4.22793,0.225387 -8.82579,0.387193 -13.42364,0.548999 -0.95657,0.02609 -1.91312,0.05198 -2.86968,0.07807 -2.49977,0.141501 -4.96777,0.09815 -7.46754,0.2398 -1.5432,0.115603 -3.05463,0.04617 -4.59785,0.161769 -5.36945,0.219607 -11.07702,0.190669 -16.63144,0.378466 -1.51142,-0.06944 -3.05464,0.04617 -4.3811,0.0094 -1.72817,0.08389 -3.42456,-0.01689 -5.15272,0.06643 -3.23959,0.01501 -6.66413,-0.0038 -9.90373,0.01126 -2.09808,0.02027 -4.19615,0.04035 -6.29422,0.06062 -3.23959,0.01501 -6.29424,0.06062 -9.53383,0.07507 -0.55485,-0.09533 -1.14151,-0.0056 -1.69637,-0.101152 -4.0112,0.07225 -8.17557,-0.07225 -12.18675,-7.5e-5 -1.14152,-0.0056 -2.09809,0.02027 -3.23959,0.01501 -1.32648,-0.03753 -2.65294,-0.07525 -3.97941,-0.112787 -1.69639,-0.101152 -3.2396,0.01501 -4.93597,-0.0867 -0.58665,0.08952 -1.32646,-0.03753 -1.91313,0.05198 -2.28302,-0.01126 -4.56605,-0.02308 -7.03403,-0.06643 -3.79447,-0.08088 -7.58891,-0.161956 -11.19841,-0.21105 -0.36991,-0.06362 -0.58664,0.08952 -0.95655,0.02609 -4.93598,-0.0867 -9.687,-0.141688 -14.25305,-0.164771 -2.09808,0.02027 -4.16436,-0.144503 -6.26245,-0.124235 -2.83789,-0.10697 -5.49081,-0.182037 -8.17555,-0.07225 -0.77161,0.0578 -1.32646,-0.03753 -2.09807,0.02027 -6.44739,-0.156138 -12.15498,-0.185039 -16.68924,-0.393142 -5.30587,-0.150321 -9.10034,-0.231261 -10.79671,-0.332413 -0.84097,1.569209 -1.72531,5.606418 -2.38712,8.348937 -0.407494,1.262881 -0.783183,2.340818 -0.968147,2.309027 -1.020136,0.39592 -0.855402,-1.67038 -2.245447,-1.338042 -1.173308,0.179222 -2.970833,1.774385 -3.595067,3.19044 -0.03172,0.185039 -0.06362,0.369909 -0.248545,0.338119 -0.06362,0.369909 -0.343899,0.892972 -0.840971,1.569209 -1.306251,2.060497 -3.358101,5.135357 -4.135509,6.334657 -0.03172,0.18504 -0.216736,0.15314 -0.43349,0.30633 -1.421835,0.51728 -4.337738,-2.45935 -5.664201,-2.49692 0,0 -0.185039,-0.0317 -0.185039,-0.0317 -1.358254,0.14732 -3.62106,2.23389 -5.259649,2.90432 -0.216736,0.15314 -0.433491,0.30633 -0.618436,0.27454 -1.23689,0.54907 -1.702171,1.04037 -2.543142,2.60958 -0.745617,1.01435 -1.025934,1.53741 -1.427634,1.6588 -0.216735,0.15313 -0.401699,0.12142 -0.803399,0.24274 -0.771609,0.0578 -1.517207,1.07214 -2.690516,1.25133 -1.173309,0.17922 -0.950774,-1.11553 -0.664658,-2.78011 0.127238,-0.73982 0.03753,-1.32647 -0.08389,-1.72817 -0.274537,-0.61845 -0.612655,-0.86698 -1.046146,-0.56065 -0.83519,0.42769 -8.721792,4.21343 -9.86909,5.34915 0,0 0,0 0,0 -0.713808,0.82941 -1.68774,4.27996 -2.343746,5.88096 -0.06362,0.36991 -0.280336,0.52308 -0.497072,0.67624 -0.618454,0.27453 -7.78545,2.08936 -9.207285,2.60664 -0.216736,0.15314 -0.4017,0.12142 -0.618436,0.27454 -0.43349,0.30633 0.08952,0.58665 -0.03753,1.32646 -0.12705,0.73982 -7.892382,4.92726 -9.097463,5.29137 -1.020154,0.39592 -4.502487,-0.39305 -6.230653,-0.30926 -0.369909,-0.0636 -0.586653,0.0895 -0.771607,0.0578 -1.205096,0.36412 -6.643921,2.09514 -8.96453,3.41004 -0.433488,0.30633 -0.835186,0.42769 -1.051931,0.58087 -0.03179,0.18485 -0.216744,0.15313 -0.248534,0.33812 -0.840976,1.56921 -2.063435,5.35787 -2.967991,7.29699 -0.03179,0.18504 -0.280324,0.52308 -0.312115,0.70803 -1.025929,1.53743 -2.288816,1.12993 -4.5082668,0.74847 -2.219449,-0.38149 -3.3667508,0.75423 -4.4822638,1.705 0,0 -0.2167453,0.15313 -0.2803247,0.52308 -0.8727648,1.75417 -1.6415193,7.33458 -1.9652099,10.32565 2.0662851,0.16477 4.3493153,0.1764 6.2306459,0.30925 2.6529393,0.0753 5.1209223,0.11861 7.7738623,0.19367 5.305877,0.15032 10.05689,0.20525 14.437988,0.19662 5.892535,0.0608 11.077043,-0.19067 15.304977,-0.41604 0,0 0.338119,0.24853 0.612656,0.86697 0.216754,-0.15314 0.4017,-0.12142 0.618454,-0.27454 v 0 c 1.205081,-0.36411 6.178633,-1.60385 7.351941,-1.78302 2.161653,-0.39012 3.953398,-0.84382 5.126706,-1.02299 0,0 0.185039,0.0317 0.185039,0.0317 1.543199,-0.1156 4.04877,-1.3987 6.554341,-2.68181 3.372532,-1.89575 6.930029,-3.75973 8.224702,-3.53719 0,0 0,0 0.185039,0.0317 0.369909,0.0636 2.404399,0.41328 5.242289,0.52023 2.436191,0.22832 5.459045,0.36706 8.819999,0.75433 1.141518,0.006 2.43619,0.22831 3.577708,0.23409 1.326482,0.0375 2.43619,0.22834 3.762672,0.26591 5.089135,0.30347 10.363215,0.63874 14.495775,0.96823 0.55488,0.0953 1.14152,0.006 1.69639,0.10115 3.57771,0.23411 6.19885,0.49422 7.15542,0.46821 1.47964,0.25432 2.4044,0.41328 3.14422,0.54044 1.26288,0.40748 1.1993,0.77739 0.48549,1.6068 -0.93056,0.98256 -0.87856,2.89567 -0.20232,3.39274 0.67624,0.49707 3.49971,-2.63557 4.2713,-2.69337 0.18504,0.0317 0.33812,0.24855 0.82941,0.71383 0.64445,0.68202 1.56343,1.98249 2.29745,3.25115 1.07216,1.51723 1.92756,3.18759 2.04892,3.58929 0.39592,1.02015 -1.96227,3.6615 -0.76295,4.43891 0.33812,0.24852 3.54591,0.41906 8.11197,0.44219 2.65294,0.0753 5.89253,0.0608 9.10033,0.23127 5.30587,0.15032 10.64355,0.1156 15.02464,0.10697 4.56607,0.0231 7.80566,0.009 7.80566,0.009 l 0.64445,0.68202 7.79692,7.81438 0.98256,0.93055 13.81368,13.79942 16.11694,15.90908 4.38974,4.37247 c 2.65872,-1.06636 5.1325,-2.1645 7.07742,-2.40147 3.27138,-0.19938 7.37793,-0.82646 9.38065,-0.29182 2.0027,0.53464 2.76851,1.61838 3.2598,2.08366 0.64445,0.68201 1.63279,0.47106 2.0085,-0.60688 0.0636,-0.36991 0.50285,-1.81775 0.78897,-3.48233 0.59822,-2.37261 1.47678,-5.2683 2.03742,-6.31445 0.87278,-1.75417 1.43921,-3.94182 2.46515,-5.47926 0.49705,-0.67623 1.70795,-2.18186 2.73386,-3.7193 0.99415,-1.35245 2.17323,-2.67314 3.00843,-3.10085 1.05192,-0.58086 2.91305,-2.54599 4.6788,-3.95625 1.11551,-0.95077 2.01428,-1.74839 2.41598,-1.86975 1.02013,-0.39592 6.06883,-4.28859 7.05719,-4.49955 0.8034,-0.24275 3.31475,-2.66738 4.95332,-3.33781 0.21675,-0.15314 0.4017,-0.12142 0.58666,-0.0895 1.54322,-0.1156 5.34924,-2.31766 7.63226,-2.3061 2.25125,0.19654 3.73666,-0.69065 5.80296,-0.52592 2.06629,0.16477 5.73357,0.9855 6.19307,1.63574 0.45948,0.65023 0.14732,1.35825 0.63866,1.82354 0.49128,0.46528 1.82932,-1.78019 2.42176,-3.01128 0.62424,-1.41605 3.85518,-5.81158 4.53721,-6.45602 0.65023,-0.4595 3.22516,-3.25402 4.12393,-4.05164 0.89877,-0.7976 2.02586,-4.03141 3.29452,-4.76543 1.23689,-0.54908 3.34654,-2.85232 3.41012,-3.22223 1.14152,0.006 0.56066,-1.04615 0.37571,-1.07794 z"
   id="path791"
   style="stroke-width:1.87666;fill:#373e48" />
</svg>
