<?xml version="1.0" encoding="UTF-8" standalone="no"?>
<!-- Generator: Adobe Illustrator 27.2.0, SVG Export Plug-In . SVG Version: 6.00 Build 0)  -->

<svg
   version="1.1"
   id="Layer_1"
   x="0px"
   y="0px"
   viewBox="0 0 321.1 321.1"
   style="enable-background:new 0 0 321.1 321.1;"
   xml:space="preserve"
   sodipodi:docname="ohio.svg"
   inkscape:version="1.2.2 (732a01da63, 2022-12-09, custom)"
   xmlns:inkscape="http://www.inkscape.org/namespaces/inkscape"
   xmlns:sodipodi="http://sodipodi.sourceforge.net/DTD/sodipodi-0.dtd"
   xmlns="http://www.w3.org/2000/svg"
   xmlns:svg="http://www.w3.org/2000/svg"><defs
   id="defs1005" /><sodipodi:namedview
   id="namedview1003"
   pagecolor="#505050"
   bordercolor="#ffffff"
   borderopacity="1"
   inkscape:showpageshadow="0"
   inkscape:pageopacity="0"
   inkscape:pagecheckerboard="1"
   inkscape:deskcolor="#505050"
   showgrid="false"
   inkscape:zoom="2.653379"
   inkscape:cx="160.55"
   inkscape:cy="160.55"
   inkscape:window-width="1920"
   inkscape:window-height="1031"
   inkscape:window-x="0"
   inkscape:window-y="25"
   inkscape:window-maximized="1"
   inkscape:current-layer="Layer_1" />
<style
   type="text/css"
   id="style999">
	.st0{fill:#FE8E69;}
</style>
<path
   id="Ohio_00000021826308087132761740000007706963774322969263_"
   class="st0"
   d="m 280.94249,138.16003 c -0.15699,-1.30626 0.002,-2.57264 0.51847,-4.11573 0.95229,-2.45301 -2.72475,-6.45406 -3.39533,-8.78989 -0.19689,-0.98969 -0.47367,-1.34615 -0.7504,-1.70265 -0.23677,-0.67307 0.11967,-0.94976 1.18909,-1.7799 1.38604,-0.79028 4.43484,-2.01428 7.16702,-3.27819 -0.31176,-5.1852 -0.58341,-10.687 -0.53857,-16.14888 -0.157,-1.3063 -0.0373,-2.25606 -0.19433,-3.562355 -0.23199,-5.818379 -0.50364,-11.320148 -0.73553,-17.138527 0.0399,-0.316546 0.11967,-0.949797 -0.15699,-1.306294 -0.38646,-9.697277 -0.77292,-19.394586 -1.27905,-28.14213 -0.30665,-10.330496 -0.73303,-19.711197 -1.12198,-26.835837 -0.11455,-4.19554 -0.3092,-7.75786 -0.58341,-10.686993 -6.69089,2.051708 -18.17553,8.967019 -26.88564,11.7292 -1.66273,0.433783 -3.32549,0.867533 -4.94836,0.984706 -8.7874,0.822732 -19.0505,13.359509 -21.98212,16.206379 -0.35647,0.276658 -0.39636,0.593331 -0.71297,0.553444 -1.38603,0.790248 -1.26637,-0.159549 -2.65241,0.630698 -1.02957,0.513558 -3.7667,6.922779 -7.13207,8.106922 -3.36538,1.184143 -2.53524,2.25357 -5.3846,1.894616 -2.84939,-0.358954 -3.12608,-0.715451 -4.47226,-0.241877 -1.38604,0.790248 -1.38604,0.790248 -3.2856,0.550956 -1.89956,-0.239324 -2.45301,-0.952286 -3.9961,-1.4683 0,0 0,0 0,0 -1.5431,-0.516015 -2.1364,-0.912367 -3.75927,-0.795194 -1.62287,0.117109 -8.43339,3.118646 -9.54271,4.26539 -1.10934,1.146745 -1.26886,2.413119 -3.56481,2.767127 -2.25605,0.03733 -2.80947,-0.675563 -4.15565,-0.201989 v 0 c -1.34615,0.473638 -4.15811,2.370742 -5.54414,3.16099 -1.38604,0.790279 -1.86217,2.016766 -5.18519,0.311759 -3.36289,-1.388525 -7.90995,-6.142423 -8.46336,-6.855353 -0.55344,-0.712962 -1.26641,-0.15955 -1.30629,0.156996 -0.0399,0.316546 0.83013,1.069427 0.75039,1.702614 -0.11966,0.949797 0.79025,1.386037 -1.06946,0.830135 -1.50321,-0.832592 -1.77993,-1.189089 -2.49286,-0.635676 -0.75285,0.870022 -0.9124,2.136428 -1.42593,1.106857 -0.51355,-1.02954 -0.67061,-2.335833 -1.34369,-2.098998 -0.98968,0.196883 -1.54309,-0.516015 -2.61252,0.313993 -0.71296,0.553444 -1.82231,1.700157 -2.85185,2.213714 -0.3565,0.276658 -1.02957,0.513525 -1.34615,0.473638 -0.98968,0.196884 -2.57267,-0.0025 -3.12608,-0.715419 -0.31654,-0.03989 -0.27666,-0.356497 -0.23677,-0.673075 -0.157,-1.306261 -0.67058,-2.335833 1.86216,-2.016766 2.57267,0.0025 6.57123,-1.101879 8.82729,-1.13931 2.25606,-0.03733 4.2354,-0.431293 4.67167,-1.341203 0.43624,-0.909909 -0.0373,-2.256058 -1.30381,-2.415576 -1.26637,-0.159549 -3.87893,0.154444 -4.43234,-0.55839 -0.55344,-0.712962 -1.50075,-3.40526 -1.81733,-3.445148 -0.27666,-0.356465 -2.01922,0.710505 -2.099,1.343692 -0.0798,0.633188 0.43375,1.662727 0.0373,2.256059 -0.39636,0.5933 -2.25852,2.610067 -3.52493,2.450517 -1.26637,-0.159549 -3.40277,-1.071916 -5.06304,-3.210801 -1.70015,-1.822276 -3.71692,-3.68444 -5.26002,-4.200454 -0.31654,-0.03989 -0.94979,-0.119662 -1.54309,-0.516014 -2.17629,-0.595789 -5.89567,-1.707592 -7.31913,-3.173403 -1.74005,-1.505698 -2.57018,-2.575125 -3.44021,-3.327974 -0.90991,-0.43624 -0.35646,0.276658 -1.70261,0.75036 -1.34615,0.47367 -4.9085,0.668128 -5.38214,-0.678021 -0.47367,-1.346149 -0.23677,-0.673074 0.55591,-1.859676 0.43624,-0.909909 0.11966,-0.949797 0.23932,-1.899593 l -18.128212,0.932469 -6.491485,0.468692 -27.192333,1.398706 -2.572636,-0.0025 -24.2632,1.124471 -0.09222,13.496464 0.07244,7.084753 0.02872,12.546668 0.07722,1.939481 0.05999,19.94803 -0.0064,5.14531 0.0651,14.80273 -0.01276,12.86327 -0.13434,16.38571 -0.122215,3.52244 -0.06222,23.47046 0.112322,6.76818 -0.01595,15.43594 0.06733,12.23006 -0.122215,3.52243 -0.134659,16.38571 0.104664,14.48615 c 0,0 -0.396352,0.5933 -1.109314,1.14674 3.442658,0.75531 9.418098,1.82968 11.634269,2.10889 0.316546,0.0399 0.633219,0.0798 0.949797,0.11967 1.979336,-0.39387 4.434831,-2.01428 5.701206,-1.85473 0.316545,0.0399 0.633187,0.0798 1.226519,0.47613 2.452974,0.95225 7.912399,3.56975 10.285663,5.15519 0.593299,0.39639 1.186599,0.79274 1.146712,1.10935 0.156997,1.30626 2.881843,7.76031 3.195963,10.37284 -0.07977,0.63319 0.196884,0.98968 -0.199436,1.58298 -0.159549,1.26641 -0.555902,1.85971 1.263917,2.73219 0,0 0,0 0.316546,0.0399 2.729696,1.30875 6.28956,3.68692 9.455496,4.08576 v 0 c 2.216203,0.27922 6.134988,-0.19209 8.707657,-0.18954 0.949765,0.11966 1.582984,0.19944 2.216171,0.27921 1.543097,0.51602 5.217644,7.08973 7.590876,8.67517 0.593299,0.39639 1.186627,0.79274 1.779927,1.18909 1.81982,0.87251 3.36292,1.38853 4.07585,0.83512 0.3565,-0.27666 0.43627,-0.90991 0.5559,-1.85971 0.15955,-1.26638 0.67557,-2.80947 2.97151,-3.16348 3.60221,-0.51107 5.62143,-1.22157 7.67809,0.32401 2.37322,1.58548 7.63321,5.78593 9.84938,6.06511 0.31655,0.0399 0.63322,0.0798 0.9498,0.11966 1.66276,-0.43378 2.57512,-2.57018 3.76176,-1.77744 1.22648,0.47612 2.453,0.95225 3.52243,0.12221 1.38603,-0.79024 2.33829,-3.24325 4.83367,-5.18024 0.71296,-0.55342 1.38604,-0.79025 1.78239,-1.38355 2.45546,-1.62041 5.18768,-2.8843 7.40385,-2.60512 2.53275,0.3191 1.93696,2.49535 2.48792,5.78098 0.55095,3.2856 2.01182,7.00747 4.06844,8.55305 0,0 0,0 0.31655,0.0399 2.0965,1.22898 7.12218,2.18372 8.50573,3.96614 0,0 0.27665,0.35646 0.27665,0.35646 0.3939,1.97934 1.18166,5.93805 3.23831,7.48363 0.27666,0.35647 0.5933,0.39635 1.22649,0.47613 1.58298,0.19944 2.92913,-0.27411 4.59189,-0.70802 1.02954,-0.51355 2.37569,-0.98719 3.68198,-1.14425 2.65241,-0.63073 3.79916,0.47861 5.85827,-0.54847 1.7425,-1.06697 1.43333,-8.82483 3.29549,-10.84156 0,0 0,0 0,0 2.17877,-1.97688 0.98968,-0.19689 3.6421,-0.82768 v 0 c 3.0089,-0.90742 4.23788,-3.00393 2.89422,-5.10293 -1.38358,-1.78242 -1.97688,-2.17877 -1.38109,-4.35506 0.59579,-2.17631 0.002,-2.57266 -1.10437,-3.99859 -1.14674,-1.10931 -1.6603,-2.13888 -0.94734,-2.6923 0.75285,-0.87002 3.99859,-1.10436 4.27777,-3.32054 0.27921,-2.21617 -0.78776,-3.9587 0.63814,-5.06556 1.42592,-1.10682 1.98182,-2.96653 2.53772,-4.8262 0.0798,-0.63322 0.47613,-1.22652 0.87251,-1.81982 0.47613,-1.22652 1.58544,-2.37323 2.25852,-2.61007 1.34615,-0.47367 0.11711,1.62287 2.57018,2.57513 2.17628,0.59579 3.64209,-0.82765 4.19554,-0.11456 0.23677,0.67307 1.46083,3.72184 0.58835,5.54166 -0.87251,1.81982 -2.33832,3.24325 0.23422,3.24574 0.31655,0.0399 0.63319,0.0798 0.9498,0.11966 1.89956,0.23933 3.16593,0.39884 3.44514,-1.81733 0.35896,-2.84936 -0.35155,-4.86858 0.71542,-3.12608 1.10686,1.42592 0.86757,3.32552 2.88679,2.61501 2.01923,-0.71047 4.31517,-1.06448 2.85185,-2.21368 -1.46335,-1.1492 -3.08619,-1.03203 -1.89711,-2.81196 1.14921,-1.46332 2.29841,-2.92668 1.42839,-3.67949 -0.87003,-0.75285 -3.79667,-3.05129 -3.7169,-3.68447 0.0798,-0.63319 3.16594,0.39884 3.99856,-1.10437 0.0399,-0.31655 0.0399,-0.31655 0.0798,-0.63319 -0.0373,-2.25606 -1.46087,-3.72187 -1.22157,-5.62143 0.0399,-0.31655 0.0798,-0.63322 0.43627,-0.90991 1.26886,-2.41312 2.41557,-1.3038 2.61501,-2.88679 0.19944,-1.58298 -1.02708,-2.05911 0.0424,-2.88924 0,0 0.31655,0.0399 0.3565,-0.27666 1.02954,-0.51353 2.65241,-0.6307 4.55197,-0.39141 1.89959,0.23932 3.36291,1.38853 3.80164,-2.09405 0.47862,-3.79916 -0.78779,-3.95867 1.27132,-4.98576 2.01926,-0.7105 3.08869,-1.54064 3.6047,-3.08373 0.51601,-1.5431 2.41561,-1.30378 3.16597,0.39884 0.43378,1.66276 0.43129,4.23539 2.37074,4.15811 0.63322,0.0798 0.98969,-0.19689 1.34618,-0.47364 0.71293,-0.55345 1.50567,-1.74005 2.8917,-2.53029 2.099,-1.34369 2.25606,-0.0373 3.91882,-0.47118 1.66276,-0.43379 2.17878,-1.97688 2.61501,-2.88679 0.43624,-0.90991 3.00891,-0.90742 4.95085,-3.55738 0,0 0,0 0,0 1.58544,-2.37323 2.97397,-5.73614 5.1926,-8.0296 0.35649,-0.27666 0.35649,-0.27666 0.71296,-0.55341 2.85184,-2.21372 1.98182,-2.96657 4.59438,-3.28069 v 0 c 2.65241,-0.6307 3.36537,-1.18414 3.60466,-3.0837 0.23933,-1.8996 -0.86753,-3.32552 0.83508,-4.07588 1.34615,-0.47364 2.4555,-1.62038 1.58548,-2.37323 0,0 -0.27666,-0.35647 -0.27666,-0.35647 -1.46332,-1.14923 -2.92665,-2.29843 -1.81733,-3.44518 1.10931,-1.14671 0.67556,-2.80947 1.86465,-4.5894 0.0399,-0.31654 0.35647,-0.27666 0.39635,-0.5933 1.10932,-1.14674 2.099,-1.34366 1.66522,-3.00642 -0.71047,-2.01922 -1.89711,-2.81196 -0.94731,-2.6923 0.9498,0.11967 1.81982,0.87248 2.01922,-0.7105 0.43628,-0.90991 0.67806,-5.38214 1.07687,-8.54808 0.19943,-1.58298 0.31909,-2.53278 0.75533,-3.44269 0.91237,-2.13639 0.47862,-3.79915 1.11426,-6.29204 0,0 0.0399,-0.31655 0.0399,-0.31655 0.11966,-0.9498 0.51602,-1.5431 0.63568,-2.49289 0.5559,-1.85971 1.1118,-3.71938 2.49784,-4.50963 1.70261,-0.75039 2.77453,-4.15317 1.90699,-7.47868 -0.82764,-3.6421 -1.02459,-4.63175 -1.22154,-5.62143 z"
   style="fill:#373e48;stroke-width:3.19099" />
</svg>
