<?xml version="1.0" encoding="UTF-8" standalone="no"?>
<!-- Generator: Adobe Illustrator 27.2.0, SVG Export Plug-In . SVG Version: 6.00 Build 0)  -->

<svg
   version="1.1"
   id="Layer_1"
   x="0px"
   y="0px"
   viewBox="0 0 321.1 321.1"
   style="enable-background:new 0 0 321.1 321.1;"
   xml:space="preserve"
   sodipodi:docname="oklahoma.svg"
   inkscape:version="1.2.2 (732a01da63, 2022-12-09, custom)"
   xmlns:inkscape="http://www.inkscape.org/namespaces/inkscape"
   xmlns:sodipodi="http://sodipodi.sourceforge.net/DTD/sodipodi-0.dtd"
   xmlns="http://www.w3.org/2000/svg"
   xmlns:svg="http://www.w3.org/2000/svg"><defs
   id="defs997" /><sodipodi:namedview
   id="namedview995"
   pagecolor="#505050"
   bordercolor="#ffffff"
   borderopacity="1"
   inkscape:showpageshadow="0"
   inkscape:pageopacity="0"
   inkscape:pagecheckerboard="1"
   inkscape:deskcolor="#505050"
   showgrid="false"
   inkscape:zoom="2.653379"
   inkscape:cx="160.55"
   inkscape:cy="160.55"
   inkscape:window-width="1920"
   inkscape:window-height="1031"
   inkscape:window-x="0"
   inkscape:window-y="25"
   inkscape:window-maximized="1"
   inkscape:current-layer="Layer_1" />
<style
   type="text/css"
   id="style991">
	.st0{fill:#FE8E69;}
</style>
<path
   id="Oklahoma_2_"
   class="st0"
   d="m 297.69627,138.03565 -1.40643,-7.09083 -0.99419,-4.72548 -2.62754,-13.67777 -0.59235,-2.69953 -2.62756,-13.677766 -0.0209,-0.678783 -0.17172,-5.599985 -0.15602,-5.090894 -0.29662,-9.672696 c -3.56362,0.109336 -7.63635,0.234155 -12.38784,0.379857 -0.84849,0.02598 -1.69696,0.05195 -2.54545,0.0781 -3.22423,0.09881 -6.61816,0.202934 -10.35148,0.317414 -1.35757,0.0416 -2.71515,0.08319 -4.07272,0.124955 -2.54545,0.0781 -5.09089,0.156025 -7.80604,0.239368 -2.03636,0.06248 -4.07271,0.124955 -6.27876,0.192543 -0.3394,0.01019 -0.84849,0.02598 -1.18788,0.03633 -5.43029,0.166551 -11.03028,0.338246 -16.97485,0.350673 -2.37575,0.07283 -4.92121,0.150931 -7.46665,0.22896 -4.07272,0.124956 -8.15063,0.08013 -12.39305,0.210167 -3.39393,0.104072 -6.96276,0.04363 -10.52638,0.152968 -3.56362,0.109336 -7.30217,0.05399 -11.03548,0.168588 -3.39393,0.104073 -6.79307,0.03837 -10.187,0.142442 -2.37575,0.07283 -4.9264,-0.01884 -7.30215,0.05399 -2.20605,0.06774 -4.41732,-0.03446 -6.62336,0.03328 -4.75671,-0.02394 -9.51341,-0.04805 -14.43462,0.102884 -5.0961,-0.01358 -10.3619,-0.0219 -15.62768,-0.03039 -0.50909,0.01528 -1.18789,0.03633 -1.69696,0.05195 -5.77489,0.0068 -11.72468,-0.150082 -17.83896,-0.132425 -5.94458,0.01188 -11.89437,-0.14482 -17.838947,-0.132426 -3.399124,-0.06553 -6.798265,-0.131237 -10.19739,-0.196856 -1.018182,0.03124 -2.211268,-0.102035 -3.22945,-0.0708 -5.270992,-0.178079 -10.706481,-0.18127 -16.147182,-0.354136 -4.931609,-0.188486 -9.688315,-0.212492 -14.619908,-0.400978 -0.3394,0.01019 -0.678783,0.02088 -0.848491,0.02598 -10.71167,-0.350966 -21.59306,-0.696715 -32.644147,-1.037269 l -0.88722,20.919507 28.561051,0.822753 4.077924,0.04482 14.110818,0.41658 17.849358,0.471791 4.247615,0.03956 12.57835,0.293713 15.812989,0.534252 0.8485,-0.02598 0.0424,18.003449 0.0696,7.81124 0.11646,9.33851 0.10611,8.99913 0.10611,8.99911 0.0436,6.96276 -0.007,10.87098 0.0905,8.49003 c 0,0 0.51429,0.15416 1.0286,0.30816 1.54287,0.46227 4.28403,1.22748 4.64424,1.89588 0,0 0,0 0,0 0.7152,1.16706 3.04095,5.00242 4.73792,4.95038 1.86665,-0.0572 1.85105,-0.56632 3.35749,-1.29194 1.00258,-0.54032 2.03117,-0.23214 3.06495,0.24573 0.3446,0.15925 0.8641,0.48307 1.21389,0.81206 1.21911,0.98175 2.88485,-0.0884 3.02852,-0.94216 0.14363,-0.85368 0.80686,-1.38359 1.84586,-0.73603 0.51949,0.32378 1.39399,1.14625 2.27369,2.13842 0.70481,0.82766 1.07022,1.66574 1.09103,2.34452 0.0469,1.52728 -1.05779,4.27884 2.00717,4.52457 3.07015,0.41541 4.56098,-0.81928 6.46407,0.31134 0,0 0.17491,0.16451 0.17491,0.16451 1.90307,1.13065 4.83475,2.56945 7.39061,2.83078 2.72035,0.0864 2.68391,-1.10144 4.03628,-1.31276 v 0 c 1.35758,-0.0416 2.14563,3.50118 3.85822,3.95824 1.37318,0.46746 1.81462,-1.7542 2.97127,-2.80882 0.16451,-0.17488 0.49868,-0.355 0.83287,-0.5351 1.84586,-0.73603 6.81908,0.81004 7.51869,1.46801 0.5247,0.49347 0.91092,2.01033 1.80104,3.34189 0.355,0.49868 0.5351,0.83287 1.04941,0.98696 1.55328,0.80165 2.22685,0.61114 3.41474,0.57471 1.18267,-0.20613 1.2243,1.15146 0.75163,2.35493 -0.31337,0.8589 -0.63196,1.54809 0.0625,2.03637 0.1749,0.16451 0.3498,0.32897 0.6892,0.31856 1.37838,0.63717 2.07278,1.12545 4.56098,-0.81927 2.32372,-1.76981 2.62668,-2.96809 3.63446,-3.33872 1.00777,-0.37062 2.77239,1.7834 3.80618,2.26127 0.16977,-0.005 0.34459,0.15925 0.68399,0.14889 1.02338,0.13854 2.03115,-0.23215 2.36534,-0.41225 0.16978,-0.005 0.1749,0.16452 0.355,0.49869 0.19572,0.84328 0.41745,2.53503 1.45644,3.18261 1.38879,0.97653 2.55066,0.0917 3.88221,-0.79848 1.33156,-0.89012 1.63452,-2.0884 2.98168,-2.46941 1.35237,-0.21134 2.92127,1.0994 2.10921,2.3133 -0.81205,1.21389 -0.57471,3.41475 0.99418,4.72549 1.5689,1.31074 2.52984,-0.58716 2.9973,-1.96034 0.46746,-1.37319 2.37372,-5.67803 3.3659,-6.55775 0,0 0,0 0.16977,-0.005 0.33419,-0.1801 0.67359,-0.1905 0.84848,-0.026 0.52471,0.49348 1.07022,1.66574 1.44603,2.84322 0.56634,1.85104 3.28668,1.93749 5.64683,1.35555 2.35493,-0.75164 2.3133,-2.10922 3.1774,-1.62614 0.16977,-0.005 0.1749,0.16452 0.3498,0.32898 0.3602,0.66837 0.24254,2.37055 1.78542,2.8328 1.88749,0.62155 3.22943,0.0708 4.25802,0.37901 1.02859,0.30816 0.91094,2.01034 2.10922,2.3133 0,0 0,0 0,0 1.36797,0.29775 5.24498,-0.67041 5.72285,-1.7042 0.47787,-1.03378 -0.60276,-3.03892 1.2483,-3.60525 1.85625,-0.39663 5.91335,-1.03061 8.47441,-0.59958 0.68398,0.1489 1.36278,0.12801 2.04156,0.1073 0.33938,-0.0102 0.84848,-0.026 1.18266,-0.20611 1.34718,-0.38103 2.51943,-0.92653 3.86139,-1.47725 2.17484,-1.08584 4.67345,-2.69116 4.86917,-1.84788 0.20091,1.01297 -0.96093,1.89787 3.28147,1.76779 2.20606,-0.0677 3.90823,0.0501 5.09089,-0.15602 1.01819,-0.0312 1.51687,-0.38623 1.67096,-0.90053 -0.0365,-1.18787 -1.14307,-4.04149 1.26911,-2.92647 0.51429,0.15416 1.20869,0.64237 2.07798,1.29514 3.29709,2.27687 8.51287,6.19349 9.38217,6.84625 0.51429,0.15415 2.40697,0.94533 4.63384,1.55647 3.08575,0.92452 7.0304,2.16241 9.41656,2.42894 l -0.37467,-12.21815 -0.31741,-10.35148 -0.38507,-12.55754 -0.29662,-9.67271 -0.23415,-7.63633 -0.54639,-17.81814 -0.0625,-2.03635 z"
   style="stroke-width:1.69776;fill:#373e48" />
</svg>
