<?xml version="1.0" encoding="UTF-8" standalone="no"?>
<!-- Generator: Adobe Illustrator 27.2.0, SVG Export Plug-In . SVG Version: 6.00 Build 0)  -->

<svg
   version="1.1"
   id="Layer_1"
   x="0px"
   y="0px"
   viewBox="0 0 321.1 321.1"
   style="enable-background:new 0 0 321.1 321.1;"
   xml:space="preserve"
   sodipodi:docname="oregon.svg"
   inkscape:version="1.2.2 (732a01da63, 2022-12-09, custom)"
   xmlns:inkscape="http://www.inkscape.org/namespaces/inkscape"
   xmlns:sodipodi="http://sodipodi.sourceforge.net/DTD/sodipodi-0.dtd"
   xmlns="http://www.w3.org/2000/svg"
   xmlns:svg="http://www.w3.org/2000/svg"><defs
   id="defs989" /><sodipodi:namedview
   id="namedview987"
   pagecolor="#505050"
   bordercolor="#ffffff"
   borderopacity="1"
   inkscape:showpageshadow="0"
   inkscape:pageopacity="0"
   inkscape:pagecheckerboard="1"
   inkscape:deskcolor="#505050"
   showgrid="false"
   inkscape:zoom="2.653379"
   inkscape:cx="160.55"
   inkscape:cy="160.55"
   inkscape:window-width="1920"
   inkscape:window-height="1031"
   inkscape:window-x="0"
   inkscape:window-y="25"
   inkscape:window-maximized="1"
   inkscape:current-layer="Layer_1" />
<style
   type="text/css"
   id="style983">
	.st0{fill:#FE8E69;}
</style>
<path
   id="Oregon_00000087377492611563037080000018144546347394385314_"
   class="st0"
   d="m 285.81893,84.468924 c -1.59617,-1.077792 -4.28967,-2.053343 -6.01479,-2.909706 -0.22142,-0.128994 -0.22142,-0.128994 -0.44284,-0.257889 -1.77137,-1.031558 -3.10249,-5.364852 -3.59158,-5.797937 0,0 -0.39659,-0.08264 -0.79321,-0.16541 -2.06572,-0.01631 -8.43804,-0.02138 -16.25806,0.168672 -1.31875,-0.02667 -2.59128,0.121942 -3.91003,0.09509 -3.73482,0.04892 -7.64483,0.143859 -11.73002,0.285304 -12.82737,0.387589 -25.25813,0.857663 -29.64746,1.266716 -0.92214,0.05598 -1.44769,0.194665 -1.44769,0.194665 -1.21653,1.07063 -2.25785,2.095037 -3.43786,2.593881 -1.18004,0.498843 -2.8127,-0.0077 -4.44534,-0.513157 -1.63265,-0.506005 -5.73478,1.701035 -7.35764,1.941989 -1.79808,0.28721 -1.64243,-1.252976 -2.82247,-0.75411 -1.22626,0.323637 -1.28942,2.21418 -2.29426,2.666801 -0.52556,0.138603 -2.80294,0.739809 -5.25546,1.387149 -1.40148,0.369883 -2.80294,0.739798 -4.07545,0.888273 -1.22627,0.323671 -2.10219,0.554873 -2.27735,0.601107 -1.22629,0.323659 -3.88071,2.335969 -4.58144,2.520938 -0.70073,0.184968 -5.86373,1.922442 -8.15086,1.7766 -2.28714,-0.145853 -3.01717,-2.201851 -3.85662,-2.542435 -0.61802,-0.211633 -0.70072,0.184969 -0.95861,0.627794 -0.12901,0.221429 -0.21166,0.618031 -0.51577,0.885694 -0.86614,0.978141 -6.68362,3.075789 -7.95613,3.224264 0,0 0,0 0,0 -1.31875,-0.02667 -2.61081,-1.372142 -3.83708,-1.04846 -1.22627,0.323648 -2.08265,2.048781 -3.08749,2.50139 -1.00485,0.452588 -0.50863,-1.927015 -0.7398,-2.802913 -0.2312,-0.875921 -4.51114,-2.182294 -5.91259,-1.812378 -1.40144,0.369904 -0.95861,0.627794 -2.27736,0.601085 0,0 0,0 0,0 -1.14358,-0.07305 -1.81759,-1.206721 -2.6108,-1.372131 -0.17521,0.04639 -0.17521,0.04639 -0.35035,0.09244 -0.87592,0.231181 -3.67883,0.970978 -4.90511,1.29466 -1.22627,0.32367 -2.69351,-0.975529 -4.09498,-0.605647 -1.22626,0.323682 -2.04616,1.477028 -2.69088,2.584118 0,0 -0.12899,0.221418 -0.12899,0.221418 -0.51577,0.885684 -7.55951,3.306981 -9.88311,3.732903 -0.35039,0.09245 -0.52555,0.138603 -0.70073,0.184969 -1.14357,-0.07305 -11.0684,-2.887547 -12.25821,-3.135675 -1.236042,-0.423289 -3.228815,-1.583797 -2.897994,-3.170206 0.08264,-0.39658 0.119034,-0.968378 0.109414,-1.715349 -0.01961,-1.49393 -0.130988,-3.33825 -0.372504,-4.961109 -0.148575,-1.27249 -0.204549,-2.194656 -0.167956,-2.766442 0.02666,-1.318746 -1.793514,-6.085135 -2.421308,-7.043751 -0.45261,-1.004849 -6.302014,-4.70777 -7.409104,-5.352477 -0.83945,-0.340606 -1.49393,0.01961 -2.673953,0.51839 -0.654513,0.360131 -1.355228,0.545089 -2.055954,0.730035 -1.051105,0.277448 -1.798064,0.287188 -2.462308,-0.09961 -0.839471,-0.340594 -1.42102,-1.124025 -1.605956,-1.824762 -0.277447,-1.051072 -0.121931,-2.591258 -1.754431,-3.097264 -0.618031,-0.211656 -1.493952,0.01961 -2.019483,0.158359 0.04617,0.175195 0.04617,0.175195 0.09245,0.350346 -0.08264,0.396624 -0.87591,0.231203 -0.912392,0.802978 -0.08264,0.396624 0.148563,1.272523 -0.505995,1.632643 -0.700714,0.184969 -3.328455,0.878532 -3.596118,0.574398 -0.267663,-0.304112 -0.591322,-1.53038 -1.292059,-1.345455 -0.700726,0.184969 -1.798043,0.28721 -2.102177,0.554873 -0.304135,0.267663 -0.294361,1.014611 -0.644718,1.107112 -0.350369,0.09245 -2.306671,-1.639827 -2.574334,-1.943939 -0.138603,-0.525553 -0.406387,-0.829676 -1.282286,-0.598496 -0.87591,0.231203 0.287199,1.798065 0.472135,2.498802 0.184968,0.700714 0.591344,1.530401 0.425922,2.323595 0.0088,0.746993 0.333444,1.973249 0.518391,2.673963 0.231191,0.87591 0.416138,1.576647 0.20456,2.194678 -0.211634,0.618021 -2.654417,2.01231 -2.654417,2.01231 0.04617,0.175195 1.642427,1.252976 1.734884,1.603323 0.138603,0.525552 -0.734563,4.316391 -0.946241,4.934422 0.04639,0.175206 0.09256,0.350346 0.0088,0.746993 0.231191,0.875898 0.822514,2.406311 0.657092,3.199505 -0.119034,0.968388 -1.451553,20.058679 -1.86508,22.041699 -0.165421,0.7932 -0.698103,3.7446 -1.138339,7.04638 -0.863536,4.53778 -1.634582,9.42595 -1.753748,10.39433 0.01961,1.49395 -1.152663,12.67173 -1.483495,14.25814 -0.3308,1.58641 -0.576326,6.33587 -1.211271,8.18993 -0.129006,0.22143 -0.08264,0.39661 -0.165422,0.79321 -0.744359,3.56942 -1.916569,14.74721 -2.412791,17.12683 -0.129005,0.22142 -0.03647,0.57179 -0.165421,0.79321 -0.661654,3.17281 -1.938695,9.69362 -2.057872,10.66202 0,0 0,0 0,0 0.0088,0.74697 0.462372,1.75182 0.250651,2.36983 -0.386829,0.66427 -3.405949,8.39443 -4.143135,9.15115 -0.912371,0.80298 -2.092415,1.30185 -2.442783,1.39431 -0.304113,0.26767 1.301843,2.09242 1.136433,2.88561 -0.211678,0.61803 -2.437561,8.51361 -3.965362,12.66458 -0.469523,1.06087 -0.810118,1.9003 -0.939079,2.12172 -0.948842,1.37475 -1.907457,2.00255 -1.861223,2.17773 0.04617,0.17502 1.258199,5.4769 1.525862,5.78101 0.267674,0.30414 2.841985,2.24804 3.026943,2.9488 0.184969,0.70072 -0.02667,1.31875 0.111971,1.84428 0.138602,0.52555 0.730024,2.05594 0.51839,2.67398 -0.211656,0.61801 -1.824752,1.60595 -1.9804,3.14611 -0.155637,1.54017 -0.32821,5.14606 -0.08738,6.76894 0.416138,1.57662 1.379987,8.06814 1.961547,8.85158 0.360131,0.65449 2.815288,3.5668 3.710734,4.82953 3.430729,0.21882 7.608385,0.42785 12.708207,0.58088 3.20929,0.0899 6.639997,0.30867 10.245867,0.48125 2.858932,0.18234 5.893038,0.31845 9.102316,0.40831 8.880898,0.27935 19.08052,0.58542 30.42372,0.96441 8.30912,0.2429 17.31894,0.30083 26.90058,0.39525 5.84677,0.14331 12.04392,0.19403 18.41625,0.19858 9.00983,0.058 18.37003,0.0234 28.12684,0.0716 6.72268,-0.0878 13.84196,-0.0931 20.96127,-0.0984 0.35039,-0.0924 0.74699,-0.009 1.09733,-0.10236 11.60109,-0.0638 23.68152,-0.44158 36.1585,-0.73661 12.30183,-0.2488 24.90779,-0.76528 37.91032,-1.19901 -0.17321,-9.88577 -0.72685,-35.41154 -0.95803,-36.28747 -0.10236,-1.09732 -0.95544,-32.72779 -1.23555,-37.33853 -0.0462,-0.17502 -0.0924,-0.35037 -0.0924,-0.35037 -0.0664,-1.66908 0.31845,-5.89302 0.80492,-9.01959 0.33082,-1.58641 0.53269,-2.95139 0.91953,-3.61565 0.81012,-1.90033 -0.13099,-3.33825 -0.28012,-4.61072 -0.009,-0.747 0.28456,-1.76162 0.53269,-2.95141 0.21165,-0.61804 0.20187,-1.36499 0.0163,-2.06573 -0.46238,-1.75181 -2.71305,-2.46948 -4.16075,-2.27475 -1.44769,0.19466 -3.52317,-0.56918 -4.24345,-1.87816 0,0 -0.0464,-0.17502 -0.0464,-0.17502 -0.59131,-1.53042 -0.64018,-5.26524 -0.92738,-7.06331 -0.2872,-1.79806 3.85594,-10.9492 4.45443,-12.2315 0.64472,-1.10709 3.91716,-2.90776 4.81977,-4.45769 0.129,-0.22143 0.129,-0.22143 0.25789,-0.44285 0.68119,-1.67887 1.4353,-4.50135 0.94622,-4.9344 -0.36013,-0.6545 -0.16795,-2.76646 0.95603,-4.18745 0.12899,-0.22142 0.25787,-0.44284 0.562,-0.7105 0.85638,-1.72512 1.82214,-5.16559 2.65897,-8.38466 0.16541,-0.7932 0.33083,-1.5864 0.54248,-2.20441 0.95601,-4.18745 6.34495,-12.168343 6.02128,-13.394621 -0.88568,-0.515768 -2.97355,-5.586292 -4.7449,-6.617828 z"
   style="stroke-width:1.81182;fill:#373e48" />
</svg>
