<?xml version="1.0" encoding="UTF-8" standalone="no"?>
<!-- Generator: Adobe Illustrator 27.2.0, SVG Export Plug-In . SVG Version: 6.00 Build 0)  -->

<svg
   version="1.1"
   id="Layer_1"
   x="0px"
   y="0px"
   viewBox="0 0 321.1 321.1"
   style="enable-background:new 0 0 321.1 321.1;"
   xml:space="preserve"
   sodipodi:docname="pennsylvania.svg"
   inkscape:version="1.2.2 (732a01da63, 2022-12-09, custom)"
   xmlns:inkscape="http://www.inkscape.org/namespaces/inkscape"
   xmlns:sodipodi="http://sodipodi.sourceforge.net/DTD/sodipodi-0.dtd"
   xmlns="http://www.w3.org/2000/svg"
   xmlns:svg="http://www.w3.org/2000/svg"><defs
   id="defs981" /><sodipodi:namedview
   id="namedview979"
   pagecolor="#505050"
   bordercolor="#ffffff"
   borderopacity="1"
   inkscape:showpageshadow="0"
   inkscape:pageopacity="0"
   inkscape:pagecheckerboard="1"
   inkscape:deskcolor="#505050"
   showgrid="false"
   inkscape:zoom="2.653379"
   inkscape:cx="160.55"
   inkscape:cy="130.39977"
   inkscape:window-width="1920"
   inkscape:window-height="1031"
   inkscape:window-x="0"
   inkscape:window-y="25"
   inkscape:window-maximized="1"
   inkscape:current-layer="Layer_1" />
<style
   type="text/css"
   id="style975">
	.st0{fill:#FE8E69;}
</style>
<path
   id="Pennsylvania_2_"
   class="st0"
   d="m 291.87211,187.31376 c 0,0 0,0 0,0 -1.25554,-1.50018 -4.75245,-4.67912 -7.46534,-7.97059 -2.10745,-2.41814 -3.96843,-4.79164 -4.52921,-5.91142 -0.98766,-2.97894 0.39998,-5.0185 -2.67008,-6.33829 -2.57714,-1.2305 -4.30236,-1.54301 -5.06497,-2.95389 -0.20188,-0.2911 -0.11247,-0.78403 -0.26969,-1.32159 -0.0465,-2.55392 -0.54302,-8.24392 0.71069,-9.54412 1.20908,-1.05371 1.83777,1.09657 2.55391,-0.0466 0.71615,-1.143 2.77531,-4.07911 2.99853,-5.31144 0.22317,-1.23229 -2.78077,-4.32194 -3.00581,-5.89 0,0 0.0446,-0.24645 0.0446,-0.24645 0.1786,-0.98586 2.68602,-3.58622 4.56659,-5.53649 0.91798,-0.8519 1.29837,-1.54664 1.63412,-1.99491 0.0894,-0.49293 0.13401,-0.73939 0.42503,-0.9412 0.33576,-0.4483 0.62685,-0.65009 1.58947,-1.74846 1.54483,-1.50201 2.39491,-3.38441 2.59492,-5.89366 0.4018,-2.21814 1.09474,-4.63811 3.96116,-6.4098 1.41088,-0.76261 2.66459,-2.06279 3.87367,-3.1165 -0.94119,-0.42505 -1.63593,-0.80545 -1.63593,-0.80545 -0.4483,-0.33576 -2.06281,-2.66461 -2.06281,-2.66461 0,0 -0.24647,-0.0446 -0.78403,0.11246 -1.32159,0.26968 -4.65953,0.42867 -6.76695,-1.98948 -1.502,-1.54481 -3.76662,-4.50054 -5.94195,-7.94918 -1.72702,-3.112871 -3.40944,-6.472226 -3.56842,-9.810142 -0.29292,-2.59854 -1.1002,-3.762969 -2.0414,-4.188011 -1.63593,-0.805445 -3.83084,0.06967 -4.59345,-1.341207 -1.36806,-2.284207 0.17508,-6.586561 -4.26136,-7.390178 0,0 -0.24646,-0.04462 -0.73937,-0.133997 -0.98585,-0.178584 -2.80038,0.0022 -5.30963,-0.19813 -5.84719,-0.04107 -15.5252,-0.01247 -27.26422,0.152038 -0.49293,-0.08945 -1.27696,0.02258 -2.01632,-0.110709 -5.60074,0.0022 -11.9855,0.11973 -18.37025,0.235944 -5.35427,0.04838 -10.70853,0.09666 -16.30923,0.100204 -0.49293,-0.08913 -1.0305,0.06784 -1.52343,-0.02258 -9.43157,0.07343 -19.15424,0.34848 -28.83228,0.377187 -2.06098,0.13576 -4.0773,0.02505 -6.13828,0.160801 -6.87768,0.02677 -13.80001,0.300195 -20.43121,0.371704 -1.52341,-0.02258 -3.29327,-0.08741 -4.86133,0.137512 -9.43157,0.07343 -18.37025,0.235944 -26.27839,0.330698 -2.55391,0.04655 -4.861338,0.137502 -7.168779,0.228675 -10.215598,0.185852 -18.370224,0.235944 -24.015603,0.486047 -5.10781,0.09289 -7.908157,0.09472 -7.908157,0.09472 l 0.258791,-15.480575 c -3.650454,1.884226 -11.667514,6.795658 -12.451541,6.908195 -1.030497,0.06784 0.425053,-0.941204 -0.807251,-1.16445 -1.232315,-0.223171 -2.105634,0.382219 -2.619957,1.816351 -0.514345,1.434133 -1.051903,1.591278 -3.29148,2.712883 -1.993075,1.166246 -6.829365,5.381148 -12.564046,6.124147 -0.246469,-0.04462 -0.784027,0.112462 -1.321596,0.269703 -0.110709,2.016331 -0.108956,4.816679 0.0054,8.401086 0.0022,5.600727 -0.05881,12.971324 -0.255124,21.081314 0.02677,6.87766 -0.03559,14.24825 -0.187357,22.11176 -0.04462,0.24646 -0.133997,0.73939 0.06784,1.03049 -0.02,4.32377 -0.08386,8.89401 -0.148028,13.46424 0.06784,1.0305 -0.06612,1.76986 0.0022,2.80036 -0.02,4.32377 0.0054,8.40107 -0.260608,12.68022 -0.08741,3.29328 -0.174832,6.58656 -0.01505,9.9245 -0.06612,1.76986 -0.131997,3.53974 0.04838,5.35426 -0.153544,5.06314 -0.01505,9.92448 -0.03559,14.24825 -0.04279,3.04684 -0.08569,6.09366 -0.03903,8.64755 0.06784,1.03049 -0.110709,2.01635 -0.04279,3.04684 -0.174832,6.58656 -0.239202,11.1568 -0.05881,12.97132 -0.08945,0.4929 0.06784,1.03047 0.06784,1.03047 l 5.107799,-0.0929 21.663522,-0.14853 8.401074,-0.005 12.724857,0.0151 3.584375,-0.11422 22.694019,-0.21641 5.1078,-0.0929 20.633,-0.0806 1.76988,0.0661 10.70854,-0.0964 27.80179,-0.30931 11.73902,-0.16455 9.92448,0.0151 9.67803,-0.0285 9.67804,-0.0288 14.00181,-0.01 8.15461,-0.0501 13.26244,-0.14302 c 1.7234,-2.48783 4.36478,-5.82758 7.29908,-6.56878 0.53757,-0.15705 1.3216,-0.2697 1.8145,-0.18034 3.09147,-0.20363 6.74375,0.71252 9.11906,1.65192 0.67151,-0.89657 1.343,-1.79311 1.92522,-2.19674 1.54484,-1.50201 0.9412,0.42502 5.37568,-1.57171 0.82866,-0.35899 1.41088,-0.76262 2.03774,-1.4127 0.58222,-0.40363 0.91798,-0.8519 1.29837,-1.54663 1.38765,-2.03957 2.5735,-4.37026 4.16298,-6.11871 0.33572,-0.44827 0.91794,-0.8519 1.45551,-1.00908 0.58222,-0.40362 1.11979,-0.5608 1.70201,-0.96444 3.44863,-2.17529 6.56151,-3.90235 6.56151,-3.90235 0,0 0.24472,-2.75572 1.02867,-2.86823 0.78403,-0.11246 2.33066,1.18583 3.4951,0.37856 -0.42688,-1.85915 -1.48059,-3.06822 -3.38622,-5.19526 z"
   style="stroke-width:2.50472;fill:#373e48" />
</svg>
