<?xml version="1.0" encoding="UTF-8" standalone="no"?>
<!-- Generator: Adobe Illustrator 27.2.0, SVG Export Plug-In . SVG Version: 6.00 Build 0)  -->

<svg
   version="1.1"
   id="Layer_1"
   x="0px"
   y="0px"
   viewBox="0 0 321.1 321.1"
   style="enable-background:new 0 0 321.1 321.1;"
   xml:space="preserve"
   sodipodi:docname="rhode-island.svg"
   inkscape:version="1.2.2 (732a01da63, 2022-12-09, custom)"
   xmlns:inkscape="http://www.inkscape.org/namespaces/inkscape"
   xmlns:sodipodi="http://sodipodi.sourceforge.net/DTD/sodipodi-0.dtd"
   xmlns="http://www.w3.org/2000/svg"
   xmlns:svg="http://www.w3.org/2000/svg"><defs
   id="defs973" /><sodipodi:namedview
   id="namedview971"
   pagecolor="#505050"
   bordercolor="#ffffff"
   borderopacity="1"
   inkscape:showpageshadow="0"
   inkscape:pageopacity="0"
   inkscape:pagecheckerboard="1"
   inkscape:deskcolor="#505050"
   showgrid="false"
   inkscape:zoom="2.653379"
   inkscape:cx="160.55"
   inkscape:cy="160.55"
   inkscape:window-width="1920"
   inkscape:window-height="1031"
   inkscape:window-x="0"
   inkscape:window-y="25"
   inkscape:window-maximized="1"
   inkscape:current-layer="Layer_1" />
<style
   type="text/css"
   id="style966">
	.st0{fill:#FE8E69;}
</style>
<path
   class="st0"
   d="m 176.54857,196.28145 c -0.0936,-2.49227 -4.41327,-4.57745 -3.52776,-7.60535 0.88544,-3.02788 4.67031,-1.92099 5.33444,-4.19189 0.88543,-3.02789 -1.47832,-6.18429 -1.57118,-8.67656 0,0 0,0 0.22099,-0.75659 0.88552,-3.02788 0.57167,-4.76318 -1.69962,-5.4273 -2.27091,-0.66453 -4.54179,-1.32826 -3.34213,-2.62079 0.44276,-1.5139 3.69202,-1.38546 4.76318,0.57167 1.2926,1.19967 2.14246,3.91332 3.65636,4.35608 1.51391,0.44275 1.32819,-4.5418 1.99232,-6.8127 0.66453,-2.27089 0.12812,-3.24925 -0.27858,-7.47681 -0.62847,-3.47064 -1.921,-4.67031 2.08526,-4.32041 4.00617,0.34989 2.58505,2.39942 3.97052,6.09136 1.164,4.44893 2.67799,4.89168 3.4349,5.11306 0.75658,0.22099 1.95673,-1.07115 3.06354,-4.85603 0.44276,-1.5139 1.64251,-2.80651 2.39942,-2.58513 -0.31464,-1.73527 -0.0936,-2.49225 -3.12068,-3.37778 -5.29877,-1.54956 -5.83438,-2.52794 -5.35597,-9.78338 -0.0936,-2.49225 0.34989,-4.00617 0.25704,-6.49844 0.036,-5.74154 -1.12843,-10.19046 -1.12843,-10.19046 l -6.71984,0.49955 0.32836,-17.98151 -0.49955,-6.71984 -17.44591,0.65001 -41.39025,1.04299 c -0.16419,8.99072 -0.085,31.19978 -0.007,53.40886 0.18733,4.9845 0.15046,10.72607 0.33569,15.71062 0.0936,2.49226 0.18733,4.98451 0.27858,7.47683 -0.32836,17.98143 -0.3069,31.95677 -0.52828,32.71369 -0.44275,1.51398 -6.27707,-1.01395 -7.38395,2.77085 -0.66374,2.27088 -3.67041,15.36072 -4.90581,22.39478 l 0.75658,0.221 c 4.5418,1.32818 1.86381,-3.5635 7.60534,-3.52785 5.74154,0.0361 13.97527,-0.0215 17.13167,-2.38529 2.39941,-2.58513 11.20441,-7.40549 17.92432,-7.90537 6.71984,-0.49956 8.99072,0.16418 9.30495,1.89946 0.31385,1.73529 3.34205,2.62079 3.7848,1.10689 0.44276,-1.51399 -0.40749,-4.22762 1.77102,-6.05577 1.95666,-1.07115 3.37771,-3.12075 3.82045,-4.63465 0.22101,-0.75659 -2.8065,-1.64242 -1.38537,-3.69194 1.42104,-2.04959 2.71364,-0.84986 3.91331,-2.14246 1.19975,-1.29252 -0.72133,-5.96283 0.38517,-9.7477 0.8855,-3.02781 1.86379,-3.56342 1.77093,-6.05569 z m 40.42608,-20.2241 c -0.9427,-5.20592 -3.52783,-7.60534 -10.65475,-11.33301 -0.97829,0.53561 -1.42105,2.04951 -2.62079,3.34211 -2.08518,4.32041 -5.33436,4.19189 -7.41962,8.51231 -1.8638,3.5635 -9.9832,20.08823 -9.35474,23.5588 0.84986,2.71365 2.89937,4.13477 0.94271,5.20592 -1.95673,1.07123 -5.20592,0.94271 -5.11306,3.43498 0.0936,2.49225 -0.34989,4.00618 2.58514,2.39942 2.93494,-1.60677 6.71982,-0.49957 7.38395,-2.77086 0.66374,-2.27088 -0.62847,-3.47056 1.8638,-3.56341 2.49225,-0.0936 2.89937,4.13469 4.85602,3.06346 1.95666,-1.07115 -0.49955,-6.71984 1.36385,-10.28325 1.86388,-3.5635 4.04191,-5.39164 4.13478,-2.89936 0.62846,3.47056 -2.52794,5.83431 -0.92118,8.76934 1.60677,2.93503 1.16409,4.44893 0.72134,5.96291 -0.44276,1.51391 5.96282,-0.72133 8.36224,-3.30646 2.17803,-1.82814 1.10688,-3.78479 4.35615,-3.65627 v 0 c 0.38516,-9.74771 -0.61396,-23.18746 -0.48586,-26.43663 z m -33.89189,14.73959 c 0.66374,-2.27089 -1.03558,-7.69819 -1.921,-4.6703 0,0 -1.6425,2.8065 -2.21377,7.56967 -0.57089,4.76316 0.81419,8.45519 -0.38517,9.7477 -1.19966,1.29252 -3.06347,4.85602 -2.74923,6.59131 0.84978,2.71364 0.97829,-0.53562 3.3777,-3.12066 2.17804,-1.82823 4.57745,-4.41336 3.94906,-7.88392 0.88543,-3.02788 -0.72133,-5.96291 -0.0576,-8.2338 z m 3.17052,-22.08055 c -1.19974,1.2926 -4.48467,6.90555 -2.43507,8.32667 2.04951,1.42104 4.76318,0.57166 4.89169,-2.67799 -0.84985,-2.71365 -1.79256,-7.91958 -2.45662,-5.64868 z m 3.52776,7.60534 c 0,0 -4.04184,5.39163 -2.97069,7.34829 0.0936,2.49226 1.07123,1.95666 2.71366,-0.84977 1.64242,-2.8065 1.89946,-9.30504 0.25703,-6.49852 z m 9.69051,-7.84826 c 1.51399,0.44276 2.49226,-0.0936 2.84218,-4.09903 0.22099,-0.75659 0.22099,-0.75659 0.22099,-0.75659 v 0 c -2.80651,-1.6425 -4.09904,-2.84217 -4.63465,-3.82054 -0.97837,0.53562 -1.95666,1.07123 -1.64243,2.80651 0.84978,2.71365 1.69963,5.42731 3.21353,5.86998 z"
   id="path968"
   style="stroke-width:7.88672;fill:#373e48" />
</svg>
