<?xml version="1.0" encoding="UTF-8" standalone="no"?>
<!-- Generator: Adobe Illustrator 27.2.0, SVG Export Plug-In . SVG Version: 6.00 Build 0)  -->

<svg
   version="1.1"
   id="Layer_1"
   x="0px"
   y="0px"
   viewBox="0 0 321.1 321.1"
   style="enable-background:new 0 0 321.1 321.1;"
   xml:space="preserve"
   sodipodi:docname="south-carolina.svg"
   inkscape:version="1.2.2 (732a01da63, 2022-12-09, custom)"
   xmlns:inkscape="http://www.inkscape.org/namespaces/inkscape"
   xmlns:sodipodi="http://sodipodi.sourceforge.net/DTD/sodipodi-0.dtd"
   xmlns="http://www.w3.org/2000/svg"
   xmlns:svg="http://www.w3.org/2000/svg"><defs
   id="defs964" /><sodipodi:namedview
   id="namedview962"
   pagecolor="#505050"
   bordercolor="#ffffff"
   borderopacity="1"
   inkscape:showpageshadow="0"
   inkscape:pageopacity="0"
   inkscape:pagecheckerboard="1"
   inkscape:deskcolor="#505050"
   showgrid="false"
   inkscape:zoom="2.653379"
   inkscape:cx="160.55"
   inkscape:cy="164.69566"
   inkscape:window-width="1920"
   inkscape:window-height="1031"
   inkscape:window-x="0"
   inkscape:window-y="25"
   inkscape:window-maximized="1"
   inkscape:current-layer="Layer_1" />
<style
   type="text/css"
   id="style958">
	.st0{fill:#FE8E69;}
</style>
<path
   id="South_Carolina_2_"
   class="st0"
   d="m 275.6269,126.8605 -21.96082,-20.24699 -18.82984,-17.569555 -1.33705,-1.18252 -10.62937,-9.95047 -0.88019,-0.87009 c 0,0 -4.26981,0.16461 -10.2899,0.33944 -5.52962,0.24183 -12.77591,0.24877 -19.81055,0.53441 -4.26982,0.16461 -8.50607,0.0842 -12.00659,0.10421 -5.9865,-0.0705 -10.25632,0.0941 -10.71321,-0.21832 -1.61589,-0.97085 1.37393,-4.55875 0.80618,-5.88573 -0.17797,-0.52407 -1.38076,-2.68752 -2.8623,-4.63933 -1.02464,-1.63938 -2.29451,-3.31237 -3.1747,-4.18244 -0.4233,-0.55768 -0.88018,-0.87008 -1.12541,-0.90367 -1.01455,0.11089 -4.56205,4.12206 -5.50942,3.74245 -0.91377,-0.62483 -1.34717,-2.93274 0.11411,-4.48147 0.87009,-0.88017 0.97086,-1.6159 -0.71223,-2.09627 -0.98096,-0.13441 -2.20714,-0.30231 -4.16905,-0.57105 -1.22618,-0.16783 -4.72671,-0.14778 -9.45344,-0.2955 -0.7357,-0.10075 -1.50502,0.0438 -2.24072,-0.0572 -5.46244,-0.24854 -12.42989,-0.45337 -19.15212,-0.62461 -1.75025,0.01 -3.22169,-0.19134 -4.97196,-0.18144 -1.75025,0.01 -3.22168,-0.19134 -4.7267,-0.14778 -4.48148,-0.11411 -8.43889,-0.40639 -11.66058,-0.59783 -3.712176,-0.25864 -6.198156,-0.34931 -6.933856,-0.45008 0,0 0,0 -0.2453,-0.0337 -1.71666,-0.23515 -6.3224,2.38191 -10.68291,5.03255 -3.24517,1.80406 -6.49037,3.60812 -8.51946,3.82986 0,0 -0.2453,-0.0337 -0.2453,-0.0337 -1.53864,0.28894 -4.0918,0.68873 -6.71213,1.57901 -1.29336,0.32253 -2.86559,0.8567 -4.15895,1.17923 -1.81746,0.50058 -3.63488,1.00115 -5.20709,1.53532 -0.27884,0.21164 -0.52409,0.17797 -0.8029,0.38971 0.63493,0.83647 0.67862,2.34149 -1.27319,3.82303 -3.10072,2.57338 -8.36488,6.34942 -9.0468,9.50395 -0.10074,0.73571 0.0438,1.50502 0.39979,2.55316 0.38971,0.80288 0.813,1.36054 1.44794,2.19704 1.69319,2.23065 4.61257,4.62922 6.82981,6.68181 1.12541,0.90367 2.00559,1.77376 2.64055,2.61023 1.09183,1.14893 1.72676,1.9854 2.60695,2.855495 0.66853,0.59125 1.37066,0.93727 2.10637,1.03804 0.2453,0.0337 0.73573,0.10074 1.01454,-0.1109 2.27434,-0.18812 3.55761,-2.260955 5.60689,1.01784 1.65961,2.47588 3.50736,7.22607 4.99899,10.92816 0.56776,1.32695 1.13551,2.65393 1.52522,3.45681 0.21164,0.27884 0.38971,0.80291 0.60135,1.08175 1.23628,1.9182 3.78617,7.01441 5.73469,11.0289 0.60134,1.08175 0.99105,1.88464 1.38076,2.68754 0.3561,1.04814 1.02465,1.63938 1.20269,2.16345 1.23628,1.91822 4.95857,3.92712 6.67523,4.16224 1.71668,0.23515 7.41095,4.26304 8.72453,7.44103 0.356116,1.04814 0.957466,2.12986 1.558816,3.21158 1.20271,2.16348 2.86229,4.63936 4.44459,5.85544 0.21164,0.27881 0.70214,0.34602 0.91378,0.62483 0.70214,0.34602 1.82755,1.2497 3.13101,2.67742 0.21164,0.27884 0.66855,0.59127 0.88019,0.87009 3.06383,3.16789 6.20497,7.59558 6.28225,8.85538 0.18812,2.27432 -1.02794,3.85662 1.82426,6.7457 0,0 0.2453,0.0337 0.21163,0.27884 1.09183,1.1489 3.16463,2.43219 5.23741,3.71545 2.49608,1.84094 5.48263,3.74904 7.48823,5.5228 0.66852,0.59125 1.33707,1.1825 1.76035,1.74015 0.4233,0.55766 1.09185,1.14893 1.48153,1.95182 2.71784,3.87003 4.74364,9.14429 6.10091,13.82733 0.32253,1.29336 0.61144,2.83198 0.68872,4.09177 0.23194,3.77934 0.074,6.7558 1.13225,8.14995 0,0 0.21163,0.27884 0.21163,0.27884 0.88019,0.87007 2.98656,1.9081 5.09295,2.94616 2.7749,1.62928 5.51622,3.50379 5.88244,6.3022 0.33261,3.04363 0.11758,8.26082 0.77281,12.59784 0.4334,2.30793 0.90039,4.37061 1.95862,5.76476 2.36172,2.82188 8.67075,4.18573 11.82525,4.86765 0.0671,-0.49048 0.37961,-0.94736 0.69204,-1.40425 0.31241,-0.45689 0.59125,-0.66853 0.62484,-0.91378 0.37961,-0.94734 0.13441,-0.98095 0.62483,-0.91375 0.76932,-0.14456 1.1926,0.41317 1.75028,-0.01 0.55765,-0.4233 6.13425,-4.65626 6.61463,-6.33933 0.48038,-1.68309 -0.22179,-2.02909 0.82637,-2.38521 0.80291,-0.38971 9.43324,-3.20502 10.02448,-3.87355 0.62484,-0.91377 2.46578,-3.40985 1.50832,-5.53971 -0.99106,-1.88463 -1.44794,-2.19706 -1.90483,-2.50947 -0.45689,-0.31243 -0.77939,-1.60579 -0.4334,-2.30793 0.0337,-0.2453 0.0337,-0.2453 0.31243,-0.45689 0.8365,-0.63493 0.80288,-0.38971 1.71666,0.23515 0.91378,0.62484 1.43784,0.44679 2.48598,0.0906 0.52407,-0.17797 0.76932,-0.14456 0.98095,0.13441 0.21164,0.27884 0.45689,0.31243 0.91378,0.62483 0,0 0.2453,0.0337 0.27884,-0.21163 0.80288,-0.38971 2.54306,-2.15006 4.24962,-3.66521 1.1489,-1.09182 2.26424,-1.93839 3.03354,-2.08287 1.81745,-0.50058 7.75014,-3.68538 8.73109,-3.55102 0.98096,0.13441 1.57223,-0.53417 1.70659,-1.51512 0.13441,-0.98096 3.1444,-1.06834 3.87003,-2.71784 0.72561,-1.64948 0.15792,-2.97646 1.06153,-4.10187 0.90365,-1.12541 5.44221,-3.25201 5.99986,-3.67528 0.55769,-0.4233 0.26875,-1.96191 1.62931,-2.77492 1.36054,-0.81301 3.87001,-2.71784 5.19699,-3.28559 1.32697,-0.56776 1.18249,-1.33705 1.28326,-2.07278 -0.14456,-0.76929 -2.20714,-0.30231 -2.10637,-1.03804 0.13441,-0.98095 1.10521,-2.59684 2.22055,-3.44344 0.83648,-0.63493 1.21608,-1.5823 2.23063,-1.69317 0.98096,0.13441 1.20269,2.16345 1.97201,2.01899 1.01454,-0.11089 1.67297,-1.26989 2.65393,-1.13553 0.98095,0.1344 3.39975,0.71553 3.92382,0.53745 0.52406,-0.17797 0.54756,-2.17354 1.02793,-3.85661 0.4132,-1.19262 1.03804,-2.1064 1.84095,-2.49608 0.27881,-0.21164 0.27881,-0.21164 0.52406,-0.17797 1.04814,-0.35612 4.91817,-3.07394 5.1533,-4.7906 0.23515,-1.71668 -0.67862,-2.34152 -0.54427,-3.32247 0.16808,-1.22621 0.89685,-8.37171 2.49257,-10.90138 0.97083,-1.61589 3.53738,-5.76147 5.75793,-9.20491 1.5621,-2.28442 3.09062,-4.32361 3.64827,-4.74691 1.67297,-1.26989 6.63812,-8.33483 11.87882,-10.1154 2.09627,-0.71221 4.22613,-1.66968 6.35599,-2.62714 z"
   style="stroke-width:2.47528;fill:#373e48" />
</svg>
