<?xml version="1.0" encoding="UTF-8" standalone="no"?>
<!-- Generator: Adobe Illustrator 27.2.0, SVG Export Plug-In . SVG Version: 6.00 Build 0)  -->

<svg
   version="1.1"
   id="Layer_1"
   x="0px"
   y="0px"
   viewBox="0 0 321.1 321.1"
   style="enable-background:new 0 0 321.1 321.1;"
   xml:space="preserve"
   sodipodi:docname="south-dakota.svg"
   inkscape:version="1.2.2 (732a01da63, 2022-12-09, custom)"
   xmlns:inkscape="http://www.inkscape.org/namespaces/inkscape"
   xmlns:sodipodi="http://sodipodi.sourceforge.net/DTD/sodipodi-0.dtd"
   xmlns="http://www.w3.org/2000/svg"
   xmlns:svg="http://www.w3.org/2000/svg"><defs
   id="defs956" /><sodipodi:namedview
   id="namedview954"
   pagecolor="#505050"
   bordercolor="#ffffff"
   borderopacity="1"
   inkscape:showpageshadow="0"
   inkscape:pageopacity="0"
   inkscape:pagecheckerboard="1"
   inkscape:deskcolor="#505050"
   showgrid="false"
   inkscape:zoom="2.653379"
   inkscape:cx="160.55"
   inkscape:cy="190.70024"
   inkscape:window-width="1920"
   inkscape:window-height="1031"
   inkscape:window-x="0"
   inkscape:window-y="25"
   inkscape:window-maximized="1"
   inkscape:current-layer="Layer_1" />
<style
   type="text/css"
   id="style950">
	.st0{fill:#FE8E69;}
</style>
<path
   id="South_Dakota_00000117678293333135920260000005216202005305390977_"
   class="st0"
   d="m 292.40909,125.67066 c -0.0163,-0.40608 -0.0339,-0.81217 -0.0425,-1.01521 -0.0593,-1.4213 -0.356,-3.64629 -0.47499,-6.48892 -0.40701,-4.86456 -0.8735,-11.15041 -1.44956,-15.1943 -0.25404,-1.20976 -0.28804,-2.02194 -0.52506,-2.82562 -0.008,-0.203016 -0.22854,-0.600619 -0.23704,-0.803658 -1.1682,-3.612309 -5.56718,-1.800993 -7.04798,-3.162823 -1.26924,-1.167265 -3.26662,-5.151673 -4.59535,-7.740231 -0.22854,-0.600663 -0.44859,-0.998226 -0.66864,-1.395829 -0.89716,-1.996452 -0.0933,-2.23349 1.68294,-3.528216 1.7849,-1.091728 6.19995,-7.378496 7.1047,-10.060577 0.36358,-1.032225 0.32958,-1.844381 0.101,-2.445003 -6.48892,0.47497 -14.40764,0.806405 -23.55311,0.985809 -7.72417,0.119901 -16.25203,0.476819 -25.20296,0.44469 -0.20302,0.0081 -0.4061,0.01626 -0.81217,0.03394 -7.92722,0.128436 -16.26903,0.07072 -24.80538,0.224662 -3.05414,-0.07621 -5.89677,0.04349 -8.95093,-0.03211 -8.13875,-0.06625 -16.47206,0.07926 -24.81387,0.02154 -1.82739,0.07641 -3.46024,-0.05873 -5.28765,0.01829 -7.12353,-0.10852 -14.23856,-0.01422 -21.56514,-0.114414 -17.49579,-0.08129 -34.79702,-0.374151 -50.66844,-0.523459 -11.599011,-0.124778 -22.385843,-0.283413 -32.157459,-0.484623 -0.812176,0.03394 -1.421293,0.05934 -2.038945,-0.118071 C 50.317601,71.122716 37.50032,71.048987 30.165251,70.74578 v 0 l -0.126607,1.835906 -1.296819,32.191434 -0.539249,11.41296 v 0 l -0.960569,20.78699 -0.859486,18.34195 -0.101204,2.44502 -0.640352,13.858 -0.715951,16.91212 -0.135142,1.63287 -0.892571,22.41132 c 4.483968,0.21918 11.616017,0.53076 19.966321,0.79141 5.499162,0.1768 11.615996,0.53077 17.927355,0.67336 2.445023,0.101 4.890045,0.2022 7.132029,0.31178 8.350304,0.26106 17.11518,0.70749 25.465481,0.96815 10.998393,0.35346 21.184583,0.74048 29.534883,1.00113 8.95944,0.23519 15.47386,0.36927 17.70735,0.27587 3.04564,-0.12742 10.16068,-0.2219 19.10313,-0.39278 7.31807,-0.10284 15.65137,-0.2483 23.78162,-0.38519 3.6633,0.0502 7.31808,-0.10283 10.77834,-0.0443 12.60573,-0.12092 23.17253,-0.35971 25.61753,-0.25864 0.4061,-0.0163 0.60914,-0.0254 0.60914,-0.0254 0,0 4.28184,5.10916 6.76086,6.0224 0.20302,-0.008 0.20302,-0.008 0.4146,0.18595 2.46203,0.50714 4.29792,0.6337 5.77871,1.99554 0,0 0,0 0,0 1.26926,1.16726 2.9871,3.33275 5.42363,3.23077 2.43652,-0.10201 4.55103,-3.03808 4.53404,-3.44416 -0.0163,-0.4061 -0.0851,-2.03045 1.3363,-2.08993 1.42132,-0.0593 1.48931,1.56487 2.30998,1.73391 1.02371,0.16054 0.3466,-1.4383 1.34483,-1.8869 0.99822,-0.44857 0.6941,2.00495 1.91237,1.95396 0.8122,-0.0339 0.7867,-0.64311 0.97272,-1.05771 0.19449,-0.21155 0.38062,-0.62612 0.98976,-0.65163 1.4043,-0.46556 0.86316,1.18428 2.08991,1.33633 1.02373,0.16054 0.98121,-0.85467 1.97944,-1.30326 0.19448,-0.21154 0.3976,-0.22003 0.4061,-0.0163 0.41459,0.18595 0.24553,1.00674 1.46381,0.95573 1.41281,-0.26254 1.15877,-1.4723 2.97766,-1.75183 1.8189,-0.27953 3.73977,1.87748 4.54345,1.64044 0.80368,-0.23703 0.86319,1.18426 0.88867,1.7934 0.008,0.20301 0.83768,0.57513 1.86989,0.93874 1.44679,0.54963 3.29119,0.87924 4.73799,1.42887 0.61765,0.17741 1.43832,0.3466 1.85292,0.53265 1.44677,0.54965 4.12885,1.45437 6.20178,2.38464 1.45531,0.75267 2.69907,1.3108 2.91912,1.70841 0.44007,0.79516 -0.7527,1.45529 0.7366,3.02014 1.27775,1.37034 1.32874,2.5886 2.58101,3.34978 0.21154,0.19449 0.62613,0.3806 1.24374,0.55815 1.23527,0.35509 3.27421,0.47314 4.91555,0.81124 -0.22854,-0.60062 -0.46558,-1.4043 -0.70262,-2.20796 -0.7026,-2.20801 -1.39672,-4.21295 -2.03986,-4.99962 -1.26924,-1.16727 -2.63956,0.11055 -2.2004,-3.97592 0.12661,-1.83588 1.20037,-5.33861 2.07961,-8.62983 0.87074,-3.49424 1.95302,-6.79393 2.29112,-8.43527 -0.008,-0.20302 0.17741,-0.61763 0.16908,-0.82067 0.11807,-2.03895 -0.60156,-4.65303 -1.45623,-5.63427 -0.84617,-0.77817 -3.06265,-0.27859 -3.74826,-2.0805 -0.008,-0.20302 -0.008,-0.20302 -0.22005,-0.3976 -0.29654,-2.22498 0.49865,-2.66506 1.31932,-2.496 0.82067,0.16909 1.16726,-1.26926 0.92173,-2.276 -0.24553,-1.0067 -3.35917,-2.50359 -3.44416,-4.53402 -0.0163,-0.40608 -0.0425,-1.01521 0.15201,-1.22677 -0.0425,-1.01521 -0.0593,-1.42131 -0.0593,-1.42131 0,0 1.82739,-0.0764 5.07609,-0.21245 -0.15302,-3.6548 -0.19631,-9.55157 -0.47684,-16.25201 -0.22096,-5.27916 -0.26437,-11.17592 -0.50232,-16.86118 -0.24647,-5.88827 -0.28988,-11.78505 -0.49383,-16.65809 -0.0679,-1.62436 -0.12742,-3.04567 -0.18696,-4.46698 1.42889,-4.73802 1.29291,-7.98672 1.22492,-9.61107 z"
   style="fill:#373e48;stroke-width:2.03222" />
</svg>
