<?xml version="1.0" encoding="UTF-8" standalone="no"?>
<!-- Generator: Adobe Illustrator 27.2.0, SVG Export Plug-In . SVG Version: 6.00 Build 0)  -->

<svg
   version="1.1"
   id="Layer_1"
   x="0px"
   y="0px"
   viewBox="0 0 321.1 321.1"
   style="enable-background:new 0 0 321.1 321.1;"
   xml:space="preserve"
   sodipodi:docname="tennessee.svg"
   inkscape:version="1.2.2 (732a01da63, 2022-12-09, custom)"
   xmlns:inkscape="http://www.inkscape.org/namespaces/inkscape"
   xmlns:sodipodi="http://sodipodi.sourceforge.net/DTD/sodipodi-0.dtd"
   xmlns="http://www.w3.org/2000/svg"
   xmlns:svg="http://www.w3.org/2000/svg"><defs
   id="defs1132" /><sodipodi:namedview
   id="namedview1130"
   pagecolor="#505050"
   bordercolor="#ffffff"
   borderopacity="1"
   inkscape:showpageshadow="0"
   inkscape:pageopacity="0"
   inkscape:pagecheckerboard="1"
   inkscape:deskcolor="#505050"
   showgrid="false"
   inkscape:zoom="2.653379"
   inkscape:cx="160.55"
   inkscape:cy="130.39977"
   inkscape:window-width="1920"
   inkscape:window-height="1031"
   inkscape:window-x="0"
   inkscape:window-y="25"
   inkscape:window-maximized="1"
   inkscape:current-layer="Layer_1" />
<style
   type="text/css"
   id="style1126">
	.st0{fill:#FE8E69;}
</style>
<path
   id="Tennessee_2_"
   class="st0"
   d="m 310.73767,122.11444 -1.0756,0.0844 -5.52393,0.0525 -3.91823,0.0142 -0.53825,2.08961 c 0,0 -2.50463,0.13764 -6.61495,0.31353 -1.0756,0.0844 -2.13581,-0.009 -3.21143,0.0763 -0.5301,-0.0463 -1.07561,0.0844 -1.78241,0.0227 -3.3881,0.0607 -7.14505,0.26733 -11.25537,0.44314 -2.50462,0.13764 -5.18593,0.26006 -7.67514,0.22111 -1.42902,0.0536 -3.03474,0.0915 -4.64042,0.12966 -5.53937,0.22927 -11.25539,0.44312 -16.60262,0.51111 -2.50462,0.13764 -4.81713,0.11423 -7.14505,0.26733 -3.21142,0.0761 -6.24613,0.16762 -8.92746,0.28999 -0.53011,-0.0463 -1.07561,0.0844 -1.6057,0.0381 -4.11033,0.17578 -6.96835,0.28277 -8.20525,0.17489 -0.17666,-0.016 -0.35341,-0.0309 -0.35341,-0.0309 -0.35339,-0.0309 -0.8835,-0.0772 -1.42901,0.0536 -3.91821,0.0142 -10.32566,-0.0106 -16.55639,-0.019 -3.01931,-0.0851 -6.05402,0.007 -8.54325,-0.0324 -3.54942,-0.13126 -6.21532,-0.18575 -7.27553,-0.27818 -0.17666,-0.016 -0.53011,-0.0463 -1.06022,-0.0926 v 0 c -3.19601,-0.10057 -11.06326,0.28184 -18.03161,0.56457 v 0 c -2.32792,0.15307 -4.46371,0.14491 -6.24613,0.16761 -2.31253,-0.0236 -4.09493,-9.4e-4 -4.97843,-0.0779 -0.7068,-0.0617 -1.59031,-0.13853 -2.4892,-0.039 -2.31253,-0.0236 -5.15514,-0.0933 -7.48306,0.0598 -1.78242,0.0227 -3.22682,0.25281 -3.94904,0.3679 -0.36879,0.1458 -0.7222,0.11494 -1.0756,0.0844 -2.15122,0.1685 -5.30102,-0.46212 -6.52252,-0.74666 -0.3534,-0.0309 -0.53009,-0.0463 -0.53009,-0.0463 l -9.81097,0.21295 -1.78242,0.0227 -7.32174,0.25194 -10.35647,0.34346 -1.7824,0.0227 -5.539343,0.22927 c 0,0 0.31533,-1.57489 -0.376061,-1.8132 -0.69141,-0.23832 -6.007816,-0.52375 -6.891318,-0.60078 0,0 -0.176661,-0.016 -0.176661,-0.016 -0.576313,0.48388 0.36792,3.94902 1.419977,6.17727 0.921548,1.68272 -0.169389,1.94371 -0.876265,1.88209 -0.353411,-0.0309 -0.53009,-0.0463 -0.53009,-0.0463 l -14.036382,-0.33345 -1.236913,-0.10767 -9.411331,-0.28631 -1.60572,0.0381 -16.87898,-0.40319 -2.13581,-0.009 c -0.238334,0.69141 -0.461236,1.2061 -0.684137,1.7208 -0.699569,1.89749 -1.667339,0.74485 -1.605721,0.0381 0.06172,-0.70681 0.438567,-2.9885 -0.498394,-4.49454 -0.760265,-1.49064 -1.928305,-0.34616 -2.77376,1.18253 -0.860816,1.70538 1.167153,2.95046 1.02852,4.54075 -0.138527,1.59032 1.820463,1.58305 0.928802,3.64184 -0.430408,0.8527 -0.960516,0.80649 -0.960516,0.80649 -0.337998,-0.2075 -0.645186,-0.76842 -1.367405,-0.65333 -1.106404,0.43768 -0.28452,1.22149 0.890756,2.03613 1.175313,0.81463 0.506554,2.35873 -0.984071,3.119 -1.667321,0.74487 -2.542674,-1.46798 -3.134394,-0.80739 -0.576313,0.4839 -0.123219,1.41362 1.005838,2.75834 0.16123,0.19211 0.499299,0.39962 0.645186,0.76841 1.805068,1.75977 1.997178,1.59848 0.283634,2.87342 -1.71354,1.27498 -1.636519,0.39148 -1.74435,1.62839 -0.107823,1.2369 -0.783823,0.82187 -1.514182,3.07279 0,0 -0.01543,0.17666 -0.01543,0.17666 -0.315338,1.57491 1.067457,2.05154 1.920151,2.48197 0.337998,0.20751 0.514695,0.2229 0.499299,0.3996 0.130368,0.5455 -1.16804,1.14448 -2.35873,0.50655 -1.190692,-0.63793 -1.959112,0.007 -2.182025,0.52197 -0.222914,0.51468 0.791076,1.13721 1.835875,1.40634 1.044799,0.26914 0.168555,2.15122 -0.937866,2.5889 -1.106418,0.43768 -1.2215,-0.28454 -1.813219,0.37605 -0.576315,0.48388 -1.15263,0.96778 -2.643258,1.72805 -1.490625,0.76026 -1.574901,-0.31535 -2.327916,0.15307 -0.753015,0.46849 -0.39236,2.45841 0.237421,3.40353 0.614376,1.12182 1.874837,-1.08286 2.036132,-0.89075 0.337996,0.2075 0.06887,1.25229 -0.553657,2.2663 -0.799228,0.99858 -2.404939,1.03662 -2.612447,1.37464 -0.192107,0.16123 0.291784,0.7376 0.744863,1.66732 0.145888,0.36881 0.468484,0.75303 0.598972,1.29853 0.568165,1.65193 -1.168034,1.14449 -1.667326,0.74487 -0.514698,-0.22292 -0.906163,-1.85945 -1.835877,-1.40635 -0.753015,0.46847 -0.361554,2.105 -0.261873,3.00391 0.130491,0.54551 -0.138634,1.59029 -0.392362,2.45838 -0.222915,0.51471 -0.607125,0.8373 -0.960524,0.80649 -0.883503,-0.0772 -1.635623,-3.70345 -2.050641,-3.02747 -0.207509,0.33801 -0.253721,0.86812 -0.138633,1.59032 0.08427,1.07561 0.299037,2.69673 0.590821,3.43433 0.245572,1.2677 -0.991333,1.15988 -2.113154,1.77425 -1.121822,0.61438 1.482475,1.37555 2.673167,2.01348 1.013991,0.62254 -0.553656,2.2663 -0.59987,2.79641 -0.06162,0.70679 1.497879,1.19883 1.612962,1.92103 0.115096,0.72222 -0.684144,1.72082 -1.936453,1.78968 -1.252309,0.069 -2.204684,-1.26045 -2.811806,-0.42318 -0.607125,0.8373 -0.937868,2.58889 -1.706286,3.2341 -0.753016,0.46847 -2.604297,-0.76117 -2.888828,0.46031 -0.01543,0.17666 -0.06162,0.70682 -0.09243,1.06021 5.155127,0.0933 11.900558,0.3253 20.075001,0.50377 0.883504,0.0772 1.959112,-0.007 3.019315,0.0853 3.196007,0.10057 6.584144,0.0397 10.133565,0.17116 1.782417,-0.0227 3.549403,0.13143 5.33182,0.10873 2.135811,0.009 4.271622,0.016 6.584129,0.0397 2.135828,0.009 4.094925,9.4e-4 6.230735,0.009 0.530109,0.0463 0.88352,0.0772 1.429024,-0.0536 4.625015,0.0472 9.426744,0.10962 14.228474,0.17205 0.176661,0.016 0.353394,0.0309 0.53009,0.0463 1.605703,-0.0381 3.196028,0.10057 4.80173,0.0626 2.665919,0.0545 5.508535,0.12416 8.189849,0.002 4.271622,0.016 8.719937,0.0479 13.168277,0.0796 4.44832,0.0317 8.89664,0.0633 13.52167,0.1105 4.44832,0.0317 8.89663,0.0633 13.16826,0.0796 0.5301,0.0463 0.88352,0.0772 1.42902,-0.0536 5.70063,-0.0371 11.40127,-0.0743 17.0865,0.0653 5.17054,-0.0834 10.14897,-0.005 15.31949,-0.0889 3.03471,-0.0915 6.05404,-0.007 9.08875,-0.0979 1.78241,-0.0227 3.56483,-0.0454 5.17053,-0.0834 1.07561,-0.0844 1.95912,-0.007 3.03473,-0.0915 1.25231,-0.069 2.4892,0.039 3.56481,-0.0454 3.38812,-0.0607 6.59955,-0.13693 9.98767,-0.19755 1.7824,-0.0227 3.74153,-0.03 5.52393,-0.0525 0.35339,0.0309 0.7068,0.0617 1.25231,-0.069 1.95911,-0.007 3.74153,-0.03 5.53934,-0.22927 3.3881,-0.0607 6.79163,-0.29813 10.17975,-0.35886 0.0697,-2.84261 0.54732,-8.32032 1.03934,-9.87982 0.016,-0.17666 0.20753,-0.33801 0.22292,-0.51471 0.97593,-0.98318 1.96728,-2.14307 4.08767,-1.95821 2.12042,0.18486 3.3419,0.46938 4.18736,-1.05931 0.016,-0.17666 0.20752,-0.338 0.23831,-0.69141 0.69955,-1.89748 1.56855,-5.73869 2.22189,-7.10608 0.016,-0.17666 0.20751,-0.338 0.20751,-0.338 0.19211,-0.16123 0.39961,-0.49928 0.94512,-0.62977 2.08235,-1.42086 7.24561,-3.46334 8.17534,-3.91642 0.17666,0.016 0.3688,-0.1458 0.7222,-0.11493 1.62111,-0.21476 4.97842,0.0779 5.89274,-0.19846 1.10642,-0.43768 8.07565,-4.81534 8.15269,-5.69884 0.0617,-0.7068 -0.45308,-0.92972 -0.069,-1.25231 0.19209,-0.16123 0.19209,-0.16123 0.56092,-0.30719 1.29853,-0.59896 7.90619,-2.87163 8.46711,-3.17882 0.17666,0.016 0.20751,-0.33798 0.41503,-0.67599 0.47661,-1.38281 1.13812,-4.886 1.74524,-5.72328 0,0 0,0 0,0 0.99133,-1.15988 8.12186,-5.34543 8.87489,-5.81392 0.38421,-0.3226 0.8989,-0.0997 1.02939,0.44583 0.1458,0.3688 0.27638,0.91431 0.21476,1.62111 -0.13852,1.59029 -0.24645,2.8272 0.84455,2.56624 1.09101,-0.26099 1.69813,-1.09828 2.43575,-1.39006 0.19209,-0.16123 0.5455,-0.13036 0.73759,-0.29179 0.36883,-0.1458 0.59175,-0.66058 1.21427,-1.67456 0.83004,-1.35201 1.24505,-2.028 2.19017,-2.65778 0.19211,-0.16123 0.38421,-0.32258 0.5609,-0.30718 1.49063,-0.76027 3.2812,-2.91873 4.72562,-3.14892 0,0 0.17666,0.016 0.17666,0.016 1.25231,-0.069 4.23267,2.50551 5.53119,1.90653 0.17666,0.016 0.19211,-0.16123 0.3842,-0.32259 0.63793,-1.19069 2.50552,-4.23265 3.39718,-6.29145 0.41502,-0.67599 0.63794,-1.19071 0.66873,-1.5441 0.016,-0.17666 0.0309,-0.35341 0.20752,-0.33798 0.65333,-1.3674 2.04427,-3.02658 3.13528,-3.28755 1.26774,-0.24559 1.29037,1.53683 2.2201,1.08375 0.19211,-0.16123 0.44584,-1.02939 0.73036,-2.25089 0.40777,-2.63511 0.92337,-6.50711 1.59209,-8.05121 -0.7222,0.11493 -1.07561,0.0844 -1.07561,0.0844 z"
   style="stroke-width:1.77371;fill:#373e48" />
</svg>
