<?xml version="1.0" encoding="UTF-8" standalone="no"?>
<!-- Generator: Adobe Illustrator 27.2.0, SVG Export Plug-In . SVG Version: 6.00 Build 0)  -->

<svg
   version="1.1"
   id="Layer_1"
   x="0px"
   y="0px"
   viewBox="0 0 321.1 321.1"
   style="enable-background:new 0 0 321.1 321.1;"
   xml:space="preserve"
   sodipodi:docname="texas.svg"
   inkscape:version="1.2.2 (732a01da63, 2022-12-09, custom)"
   xmlns:inkscape="http://www.inkscape.org/namespaces/inkscape"
   xmlns:sodipodi="http://sodipodi.sourceforge.net/DTD/sodipodi-0.dtd"
   xmlns="http://www.w3.org/2000/svg"
   xmlns:svg="http://www.w3.org/2000/svg"><defs
   id="defs1124" /><sodipodi:namedview
   id="namedview1122"
   pagecolor="#505050"
   bordercolor="#ffffff"
   borderopacity="1"
   inkscape:showpageshadow="0"
   inkscape:pageopacity="0"
   inkscape:pagecheckerboard="1"
   inkscape:deskcolor="#505050"
   showgrid="false"
   inkscape:zoom="2.653379"
   inkscape:cx="160.55"
   inkscape:cy="160.55"
   inkscape:window-width="1920"
   inkscape:window-height="1031"
   inkscape:window-x="0"
   inkscape:window-y="25"
   inkscape:window-maximized="1"
   inkscape:current-layer="Layer_1" />
<style
   type="text/css"
   id="style1117">
	.st0{fill:#FE8E69;}
</style>
<path
   class="st0"
   d="m 310.46097,163.08545 c -0.25294,-1.80721 -0.47063,-6.12872 -0.58413,-6.12 0,0 -0.11348,0.009 -0.11348,0.009 -0.21827,0.13093 -0.7596,0.51499 -1.01274,0.19194 0,0 0,0 -0.009,-0.11349 -0.27929,-0.66354 -0.6368,-3.83267 -1.43979,-5.36931 -0.80298,-1.53663 -3.70989,-3.71085 -4.82721,-4.88086 -0.1222,-0.10483 -0.13092,-0.21828 -0.25313,-0.32306 -0.75941,-0.96916 -0.9858,-5.40417 -1.41345,-6.51297 -0.009,-0.11349 -0.13092,-0.21828 -0.13963,-0.33178 -0.64592,-0.97787 -2.23465,-2.34 -2.98535,-3.19566 -0.24441,-0.20956 -0.37534,-0.42784 -0.38406,-0.54134 -0.288,-0.77703 -0.88994,-4.15572 -1.10802,-5.50895 -0.0174,-0.22699 -0.0262,-0.34048 -0.0348,-0.45398 -0.0174,-0.22699 -0.15688,-2.0429 -0.47954,-4.75807 -0.17431,-2.26989 -0.50569,-5.09855 -0.741,-8.16291 -0.13074,-1.70242 -0.38368,-3.50963 -0.52312,-5.32554 -0.0958,-1.24844 -0.30523,-2.48816 -0.40981,-3.8501 -0.30524,-2.48818 -0.48826,-4.87156 -0.75863,-6.90576 -0.41853,-3.9636 -0.75862,-6.905748 -0.92442,-7.57801 -0.009,-0.113488 -0.009,-0.113488 -0.009,-0.113488 -0.41021,-0.88181 -3.81506,-0.620356 -4.48731,-0.454564 -0.67225,0.16578 -1.72005,1.387882 -2.3923,1.553674 -0.67226,0.16578 -2.9681,-1.484546 -2.9681,-1.484546 l -0.0784,-1.021444 c -1.50158,-0.227191 -4.17296,-0.821196 -6.38166,-1.336579 -1.51901,-0.454178 -2.80232,-0.812284 -3.15151,-0.899636 -0.70712,-0.288192 -4.21635,-2.872815 -6.49476,-4.29615 -0.60234,-0.410403 -1.08247,-0.716026 -1.43166,-0.803375 -1.64994,-0.672448 -0.71603,1.082461 -0.7598,1.999134 0.0348,0.453982 -0.29691,0.593616 -1.09138,0.654628 -0.79446,0.06101 -1.92941,0.14816 -3.40484,0.261465 -2.83737,0.21788 -2.0952,-0.524102 -2.25226,-1.082857 -0.1658,-0.672253 -1.78106,0.593427 -3.20421,1.387691 -0.76831,0.401498 -1.64141,0.925202 -2.54065,1.108409 -0.227,0.01742 -0.55876,0.157073 -0.78575,0.174512 v 0 c -0.45398,0.03483 -0.90796,0.06978 -1.37066,-0.0091 -1.72856,-0.209752 -4.42629,0.339894 -5.65731,0.662758 -1.231,0.322853 -0.43674,1.745999 -0.72493,2.453105 -0.28819,0.707117 -2.855,1.475041 -3.78038,1.317775 -0.9254,-0.157266 -0.89905,-1.300929 -1.60617,-1.589121 -0.69839,-0.174693 -1.58021,0.235512 -2.86351,-0.122593 -1.28331,-0.358118 -0.82042,-1.763632 -1.41404,-2.060543 -0.59362,-0.2969 -0.51518,0.724555 -2.07796,1.187053 -1.56278,0.462499 -3.38741,0.488452 -3.82376,-0.733855 -0.43637,-1.222295 -1.09099,-2.313664 -1.74581,-1.920886 0,0 0,0 -0.11349,0.0091 v 0 c -0.63738,0.619765 -1.78144,3.561719 -2.05221,4.495822 -0.27075,0.934104 -0.86457,2.121339 -1.94703,1.405321 -1.09118,-0.829528 -1.31797,-2.296237 -0.81151,-3.13428 0.50647,-0.838043 -0.59342,-1.781058 -1.48394,-1.484341 -0.89925,0.183208 -1.17872,1.003824 -1.9209,1.745795 -0.86438,0.637203 -1.50177,1.256967 -2.57552,0.654437 -0.71583,-0.401691 -0.91648,-1.527926 -1.07355,-2.086678 -0.0174,-0.226987 -0.13964,-0.331766 -0.25313,-0.323058 -0.22699,0.01742 -0.89053,0.296718 -1.5715,0.349011 -0.11349,0.0091 -0.34049,0.02618 -0.4627,-0.07866 -0.69839,-0.174705 -1.94664,-1.562985 -2.61889,-1.397194 -0.66355,0.27928 -0.71603,1.082457 -2.3313,2.348144 -1.50178,1.256956 -1.9819,0.951336 -3.0295,0.689291 -0.23571,-0.09607 -0.35791,-0.200851 -0.47141,-0.192132 -0.36663,-0.314339 -0.288,-0.777031 -0.10461,-1.361941 0.27948,-0.820604 0.21847,-1.615073 -0.57599,-1.554061 -0.78575,0.1745 -1.23101,0.322853 -2.30476,-0.279677 -0.2357,-0.09607 -0.48884,-0.419119 -0.73326,-0.628678 -0.51499,-0.759597 -0.82913,-1.877115 -1.30925,-2.182738 -0.48884,-0.419118 -3.85863,-1.187827 -5.08093,-0.751474 -0.21827,0.130926 -0.32305,0.253137 -0.54132,0.384061 -0.74218,0.741976 -0.96936,2.243553 -1.90347,1.972794 -1.16109,-0.253331 -1.80681,-2.715355 -2.70605,-2.532139 v 0 c -0.89924,0.183218 -0.95173,0.986398 -2.66286,1.003632 -1.71115,0.01723 -3.72771,-0.969551 -5.03716,-1.668147 0,0 -0.12221,-0.104779 -0.12221,-0.104779 -1.30945,-0.698595 -2.2699,0.174307 -4.33895,-0.0093 -2.06905,-0.183609 -1.40531,-1.947039 -1.48375,-2.968492 -0.0348,-0.453979 -0.41893,-0.995308 -0.80299,-1.536635 -0.50627,-0.646108 -1.23082,-1.16129 -1.58873,-1.362133 -0.71584,-0.401687 -1.03017,-0.03506 -1.21359,0.549847 -0.0699,0.57619 -1.15257,1.344312 -1.99932,0.724351 -0.24443,-0.209559 -0.48013,-0.305624 -0.72455,-0.515182 0,0 0.11349,-0.0088 0.12221,0.10478 -0.11349,0.0088 -0.12221,-0.10478 -0.23571,-0.09606 0,0 0,0 0,0 v 0 c -0.70711,-0.288192 -1.39679,-0.349394 -2.06033,-0.07011 -0.87309,0.523702 -0.96045,0.872901 -2.20889,0.96877 -1.24844,0.09587 -2.93304,-2.514707 -3.33454,-3.283025 -0.27056,-0.550043 -2.13006,-0.978072 -3.16894,-1.126623 v 0 c -0.46269,-0.07863 -0.6984,-0.174698 -0.6984,-0.174698 l -0.32227,-5.683456 -0.3308,-7.281098 -0.24383,-4.662003 -0.34842,-6.02394 -0.34842,-6.02394 -0.36584,-6.250929 -0.28741,-5.229477 -0.58334,-12.056595 -0.56748,0.04357 -10.60731,0.129556 -8.43348,0.190956 -2.84608,0.104393 -11.73354,0.330206 -9.46364,0.155899 -2.73259,0.09567 -19.154276,0.329229 0.03324,12.32716 -0.01024,8.791393 -0.02652,2.627811 0.03335,12.327162 0.03403,6.390571 -0.01821,5.709602 0.0068,11.986678 0.01571,13.584324 0.03404,6.390563 0.05168,5.13341 0.01582,12.10018 0.02459,12.21366 -0.01901,11.6462 0.03472,1.93813 -6.399292,-0.0795 -8.686609,-0.13209 -6.51278,-0.0707 -0.916675,-0.0438 -18.848657,-0.1509 -1.824633,0.0259 -24.90746,-0.25645 -8.686612,-0.1321 -7.2024651,-0.13191 1.9460606,6.01543 c 0.8031793,0.0525 1.2658735,0.13112 1.2658735,0.13112 0.8293247,0.39297 0.174502,0.78575 0.7506916,0.85566 0.5761896,0.0699 2.1389704,-0.39258 2.4008214,0.0439 0.261851,0.43655 0.07844,1.02146 0.200648,1.12624 0.12221,0.10483 0.462694,0.0786 0.715831,0.40168 0.24442,0.20956 1.265483,3.09941 1.291628,3.4399 0.02615,0.34048 1.18724,0.59382 1.492669,1.59784 0.191932,1.01273 1.45761,2.62801 1.911589,2.59314 0.462695,0.0787 0.785749,-0.1745 1.0476,0.26205 0.261851,0.43655 0.628481,0.75088 1.43166,0.80337 0.453979,-0.0348 0.811894,0.16599 1.161094,0.25334 0.235705,0.0961 0.357915,0.20084 0.584905,0.18341 0.57619,0.0699 0.663343,1.20487 1.021257,1.40571 0.47141,0.19213 1.0476,0.26204 1.422945,0.68988 0.261851,0.43655 1.239337,2.75893 1.832957,3.05584 0.59362,0.2969 0.357916,0.20084 0.94282,0.38425 0.584905,0.18342 0.733261,0.62868 0.864186,0.84696 0.130926,0.21827 0.366631,0.31434 1.195956,0.70731 0.829325,0.39297 1.283109,1.84225 1.815527,2.82884 0.532416,0.98659 4.102852,2.88154 4.242493,3.2133 0.139641,0.33178 -0.506467,0.83805 -0.131121,1.26588 0.36663,0.31434 2.182352,1.65904 2.749825,1.61546 0.567475,-0.0436 0.532614,-0.49755 1.004023,-0.30542 0.3492,0.0873 3.334732,1.79887 3.631444,2.6894 0.401492,0.76832 0.968965,0.72475 1.545155,0.79466 0.576189,0.0699 0.497555,0.53262 0.785553,1.30965 0.0088,0.11349 0.130925,0.21827 0.139641,0.33177 0.12221,0.10483 0.12221,0.10483 0.24442,0.20956 0.235704,0.0961 0.462694,0.0787 0.829325,0.39297 0.619766,0.63739 1.344116,2.63672 1.387693,3.20419 0.04357,0.56748 0.191737,2.49688 0.331377,2.82866 0.139641,0.33177 1.841868,1.68518 1.868014,2.02567 0.03487,0.45398 1.038688,1.6327 1.527529,2.05182 0.375346,0.42783 0.732871,3.59697 0.662952,4.17316 -0.06991,0.57619 -0.375541,1.05631 -0.34068,1.5103 0.03487,0.45397 0.191737,2.49688 0.462304,3.04692 0.157072,0.55876 3.203414,4.54891 3.369201,5.22116 0.165787,0.67225 -0.07883,1.94684 0.287802,2.26117 0.366631,0.31434 3.902009,3.23945 4.486914,3.42286 0.584904,0.18342 1.239727,-0.20936 2.330904,0.62017 1.091175,0.82951 1.274393,1.72876 1.44018,2.40101 0.157071,0.55876 3.910724,3.35295 4.495629,3.53636 0.584905,0.18341 3.247578,0.66393 4.068186,0.9434 0.113499,-0.009 0.122211,0.10484 0.235706,0.0961 0.602335,0.41041 0.541133,1.10008 0.907763,1.41442 0.375345,0.42784 0.968966,0.72474 2.226124,0.74237 1.361937,-0.10461 2.994441,0.34087 3.352357,0.54171 0.244421,0.20956 2.775773,3.44011 3.133696,3.64095 0.357913,0.20084 0.532606,-0.49756 0.995298,-0.41893 0.567483,-0.0436 0.995115,1.06524 1.483954,1.48436 0.488849,0.4191 1.030174,0.0351 1.728572,0.20975 0.698397,0.17469 1.065029,0.48903 1.850779,0.31453 0.78575,-0.1745 0.716029,-1.08247 0.873295,-2.00785 0.04371,-0.91668 1.501768,-1.25697 1.6939,-1.72838 0.183413,-0.5849 0.08754,-1.83334 0.655018,-1.87691 0.567471,-0.0436 1.711133,-0.0173 1.903265,-0.48865 0.07866,-0.4627 0.71603,-1.08247 1.03927,-2.81975 0.323251,-1.73728 0.856062,-3.71898 1.240314,-4.6618 0.392972,-0.82933 1.537032,-3.77128 2.148271,-4.73153 0.61125,-0.96025 1.100282,-2.02528 1.528119,-2.40063 0.541325,-0.38406 3.745536,-1.77175 4.199506,-1.80661 0.34048,-0.0262 1.64122,0.55895 1.9817,0.53281 0.34049,-0.0262 0.48903,-1.06503 0.79467,-1.54516 0.30562,-0.48012 0.73345,-0.85547 1.2922,-1.01255 0.11349,-0.009 0.34049,-0.0262 0.5762,0.0699 1.29202,0.47162 4.39104,2.17443 5.41249,2.09599 1.24844,-0.0958 2.68901,-0.66315 3.83268,-0.6368 0.91667,0.0438 2.65395,0.36702 3.80633,0.50686 0.23571,0.0961 0.4627,0.0787 0.6984,0.17469 1.1611,0.25333 2.98573,0.22738 3.19529,-0.0171 0.32305,-0.25314 0.68117,-1.53644 1.12643,-1.6848 0.44527,-0.14835 0.32286,1.23102 0.79427,1.42314 0.46269,0.0787 1.10008,-0.54113 1.33579,-0.44507 0.23571,0.0961 -0.16599,0.81189 0.18322,0.89924 0.34919,0.0873 0.78575,-0.1745 1.03888,0.14855 0.24442,0.20956 0.4625,1.56279 1.05612,1.85969 0.59362,0.29691 1.73728,0.32325 1.77214,0.77724 0.14836,0.44526 -0.8731,0.52369 0.1745,0.78574 1.15239,0.13984 1.36194,-0.10461 1.50158,0.22719 0.13964,0.33176 -0.55024,1.75472 -0.0614,2.17382 0.48884,0.41912 0.68096,-0.0522 1.29202,0.47162 0.48884,0.41912 0.1745,0.78574 0.76812,1.08265 0.59363,0.29691 0.89925,-0.18322 1.49286,0.11371 0.59362,0.29692 0.18322,0.89924 0.81171,1.65014 0.63719,0.86438 5.32495,3.92933 5.94471,4.56671 0.12221,0.10484 0.37535,0.42784 0.62849,0.75089 0.75941,0.96916 2.03379,2.69792 2.42657,3.35275 0,0 0,0 0,0 0.41892,0.99531 0.87251,3.92874 1.36136,4.34785 0.48884,0.41912 1.84187,1.6852 2.3917,2.89877 0.65463,1.09138 0.69802,3.143 1.22172,4.01609 0.5237,0.8731 1.44038,0.91687 1.47523,1.37086 0.0348,0.45398 0.18322,0.89923 0.64591,0.97788 0.5762,0.0699 0.0784,1.02144 0.3403,1.458 0.37535,0.42782 1.51901,0.45416 1.66736,0.89943 0.0348,0.45398 -0.85585,2.23484 -0.46309,2.88966 0.27929,0.66354 1.09119,0.82953 1.25697,1.50178 0.16579,0.67225 -0.25333,1.16109 0.13945,1.81591 0.26184,0.43655 1.01253,1.29222 1.8593,1.91218 0.35791,0.20084 0.72454,0.51518 1.19595,0.70731 1.53644,0.68116 2.24356,0.96936 2.6189,1.39719 0.26185,0.43655 0.96025,0.61124 1.37917,1.60655 0.41893,0.99531 0.14816,1.92941 0.50607,2.13027 0.35793,0.20084 1.02146,-0.0784 1.38809,0.23589 0.36663,0.31434 -0.0263,1.14367 0.22679,1.46671 0.37535,0.42784 0.45399,-0.0348 0.72455,0.51519 0.15707,0.55876 -0.17489,2.18255 0.55837,2.81122 0.72455,0.51518 0.72455,0.51518 1.42295,0.68989 0.58491,0.18341 1.02997,1.51919 1.6323,1.9296 0.48884,0.41912 1.81572,1.3447 3.07288,1.36233 1.37065,0.009 1.95556,0.19233 2.47055,0.95193 0.40149,0.76831 0.27037,2.03419 0.65443,2.57552 0.38406,0.54132 0.59362,0.29691 0.84675,0.61995 0.25314,0.32306 0.0959,1.24845 0.0172,1.71115 -0.0786,0.46269 -0.92578,2.81103 -0.533,3.46584 0.26185,0.43656 0.96025,0.61125 1.31817,0.81209 0.12221,0.10472 0.35791,0.20085 0.36663,0.31434 0.26184,0.43656 0.74159,3.71047 0.66295,4.17316 -0.19213,0.47141 -0.84695,0.86419 -0.82081,1.20468 0.0262,0.34048 -0.0263,1.14366 0.76812,1.08266 0.79447,-0.061 1.76344,0.66372 1.89437,0.882 0.0174,0.22699 -0.50647,0.83804 -0.48033,1.17853 0.0174,0.22698 1.03889,0.14855 2.05143,1.44077 1.01254,1.2922 2.0948,3.49238 2.40023,4.4964 0.288,0.77704 0.4536,2.93344 0.88123,4.04223 0.13964,0.33178 0.27057,0.55005 0.39278,0.65483 0.73326,0.62868 1.64122,0.55896 1.77214,0.77723 0.13093,0.21827 -0.45417,1.51901 -0.0789,1.94684 0.37534,0.42784 0.86418,0.84696 1.66735,0.89945 0.80319,0.0525 5.38656,0.27134 5.8754,0.69046 0.48884,0.41912 2.72348,2.75912 3.76236,2.90768 0.9254,0.15727 1.23974,-0.20937 1.92942,-0.14816 0,0 0.11348,-0.009 0.22698,-0.0174 0.80319,0.0525 3.492,0.87349 3.74515,1.19655 0.25313,0.32305 0.87289,0.96044 1.94664,1.56298 1.07374,0.60253 1.93793,1.44948 2.63633,1.62417 0.6984,0.1747 2.84608,-0.10438 3.78891,0.27988 0.82932,0.39297 1.52772,0.56766 1.85077,0.31453 0.32306,-0.25313 0.6374,-0.61977 1.77234,-0.70693 0.45399,-0.0348 1.47543,-0.11325 2.61909,-0.087 1.71115,-0.0172 3.77149,0.0528 4.13812,0.36721 0.73325,0.62868 2.12986,2.46222 3.79723,3.36167 1.65865,0.78594 3.29115,1.2314 3.40465,1.22268 0.11348,-0.009 -0.43636,-1.2223 -0.11326,-1.47543 0.32305,-0.25313 1.16129,-1.23082 1.84226,-1.28311 0.68097,-0.0523 2.61038,-0.20046 2.70644,-0.43616 0.0873,-0.34919 0.0263,-1.14366 -0.44507,-1.33578 -0.59362,-0.29692 -3.51795,-2.69813 -3.59638,-3.71958 -0.0784,-1.02146 -1.11693,-4.1383 -0.95095,-4.95019 0.0873,-0.34921 0.0612,-0.68969 -0.0698,-0.90796 -0.13093,-0.21828 -0.36662,-0.31434 -0.83804,-0.50647 -0.9341,-0.27077 -1.85058,-1.79868 -1.90287,-2.47965 -0.0523,-0.68097 0.91667,0.0438 1.3445,-0.33157 0.32306,-0.25315 -0.0693,-3.87627 -0.21769,-4.32152 -0.44506,-1.33579 -0.38386,-2.02548 -0.64572,-2.46203 -0.26185,-0.43654 -1.97298,-0.41931 -2.14748,-1.20506 -0.18322,-0.89925 0.19213,-0.47141 -0.008,-1.59765 -0.0872,-1.13494 -0.72435,-1.99932 -0.77663,-2.68029 -0.0522,-0.68097 -0.19194,-1.01274 0.37553,-1.05631 0.56747,-0.0436 1.62379,0.33196 1.71115,-0.0172 0.0873,-0.34919 -1.09099,-2.31366 -0.77665,-2.6803 0.30562,-0.48012 1.59764,-0.008 1.79849,-0.36643 0.20084,-0.35792 0.26243,-4.01589 0.245,-4.24289 -0.13092,-0.21826 -0.9341,-0.27075 -1.14366,-0.0263 -0.20956,0.24442 -0.61997,0.84676 -1.30093,0.89905 -0.68097,0.0523 -2.61038,0.20046 -2.88966,-0.46309 -0.009,-0.11348 -0.0174,-0.22698 -0.0174,-0.22698 v 0 c 0.0961,-0.23571 0.55876,-0.15708 1.01273,-0.19194 0.56749,-0.0436 1.37066,0.009 2.15641,-0.16559 0.78574,-0.1745 1.99933,-0.72435 2.3923,-1.55367 0.39297,-0.82933 1.20525,-3.63165 1.44115,-5.01973 0.0787,-0.4627 0.26205,-1.04759 0.44546,-1.6325 0.36683,-1.16981 0.96065,-2.35705 1.048,-2.70625 0.0787,-0.4627 -0.19194,-1.01274 -0.76813,-1.08265 -0.47141,-0.19214 -2.33089,-0.62017 -2.42677,-1.86861 -0.20936,-1.23972 0.55025,-1.75472 1.31856,-2.1562 0.66354,-0.27928 0.53261,-0.49756 0.86438,-0.63721 0,0 0.11349,-0.009 0.11349,-0.009 0.45397,-0.0348 1.20466,0.8208 1.88563,0.76851 0.227,-0.0174 0.96916,-0.75941 1.70262,-1.61488 0.83824,-0.97768 1.65033,-2.29585 1.83374,-2.88074 0.25333,-1.16111 0.0353,-2.51433 0.44565,-3.11666 0.41041,-0.60234 0.84696,-0.86419 1.43185,-0.68078 0.5762,0.0699 1.02146,-0.0784 1.55408,-0.57599 0.53261,-0.49755 2.59315,-1.91159 2.67178,-2.37429 0.0786,-0.46269 -0.38407,-0.54132 -0.31415,-1.11751 0.0787,-0.46269 0.16599,-0.8119 0.25333,-1.16109 -0.009,-0.11349 -0.0174,-0.227 -0.0348,-0.45399 -0.0174,-0.22698 -0.061,-0.79446 -0.0959,-1.24844 -0.0262,-0.34048 0.0787,-0.46269 0.19214,-0.47141 0.35791,0.20084 1.28311,1.84226 2.18235,1.65905 0.89925,-0.18322 6.7053,-3.36901 6.55694,-3.81427 -0.14835,-0.44527 -3.77108,-3.02118 -4.12027,-3.10852 -0.34921,-0.0873 -1.25717,-0.0177 -1.39681,-0.3494 -0.0174,-0.22699 -1.06484,-1.97319 -1.23062,-2.64544 0,0 0,0 0,0 0,0 0,0 0,0 l 0.30562,-0.48012 c 0.55877,-0.15708 1.3445,-0.33158 1.46672,-0.2268 0,0 0.009,0.11349 0.13964,0.33177 0.0262,0.34049 0.18322,0.89924 0.43635,1.2223 0.48885,0.41911 1.5101,1.82482 1.9728,1.90345 0.57618,0.0699 3.64946,-1.53604 3.8503,-1.89396 0.10484,-0.12221 0.30562,-0.48012 0.50647,-0.83804 0.20956,-0.24442 0.53261,-0.49755 0.75088,-0.62848 0.55877,-0.15707 1.44058,-0.56727 1.67628,-0.47121 0.12221,0.10483 0.13034,4.67072 -0.0705,5.02863 -0.20085,0.35791 -3.76315,3.02891 -3.85922,3.26461 -0.0961,0.23571 -0.0525,0.80318 0.061,0.79447 0.11349,-0.009 3.52745,-3.12498 3.96399,-3.38683 0.43656,-0.26185 5.32594,-3.49141 6.44346,-3.80555 1.11752,-0.31415 4.36548,-2.61851 4.79332,-2.99386 0.20956,-0.24442 2.59315,-1.91159 4.33062,-3.07249 l 7.1676,-0.32207 0.56747,-0.0436 -0.33098,-5.79696 c 0.4104,-0.60233 1.0478,-1.2221 1.68518,-1.84186 1.05652,-1.10861 2.00824,-2.095 2.4448,-2.35685 0.75088,-0.62849 5.88489,-5.13263 6.33014,-5.28099 0.33178,-0.13964 -0.59362,-0.2969 -1.17852,-0.48032 -0.57619,-0.0699 -6.0495,-4.44452 -5.9883,-5.1342 -0.009,-0.11348 -0.009,-0.11348 0.0961,-0.2357 0.17471,-0.6984 0.88202,-1.89435 1.49327,-2.8546 0,0 0.10472,-0.12222 0.10472,-0.12222 0.61124,-0.96025 3.69342,-3.93687 4.1474,-3.97173 0.45398,-0.0348 1.48396,1.48434 1.53625,2.16531 0.061,0.79447 -0.5853,2.78488 -0.77743,3.25629 -0.0786,0.46271 1.16109,0.25334 2.41825,0.27096 0.80318,0.0525 1.60637,0.10495 2.07777,0.29711 0.3492,0.0873 0.48013,0.30561 0.48885,0.41911 0.0348,0.45399 -2.58424,0.54094 -3.60589,2.10353 -0.89944,1.66736 -2.11301,2.21722 -2.07816,2.67119 0.0348,0.45398 0.73326,0.62868 1.1611,0.25334 0.42783,-0.37536 0.16597,-0.8119 0.90815,-1.55388 0.74218,-0.74197 2.3923,-1.55368 2.94234,-1.82424 0.54134,-0.38407 3.93765,-2.24317 4.59248,-2.63595 v 0 l 0.11348,-0.009 c 0.65483,-0.39278 6.79266,-3.71821 7.46491,-3.88399 0.67225,-0.1658 4.19931,-0.32248 4.62714,-0.69782 0.11349,-0.009 0.10473,-0.12221 0.20956,-0.24443 -1.34432,-1.15257 -3.29968,-2.82903 -3.10755,-3.30044 0.40169,-0.71584 1.9296,-1.63232 1.99081,-2.322 0.0787,-0.46269 0.0612,-0.68969 0.25333,-1.16109 0.0961,-0.2357 0.19213,-0.47141 0.50647,-0.83804 0.40169,-0.71584 1.04779,-1.2221 1.39719,-2.61891 0.0787,-0.46269 0.25333,-1.16109 0.19233,-1.95556 0.0263,-1.14366 -0.1656,-2.1564 -0.35753,-3.16913 -0.36644,-1.79849 -0.94243,-3.35255 -1.00344,-4.14702 -0.009,-0.11349 -0.0174,-0.22698 -0.0174,-0.22698 0.0351,-1.03018 1.03037,-1.44909 0.96937,-2.24356 -0.17452,-0.78575 -1.22211,-1.0478 -1.49268,-1.59784 -0.14835,-0.44527 0.88201,-1.89435 2.43647,-5.43865 0.68988,-1.42294 0.95192,-2.47054 1.10919,-3.39592 -1.02126,-1.40572 -1.30926,-2.18275 -1.39641,-3.3177 z"
   id="path1119"
   style="stroke-width:1.13829;fill:#373e48" />
</svg>
