<?xml version="1.0" encoding="UTF-8" standalone="no"?>
<!-- Generator: Adobe Illustrator 27.2.0, SVG Export Plug-In . SVG Version: 6.00 Build 0)  -->

<svg
   version="1.1"
   id="Layer_1"
   x="0px"
   y="0px"
   viewBox="0 0 321.1 321.1"
   style="enable-background:new 0 0 321.1 321.1;"
   xml:space="preserve"
   sodipodi:docname="utah.svg"
   inkscape:version="1.2.2 (732a01da63, 2022-12-09, custom)"
   xmlns:inkscape="http://www.inkscape.org/namespaces/inkscape"
   xmlns:sodipodi="http://sodipodi.sourceforge.net/DTD/sodipodi-0.dtd"
   xmlns="http://www.w3.org/2000/svg"
   xmlns:svg="http://www.w3.org/2000/svg"><defs
   id="defs1115" /><sodipodi:namedview
   id="namedview1113"
   pagecolor="#505050"
   bordercolor="#ffffff"
   borderopacity="1"
   inkscape:showpageshadow="0"
   inkscape:pageopacity="0"
   inkscape:pagecheckerboard="1"
   inkscape:deskcolor="#505050"
   showgrid="false"
   inkscape:zoom="2.653379"
   inkscape:cx="160.55"
   inkscape:cy="160.55"
   inkscape:window-width="1920"
   inkscape:window-height="1031"
   inkscape:window-x="0"
   inkscape:window-y="25"
   inkscape:window-maximized="1"
   inkscape:current-layer="Layer_1" />
<style
   type="text/css"
   id="style1109">
	.st0{fill:#FE8E69;}
</style>
<path
   id="Utah_2_"
   class="st0"
   d="m 221.20786,69.3586 c -0.7086,0.112578 -1.45476,-0.01143 -1.92717,0.06429 -25.83725,0.476358 -43.02086,0.545191 -43.02086,0.545191 l 0.0706,-14.784028 -0.0581,-18.638434 0.0603,-23.985158 c -5.54537,0.155452 -12.30931,0.262359 -20.0932,0.04715 -7.27393,-0.054 -15.72885,0.07958 -25.20373,-0.108864 -0.70863,0.112722 -1.45479,-0.01143 -2.16341,0.101864 C 118.17875,12.36382 106.30428,12.314845 92.663682,11.820215 79.533054,11.486666 64.910079,10.906102 48.83233,10.314724 48.423662,22.972936 47.762265,43.17885 46.993275,67.276687 46.562964,82.844463 45.96077,100.37702 45.235054,118.65573 c -0.07,4.12815 -0.376237,8.29385 -0.446256,12.422 -0.327848,7.0753 -0.419482,14.113 -0.747331,21.18829 -0.51626,16.55015 -0.99496,33.33654 -1.54878,49.65048 -0.134436,2.20096 -0.268644,4.40191 -0.12915,6.80153 -0.177468,8.02008 -0.591408,16.07776 -0.806535,23.86165 -0.397867,11.20342 -0.672212,21.66067 -0.984146,31.88172 -0.28516,11.91204 -0.720601,22.87928 -1.070079,32.86411 11.713412,0.55895 29.482136,1.12359 51.615225,1.72068 5.582939,0.0809 11.439658,0.36029 17.494978,0.36601 16.5126,0.28004 35.22616,0.69441 55.35693,0.88341 8.2563,0.13987 16.7488,0.24249 25.43995,0.0713 11.16587,0.16168 22.76658,0.0114 34.64105,0.061 14.03786,-0.0529 28.54815,-0.18105 43.53084,-0.38411 l -0.42798,-27.05581 -0.49797,-22.92764 -0.24076,-15.21887 -0.39608,-20.76426 -0.92596,-49.98346 -0.0216,-7.74631 -0.17124,-8.69117 -0.65847,-33.07356 -0.47636,-25.837217 -0.44447,-19.545689 c -15.29403,-0.231757 -29.53052,0.09501 -42.11363,0.15881 z"
   style="stroke-width:2.39172;fill:#373e48" />
</svg>
