<?xml version="1.0" encoding="UTF-8" standalone="no"?>
<!-- Generator: Adobe Illustrator 27.2.0, SVG Export Plug-In . SVG Version: 6.00 Build 0)  -->

<svg
   version="1.1"
   id="Layer_1"
   x="0px"
   y="0px"
   viewBox="0 0 321.1 321.1"
   style="enable-background:new 0 0 321.1 321.1;"
   xml:space="preserve"
   sodipodi:docname="vermont.svg"
   inkscape:version="1.2.2 (732a01da63, 2022-12-09, custom)"
   xmlns:inkscape="http://www.inkscape.org/namespaces/inkscape"
   xmlns:sodipodi="http://sodipodi.sourceforge.net/DTD/sodipodi-0.dtd"
   xmlns="http://www.w3.org/2000/svg"
   xmlns:svg="http://www.w3.org/2000/svg"><defs
   id="defs1107" /><sodipodi:namedview
   id="namedview1105"
   pagecolor="#505050"
   bordercolor="#ffffff"
   borderopacity="1"
   inkscape:showpageshadow="0"
   inkscape:pageopacity="0"
   inkscape:pagecheckerboard="1"
   inkscape:deskcolor="#505050"
   showgrid="false"
   inkscape:zoom="2.653379"
   inkscape:cx="160.55"
   inkscape:cy="160.55"
   inkscape:window-width="1920"
   inkscape:window-height="1031"
   inkscape:window-x="0"
   inkscape:window-y="25"
   inkscape:window-maximized="1"
   inkscape:current-layer="Layer_1" />
<style
   type="text/css"
   id="style1101">
	.st0{fill:#FE8E69;}
</style>
<path
   id="Vermont_00000135657493270602646050000017109343622931256457_"
   class="st0"
   d="m 217.69914,100.63742 c -0.78519,-2.649786 -5.28022,-8.989518 -5.22137,-10.736414 -0.0197,-1.413238 7.14425,-12.405199 6.96756,-13.151088 -0.25527,-0.412158 -2.49294,-5.868734 -3.86701,-9.009173 -3.98449,0.471199 -12.28715,1.335101 -19.84397,2.022303 -9.30372,0.62836 -18.60742,1.256763 -20.27582,0.864261 -4.00418,-0.94204 -8.57752,-0.961534 -12.07135,-1.07919 -0.33361,-0.07828 -2.49275,0.117845 -5.31918,0.157161 -8.14568,0.196553 -24.10336,0.668109 -37.90191,0.943316 -3.16013,-0.03915 -6.39878,0.255361 -9.55892,0.216203 0.68705,1.570242 1.80594,4.298494 1.8256,5.711732 0.11784,2.492785 -2.02156,4.102332 -2.90475,6.359618 -0.96173,2.590945 2.3751,3.375949 3.14065,4.612489 0.43185,1.158054 -1.02054,4.337841 -2.43358,10.34412 -1.17754,5.005182 -0.21572,8.400822 1.06021,10.461762 0.25525,0.41219 0.58888,0.49069 0.51039,0.82434 1.68805,1.80574 2.5911,6.94828 2.12009,8.95037 -0.471,2.00209 -2.41408,5.77073 -1.96258,8.34201 0.35336,1.49175 0.29455,3.23865 -0.1765,5.24073 -0.314,1.33471 -0.7065,3.00311 -1.60938,3.84715 -1.8842,2.02174 -3.10093,10.18711 -3.88594,13.5239 -0.78504,3.33682 1.70811,15.19214 2.67,18.58778 0.25526,0.41216 0.0982,1.07955 0.27485,1.82539 0.27485,1.82539 0.216,3.57233 0.15716,5.31923 -0.0604,1.74682 -0.37274,3.08164 -0.94201,4.00415 -0.96172,2.59093 -2.57108,6.4381 -2.11958,9.00939 0.45155,2.57126 2.49279,-0.11784 3.29749,-2.04143 0.47099,-2.0021 2.39459,-1.1974 3.31713,-0.6282 0.92251,0.56919 0.43185,1.15804 1.70771,3.21895 1.2759,2.06093 2.41428,0.21573 2.92464,1.04022 0.25526,0.41216 0.1377,9.89256 -0.0386,21.11983 -0.25487,11.56101 -0.56847,24.86886 -1.05905,31.44432 -0.21573,2.41425 -0.52984,3.749 -0.68684,4.41634 -1.37389,2.84614 -1.25603,5.33889 -1.49155,6.33994 -0.15698,0.66735 1.04038,3.06194 1.72741,4.63218 l 15.467,0.11728 6.32023,0.0783 28.02898,0.60763 c -2.88544,-4.20033 -6.61497,-9.30355 -7.12531,-10.12791 -0.68701,-1.57023 1.86459,-3.43499 1.74673,-5.92777 -0.11784,-2.49274 0.8047,-1.92355 2.86558,-3.19945 1.98245,-0.94219 2.21794,-1.94325 1.68791,-4.18084 -0.53002,-2.23758 -0.19653,-2.15909 1.00088,-5.75107 0.628,-2.66944 0.37273,-3.08164 0.27449,-4.16119 -0.25526,-0.41219 -0.0983,-1.07955 -0.35335,-1.49173 -0.35335,-1.49172 0.45141,-3.4153 0.92235,-5.41739 0.314,-1.3347 1.04023,-2.9246 1.09903,-4.67154 0.52985,-3.74898 -0.74604,-5.80987 -0.8442,-6.88942 -0.0983,-1.07955 1.03984,-14.89779 1.25569,-17.31204 0.21573,-2.41429 2.06088,-1.2759 3.12078,-2.7873 0.0783,-0.33359 0.49066,-0.58888 0.56916,-0.92254 0.54953,-2.33578 0.49057,-6.57542 1.47188,-7.75316 0.98138,-1.1777 3.86664,-2.96395 5.08352,-5.14273 0.0786,-0.33359 0.5692,-0.92251 0.6477,-1.2562 1.0402,-2.92464 0.1766,-5.24073 0.39232,-7.65499 0.21574,-2.41428 3.04229,-2.45362 4.41618,-5.29972 1.37385,-2.84614 -0.11785,-2.49279 -0.5497,-3.65084 -0.0983,-1.07954 1.43269,-4.59302 2.90474,-6.35958 1.13839,-1.8451 0.60835,-4.08269 1.07939,-6.08477 0.0783,-0.3336 0.23533,-1.00106 -0.0197,-1.41319 -0.0197,-1.41325 -0.7067,-2.98349 -0.5105,-6.81098 0.43182,-4.82852 0.74565,-6.16324 3.21874,-7.69432 1.64874,-1.02071 5.12288,-2.31625 7.92967,-3.76884 1.57024,-0.68702 3.14044,-1.37405 3.63113,-1.96291 0.4907,-0.58888 1.57023,-0.68704 2.72829,-1.1189 0.74584,-0.17658 1.57023,-0.68704 2.39459,-1.19738 2.96379,-2.11995 6.88927,-6.83079 7.28176,-8.49922 0.39268,-1.6684 -0.687,-1.57021 -0.373,-2.90494 1.72725,-1.35439 4.76953,-3.808 3.90579,-6.12409 z"
   style="stroke-width:3.4279;fill:#373e48" />
</svg>
