<?xml version="1.0" encoding="UTF-8" standalone="no"?>
<!-- Generator: Adobe Illustrator 27.2.0, SVG Export Plug-In . SVG Version: 6.00 Build 0)  -->

<svg
   version="1.1"
   id="Layer_1"
   x="0px"
   y="0px"
   viewBox="0 0 321.1 321.1"
   style="enable-background:new 0 0 321.1 321.1;"
   xml:space="preserve"
   sodipodi:docname="virginia.svg"
   inkscape:version="1.2.2 (732a01da63, 2022-12-09, custom)"
   xmlns:inkscape="http://www.inkscape.org/namespaces/inkscape"
   xmlns:sodipodi="http://sodipodi.sourceforge.net/DTD/sodipodi-0.dtd"
   xmlns="http://www.w3.org/2000/svg"
   xmlns:svg="http://www.w3.org/2000/svg"><defs
   id="defs1099" /><sodipodi:namedview
   id="namedview1097"
   pagecolor="#505050"
   bordercolor="#ffffff"
   borderopacity="1"
   inkscape:showpageshadow="0"
   inkscape:pageopacity="0"
   inkscape:pagecheckerboard="1"
   inkscape:deskcolor="#505050"
   showgrid="false"
   inkscape:zoom="2.653379"
   inkscape:cx="160.55"
   inkscape:cy="160.55"
   inkscape:window-width="1920"
   inkscape:window-height="1031"
   inkscape:window-x="0"
   inkscape:window-y="25"
   inkscape:window-maximized="1"
   inkscape:current-layer="Layer_1" />
<style
   type="text/css"
   id="style1092">
	.st0{fill:#FE8E69;}
</style>
<path
   class="st0"
   d="m 275.97146,213.86122 c 0.51198,1.13818 1.27977,3.89821 1.67781,5.71924 -0.34141,-0.0569 -0.5406,0.0853 -0.88203,0.0284 -0.14209,-1.25194 -0.45485,-2.53236 -0.68235,-3.27215 -0.56876,-1.84952 -0.73963,-0.82526 -0.73963,-0.82526 -0.0855,0.51214 -0.17082,1.02427 -0.51214,-0.0855 -0.36974,-0.939 -0.0851,-1.59336 -0.19886,-1.96326 -0.1137,-0.36991 -0.3699,0.1137 -0.93916,1.42248 -0.54078,1.13801 0.11319,3.52813 -6.6e-4,4.21098 -0.0284,0.17065 -0.0855,0.51213 -0.11388,0.68285 -0.17065,-0.0286 -0.3699,0.11371 -0.54062,0.0853 0,0 -0.14226,-0.19918 -0.11371,-0.3699 -0.36975,-0.939 -1.16634,-1.42281 -1.25178,-0.91068 -0.0286,0.17065 0.0568,0.71132 0.31279,1.28043 -0.88204,0.0284 -1.96326,0.19885 -3.01601,0.19868 -1.59336,0.0851 -3.38592,0.31246 -5.14998,0.36909 -2.13397,0.1703 -4.43866,0.31229 -6.74334,0.45419 -0.17065,-0.0286 -0.17065,-0.0286 -0.34142,-0.0569 -0.34143,-0.0569 -0.54062,0.0853 -0.88203,0.0284 -3.89805,0.22702 -8.13752,0.39706 -12.37698,0.56712 -0.88204,0.0284 -1.76408,0.0566 -2.64611,0.085 -2.30468,0.14192 -4.58088,0.11301 -6.88558,0.255 -1.42264,0.11353 -2.8168,0.0564 -4.23946,0.17013 -4.95079,0.22684 -10.21452,0.22603 -15.33602,0.4244 -1.39417,-0.0571 -2.81682,0.0564 -4.04028,0.0279 -1.59335,0.0851 -3.15824,-4.9e-4 -4.75159,0.0846 -2.98753,0.028 -6.14577,0.0275 -9.1333,0.0555 -1.93479,0.0282 -3.86956,0.0563 -5.80435,0.0845 -2.98752,0.028 -5.80435,0.0845 -8.79187,0.1125 -0.51214,-0.0855 -1.05276,-1.6e-4 -1.56489,-0.0857 -3.69884,0.0848 -7.53994,-0.0296 -11.23878,0.0552 -1.05275,-1.6e-4 -1.93479,0.0282 -2.98753,0.028 -1.22347,-0.0285 -2.44692,-0.0573 -3.67037,-0.0858 -1.56489,-0.0857 -2.98753,0.028 -4.55241,-0.0576 -0.54062,0.0853 -1.22345,-0.0286 -1.76408,0.0566 -2.10548,-3.3e-4 -4.21097,-6.5e-4 -6.48718,-0.0294 -3.49967,-0.0575 -6.99933,-0.11492 -10.32827,-0.14382 -0.34143,-0.0569 -0.54062,0.0853 -0.88203,0.0284 -4.55242,-0.0576 -8.93411,-0.0867 -13.14511,-0.0874 -1.93477,0.0282 -3.84109,-0.1144 -5.77586,-0.0862 -2.61762,-0.0858 -5.06454,-0.14313 -7.53994,-0.0296 -0.71131,0.0568 -1.22345,-0.0287 -1.93478,0.0282 -5.94658,-0.11475 -11.210324,-0.11561 -15.392824,-0.28693 -4.893831,-0.11458 -8.393489,-0.17204 -9.958375,-0.25762 -0.711319,0.0568 -1.052736,-1.7e-4 -1.052736,-1.7e-4 l 2.788668,-1.99125 -1.052753,-1.5e-4 -5.036057,-0.31378 -3.812621,-0.28512 -0.683161,1.99158 c 0,0 -2.446923,-0.0573 -6.458714,-0.20018 -1.052753,-1.5e-4 -2.077018,-0.17099 -3.129772,-0.17116 -0.512132,-0.0855 -1.052735,-1.6e-4 -1.735585,-0.11406 -3.300471,-0.19967 -6.970846,-0.2856 -10.982637,-0.42848 -2.446917,-0.0573 -5.064544,-0.14313 -7.48298,-0.37107 -1.39417,-0.0571 -2.95905,-0.14278 -4.523929,-0.22831 -5.405966,-0.20002 -10.982643,-0.42851 -16.189416,-0.77075 -2.446917,-0.0573 -4.694642,-0.25681 -6.970846,-0.28562 2.276368,-1.02394 5.29254,-2.27538 7.11357,-2.67344 0.170717,0.0286 0.369902,-0.11371 0.540612,-0.0853 2.816817,-0.0564 5.463089,-1.19415 6.999654,-1.99059 1.536564,-0.79644 3.15824,5e-4 3.670537,-0.96681 0.512297,-0.9673 1.508578,-3.78396 1.878479,-3.89772 0.398383,-0.28446 2.902091,0.48415 4.210987,6.6e-4 0.938994,-0.36975 1.906468,-0.91019 2.248054,-1.90597 0.227669,-0.31295 0.284628,-0.65436 0.341587,-0.9958 0.113915,-0.68285 0.227834,-1.36568 0.313272,-1.87781 0.313106,-0.82508 0.796925,-1.62169 2.219573,-1.73528 2.333163,-0.31261 2.930734,-0.7393 2.959377,-1.96275 0.02864,-1.22347 -0.312614,-2.33317 3.301134,-4.01131 0.938994,-0.36975 1.707271,-0.76797 2.276361,-1.02394 1.906476,-0.91019 2.845469,-1.27992 4.751927,-2.19012 0.768277,-0.39822 1.963433,-1.25161 3.016342,-2.30419 2.475721,-2.21892 5.605977,-5.20594 7.000302,-6.20156 1.195156,-0.8534 3.244016,-2.61714 4.666828,-3.78348 0.142264,0.19919 0.312947,0.22767 0.255972,0.56909 -0.142437,0.85355 -1.365838,0.82491 -1.195294,1.90615 -0.02856,0.17064 0.142264,0.19918 0.113707,0.36988 0.398218,0.7683 1.223297,1.0814 1.792231,1.87816 0.568918,0.79677 -1.024438,0.88187 0.08498,2.64611 1.280081,1.79272 3.328301,4.23995 4.352567,4.41082 0.512133,0.0855 1.166495,0.37008 1.62167,0.79694 0.483645,0.25615 0.768121,0.65452 1.223297,1.08138 0.739634,0.82525 2.845123,0.82558 4.353207,0.19986 1.508084,-0.62573 5.463421,-3.29965 6.032681,-4.60838 0.22766,-0.31294 0.39837,-0.28447 0.88204,-0.0284 1.138,0.54079 2.67409,2.9026 3.84059,3.27266 0.34141,0.0569 0.51213,0.0855 0.853544,0.14243 1.22347,0.0286 2.58931,-0.79628 4.38187,-1.02362 0.88204,-0.0284 1.76407,-0.0566 2.50388,-0.28413 1.42264,-0.11354 2.70305,-0.42636 3.30063,-0.85307 1.02444,-0.88186 0.31327,-1.87781 0.45568,-2.73138 0.0855,-0.51213 0.45548,-1.67862 0.7686,-2.5037 0.25615,-0.48367 0.34159,-0.9958 0.51229,-0.96731 0,0 0.14226,0.19918 0.28448,0.39837 0.54044,0.96748 1.45062,2.87394 2.36115,2.67493 1.28041,-0.31279 8.96323,-4.29495 8.96323,-4.29495 0,0 0.54029,2.02021 0.71101,2.0487 0,0 0.19918,-0.14226 0.56909,-0.25599 1.53655,-0.79643 5.60565,-3.10047 5.60565,-3.10047 0,0 -2.56069,-0.42717 -1.25161,-1.96341 0.88219,-1.08107 2.41876,-1.87751 3.21552,-2.44643 0.39838,-0.28447 0.59756,-0.4267 0.62605,-0.5974 -0.11371,-0.3699 -2.47524,-0.93932 -2.38963,-2.50421 0.0285,-0.17065 0.0285,-0.17065 0.0569,-0.34141 0.31327,-1.87784 4.38285,-7.3401 6.09029,-9.1608 0.42686,-0.45517 0.85371,-0.91035 1.30906,-1.53624 1.10986,-1.394 2.4474,-3.10096 3.35808,-4.35272 0.48382,-0.79661 0.76845,-1.45097 0.82541,-1.79239 1.6e-4,-1.05275 -0.36942,-3.04448 0.0858,-3.67038 0.45533,-0.62589 3.10162,-1.76357 3.67086,-3.07231 0,0 0.0286,-0.17065 0.0286,-0.17065 0.54078,-1.138 -0.51198,-1.13818 0.3987,-2.38994 0.73996,-1.28026 2.98785,-2.13348 3.78512,-5.86065 0.62653,-3.75565 0.96829,-5.80418 0.96829,-5.80418 0,0 0.17065,0.0284 0.68283,0.11388 1.16652,0.37006 3.81245,1.33787 4.15371,2.44758 0.45501,1.4796 -1.11004,2.44675 1.39367,3.21535 1.65016,0.62622 3.52799,0.93948 4.72296,1.13884 0.68284,0.11388 1.22347,0.0286 1.22347,0.0286 0,0 0.51228,-0.96731 1.22378,-2.07685 1.50841,-2.73122 4.04142,-7.39705 4.46845,-8.90497 0.3131,-0.82508 0.82539,-1.79239 1.36618,-2.9304 1.0246,-1.93462 2.19142,-3.67005 2.19142,-3.67005 0,0 3.41389,2.67509 3.55613,2.87427 0,0 0.19919,-0.14226 0.62605,-0.5974 0.48382,-0.79661 1.45146,-2.38979 1.93528,-3.1864 0.73996,-1.28026 1.33736,-0.65421 3.38622,-2.41794 2.04888,-1.76374 2.78884,-3.04399 3.89871,-4.438 0.19919,-0.14227 0.22767,-0.31295 0.42686,-0.45518 0.65454,-0.76812 1.0814,-1.22329 1.53673,-1.84917 0.22767,-0.31294 0.62605,-0.5974 1.05291,-1.05258 1.22362,-1.02411 1.8212,-1.4508 1.7076,-2.87345 -0.28429,-1.45113 0.2848,-1.70711 0.56943,-2.36148 0.28462,-0.65436 -2.56068,-0.42719 -0.28414,-2.50388 2.27653,-2.07667 0.59806,-3.58493 1.05356,-5.26355 0.11388,-0.68285 0.19936,-1.19499 0.0571,-1.39417 -0.0853,-0.54062 0.0855,-0.51214 1.47944,0.59773 0.45517,0.42686 1.56471,1.13834 2.78801,2.21973 1.87766,1.36603 4.35272,3.35809 6.54332,4.95177 2.64578,2.02055 4.97862,3.81343 5.77521,4.29725 0.14226,0.19919 0.31295,0.22768 0.31295,0.22768 0.17064,0.0284 2.73236,-5.86082 3.27314,-6.99883 0.0284,-0.17065 0.25614,-0.48366 0.28463,-0.65438 0.31295,0.22767 0.62588,0.45535 1.30873,0.56926 0.17064,0.0284 0.51213,0.0855 0.85356,0.14244 1.87782,0.31326 3.21518,-0.34093 3.27199,0.37039 0.19903,0.91051 0.36957,1.99175 1.8775,2.41876 0.17065,0.0284 0.48364,0.25615 0.65436,0.28463 0.79659,0.48382 0.48349,1.3089 -0.14261,1.90631 -0.82525,0.73963 -1.73576,0.93866 -0.96781,2.64593 0.76795,1.70727 2.16196,2.81715 4.09675,2.78899 1.05274,1.8e-4 1.79255,-0.22734 2.33317,-0.31261 0.5406,-0.0853 1.02426,0.17082 1.62167,0.79694 1.33703,1.45128 -0.14261,1.9063 1.30839,2.67473 0.96731,0.5123 2.58915,0.25649 3.84092,1.16717 0.17065,0.0284 0.31295,0.22765 0.48366,0.25614 0.45518,0.42686 0.73964,0.82523 0.99563,1.39432 0.91017,1.90648 1.16601,3.52832 0.93818,4.894 0,0 0,0 0,0 -0.14244,0.85355 -0.42704,1.50793 -0.88237,2.13381 -0.22767,0.31294 -0.45535,0.62589 -0.71149,1.10954 -0.91068,1.25178 -2.41894,2.93025 -3.27266,3.8406 0,0 0,0 -0.14227,-0.1992 -0.42668,-0.59756 0.31312,-0.82506 0.34159,-0.99578 -0.14226,-0.19919 -0.34141,-0.0569 -1.10971,0.34126 0,0 -0.19918,0.14226 -0.22765,0.31295 -0.48382,0.79659 -0.68334,3.04431 -1.42332,4.32456 -0.22765,0.31295 -0.3131,0.82508 -0.37006,1.1665 -0.19936,1.19498 -0.19951,2.24773 -0.37039,3.272 -0.25631,1.53639 0.42654,1.65031 1.02394,2.27636 0.56892,0.79676 -0.11388,0.68285 -0.85372,0.91035 -0.56909,0.25599 -0.85357,-0.14244 -0.73981,0.22752 0.14227,0.19918 0.48365,0.25614 0.9958,0.34157 0.68283,0.11388 1.73558,0.11405 2.27619,0.0287 0.71133,-0.0568 0.59757,-0.42671 0.93899,-0.36973 0.3699,-0.11371 0.51215,0.0855 1.45114,-0.2843 0.76828,-0.39822 0.31311,-0.82508 0.85371,-0.91036 0.3699,-0.1137 0.85357,0.14244 1.59337,-0.0851 0.73979,-0.2275 0.99611,-1.7639 1.65047,-1.47926 0.68285,0.11388 1.22314,2.13413 1.25146,3.01616 0.0284,0.88204 -0.28463,0.65437 -0.65454,0.76813 -0.3699,0.1137 -0.22767,0.31292 0.39822,0.76827 0.14226,0.19919 0.31295,0.22768 0.62589,0.45533 0.48365,0.25617 0.93882,0.68303 1.45096,0.76845 0.65436,0.28464 -0.0857,1.56489 -0.0287,2.27621 -0.0855,0.51213 1.02426,0.17082 1.19498,0.19936 0.17065,0.0284 0.71114,0.99595 1.87766,1.36601 1.33719,0.39855 2.30467,-0.14192 2.98752,-0.028 0.65436,0.28463 0.8534,1.19514 1.76375,2.04886 1.08105,0.88221 0.11405,-1.73558 0.17099,-2.077 0.0569,-0.34143 0.85357,0.14244 0.9958,0.34157 0.14226,0.19921 0.2275,0.73981 0.71116,0.99595 0.48364,0.25617 0.62605,-0.5974 1.3089,-0.48349 0.68283,0.11389 0.7681,0.65454 1.05258,1.05293 0.28446,0.39837 -0.36991,0.11371 -0.48382,0.79659 -0.11388,0.68285 1.59318,0.96764 2.61745,1.13851 0.85356,0.14244 0.85339,1.19514 0.34126,1.10971 -0.51214,-0.0855 -0.51214,-0.0855 -0.45533,0.62588 0,0 -0.0286,0.17064 -0.0286,0.17064 0.28448,0.3984 1.59337,-0.0851 2.44692,0.0573 0.88204,-0.0284 0.59741,0.62605 -0.11388,0.68285 -0.71132,0.0568 -0.59758,0.42669 -0.11388,0.68285 0.48365,0.25614 1.5364,0.2563 2.16229,0.71165 0.79659,0.48382 3.5278,1.99223 5.03573,2.41925 1.50793,0.42703 0.42636,2.70306 0.31244,3.38591 -0.11388,0.68285 -0.3131,0.82508 -0.99595,0.71117 -0.68283,-0.11388 -0.73963,-0.82525 -0.85355,-0.14244 -0.11388,0.68285 1.394,1.10987 1.13785,1.59353 -0.0569,0.34142 -0.76827,0.39822 -0.62604,0.5974 0.1137,0.36991 0.28446,0.39838 -1.8e-4,1.05276 -0.25614,0.48364 -0.51213,-0.0855 -0.62604,0.5974 -0.11388,0.68283 0.45517,0.42686 0.48349,1.3089 -0.0284,0.17065 -0.0569,0.34142 -0.0569,0.34142 -0.19919,0.14226 -0.51214,-0.0855 -0.76828,0.39821 -0.25615,0.48365 0.11353,1.42264 0.45502,1.4796 0.36988,-0.11371 0.79675,-0.56892 0.9105,-0.19901 0.0853,0.5406 1.05258,1.05291 0.99563,1.39432 -0.0569,0.34143 -1.47962,0.45502 -1.82103,0.39806 -0.34142,-0.0569 -0.28446,-0.39839 -0.99578,-0.34159 -0.71134,0.0568 -0.56911,0.25599 -0.88204,0.0284 -0.31294,-0.22768 -1.93461,-1.0246 -2.10533,-1.05308 -0.17065,-0.0284 -0.9958,-0.34159 -1.08107,-0.8822 -0.25599,-0.56909 0.54078,-1.13802 0.45551,-1.67862 -0.0853,-0.54062 -0.48365,-0.25617 -0.91051,0.19901 -0.59758,0.4267 -0.0857,1.56489 -3.3e-4,2.10551 0.0853,0.5406 -0.48382,0.79659 -1.1382,0.51196 -0.65436,-0.28464 -0.5974,-0.62605 -0.88186,-1.02444 -0.25599,-0.56909 -0.17048,-1.08123 -0.42653,-1.65032 -0.25599,-0.56909 -0.62589,-0.45533 -1.05258,-1.05291 -0.2275,-0.7398 0.17082,-1.02426 0.11405,-1.73558 -0.0853,-0.54062 -1.53642,-0.25632 -2.16229,-0.71165 0,0 0,0 -0.17065,-0.0286 -0.62589,-0.45533 -0.25599,-0.56909 -1.10954,-0.71149 -0.68284,-0.11388 -1.16649,-0.37006 -1.76391,-0.99611 -0.42669,-0.59757 -0.28429,-1.45112 -0.62572,-1.50808 -0.34142,-0.0569 -0.59741,-0.62607 -0.85339,-1.19516 -0.22751,-0.73979 -1.10954,-0.71147 -2.10532,-1.05306 -0.9958,-0.34159 -0.45518,-0.42686 -0.51198,-1.13818 0.11388,-0.68285 -0.25599,-0.56911 -0.5974,-0.62607 -0.34144,-0.0569 -0.82508,-0.3131 -0.99562,-1.39432 -0.19904,-0.91052 -0.42654,-1.65031 -0.88171,-2.07718 -0.14227,-0.19918 -0.14227,-0.19918 -0.31295,-0.22767 -0.45517,-0.42686 -0.19918,0.14226 0.0284,0.88204 0,0 -0.0286,0.17064 0.14226,0.19918 0.2275,0.73981 0.14192,2.3047 0.42638,2.70307 0.28445,0.39837 0.85355,0.14244 0.82506,0.3131 0.14226,0.19921 0.25599,0.56909 0.39822,0.7683 0.17064,0.0284 0.31294,0.22765 0.56893,0.79676 0.25599,0.56909 0.34142,0.0569 0.79659,0.48382 0.45518,0.42684 0.11371,0.36989 0.42671,0.59756 0.31294,0.22767 0.68285,0.11388 1.08106,0.88221 0.3982,0.76828 1.59303,2.02037 1.93429,3.13008 0.34126,1.10971 0.65436,0.28463 1.33721,0.39855 0.51214,0.0855 0.42669,0.59756 0.54045,0.96746 0,0 -0.0286,0.17065 0.14226,0.19921 0.25599,0.56909 1.05274,1.5e-4 1.56489,0.0857 0.51213,0.0855 1.22312,2.13413 1.22295,3.18686 -1.5e-4,1.05276 0.9102,1.90648 1.8775,2.41879 0.96731,0.51228 0.73981,-0.22752 2.33317,-0.31262 1.59335,-0.0852 1.16649,0.37006 1.22329,1.08138 0.0853,0.54062 0.28446,0.39839 1.1665,0.37007 0.85355,0.14244 0.73981,-0.22751 1.08122,-0.17064 0.34142,0.0569 0.82508,0.31312 1.13803,0.54079 0.31294,0.22766 1.5364,0.2563 1.28025,0.73996 -0.25616,0.48365 -0.73998,1.28026 -1.4513,1.33704 -0.5406,0.0853 -0.62587,-0.45533 -0.9105,0.19903 0,0 -0.0286,0.17065 -0.0286,0.17065 0.0853,0.5406 1.28025,0.73996 1.47944,0.59773 0.22767,-0.31294 0.54078,-1.13802 0.88221,-1.08106 0.34142,0.0569 0.65436,0.28463 0.93882,0.683 0.28448,0.39839 0.56893,0.79677 0.76797,1.70729 0.19901,0.91051 0.45517,0.42686 0.11353,1.42264 -0.14244,0.85357 0.2275,0.73981 0.455,1.47961 0.2275,0.73981 -0.28463,0.65437 -0.73996,1.28026 -0.45535,0.62587 -0.45535,0.62587 -0.31328,1.87781 0.1421,1.25194 -0.19936,1.19498 -0.73996,1.28026 -0.54062,0.0853 -0.51213,-0.0855 -0.4267,-0.59758 -0.0853,-0.5406 -0.71115,-0.99595 -0.96714,-1.56504 -0.25599,-0.56909 -0.4267,-0.59756 -1.10954,-0.7115 -0.71133,0.0568 -0.65438,-0.28461 -1.19482,-1.25209 -0.54045,-0.96747 -0.14209,-1.25194 -0.48349,-1.3089 -0.31295,-0.22766 -0.56909,0.25599 -0.51229,0.96731 0,0 0,0 0,0 0.0568,0.71134 0.62572,1.50808 0.56876,1.84952 -0.0569,0.34141 -0.54062,0.0853 -0.9958,-0.34159 -0.42668,-0.59758 -0.7681,-0.65454 -1.30872,-0.56927 -0.51213,-0.0855 -0.3131,0.82508 0.19903,0.91053 0.51213,0.0855 1.62167,0.79692 1.56471,1.13833 -0.0855,0.51215 0.25599,0.56911 1.33704,1.4513 1.08107,0.8822 -0.37006,1.1665 -0.8254,1.79239 -0.59757,0.42669 -2.58931,0.79626 -3.10145,0.71084 -0.31294,-0.22768 -0.54044,-0.96748 -0.71116,-0.99595 -0.34142,-0.0569 -1.394,-1.10987 -1.8207,-1.70745 -0.42669,-0.59758 -0.39822,-0.76828 -0.73963,-0.82523 -0.34142,-0.0569 -1.84902,-2.58948 -2.19044,-2.64644 -0.31294,-0.22768 -0.68285,-0.11388 -0.9673,-0.51231 -0.28448,-0.39837 -0.0568,-0.71132 -0.48349,-1.30889 0,0 0,0 0,0 -0.42671,-0.59757 -1.93446,-2.07734 -2.19045,-2.64643 0,0 0,0 0.0286,-0.17064 -0.1137,-0.36991 -0.4267,-0.59758 -0.99579,-0.34159 0,0 0,0 0,0 -0.39838,0.28446 -0.28463,0.65436 -0.0286,1.22345 0.25599,0.56909 0.9958,0.34159 1.45097,0.76845 0,0 0.14227,0.19919 0.14227,0.19919 0.56893,0.79676 1.84901,2.58948 2.56018,3.58543 0.14226,0.19919 0.28445,0.39839 0.42668,0.59758 0.8534,1.19514 2.44642,3.21553 3.1008,3.50014 0.65437,0.28463 0.54061,-0.0853 1.13801,0.54078 0.59741,0.62606 1.33706,1.4513 2.47506,1.99207 1.16652,0.37006 0.79677,-0.56893 1.87799,-0.73948 1.08124,-0.17047 1.10971,-0.34126 1.28043,-0.31277 0.17065,0.0284 0.11371,0.3699 -0.31312,0.82508 -0.42684,0.45517 -0.19919,0.14226 -0.0855,0.51213 0.14227,0.19919 0.11371,0.36991 0.0568,0.71132 -0.0569,0.34142 0.0568,0.71132 -1.6e-4,1.05275 0.0568,0.71132 0.73981,-0.22751 1.10972,-0.34126 0.39837,-0.28445 0.71132,-0.0568 0.5974,0.62605 -0.0855,0.51214 0.11371,0.36991 0.76812,0.65454 0.48365,0.25614 0.96731,0.51229 1.394,1.10986 0.14226,0.19919 0.14226,0.19919 0.28446,0.39838 0.28447,0.39839 0.39821,0.76829 0.34126,1.10971 -0.0855,0.51213 -0.31311,0.82508 -0.37006,1.16649 -0.25615,0.48367 -0.48382,0.79661 -0.45551,1.67865 0.0284,0.88202 -0.5123,0.96731 -1.19513,0.85337 -0.68285,-0.11388 -0.0568,-0.71132 -0.59741,-0.62604 -0.56911,0.25598 -1.16667,0.68269 -1.62202,1.30856 0,0 0,0 0,0 -0.3131,0.82508 -1.0529,1.05258 -1.67878,0.59725 -0.62589,-0.45534 -0.79644,-1.53657 -0.85324,-2.24789 -0.0568,-0.71132 -0.48364,-0.25614 -1.16649,-0.37006 -0.68285,-0.11388 -0.82508,-0.31312 -0.91035,-0.85372 -0.0853,-0.54062 -0.34126,-1.10971 -0.73964,-0.82525 -0.39839,0.28448 -0.0569,0.34143 -0.88203,0.0284 -0.65438,-0.28461 -1.02411,-1.22361 -1.50776,-1.47977 -0.48366,-0.25614 -0.48366,-0.25614 -0.17065,-1.08122 0.11388,-0.68285 0.19936,-1.19498 0.0571,-1.39417 0,0 0,0 0.0284,-0.17065 -0.14226,-0.19918 -0.36973,-0.93899 -0.62572,-1.50808 -0.25599,-0.56909 -0.76812,-0.65452 -1.47944,-0.59773 -0.71132,0.0568 -0.42686,0.45517 -0.79676,0.56893 -0.19919,0.14226 -0.85355,-0.14244 -0.91051,0.19903 -0.0569,0.34142 -0.14244,0.85355 -0.99595,0.71115 -0.68285,-0.11388 -0.73965,-0.82524 -0.85339,-1.19514 -0.28446,-0.39837 -1.08107,-0.88219 -1.59321,-0.96764 -0.5406,0.0853 -0.59757,0.42671 -1.10971,0.34126 -0.51213,-0.0855 -0.2275,-0.7398 -0.62587,-0.45533 0,0 0,0 0,0 -0.22767,0.31293 -0.79676,0.56892 -1.36586,0.82491 -0.17064,-0.0286 -0.19918,0.14226 -0.3699,0.1137 -0.39837,0.28446 0.42669,0.59757 0.73964,0.82524 0.48366,0.25614 0.71131,-0.0568 1.45112,-0.2843 0.56909,-0.25599 1.45113,-0.28431 1.9063,0.14261 0.48367,0.25614 1.53625,1.30907 1.76375,2.04886 0.2275,0.7398 0.96731,0.5123 1.42265,-0.11354 0.45534,-0.62587 0.42702,-1.50791 0.82541,-1.79238 0.39838,-0.28446 0.45518,0.42686 0.91035,0.85372 0.45518,0.42686 0.0853,0.54062 -0.11405,1.7356 -0.0855,0.51213 0.0568,0.71132 0.19903,0.91051 0.14226,0.19918 0.31295,0.22767 0.42669,0.59757 0.0568,0.71132 -0.28479,1.7071 -0.25647,2.58914 0.0284,0.88203 0.51213,0.0855 1.39416,0.0571 0.88204,-0.0284 0.88204,-0.0284 1.50793,0.42702 0.45518,0.42686 -0.62606,0.59742 0.19902,0.91052 0.82508,0.3131 1.62168,0.79692 2.21909,1.42297 0.5974,0.62607 0.99578,0.34159 1.08105,0.88221 0.0853,0.5406 -0.73979,0.2275 -0.96746,0.54045 -0.22768,0.31294 0.25598,0.56909 0.79659,0.48382 0.17064,0.0285 0.17064,0.0285 0.34143,0.0569 0.14226,0.19918 -0.14244,0.85354 -0.37008,1.16649 -0.22767,0.31295 -0.76827,0.39822 -1.25209,1.19481 -0.3131,0.82508 -1.10987,1.39401 -0.96764,1.5932 0.14226,0.19919 0.93899,-0.36973 1.19514,-0.85339 0.25614,-0.48365 0.65453,-0.76812 0.683,-0.93882 0.19921,-0.14227 0.56909,-0.25599 0.82526,-0.73965 0.25614,-0.48365 0.45533,-0.62588 1.13818,-0.51196 0.17064,0.0285 0.51213,0.0855 0.68285,0.11388 0.34141,0.0569 0.68283,0.11388 0.88203,-0.0284 0.39838,-0.28446 0.3131,-0.82508 0.65452,-0.76812 0.34143,0.0569 0.59741,0.62605 0.34126,1.10971 -0.0855,0.51213 -1.5e-4,1.05274 0.51198,1.13818 0.17065,0.0286 0.17065,0.0286 0.3699,-0.11371 0.36989,-0.1137 0.45533,-0.62587 0.54078,-1.138 0.0855,-0.51214 -0.34144,-0.0569 -0.96731,-0.51231 -0.62589,-0.45533 -0.31262,-2.33316 -0.085,-2.64611 0.39839,-0.28446 1.28043,-0.31277 2.13398,-0.1703 1.02426,0.17082 0.82508,0.3131 1.36552,1.28057 0.28448,0.39839 1.47945,0.59775 2.70292,0.62639 0.88203,-0.0284 1.76407,-0.0566 2.2762,0.0287 1.22345,0.0286 1.05291,-1.05258 2.19092,-0.5118 1.13802,0.54077 1.30874,0.56926 1.19465,2.30484 0.48366,0.25615 2.78753,5.37798 3.44171,6.71536 z m 1.14114,-19.46141 c 1.13835,-1.56471 1.62217,-2.36132 1.33771,-2.75969 -0.28447,-0.39839 -0.82508,-0.31312 -0.85356,-0.14244 0,0 -1.87832,2.84497 -2.21989,3.84076 -0.17082,1.02427 0.5974,0.62605 1.73574,-0.93866 z m 1.53723,-5.00743 c -0.14227,-0.19919 -0.48366,-0.25614 -0.51213,-0.0855 -0.0286,0.17065 -0.85373,0.91036 -0.19936,1.19499 0.45517,0.42686 0.683,-0.93884 0.71149,-1.10956 z m -2.38979,-1.45145 c 0.54077,-1.13801 0.7686,-2.50371 0.34174,-2.04854 0,0 -1.622,1.30857 -1.5652,2.01989 -0.11388,0.68285 -0.4555,1.67865 0.28429,1.45113 0.54062,-0.0853 0.56911,-0.25597 0.93917,-1.42248 z m -1.25293,6.45855 c 0.4555,-1.67864 0.11405,-1.7356 0.68333,-3.04432 0.56927,-1.30873 0.93917,-1.42249 0.96764,-1.5932 -0.14226,-0.19919 0.0855,-0.51214 -0.48364,-0.25615 0,0 -0.73981,0.2275 -0.96748,0.54045 -0.39838,0.28446 -1.0246,1.93462 -0.85406,3.01584 -1.5e-4,1.05275 0.19871,3.01601 0.65421,1.33738 z m -6.70928,-35.5099 c 0.0853,0.54062 0.0284,0.88203 -0.0857,1.56488 -0.11388,0.68283 0.711,2.04869 1.5076,2.53251 0.62589,0.45535 0.59757,-0.42669 0.683,-0.93882 0.0855,-0.51214 -0.0282,-1.93479 0.0858,-2.61763 0.11388,-0.68284 0.22768,-0.31294 0.48382,-0.7966 0.0855,-0.51214 -0.73963,-0.82524 -1.05258,-1.05291 -0.31294,-0.22768 -1.45112,0.2843 -1.45112,0.2843 -0.17065,-0.0286 -0.25617,0.48365 -0.17082,1.02427 z m 0.79709,-2.67443 c 1.19498,0.19936 0.79676,-0.56893 0.48399,-1.84934 -0.0853,-0.54061 -0.17047,-1.08123 -0.11353,-1.42264 -0.59758,0.42669 -1.56506,0.96713 -2.33334,1.36535 0.19903,0.91053 0.9102,1.90648 1.96293,1.90663 z m 13.74218,2.81896 c -0.36991,0.1137 -0.73981,0.2275 -0.76828,0.39821 -0.42686,0.45518 -1.19516,0.8534 -1.96343,1.25162 0,0 0,0 0,0 0.48366,0.25614 -0.56909,0.25597 -0.79677,0.56891 -0.42686,0.45518 -1.42281,1.16634 -0.22783,1.3657 1.02427,0.17082 1.36586,-0.82492 1.62184,-0.25583 0.22751,0.73981 -0.0858,3.67037 -0.85422,4.06859 -0.76828,0.39822 -1.59318,-0.96763 -1.79239,-0.82541 -0.19918,0.14227 -1.10969,0.34126 -1.19513,0.8534 -0.11388,0.68285 -0.19935,1.19498 0.31279,1.28042 0.51213,0.0855 0.42686,-0.45517 0.76827,-0.39821 0.34142,0.0569 0.79659,0.48382 0.17048,1.08122 -0.62605,0.5974 -3.18722,3.32846 -3.81359,6.03135 -0.17082,1.02428 -0.54093,2.19078 -0.91101,3.35727 -0.48398,1.84935 -1.19564,4.01164 -1.39516,6.25936 -0.25663,3.6419 -1.30938,3.64173 -1.08203,5.43429 0.22732,1.79254 1.10903,3.86972 1.45029,4.97943 0.34126,1.10971 -0.42701,1.50793 0.36958,1.99174 0.65436,0.28462 1.3657,0.22783 1.30889,-0.48349 -0.0568,-0.71133 -0.2838,-4.60936 0.45634,-6.94237 0.76861,-2.50371 0.56957,-3.41423 1.53706,-3.95468 0.96746,-0.54045 1.65031,-0.42653 2.19091,-0.5118 0.54062,-0.0853 0.11388,-0.68284 -0.17047,-1.08123 -0.28446,-0.39837 -0.14192,-2.30467 0.45567,-2.73138 0,0 0.17065,0.0286 0.19919,-0.14226 0.56909,-0.25599 1.45113,-0.2843 1.6788,-0.59725 0.22766,-0.31293 0.17065,0.0286 -0.22752,-0.73979 -0.39821,-0.76829 -0.25581,-1.62184 0.14261,-1.9063 0.39838,-0.28448 0.99578,0.34157 1.0241,1.22361 0.0284,0.88203 0.93866,1.73575 0.8817,2.07719 -0.0284,0.17065 -1.59335,0.0851 -1.65031,0.42653 -0.0569,0.34142 0.99578,0.34157 0.22717,2.8453 -0.56942,2.36147 -1.65081,3.58475 -1.70777,3.92619 -0.0855,0.51213 0.39822,0.76827 1.1382,-0.51198 0.71147,-1.10954 2.02087,-4.75127 2.16326,-5.60482 0.11388,-0.68285 -0.14209,-1.25194 0.25632,-1.5364 0.39839,-0.28447 1.02426,0.17082 1.25209,-1.19482 0.22785,-1.36569 0.2573,-7.85289 0.94031,-8.79171 0.68302,-0.93884 3.18772,-6.4867 3.58609,-6.77115 0.39837,-0.28448 0.31295,0.22765 0.82541,-1.79239 0.51246,-2.02006 0.0857,-2.61764 0.68333,-3.04433 0.59758,-0.4267 1.47962,-0.45502 1.50826,-1.67847 -3.67055,0.96682 -7.08494,1.44998 -8.59302,2.0757 z"
   id="path1094"
   style="stroke-width:1.7307;fill:#373e48" />
</svg>
