<?xml version="1.0" encoding="UTF-8" standalone="no"?>
<!-- Generator: Adobe Illustrator 27.2.0, SVG Export Plug-In . SVG Version: 6.00 Build 0)  -->

<svg
   version="1.1"
   id="Layer_1"
   x="0px"
   y="0px"
   viewBox="0 0 321.1 321.1"
   style="enable-background:new 0 0 321.1 321.1;"
   xml:space="preserve"
   sodipodi:docname="washington.svg"
   inkscape:version="1.2.2 (732a01da63, 2022-12-09, custom)"
   xmlns:inkscape="http://www.inkscape.org/namespaces/inkscape"
   xmlns:sodipodi="http://sodipodi.sourceforge.net/DTD/sodipodi-0.dtd"
   xmlns="http://www.w3.org/2000/svg"
   xmlns:svg="http://www.w3.org/2000/svg"><defs
   id="defs1090" /><sodipodi:namedview
   id="namedview1088"
   pagecolor="#505050"
   bordercolor="#ffffff"
   borderopacity="1"
   inkscape:showpageshadow="0"
   inkscape:pageopacity="0"
   inkscape:pagecheckerboard="1"
   inkscape:deskcolor="#505050"
   showgrid="false"
   inkscape:zoom="2.653379"
   inkscape:cx="160.55"
   inkscape:cy="220.85047"
   inkscape:window-width="1920"
   inkscape:window-height="1031"
   inkscape:window-x="0"
   inkscape:window-y="25"
   inkscape:window-maximized="1"
   inkscape:current-layer="Layer_1" />
<style
   type="text/css"
   id="style1083">
	.st0{fill:#FE8E69;}
</style>
<path
   class="st0"
   d="m 279.09428,77.610821 c -9.12849,0.02631 -18.09195,-0.207031 -27.43271,-0.133526 -7.17077,-0.186589 -14.50658,-0.113737 -21.67735,-0.300282 -23.04547,-0.441397 -46.60998,-1.21287 -70.38677,-1.937108 -21.81905,-0.937098 -43.63811,-1.874195 -65.976195,-3.141389 0,0 -2.853481,2.194505 -2.759013,2.619071 0.0946,0.424543 1.533181,-0.118304 2.311722,0.376722 0.566268,0.542347 -0.730719,1.722118 -0.848501,2.193918 -0.117868,0.4718 1.179772,1.296987 1.74604,1.839334 0.566269,0.542369 5.87e-4,2.004981 0.449053,3.019128 0.448465,1.014147 0.731306,0.282841 1.297574,0.825187 0.566269,0.542369 0.425131,1.910491 -0.164406,2.264487 -0.589603,0.353997 -0.566269,-0.542347 -1.415378,-0.353409 -0.849109,0.188981 -0.895757,1.981646 -0.376722,2.311721 0.519034,0.330075 0.825774,0.707406 1.014734,1.556515 0.18898,0.84911 2.666305,2.971285 2.901911,2.027707 0.235585,-0.9436 -0.707993,-1.179184 -0.425153,-1.910512 0.542347,-0.566247 1.391456,-0.755206 1.03746,-1.344809 -0.353975,-0.589581 -0.731306,-0.282841 -0.920244,-1.13195 -0.14179,-0.636816 -0.118303,-1.533159 0.895757,-1.981625 1.061381,-0.236193 2.382291,-0.307349 3.043031,0.659563 0.66073,0.966891 -0.82519,1.297575 -0.89576,1.981647 0.18898,0.849109 -0.07,2.68903 0.75581,3.396415 0.25951,0.165059 0.30674,0.377331 0.56627,0.542368 0.56627,0.542347 1.03805,0.66015 1.13254,1.084694 0.0944,0.424566 0.56686,2.547328 -0.49455,2.783521 -1.27365,0.283428 -2.500656,-1.225831 -3.01969,-1.555906 -0.4718,-0.117869 -1.179184,0.707971 -0.872444,1.085302 0.0946,0.424544 2.406214,0.801266 2.547914,1.438104 0.14179,0.636837 -0.51842,1.674884 -0.11722,2.476759 0.40121,0.801874 1.10921,1.981062 0.47237,2.122762 -0.63682,0.14179 -1.93439,-0.683463 -1.863843,-1.367535 0.02327,-0.896343 -0.731306,-0.28284 -1.297574,-0.825209 -0.353997,-0.589581 -0.825775,-0.707385 -0.448466,-1.014147 0.37731,-0.30674 0.966913,-0.660737 0.258919,-1.839921 -0.707971,-1.179185 -1.27424,-1.721531 -1.533746,-1.886569 -0.259528,-0.165059 -0.943012,1.769353 -0.966325,2.665696 0.14179,0.636838 0.825775,0.707406 0.660737,0.966913 -0.165059,0.259528 -2.335034,0.519621 -2.500071,0.779127 -0.16506,0.259528 0.353975,0.589603 0.920243,1.13195 0.566269,0.542369 0.542956,1.438715 0.377918,1.698215 -0.165059,0.25953 0.873597,2.92464 0.166147,3.75044 -0.707406,0.82577 -4.715563,6.84187 -4.621094,7.26641 0.0946,0.42454 1.816609,1.15526 2.265074,2.16941 0.401231,0.80187 5.87e-4,2.00498 0.684659,2.07555 0.4718,0.11787 1.179184,-0.70799 1.650984,-0.59019 0.684072,0.0707 1.439278,1.46202 1.156437,2.19333 -0.235585,0.94358 -1.367534,1.86384 -1.273066,2.28839 0.09438,0.42456 1.085303,0.87244 0.9675,1.34424 -0.117869,0.47178 -0.966913,0.66074 -0.825188,1.29757 0.09438,0.42455 1.25034,0.61292 1.816587,1.15527 0.613525,0.75464 -0.07046,0.68407 0.330684,1.48594 0.401231,0.80186 0.920244,1.13195 1.297575,0.82519 0.330075,-0.51903 0.235584,-0.94358 0.919656,-0.87303 0.684073,0.0705 1.627673,0.30618 1.769373,0.94301 0.14179,0.63682 -0.23561,0.94358 -0.14114,1.36812 0.14179,0.63684 0.8497,1.81603 1.86385,1.36756 1.01415,-0.44846 1.95714,-2.21784 2.07494,-2.68962 0.11787,-0.4718 -0.82579,-0.7074 -0.59019,-1.65098 0.23561,-0.94358 0.61292,-1.25034 0.30618,-1.62765 -0.30677,-0.37733 -2.31173,-0.37672 -2.45345,-1.01356 -0.354,-0.5896 -1.41597,-2.35837 -1.98224,-2.90074 -0.35399,-0.58958 -1.415375,-0.35339 -1.320906,0.0711 0.09438,0.42457 0.472387,2.12279 0.401818,2.80684 -0.07046,0.68407 -0.588994,2.35897 -0.990225,1.5571 -0.188981,-0.84911 -0.07111,-1.32091 -5.87e-4,-2.00498 0.07068,-0.68405 -0.637425,-1.86326 -0.731893,-2.2878 -0.09438,-0.42454 0.542347,-0.56627 0.471191,-1.88718 -0.07111,-1.32089 -0.63799,-3.86821 -1.369296,-4.15105 -0.778563,-0.49512 -1.297575,-0.82519 -2.146684,-0.63623 -0.849109,0.18898 -1.863256,0.6374 -1.792709,-0.0468 -0.14179,-0.63682 0.282841,-0.73131 0.919678,-0.87301 0.849109,-0.18898 1.367556,-1.86384 1.957137,-2.21784 0.589603,-0.354 1.391457,-0.75523 2.217253,-0.0478 0.825775,0.70738 1.462612,0.56568 1.839922,0.25892 0.377331,-0.30674 0.990241,-1.55708 -0.04784,-2.21726 -1.038068,-0.66015 -2.382877,-1.6976 -2.477346,-2.12217 -0.09438,-0.42454 0.707385,-0.82578 0.353388,-1.41538 -0.14179,-0.63681 -0.613503,-0.75462 -0.4957,-1.22642 0.16506,-0.2595 0.777954,-1.50984 1.037481,-1.34481 0.259507,0.16506 -0.306175,1.62765 0.354584,2.59457 0.660738,0.96691 3.939954,2.68785 4.718494,3.18297 0.56627,0.54236 1.39205,1.24975 1.27427,1.72155 0,0 0,0 0,0 -0.11787,0.47178 -0.0939,1.58041 -0.73072,1.72212 -0.84911,0.18898 -0.9675,-1.34423 -1.60434,-1.2025 -0.68407,-0.0705 -0.44788,0.99081 -0.87242,1.08528 -0.42457,0.0946 -0.51904,-0.33007 -1.15587,-0.18833 -0.424546,0.0944 -1.579831,1.91108 -1.603143,2.80742 -0.02327,0.89635 0.166146,3.75041 1.204258,4.41059 1.038065,0.66015 1.320905,-0.0711 1.722135,0.73072 0.354,0.58958 1.67548,2.5234 2.24174,3.06575 0.56627,0.54237 1.55711,0.99025 1.32091,-0.0711 -0.23619,-1.06138 -1.76996,-2.94795 -2.43069,-3.91486 -0.87304,-0.91968 -1.01474,-1.5565 -1.15646,-2.19333 0.11786,-0.4718 1.01414,-0.44847 1.08471,-1.13254 0.0707,-0.68407 -0.0239,-1.10862 0.14114,-1.36814 0.16506,-0.25951 1.10864,-0.0239 1.25034,0.61291 0.14179,0.63684 0.44905,3.01913 0.33125,3.49091 -0.11787,0.4718 -0.23559,0.9436 0.2129,1.95774 0.40123,0.80186 1.72271,2.73568 2.5485,3.44307 0.82578,0.7074 1.76936,0.94301 2.00555,2.00439 0.23619,1.06138 0.37792,1.69822 -0.42396,2.09945 -0.80187,0.40121 -3.01912,0.44905 -3.08967,1.13312 -0.0705,0.68405 -0.87186,3.09026 -1.53201,4.12831 -0.66015,1.03806 -1.86267,2.6424 -1.88598,3.53874 0.0472,0.21226 0.0944,0.42455 0.18898,0.84911 0.23619,1.06139 0.82639,2.71237 0.70858,3.18415 -0.28284,0.7313 -1.83933,1.74604 -1.86267,2.64238 -0.0233,0.89637 0.11831,1.53318 0.68466,2.07555 0.56627,0.54235 1.76938,0.94299 1.91108,1.57981 0.14179,0.63683 0.1183,1.53318 -0.30615,1.62767 -0.42457,0.0944 0.0233,-0.89635 -0.87303,-0.91968 -0.84911,0.18898 -1.32089,0.0711 -1.34423,0.9675 -0.0233,0.89634 1.55828,5.00016 1.44048,5.47196 -0.11787,0.47178 -0.37731,0.30674 0.0239,1.10862 0.14179,0.63684 0.66074,0.96691 1.1092,1.98106 0.40123,0.80187 -0.25892,1.83992 -0.54176,2.57123 -0.28284,0.7313 -1.13195,0.92026 -1.98106,1.10922 0,0 -0.21225,0.0472 -0.21225,0.0472 -0.63684,0.14179 -0.84911,0.18898 -1.08471,1.13254 -0.0233,0.89634 1.48653,1.6743 0.30735,2.38229 -1.226444,0.4957 -1.839947,-0.25894 -2.500684,-1.22585 -0.401231,-0.80186 -1.769962,-2.94795 -1.958312,-1.7921 0.02392,1.10863 0.449053,3.01912 0.118956,3.53816 -0.589603,0.35397 -2.90015,3.98719 -3.182991,4.7185 -0.117868,0.4718 0.495722,1.22641 -0.141137,1.36814 -0.636838,0.14179 -1.62765,-0.30618 -1.745453,0.16571 -0.117868,0.4718 -0.589016,2.35896 -1.485359,2.33564 0,0 0,0 -0.212251,0.0472 -0.896343,-0.0233 -1.981646,-0.89575 -2.076114,-1.32032 -0.306763,-0.37731 -1.486534,-1.67429 -1.628237,-2.31113 -0.14179,-0.63682 -0.684072,-0.0705 -0.542369,0.56627 0.188981,0.84911 0.802462,1.60375 0.212903,1.95774 -0.636838,0.14179 -1.250341,-0.61291 -1.227028,-1.50928 0.02327,-0.89634 -0.07111,-1.32089 -0.4957,-1.22642 -0.424565,0.0946 -0.849109,0.18898 -0.825187,1.29758 -0.02327,0.89634 -0.140485,3.3731 -0.565094,3.46759 -0.424566,0.0944 -1.085303,-0.87244 -0.684659,-2.07553 0.235606,-0.9436 0.895756,-1.98164 0.754031,-2.61848 -0.14179,-0.63684 -0.330662,-1.48595 -1.132537,-1.08472 -0.849109,0.18898 -1.674296,1.48654 -2.428915,2.10004 -0.754641,0.6135 -2.593975,2.35954 -2.358369,1.41597 0,0 0,0 -0.04719,-0.21225 0.447879,-0.99082 2.570075,-3.46818 3.74926,-4.17616 1.43869,-0.54295 1.368121,0.14114 2.21723,-0.0478 0.589603,-0.354 -0.07111,-1.32091 -0.189633,-2.85409 -0.118303,-1.53318 -0.519621,-2.33503 0.612329,-3.2553 1.344221,-0.9675 2.193331,-1.15646 2.523406,-1.67547 0.28284,-0.73133 0.306153,-1.62767 0.683462,-1.93441 0.16506,-0.25953 0.801875,-0.40123 1.061403,-0.2362 0,0 0.259506,0.16506 0.306741,0.37731 0.188981,0.84911 0.543543,3.44368 0.213555,3.96271 -0.330097,0.51903 -1.556516,1.01473 -1.273088,2.28839 0.283428,1.27367 0.826384,2.71236 1.392652,3.25473 0.566269,0.54235 0.754619,-0.61352 1.273066,-2.28841 0.306175,-1.62765 0.211598,-2.05219 0.09329,-3.58537 -0.118304,-1.53318 0.612328,-3.25532 1.414203,-3.65655 0.801875,-0.40121 2.547328,-0.56686 2.806834,-0.40182 0.259528,0.16506 -0.966913,0.66076 -1.367535,1.86384 -0.400644,1.20311 -1.10805,2.0289 -0.494547,2.78352 0.401231,0.80188 0.825797,0.70741 1.557103,0.99025 0.731306,0.28282 1.392043,1.24973 1.934412,0.68346 0.542347,-0.56627 1.084693,-1.13254 0.730719,-1.72212 -0.141791,-0.63683 -1.344831,-1.03748 -1.109225,-1.98106 0.235607,-0.94357 1.556494,-1.01473 1.414791,-1.65157 -0.09438,-0.42454 -0.330662,-1.48592 -0.04784,-2.21723 -0.04719,-0.21225 0.117869,-0.4718 0.282841,-0.7313 0.66015,-1.03807 2.003785,-4.01053 1.86206,-4.64737 0.07068,-0.68407 -1.203084,-0.40064 -1.179771,-1.29699 0.02327,-0.89634 0.565681,-1.46261 -5.88e-4,-2.00498 -0.566268,-0.54234 -0.613502,-0.75462 -0.990812,-0.44787 -0.424565,0.0944 -0.02327,0.89636 -1.037481,1.34483 -1.014147,0.44846 -3.04244,1.34539 -3.184143,0.70855 -0.0946,-0.42454 0.919656,-0.873 1.202497,-1.60431 0.330075,-0.51903 0.518447,-1.67491 -0.165712,-1.74545 -0.684072,-0.0707 -1.745453,0.16571 -1.722118,-0.73072 0.02327,-0.89635 0.211597,-2.05222 0.8485,-2.19392 0.636837,-0.14179 1.155872,0.18833 1.509868,0.77795 0.14179,0.63682 0.07111,1.32089 0.425131,1.91049 0.353997,0.58958 0.448466,1.01415 0.990834,0.44788 0.542347,-0.56627 0.825188,-1.29757 0.683485,-1.93441 -0.14179,-0.63684 -0.873031,-0.91968 -0.849697,-1.81602 0.02327,-0.89635 0.707385,-0.82578 0.258919,-1.83992 -0.401231,-0.80188 -1.557102,-0.99023 -1.651571,-1.41479 -0.09438,-0.42455 -0.02392,-1.10862 0.400644,-1.20311 0.424544,-0.0944 0.636837,-0.14179 1.509846,0.77797 0.873031,0.91966 0.755228,1.39146 1.297575,0.82519 0.542369,-0.56627 0.565681,-1.46261 0.942991,-1.76937 0.377331,-0.30674 1.085302,0.87244 2.099449,0.42398 1.014151,-0.44849 1.131951,-0.92027 0.565681,-1.46264 -0.613502,-0.75462 -0.77854,-0.49511 -0.448465,-1.01414 0.330075,-0.51902 0.188329,-1.15585 -0.118303,-1.53316 -0.306763,-0.37733 -0.519034,-0.33008 -0.401231,-0.80188 0.165059,-0.25953 0.588994,-2.35895 -0.07176,-3.32586 -0.707972,-1.17919 -2.123349,-1.5326 -2.595149,-1.6504 -0.4718,-0.11787 0.09438,0.42457 0.377896,1.69822 0.28345,1.27367 0.260115,2.17001 -0.706797,2.83075 -0.966912,0.66074 -1.603728,0.80246 -2.193331,1.15646 -0.589581,0.35397 -0.400644,1.20308 -1.367556,1.86384 -0.966891,0.66074 -2.146075,1.36871 -2.216644,2.05278 -0.117868,0.4718 0.4957,1.22642 5.87e-4,2.00498 -0.495112,0.77854 5.88e-4,2.00496 -1.485359,2.33563 -1.485925,0.33068 -4.292759,0.7325 -4.622855,1.25151 -0.330075,0.51903 0.448487,1.01415 -0.400623,1.20311 -0.849109,0.18898 -2.66513,1.03865 -3.160243,1.81719 -0.165059,0.25951 -0.330075,0.51904 -0.66015,1.03807 -0.447878,0.99081 -1.225853,2.50066 -1.555928,3.01969 -0.495113,0.77854 -2.45225,2.99638 -2.735091,3.72769 -0.28284,0.7313 0.59019,1.65098 1.486534,1.6743 0.849109,-0.18899 1.533159,-0.11831 3.301946,-1.18036 1.768788,-1.06197 3.797081,-1.9589 4.17439,-2.26566 0.424544,-0.0944 0.731306,0.28284 0.613503,0.75464 -0.117868,0.47177 -2.216665,2.05278 -3.490318,2.3362 -1.273653,0.28343 -2.335034,0.51963 -2.712365,0.82639 -0.589581,0.35399 -0.754619,0.6135 -1.226419,0.4957 -0.4718,-0.11787 -1.203106,-0.40065 -1.627649,-0.30616 -0.424566,0.0944 -0.282841,0.73131 -0.966913,0.66074 -0.684071,-0.0707 -1.108615,0.0239 -1.085303,-0.87242 -0.02392,-1.10864 0.423979,-2.09945 1.838748,-3.75102 1.367556,-1.86384 2.405037,-3.20865 2.593387,-4.36452 0.188329,-1.15585 0.188329,-1.15585 0.848522,-2.19392 0.330075,-0.51904 1.249753,-1.39205 2.16941,-2.26508 0.75464,-0.6135 1.509281,-1.227 2.051628,-1.79327 1.131949,-0.92027 2.923462,-4.88356 2.781737,-5.52037 0.07046,-0.68408 -0.779127,-2.5001 -0.284015,-3.27864 0.235607,-0.94358 0.565682,-1.46261 0.919678,-0.87303 0.14179,0.63684 -0.588994,2.35896 0.09503,2.42953 0.684071,0.0707 1.415377,0.35341 1.131949,-0.92027 -0.283427,-1.27365 -0.377896,-1.6982 -0.260093,-2.17 0.330075,-0.51903 0.919656,-0.87302 1.061381,-0.23619 0.14179,0.63684 0.566856,2.54733 -0.09329,3.5854 -0.612916,1.25032 -2.003807,4.0105 -1.64981,4.6001 0.353997,0.58961 0.660759,0.96692 0.990834,0.44788 0.542347,-0.56627 0.777953,-1.50984 1.060794,-2.24115 0.02327,-0.89634 0.801266,-2.40621 1.508672,-3.23199 0.495113,-0.77854 1.7921,-1.95831 1.909903,-2.43011 0.117869,-0.4718 -0.353997,-0.5896 -0.02392,-1.10861 0.542369,-0.56627 1.674906,0.51842 1.745453,-0.16571 0.07068,-0.68405 -5.87e-4,-2.00496 -0.354584,-2.59454 -0.401209,-0.80188 -1.769939,-2.94797 -1.746627,-3.84432 0.02327,-0.89634 -0.330662,-1.48594 -0.89693,-2.02829 -0.519035,-0.33007 -1.344809,-1.03748 -1.415965,-2.35837 -0.02392,-1.10863 -0.707972,-1.17918 0.04654,-1.79271 0.754641,-0.6135 1.745453,-0.16571 1.816022,-0.84969 0.07068,-0.68405 -0.07111,-1.32089 -0.755228,-1.39146 -0.684072,-0.0707 -1.62765,-0.30615 -2.38229,0.30735 -0.801853,0.40123 -1.579806,1.91108 -1.438103,2.54792 0.14179,0.63681 1.132537,1.08469 1.321496,1.9338 0.14179,0.63684 -0.306175,1.62767 -0.589016,2.35898 -0.282841,0.7313 -1.179184,0.70797 -1.108615,0.0239 0.07068,-0.68408 0.306153,-1.62765 -0.260116,-2.17 -0.77854,-0.49511 -1.203084,-0.40064 -0.920243,-1.13195 0.07046,-0.68407 0.306153,-1.62765 -0.425153,-1.91049 -0.259506,-0.16506 -0.684071,-0.0707 -1.155849,-0.18833 -0.424566,0.0944 -0.84911,0.18898 -1.014147,0.44847 -0.330075,0.51903 0.330662,1.48594 -0.117216,2.47675 -0.447878,0.99084 -1.13195,0.92027 -1.769374,-0.94299 -0.377897,-1.69821 0.282253,-2.73626 -0.80305,-3.6087 -1.085302,-0.87243 -4.434483,0.0957 -6.651736,0.14352 -2.217231,0.0478 -8.538892,-0.32772 -9.930957,-1.57747 -1.392043,-1.24974 -1.014146,0.44846 -2.523993,-0.32949 -1.462612,-0.56568 -1.911077,-1.57983 -2.760186,-1.39087 -0.896344,-0.0233 0.637424,1.86325 -2.547328,0.56685 -3.137496,-1.0841 -8.609461,0.35635 -12.57334,-3.44012 -3.704352,-3.63146 -9.861563,-6.27147 -12.598437,-8.55871 -2.736873,-2.287207 -4.458992,-3.017926 -4.458992,-3.017926 0,0 -3.043027,-0.659563 -2.901324,-0.02262 0.14179,0.636816 2.430112,1.909903 2.571836,2.546719 0.188981,0.849107 0.165712,1.745457 -0.376722,2.311717 -0.330075,0.51904 -1.367556,1.86385 -1.485359,2.33565 0.04719,0.21225 0.354584,2.59456 0.02457,3.11359 -0.282841,0.73131 -1.863256,0.63741 -1.816022,0.8497 0.04719,0.21225 1.581003,2.09884 1.510434,2.78291 0.14179,0.63684 -0.8485,2.19392 -0.706797,2.83076 0.14179,0.63683 0.166146,3.75043 0.449639,5.02408 0.283428,1.27366 0.732502,4.29278 1.298771,4.83513 0.21225,-0.0472 0.259506,0.16506 0.77854,0.49511 1.344809,1.03748 4.388424,3.70201 4.766342,5.40021 0.330662,1.48595 1.252689,8.6328 1.867366,13.39738 0.30735,2.38227 0.472974,4.12772 0.520209,4.34001 0.02392,1.10862 0.379092,5.70814 0.992595,6.46278 0.613503,0.75464 1.509847,0.77795 1.651571,1.41479 0.14179,0.63684 1.936761,8.70334 1.866192,9.38742 -0.07046,0.68407 -1.082954,7.14745 -0.941229,7.78427 0.14179,0.63684 0.755228,1.39146 1.085303,0.87244 0.330075,-0.51903 -0.213555,-3.9627 0.3289,-4.52897 0.542347,-0.56627 3.797646,0.0461 4.151643,0.63566 0.306762,0.37731 0.472387,2.12276 0.779128,2.50007 0.306762,0.37731 4.12833,1.53201 4.765167,1.39029 0.636837,-0.14179 2.335056,-0.51963 2.429524,-0.095 0.09438,0.42454 0.02392,1.10862 -1.037481,1.34481 -1.273653,0.28343 -5.660902,0.59136 -5.990977,1.1104 -0.330075,0.51901 -1.485359,2.33562 -1.697631,2.38285 0.04719,0.21225 0.59019,1.65099 0.212902,1.95775 -0.377309,0.30674 -1.179184,0.70797 -1.485924,0.33066 -0.306763,-0.37731 0.02327,-0.89634 -0.448466,-1.01414 -0.4718,-0.11787 -0.424565,0.0944 -0.801875,0.40123 -0.424565,0.0944 0.164407,-2.26449 -0.284015,-3.27864 -0.401231,-0.80187 -1.34483,-1.03748 -1.462612,-0.56568 -0.07046,0.68407 1.345984,5.04742 1.440452,5.47197 0,0 0.04719,0.21225 0.09438,0.42454 -0.02327,0.89637 -0.282253,2.73629 -0.187676,3.16083 0.306762,0.37733 0.990834,0.44788 1.203106,0.40064 0.21225,-0.0472 0.330075,-0.51903 0.707384,-0.82577 0.21225,-0.0472 0.613503,0.75462 1.085303,0.87242 0.4718,0.11787 0.188328,-1.15585 0.872422,-1.08528 0.636837,-0.14179 0.495721,1.22642 0.920265,1.13193 0.636837,-0.14179 0.447878,-0.99081 1.084716,-1.13254 0.849109,-0.18898 1.108615,-0.0239 1.25034,0.61294 0.14179,0.63682 1.085302,0.87242 1.392043,1.24973 0.306762,0.37733 0.118303,1.53318 0.637425,1.86326 0.731306,0.28284 1.698218,-0.3779 1.745452,-0.16571 0.04719,0.21225 0.07111,1.3209 -0.990225,1.55708 -1.061403,0.23619 -1.816608,-1.15527 -2.123371,-1.53258 -0.30674,-0.37733 -2.68903,-0.07 -2.806834,0.40182 -0.117868,0.47178 0.04784,2.21723 0.354584,2.59456 0.259506,0.16506 0.778541,0.49512 0.873009,0.91966 0.09438,0.42457 0.02392,1.10864 -0.612915,1.25034 -0.424544,0.0946 -1.132537,-1.08469 -1.392044,-1.24975 -0.259506,-0.16506 -0.02327,0.89636 0.330663,1.48594 0.09438,0.42457 0.89693,2.0283 1.038655,2.66513 0.14179,0.63682 -0.565681,1.46261 -0.990247,1.55708 -0.424544,0.0946 -0.376722,2.31172 -0.07003,2.68906 0.519034,0.33007 2.50068,1.22583 2.642384,1.86264 0.14179,0.63684 0.118303,1.53318 -0.306154,1.62767 -0.424565,0.0944 -0.448487,-1.01414 -1.014734,-1.55651 -0.566268,-0.54235 -0.825796,-0.70739 -1.25034,-0.61292 -0.424565,0.0944 -1.037481,1.34481 -1.202519,1.60434 -0.165059,0.25951 0.02392,1.10862 0.07111,1.32089 -0.165059,0.25953 -1.085303,-0.87242 -1.934412,-0.68349 -0.849109,0.18898 -0.943578,-0.23558 -0.849696,-1.816 0.09395,-1.58041 0.114823,-10.49663 -0.286364,-11.29851 -0.401231,-0.80187 -0.801875,0.40123 -0.660172,1.03807 0.14179,0.63682 -0.06763,10.70891 -0.208771,12.07705 -0.09395,1.58042 -0.706819,2.83074 -1.249165,3.397 -0.495113,0.77857 0.259506,0.16506 1.273652,-0.28342 1.014147,-0.44847 2.335056,-0.51963 2.476759,0.11721 0.306763,0.37731 0.118304,1.53318 0.684659,2.07553 0.566269,0.54237 1.911099,1.57983 3.066949,1.7682 0.943578,0.23561 2.924637,-0.87362 4.151056,-1.36932 0.424565,-0.0944 0.849109,-0.18898 1.273674,-0.28343 0.84911,-0.18898 1.745453,-0.16571 2.264487,0.16441 0.778541,0.49511 2.925224,1.13136 3.397024,1.24917 0.21225,-0.0472 0.68405,0.0705 0.731306,0.28282 0.849088,-0.18898 1.698197,-0.3779 2.429503,-0.095 1.934412,0.68349 1.675493,2.52341 1.958921,3.79708 0.188981,0.84911 0.802462,1.60373 1.840508,2.26388 0.778563,0.49513 1.887178,0.47121 2.948559,0.23502 1.061381,-0.23619 1.863256,-0.63742 2.500093,-0.77913 1.226419,-0.49572 2.2878,-0.73189 3.231378,-0.49631 1.462612,0.56568 8.139444,5.54078 8.635165,6.76719 0.4957,1.22642 2.66748,6.98123 2.573577,8.56164 -0.117869,0.4718 0.165711,1.74546 0.07176,3.32587 0.212903,1.95773 0.260703,4.17498 0.21399,5.96767 -0.02327,0.89634 -0.09395,1.58041 -0.211597,2.05221 -0.471213,1.88716 1.86443,3.37252 3.327042,3.9382 1.462612,0.56568 13.186843,4.19476 14.554986,4.33588 0.212252,-0.0472 0.424542,-0.0944 0.849112,-0.18898 2.80683,-0.40182 11.1562,-2.92816 12.02862,-4.01346 0,0 0.16506,-0.25951 0.16506,-0.25951 0.87244,-1.0853 1.86267,-2.64241 3.34862,-2.97307 1.48592,-0.33066 3.39702,1.24917 4.88294,0.91851 1.48595,-0.33069 4.88239,-1.08648 5.94377,-1.32267 0.21225,-0.0472 0.21225,-0.0472 0.42454,-0.0944 0.94358,0.23561 1.69881,1.62709 3.06695,1.7682 0,0 0,0 0,0 1.58042,0.094 1.06138,-0.23619 2.7596,-0.61409 1.69822,-0.37791 6.77013,1.3897 7.00632,2.45108 0.23619,1.06138 -0.51786,3.67986 0.75582,3.39644 1.22641,-0.49572 2.33444,-2.52461 3.82039,-2.85527 1.27365,-0.28343 2.97246,1.34364 4.55287,1.43752 0,0 0,0 0,0 1.58042,0.0939 8.60888,-2.36131 9.69359,-3.49384 0.37731,-0.30677 0.49511,-0.77854 0.66015,-1.03807 0.28284,-0.73131 0.44788,-0.99081 1.17919,-0.70797 1.2031,0.40064 1.76996,2.94795 4.50622,3.2302 2.73629,0.28225 8.79783,-1.51219 9.85922,-1.74839 0.84911,-0.18898 4.33942,-2.52519 5.6131,-2.80862 0.42454,-0.0944 1.48592,-0.33066 2.7596,-0.61409 1.48592,-0.33066 3.18414,-0.70858 4.92959,-0.8742 2.9719,-0.66132 5.77873,-1.06314 6.36831,-1.41714 1.48595,-0.33066 1.6504,-2.59515 2.87682,-3.09085 1.48594,-0.33066 1.17977,1.29699 3.34979,1.03687 2.16999,-0.26009 6.98122,-2.66748 8.91563,-1.98399 1.93439,0.68348 3.8688,1.36697 5.3075,0.82401 1.43871,-0.54293 2.73569,-1.7227 4.24495,-2.94973 0.21225,-0.0472 0.84911,-0.18898 1.74546,-0.16571 5.02408,-0.44964 20.21473,-0.2654 35.61763,-0.12831 4.69401,0.0694 9.6003,0.0916 14.08204,0.20812 1.58041,0.0939 3.11357,-0.0246 4.69399,0.0694 9.38802,0.13875 17.03057,0.44317 19.50733,0.56039 -1.98341,-6.91067 0.18724,-5.16579 0.63448,-8.16159 0.5651,-3.46759 -4.36687,-10.61326 -4.7681,-11.41514 0,0 0.0705,-0.68407 0.0468,-1.79268 -0.11831,-1.53319 0.0461,-3.79767 0.0217,-6.91125 -0.0257,-7.12353 -0.004,-18.04471 0.0618,-30.7586 -6.1e-4,-2.00496 -0.0485,-4.22222 -0.0489,-6.22717 0.0465,-1.79271 0.0933,-3.5854 0.13983,-5.37809 0.11482,-10.49664 0.13526,-21.41782 0.2029,-32.12673 -0.0239,-1.10863 -0.0479,-2.21725 -0.0718,-3.32587 0.0659,-16.72383 0.2029,-32.126725 0.24716,-41.939292 0.14048,-3.373124 -0.0489,-6.227192 -0.002,-8.019879 -3.91547,0.425718 -8.39721,0.309111 -12.83169,0.404754 z"
   id="path1085"
   style="stroke-width:2.17469;fill:#373e48" />
</svg>
