<?xml version="1.0" encoding="UTF-8" standalone="no"?>
<!-- Generator: Adobe Illustrator 27.2.0, SVG Export Plug-In . SVG Version: 6.00 Build 0)  -->

<svg
   version="1.1"
   id="Layer_1"
   x="0px"
   y="0px"
   viewBox="0 0 321.1 321.1"
   style="enable-background:new 0 0 321.1 321.1;"
   xml:space="preserve"
   sodipodi:docname="west-virginia.svg"
   inkscape:version="1.2.2 (732a01da63, 2022-12-09, custom)"
   xmlns:inkscape="http://www.inkscape.org/namespaces/inkscape"
   xmlns:sodipodi="http://sodipodi.sourceforge.net/DTD/sodipodi-0.dtd"
   xmlns="http://www.w3.org/2000/svg"
   xmlns:svg="http://www.w3.org/2000/svg"><defs
   id="defs1081" /><sodipodi:namedview
   id="namedview1079"
   pagecolor="#505050"
   bordercolor="#ffffff"
   borderopacity="1"
   inkscape:showpageshadow="0"
   inkscape:pageopacity="0"
   inkscape:pagecheckerboard="1"
   inkscape:deskcolor="#505050"
   showgrid="false"
   inkscape:zoom="2.653379"
   inkscape:cx="160.55"
   inkscape:cy="160.55"
   inkscape:window-width="1920"
   inkscape:window-height="1031"
   inkscape:window-x="0"
   inkscape:window-y="25"
   inkscape:window-maximized="1"
   inkscape:current-layer="Layer_1" />
<style
   type="text/css"
   id="style1075">
	.st0{fill:#FE8E69;}
</style>
<path
   id="West_Virginia_2_"
   class="st0"
   d="m 250.51432,137.88092 c -0.0154,-1.95978 0.62369,-2.22848 -0.54494,-2.25723 -1.16861,-0.0288 -1.02363,-0.78366 -0.7699,-2.10476 0.21747,-1.13236 -0.3487,-1.2411 -1.44482,-1.6473 -0.37748,-0.0725 -0.71869,-0.33372 -1.0599,-0.59494 -1.77854,-0.92864 0.65242,-3.39709 -0.0663,-3.73081 -0.71866,-0.33372 -3.54207,0.10243 -5.05191,-0.18756 -0.56617,-0.10878 -0.90738,-0.36996 -1.02363,-0.78366 -0.2687,-0.63868 -0.31246,-1.42984 -0.7699,-2.10476 -0.76242,-1.12487 -3.52083,-2.04601 -4.98691,-1.54482 -1.46608,0.5012 -1.82854,2.38847 -2.76468,3.18714 -0.48618,0.49368 -0.97989,0.008 -1.50981,-0.28997 -0.34121,-0.26123 -0.52995,-0.29748 -0.97989,0.008 -0.89989,0.60993 -3.3596,4.24702 -4.29575,5.04566 0,0 0,0 0,0 -0.74742,0.83492 -4.63821,-0.30371 -6.90294,-0.73865 -0.37746,-0.0725 -0.75491,-0.1449 -0.94365,-0.18122 -1.88727,-0.36244 -2.27972,-2.39472 -2.9184,-2.12599 -0.60243,0.0799 -6.62547,5.96805 -6.88669,6.30926 -0.22497,0.15259 -2.41722,-0.65992 -3.32461,-1.02988 -0.18871,-0.0363 -0.37745,-0.0725 -0.37745,-0.0725 0,0 -4.94193,4.33449 -7.82283,7.10792 -1.16111,0.95114 -1.90853,1.78605 -2.13351,1.93852 -0.52243,0.68242 -2.77217,2.20725 -4.2745,2.89716 -0.63868,0.26873 -1.01613,0.19624 -0.97989,0.008 0,0 -0.11626,-0.4137 0.0288,-1.16861 -0.03,-3.91954 0.65617,-17.68167 0.98864,-23.48849 l -9.76261,-0.11377 -6.4455,-0.0638 -16.6218,-0.0613 -3.91955,0.03 c 0,0 0.0363,-0.18872 -0.0438,-0.79115 0.065,-1.35735 0.18756,-5.05191 0.1499,-9.95135 -0.0438,-0.79115 0.10127,-1.54606 0.0575,-2.33721 0.0213,-2.1485 0.0425,-4.297 0.0999,-6.63424 0.05,-3.317106 0.17238,-7.011666 0.1424,-10.931206 0.065,-1.35735 0.12991,-2.71467 0.006,-4.10826 0.0938,-2.52596 0.18737,-5.05191 0.0924,-7.61411 -1.72728,0.84241 -3.57082,1.2711 -4.43448,1.69229 -0.6749,0.45746 -0.89989,0.60993 -0.78366,1.02363 -0.0363,0.18872 0.26872,0.63868 0.38497,1.05238 0.34871,1.24112 2.36722,3.97704 1.69981,5.41437 -0.36996,0.90739 -0.4787,1.47358 -0.4712,2.45347 0.0799,0.60242 0.15989,1.20485 0.39244,2.03225 0.39247,2.03227 -0.19496,4.07204 -1.43608,4.42074 -0.8274,0.23248 -1.2336,1.3286 -1.67605,2.61343 -0.10877,0.5662 -0.40618,1.09612 -0.47869,1.4736 0,0 -0.0363,0.188716 -0.0363,0.188716 -0.4787,1.47357 -0.28247,2.4897 -0.91363,3.73832 -0.26123,0.34121 -0.40621,1.09612 -0.58745,2.03974 -0.36244,1.8873 -0.68115,4.56572 -0.97862,5.09567 -0.36996,0.90738 -0.67493,0.45744 -1.2411,0.3487 -0.56619,-0.10877 -0.0725,0.37746 0.46493,1.6548 0.38497,1.05238 -0.4062,1.09612 -1.11735,1.7423 -0.0363,0.18871 -0.22498,0.15259 -0.26123,0.34121 -0.78366,1.02363 -0.58742,2.03976 -1.29859,2.68594 -0.71117,0.64617 0.12376,1.39359 0.95863,2.141 0,0 0.15259,0.22496 0.15259,0.22496 0.45744,0.67493 -0.21749,1.13239 -1.04488,1.36485 -1.05238,0.38496 -0.44245,1.28485 -0.65992,2.41722 -0.21749,1.13236 -0.66743,1.43733 -2.28598,1.71354 v 0 c -1.61857,0.27624 -1.08863,0.57369 -2.88842,1.79355 -0.22496,0.1524 -0.22496,0.1524 -0.44995,0.30497 -1.42234,1.29235 -2.38722,3.2596 -3.43208,4.62444 0,0 0,0 0,0 -1.26987,1.51734 -2.81593,1.4161 -3.1134,1.94604 -0.29745,0.52993 -0.66741,1.43733 -1.68355,1.63355 -1.01614,0.19623 -0.87114,-0.55868 -2.37346,0.13125 -0.86366,0.42122 -1.3861,1.10364 -1.83604,1.4086 -0.22498,0.1524 -0.44994,0.30497 -0.8274,0.23246 -1.16863,-0.0286 -0.87865,-1.53857 -1.2636,-2.59093 -0.38497,-1.05238 -1.3286,-1.23362 -1.88729,-0.36246 -0.36996,0.9074 -1.04487,1.36484 -2.28599,1.71354 -1.24109,0.34871 -0.52243,0.68242 -0.95738,2.94717 -0.43494,2.26473 -1.26985,1.51731 -2.36597,1.11111 -0.94365,-0.18122 -1.92352,-0.17373 -2.75092,0.0588 0,0 -0.18871,-0.0363 -0.22498,0.1524 -0.67492,0.45746 0.0438,0.79117 -0.1374,1.7348 -0.18123,0.94365 -0.86365,0.42121 -1.68355,1.63356 -0.0363,0.18872 -0.26123,0.34121 -0.29747,0.52995 -0.21747,1.13236 0.58118,2.0685 0.51619,3.42584 -0.0363,0.18872 -0.0725,0.37746 -0.0725,0.37746 -0.55868,0.87115 -2.37347,0.13125 -2.44597,0.50869 -0.10878,0.56619 1.56107,2.061 2.09101,2.35847 0.49369,0.48619 -0.25373,1.3211 -1.00114,2.15599 -0.7474,0.83492 0.19623,1.01614 1.03114,1.76355 0.8349,0.74742 -0.4062,1.09612 -1.79979,1.21987 -1.2411,0.3487 -1.02363,-0.78366 -1.63356,-1.68357 -0.60993,-0.89989 -0.26123,0.34121 -0.55118,1.85105 -0.28996,1.50982 -1.00865,1.1761 -2.14101,0.95863 -0.18872,-0.0363 -0.37745,-0.0725 -0.56617,-0.10877 -1.546081,-0.10128 -0.60993,-0.89991 -0.0154,-1.95978 0.59495,-1.05987 0.16624,-2.90341 -0.13875,-3.35335 -0.11626,-0.4137 -1.088621,0.57368 -2.525951,-0.0938 -1.28486,-0.44245 -0.42869,-1.84354 -1.44483,-1.64731 -0.60243,0.0799 -1.12486,0.76241 -1.45858,1.48107 -0.26123,0.34121 -0.33372,0.71867 -0.59492,1.05988 -0.44245,1.28485 -0.84866,2.38097 -1.7123,2.80219 -0.89991,0.60991 -0.32622,1.69853 -0.57993,3.01963 -0.25373,1.3211 -2.02478,1.37234 -2.69968,1.8298 -0.48621,0.49368 -0.36996,0.90738 0.46493,1.65479 0.64618,0.71117 0.98739,0.9724 0.50869,2.44597 -0.44245,1.28484 -0.10127,1.54607 0.66119,2.67094 0.7624,1.12486 -0.28248,2.48971 -1.93728,2.95466 v 0 c -1.84353,0.42869 -1.02363,-0.78366 -2.22099,0.3562 0,0 0,0 0,0 -1.2336,1.32859 -1.15986,6.03929 -2.40096,6.388 -1.27736,0.53744 -1.92354,-0.17373 -3.54209,0.10243 -0.79115,0.0438 -1.42983,0.31248 -2.25723,0.54493 -0.8274,0.23248 -1.87978,0.61743 -2.78718,0.24749 -0.18872,-0.0363 -0.52993,-0.29747 -0.71867,-0.33372 -0.25371,1.3211 -0.3187,2.67843 -0.16623,2.90341 0.30496,0.44995 1.02363,0.78366 0.58869,3.04839 -0.14509,0.75491 -0.47869,1.47357 -0.8124,2.19224 -0.63119,1.24861 -1.41483,2.27224 -1.40733,3.25213 0.16008,1.20485 1.13985,1.19736 1.41607,2.81591 0.27622,1.61857 0.81366,2.89592 1.98978,3.90456 1.1761,1.00862 2.19224,0.81239 2.12725,2.16973 -0.21747,1.13236 -1.6548,0.46495 -0.58743,2.03977 0,0 0.15239,0.22496 0.15239,0.22496 0.45746,0.67492 1.18362,1.98853 2.25099,3.56334 1.18362,1.98852 2.33099,4.16576 3.36212,5.92929 0.57368,1.08863 1.03112,1.76355 1.33609,2.2135 0.91489,1.34985 0.99488,1.95227 2.04726,1.56732 1.05238,-0.38495 0.53744,1.27734 1.60481,2.85215 1.06739,1.57483 2.46847,2.43098 4.58071,2.64095 1.35735,0.065 2.52595,0.0938 3.01966,0.57994 0.15239,0.22496 0.34121,0.2612 0.26872,0.63866 -0.18123,0.94364 -1.53857,0.87865 -1.3786,2.0835 -0.0363,0.18872 0.15259,0.22498 0.11626,0.41372 0.4212,0.86364 1.3286,1.2336 1.93853,2.13349 0.60993,0.89989 -1.16111,0.95114 0.0225,2.93965 1.37235,2.02476 3.579581,4.79695 4.711961,5.01442 0.56617,0.10877 1.28484,0.44245 1.77854,0.92864 0.52993,0.29747 0.83489,0.74741 1.3286,1.2336 0.79865,0.93615 3.13588,0.99363 4.82692,0.33996 1.69106,-0.65367 6.15428,-3.51459 6.82171,-4.95192 0.2612,-0.34121 0.44994,-0.30496 0.97987,-0.008 1.24861,0.63117 2.88967,3.29461 4.17452,3.73706 0.37746,0.0725 0.56618,0.10877 0.94363,0.18122 1.35735,0.065 2.89591,-0.81366 4.89194,-1.01738 0.97987,-0.008 1.95976,-0.0154 2.78716,-0.24747 1.58233,-0.0874 3.01216,-0.39996 3.68707,-0.8574 1.16111,-0.95114 0.39871,-2.07601 0.57993,-3.01965 0.10877,-0.56618 0.55118,-1.85103 0.92114,-2.75842 0.29747,-0.52994 0.40621,-1.09613 0.59494,-1.05989 0,0 0.1524,0.22498 0.30497,0.44996 0.57367,1.08863 1.5323,3.22961 2.54844,3.03338 1.42983,-0.31246 10.06632,-4.52446 10.06632,-4.52446 0,0 0.54494,2.25724 0.73368,2.29348 0,0 0.22496,-0.15259 0.63866,-0.26872 1.7273,-0.84241 6.30676,-3.28963 6.30676,-3.28963 0,0 -2.83092,-0.54367 -1.33609,-2.21347 1.00862,-1.17612 2.73593,-2.01853 3.63582,-2.62844 0.44994,-0.30497 0.67492,-0.45746 0.71117,-0.64618 -0.11627,-0.4137 -2.72219,-1.10988 -2.58471,-2.84468 0.0363,-0.18872 0.0363,-0.18872 0.0725,-0.37745 0.39871,-2.07599 5.0644,-8.02906 7.00918,-10.00383 0.4862,-0.49368 0.97239,-0.98739 1.49482,-1.66981 1.26985,-1.51731 2.80093,-3.37585 3.84581,-4.74069 0.55868,-0.87114 0.89239,-1.58981 0.96488,-1.96726 0.0288,-1.16863 -0.32747,-3.38962 0.19498,-4.07204 0.48619,-0.49368 3.49084,-1.87353 4.15825,-3.31086 0,0 0.0363,-0.18872 0.0363,-0.18872 0.63119,-1.24861 -0.53742,-1.27736 0.50745,-2.6422 0.85614,-1.40108 3.3746,-2.28723 4.36074,-6.40299 0.7974,-4.15202 1.23235,-6.41675 1.23235,-6.41675 0,0 0.18872,0.0363 0.75491,0.14491 1.28484,0.44245 4.19576,1.58855 4.54447,2.82967 0.46495,1.65479 -1.2986,2.68592 1.45983,3.60706 1.81479,0.73992 3.8908,1.13863 5.21188,1.39234 0.75493,0.1449 1.35734,0.065 1.35734,0.065 0,0 0.59494,-1.05988 1.41485,-2.27224 1.74854,-2.99089 4.68694,-8.10155 5.20188,-9.76386 0.36996,-0.90738 0.96488,-1.96726 1.59605,-3.21587 1.18986,-2.11975 2.53222,-4.01454 2.53222,-4.01454 0,0 3.71706,3.06215 3.86954,3.28713 0,0 0.22498,-0.15259 0.71117,-0.64617 0.55867,-0.87116 1.67605,-2.61346 2.23473,-3.48461 0.85614,-1.40109 1.50232,-0.68992 3.82455,-2.5922 2.32222,-1.90226 3.17837,-3.30335 4.44822,-4.82068 0.22498,-0.1524 0.26123,-0.34121 0.48621,-0.49368 0.74739,-0.83492 1.2336,-1.3286 1.75603,-2.01102 0.26123,-0.34121 0.71117,-0.64618 1.19736,-1.13988 1.3861,-1.10361 2.061,-1.56105 1.97352,-3.14338 -0.27621,-1.61855 0.36245,-1.88727 0.69616,-2.60594 0.33372,-0.71866 -2.83091,-0.54368 -0.24746,-2.78718 2.58343,-2.24349 0.76115,-3.96328 1.31234,-5.81431 0.1449,-0.75491 0.25371,-1.3211 0.10127,-1.54606 -0.0799,-0.60244 0.10878,-0.56619 1.62607,0.70365 0.49368,0.48619 1.70605,1.3061 3.03465,2.5397 2.04726,1.56732 4.74069,3.8458 7.12916,5.67435 2.88216,2.31471 5.4231,4.36822 6.29426,4.92692 0.15239,0.22496 0.34121,0.2612 0.34121,0.2612 0.18872,0.0363 3.19211,-6.43174 3.8233,-7.68035 0.0363,-0.18872 0.29747,-0.52993 0.33372,-0.71866 0,0 -0.26873,-0.63866 -0.27624,-1.61856 z"
   style="stroke-width:1.92177;fill:#373e48" />
</svg>
