<?xml version="1.0" encoding="UTF-8" standalone="no"?>
<!-- Generator: Adobe Illustrator 27.2.0, SVG Export Plug-In . SVG Version: 6.00 Build 0)  -->

<svg
   version="1.1"
   id="Layer_1"
   x="0px"
   y="0px"
   viewBox="0 0 321.1 321.1"
   style="enable-background:new 0 0 321.1 321.1;"
   xml:space="preserve"
   sodipodi:docname="wisconsin.svg"
   inkscape:version="1.2.2 (732a01da63, 2022-12-09, custom)"
   xmlns:inkscape="http://www.inkscape.org/namespaces/inkscape"
   xmlns:sodipodi="http://sodipodi.sourceforge.net/DTD/sodipodi-0.dtd"
   xmlns="http://www.w3.org/2000/svg"
   xmlns:svg="http://www.w3.org/2000/svg"><defs
   id="defs1073" /><sodipodi:namedview
   id="namedview1071"
   pagecolor="#505050"
   bordercolor="#ffffff"
   borderopacity="1"
   inkscape:showpageshadow="0"
   inkscape:pageopacity="0"
   inkscape:pagecheckerboard="1"
   inkscape:deskcolor="#505050"
   showgrid="false"
   inkscape:zoom="2.653379"
   inkscape:cx="160.55"
   inkscape:cy="160.55"
   inkscape:window-width="1920"
   inkscape:window-height="1031"
   inkscape:window-x="0"
   inkscape:window-y="25"
   inkscape:window-maximized="1"
   inkscape:current-layer="Layer_1" />
<style
   type="text/css"
   id="style1066">
	.st0{fill:#FE8E69;}
</style>
<path
   class="st0"
   d="m 267.76843,119.19962 c -0.57072,-0.88085 -1.17021,-1.34285 -1.82726,-0.96717 -0.43323,0.18066 -1.56665,1.36524 -1.80485,1.76969 -0.44761,0.39008 -0.88085,0.57071 -1.29967,0.54195 -0.20944,-0.0136 -0.54835,1.85602 -0.60589,2.69369 -0.0575,0.83769 -0.49078,1.01834 -0.92401,1.19898 -0.43324,0.18067 -0.89524,0.78016 -1.13343,1.1846 -0.22381,0.19493 -0.78013,-0.89524 -1.63221,-0.74336 -0.65705,0.37568 -0.74337,1.63221 -0.78651,2.26046 -0.0433,0.62828 -0.47641,0.80891 -0.7146,1.21339 -0.0288,0.41883 0.31814,1.49472 -0.14383,2.0942 -0.462,0.5995 -3.48661,4.81031 -3.79674,6.26188 -0.31013,1.45155 -0.96717,1.82723 -0.57712,2.27485 0.39009,0.44762 0.79454,0.6858 0.76575,1.10466 -0.0433,0.62828 -0.29574,1.24214 -0.70019,1.00396 -0.19514,-0.22382 0.0433,-0.62827 -0.3325,-1.28532 -0.37571,-0.65702 -1.00396,-0.7002 -1.25653,-0.0863 -0.25261,0.61387 -0.072,1.04712 -0.90962,0.98958 -0.83771,-0.0575 -1.01835,-0.49079 -1.46597,-0.10077 -0.462,0.59948 -0.71459,1.21337 -1.55227,1.15581 -0.83768,-0.0575 -1.85602,-0.54831 -2.58498,0.87447 -0.72898,1.42279 -3.29159,5.0341 -3.34914,5.8718 -0.0287,0.41885 -0.28136,1.03271 -0.32451,1.66098 -0.25259,0.61388 -0.50516,1.22775 -0.72898,1.4228 0,0 0,0 0,0 -0.67143,0.5851 -1.49473,0.31812 -1.94234,0.70818 -0.44761,0.39009 -2.68571,2.34042 -3.14771,2.93992 -0.25257,0.61386 0.12313,1.27091 -0.77213,2.05103 -0.89523,0.78015 -1.70415,0.30377 -2.33242,0.2606 -0.62825,-0.0433 -1.21336,-0.7146 -1.1702,-1.34285 0.0431,-0.62826 1.38601,-1.79847 1.4148,-2.21733 -0.16618,-0.64263 -1.01834,-0.49076 -0.54196,-1.29968 0.26699,-0.8233 0.67142,-0.5851 0.74336,-1.63221 0,0 0,0 0.0137,-0.20942 0.28136,-1.03273 -0.69382,-2.15177 0.41084,-2.91751 1.10465,-0.76576 1.79048,-1.56028 2.115,-3.22126 0.32451,-1.66097 0.11505,-1.67538 0.96716,-1.82725 0.85207,-0.15189 0.86645,-0.3613 1.34286,-1.17019 0.47637,-0.80892 0.90962,-0.98958 0.95277,-1.61783 0.0433,-0.62827 -1.79847,-1.38603 -0.90323,-2.16614 0.46198,-0.5995 1.55228,-1.15584 2.62814,-1.50274 0.85209,-0.15189 1.71853,-0.51316 2.76564,-0.44122 2.52745,-0.0369 1.95675,-0.91764 2.115,-3.22127 0.14384,-2.09422 0.35329,-2.07983 1.0535,-3.08377 0,0 0,0 0.0137,-0.20943 -0.62826,-0.0431 -1.24215,-0.29575 -1.85602,-0.54833 -1.84163,-0.75774 -2.20292,-1.62421 -3.5106,-4.02855 -1.30771,-2.40434 1.64498,-5.56806 2.34518,-6.572 0.89522,-0.78014 -0.20305,-3.1701 -1.65461,-3.48024 -1.66099,-0.32451 -0.92401,1.19898 -2.22369,1.74094 -1.29971,0.54194 -2.7225,-0.18709 -4.14528,-0.916 -1.42279,-0.72899 2.48266,-5.51051 2.74165,-9.28011 0.21585,-3.14131 1.08864,-6.658318 -1.30931,-8.506338 -0.39009,-0.447626 -1.00396,-0.700197 -1.82725,-0.96718 -2.4699,-0.80089 -4.53534,-1.363619 -6.18195,-1.897562 -1.43716,-0.519554 -2.24608,-0.995932 -2.63614,-1.443546 -0.75136,-1.31409 2.29564,-2.788023 2.2013,-4.477787 0.0287,-0.418851 -0.78013,-0.895241 -2.00789,-1.400406 -2.65053,-1.23414 -7.84292,-2.222073 -11.16487,-2.871119 -4.77353,-0.959157 -5.7551,1.077505 -6.80221,1.005566 -0.41884,-0.02871 -0.8089,-0.47639 -1.19899,-0.924005 -0.37567,-0.657045 -0.94637,-1.537897 -1.35084,-1.77608 -0.79451,-0.685821 -4.35468,-0.930394 -6.00127,-1.464347 -0.6139,-0.252583 -1.22777,-0.505154 -1.82726,-0.967157 -0.59949,-0.462025 -1.21336,-0.714596 -1.81285,-1.176599 -1.21336,-0.714597 -2.41236,-1.638601 -3.84953,-2.158155 -2.03665,-0.981557 -19.21723,-5.107591 -29.34938,-7.69735 -3.92146,-1.111048 -7.01963,-1.955114 -7.42408,-2.193308 -1.4084,-0.938381 -4.32753,-7.451233 -5.49774,-8.794087 -0.37568,-0.657022 -1.76969,-1.804857 -3.35874,-3.176475 -1.73292,0.722596 -1.73292,0.722596 -2.3324,0.260595 -0.80891,-0.476403 -1.63221,-0.743362 -2.88875,-0.82969 0,0 0,0 -0.20943,-0.01364 -1.45155,-0.310123 -5.381,-4.36745 -6.18993,-4.843841 -0.79453,-0.685809 -0.86647,0.361298 -1.13342,1.184599 -0.2526,0.613869 0.31811,1.494721 -1.84803,2.39796 -1.94235,0.708185 -2.86634,1.907183 -3.89907,1.625824 0,0 -0.20942,-0.01364 -0.19514,-0.223808 -1.00393,-0.700197 0.25259,-0.613881 0.32453,-1.660989 0.0575,-0.837699 -0.52756,-1.509121 0.3389,-1.870395 0.86646,-0.361298 2.15177,-0.693832 2.22371,-1.740939 0.0575,-0.837677 -0.54194,-1.299679 -0.69384,-2.151767 -0.15188,-0.852065 0.26699,-0.8233 0.51956,-1.437169 0.0433,-0.628257 -0.41883,-0.02871 0.71459,-1.213363 1.11905,-0.975167 2.05744,-2.383572 2.11498,-3.221273 0.0575,-0.837676 0.29575,-1.242127 0.53394,-1.646588 0.46201,-0.599493 -0.051,-2.318022 -1.66897,-3.27079 -1.61782,-0.952793 -2.72248,-0.187091 -3.58894,0.174231 -0.86646,0.361286 -1.49472,0.318122 -2.10861,0.06554 -0.61387,-0.252571 -2.62816,1.502722 -2.6713,2.131003 -0.0433,0.628256 0.1374,1.061482 -0.29574,1.242126 -0.44763,0.390086 -1.21339,-0.714573 -1.63222,-0.74335 -0.41884,-0.02871 0.75137,1.314067 -0.31013,1.451558 -1.06148,0.137409 -1.43719,-0.519555 -1.39402,-1.147811 -0.18065,-0.433239 -0.71459,1.213362 -0.95279,1.617812 -0.2382,0.404462 -0.3613,-0.866452 -0.97516,-1.119046 -0.61388,-0.252572 -0.83769,-0.05753 -1.32847,0.96079 -0.50516,1.227762 -1.5235,0.736972 -2.15175,0.69382 -0.62828,-0.04329 -1.06152,0.137409 -1.53789,0.94638 -0.68582,0.794536 -0.7002,1.003956 -1.5379,0.946403 -0.83768,-0.05752 -2.5706,0.665045 -2.7944,0.860088 -0.22383,0.194936 -1.07588,0.34691 -2.15178,0.693808 -0.64264,0.166161 -1.06149,0.137397 -1.68975,0.09436 -1.27091,0.123126 -6.527234,3.128556 -8.830867,2.970289 -2.513042,-0.172597 -3.43707,1.026342 -4.802299,-0.54032 -0.975168,-1.119046 -2.383573,-2.057451 -3.163698,-2.952679 -1.942347,0.708208 -4.31792,1.597047 -4.556116,2.001498 -0.04329,0.62828 1.755304,2.014276 0.455614,2.556216 -1.314078,0.751385 -2.903128,-0.620257 -3.321977,-0.649022 0,0 0,0 0,0 -0.462003,0.599482 -0.425215,3.126934 -0.468379,3.755192 -0.01364,0.209423 -0.07822,4.202829 -0.199739,9.033891 -0.10705,4.621656 -0.242986,9.662173 -0.278127,13.236722 -0.143833,2.094215 -0.03481,3.574561 -0.244595,3.560148 -0.238196,0.404473 -14.440451,8.055579 -14.916841,8.864492 -0.462002,0.599493 -3.305966,5.243535 -5.00212,8.493573 -0.728949,1.422793 -1.219739,2.441124 -1.248515,2.859963 -0.02871,0.418849 -0.072,1.047109 -0.310123,1.451562 v 0 c -0.072,1.04712 -0.367687,2.28924 0.231806,2.75124 0.780124,0.89525 3.755191,0.46841 5.091657,2.45391 1.336465,1.98552 1.748926,5.16997 1.857629,6.65032 -0.100825,1.46595 -2.562594,3.61133 -2.663297,5.07726 0,0 -0.01364,0.20944 -0.01364,0.20944 -0.05752,0.83768 -0.367675,2.28926 -0.706598,4.15966 -0.425215,3.12694 -1.117413,7.07718 -0.951158,7.71981 0.123127,1.27092 1.315701,5.35064 0.442848,8.86763 -0.02883,0.41885 -0.04306,0.62828 -0.26696,0.82331 v 0 c -0.829689,2.88874 -1.57305,4.52094 -1.226163,5.59683 -0.01364,0.20942 0.180666,0.43322 0.375686,0.65703 0.390086,0.44763 1.17021,1.34285 1.950358,2.2381 2.549828,2.70008 6.089223,6.30979 7.107543,6.80057 1.632212,0.74338 4.39786,0.30213 5.849429,0.61227 0.61387,0.25257 0.808889,0.47638 0.975168,1.11904 -0.02871,0.41883 0.137408,1.06149 0.498765,1.92794 0.375698,0.65704 1.58906,1.37163 3.221273,2.115 1.422793,0.72896 3.264425,1.4867 4.687207,2.21569 2.246093,0.99593 4.073325,1.96312 4.239603,2.60577 0.332499,1.2853 1.496333,5.78385 3.403492,8.65022 0.194937,0.22381 0.390085,0.44761 0.585117,0.67142 2.130989,2.67131 7.093177,7.00999 10.133771,8.69176 0.6139,0.25257 1.22777,0.50515 1.63221,0.74336 2.07983,0.35328 3.53141,0.66341 4.50658,1.78246 0.19494,0.22381 0.39007,0.44761 0.57072,0.88086 0.73695,1.5235 2.7017,3.55216 3.40989,5.4945 0.18066,0.43321 0.16617,0.64264 0.3469,1.07587 0.16618,0.64267 0.44125,2.76565 0.70184,5.09805 0.36928,3.81274 1.09988,8.49196 1.34606,11.03379 0.15191,0.85207 0.0944,1.68976 0.28937,1.91357 0.15189,0.85207 -0.11505,1.67537 -0.17261,2.51306 -0.0575,0.8377 -0.10087,1.46595 0.27499,2.12299 0.96078,1.32848 4.2108,3.0246 4.70959,4.95256 0.4844,2.13738 -3.21165,6.93329 -3.52178,8.38485 -0.0136,0.20941 -0.0575,0.83769 -0.11505,1.67537 -0.072,1.04711 0.0223,2.73687 0.13118,4.2172 0.051,2.31802 0.32612,4.44102 0.68742,5.30748 0.70821,1.94235 2.66654,7.12672 4.25559,8.49834 0.58511,0.67143 2.84559,1.45795 5.12045,2.03505 2.88873,0.82967 6.18192,1.89755 6.97646,2.58339 1.394,1.14781 1.19258,4.0797 1.27252,5.97888 2.31803,-0.051 5.04051,0.13575 7.77737,0.11343 5.68314,-0.0304 12.39903,0.22066 19.3387,0.27656 1.0471,0.072 1.8992,-0.0798 2.9463,-0.008 5.26429,-0.0592 10.51422,0.0912 15.98796,0.0464 0.62826,0.0431 1.25652,0.0863 1.68977,-0.0944 5.26429,-0.0592 10.51423,0.0912 15.5691,0.0174 1.89919,-0.0799 3.78398,0.0495 5.68315,-0.0304 1.04711,0.072 2.10862,-0.0657 3.36515,0.0219 5.05487,-0.0737 9.88596,0.0477 14.522,-0.0544 8.00117,-0.0815 14.73144,-0.0401 19.14368,0.0526 0.0575,-0.83767 -0.1086,-1.48034 -0.0798,-1.89916 -0.0944,-1.68977 -1.10627,-5.33626 -0.16781,-6.74466 v 0 c 0.924,-1.19898 1.47234,-3.05502 1.57305,-4.52095 0.10077,-1.46595 -0.28936,-1.91357 -1.68337,-3.06138 -0.19494,-0.22381 -0.39007,-0.44761 -0.58511,-0.67142 -0.96079,-1.32848 -1.22136,-3.66088 -0.74498,-4.46979 0.50517,-1.22778 -0.45561,-2.55622 -1.0551,-3.01824 -0.59949,-0.462 -1.56027,-1.79047 -1.3077,-2.40434 0.0433,-0.62826 1.10466,-0.76575 1.37164,-1.58905 0.0575,-0.83768 -0.7226,-1.7329 -0.88885,-2.37557 -0.16617,-0.64266 0.12955,-1.88478 0.39645,-2.70809 0.0287,-0.41885 -0.3613,-0.86646 -0.96079,-1.32846 -0.39006,-0.44762 -0.76573,-1.10466 -0.70821,-1.94234 0.33892,-1.8704 0.77215,-2.05107 1.08228,-3.50261 0.10078,-1.46597 -0.23183,-2.75127 0.49716,-4.17405 0.72897,-1.42279 1.89117,-3.02623 2.2157,-4.68722 0.072,-1.0471 0.36767,-2.28924 0.45401,-3.54576 0.0431,-0.62828 0.29572,-1.24215 0.54832,-1.85602 0.51956,-1.43719 2.29564,-2.78804 2.42512,-4.67283 0.12954,-1.88478 0.41723,-6.07321 -0.12477,-7.37292 -0.55632,-1.09025 -1.11266,-2.18052 -1.02633,-3.43706 0.0137,-0.20943 0.0287,-0.41882 0.0287,-0.41882 0.51955,-1.4372 1.01031,-2.45552 1.06787,-3.29322 0.0575,-0.83767 -0.2318,-2.75123 0.43963,-3.33634 0.67142,-0.5851 1.16219,-1.60345 1.26288,-3.06938 0.10078,-1.46596 0.12957,-1.88481 0.78654,-2.26048 0.65705,-0.37569 2.79441,-0.86007 3.29958,-2.08784 0.7146,-1.21335 0.24457,-3.56017 -0.0735,-5.05489 -0.34691,-1.07587 -0.49879,-1.92794 -0.42685,-2.97505 0.0136,-0.20942 0.0433,-0.62827 0.26696,-0.82329 0.49079,-1.01834 0.60589,-2.69373 0.72099,-4.36908 0.11505,-1.67539 0.908,-7.09156 2.26524,-8.4712 0.68582,-0.79451 1.23413,-2.65053 1.75369,-4.08772 0.49079,-1.01831 0.77214,-2.05104 1.21976,-2.4411 1.10465,-0.76576 0.57709,-2.27488 0.84408,-3.09817 0.26695,-0.8233 1.31405,-0.75136 1.79046,-1.56028 0.47638,-0.80891 -0.51317,-1.71853 0.14384,-2.09421 0.65701,-0.37568 1.48032,-0.1086 1.95672,-0.91762 0.47638,-0.80891 -0.96079,-1.32847 -0.30374,-1.70415 0.44761,-0.39006 0.85206,-0.15189 1.50911,-0.52754 0.65704,-0.37568 -1.09827,-2.38996 0.0219,-3.36513 0.90962,-0.98957 1.52348,-0.73698 1.59542,-1.78408 0.072,-1.04711 -0.51316,-1.71854 0.12955,-1.88479 0.64265,-0.16617 0.58511,0.67141 1.46597,0.10078 0.88082,-0.57072 1.59542,-1.78408 1.63857,-2.41236 0.0433,-0.62826 -1.24213,-0.29575 -0.5707,-0.88083 0.67143,-0.5851 1.48034,-0.10859 1.11905,-0.97516 -0.1519,-0.8521 -1.28532,0.33251 -1.17021,-1.34286 0.10077,-1.46596 -0.0368,-2.52745 0.39644,-2.70811 0.43324,-0.18065 -0.0863,1.25655 1.19898,0.92403 1.2853,-0.33253 1.19099,-2.0223 0.99594,-2.2461 -0.0287,0.41885 0.65705,-0.37569 0.0863,-1.25652 z"
   id="path1068"
   style="stroke-width:2.09915;fill:#373e48" />
</svg>
