<?xml version="1.0" encoding="UTF-8" standalone="no"?>
<!-- Generator: Adobe Illustrator 27.2.0, SVG Export Plug-In . SVG Version: 6.00 Build 0)  -->

<svg
   version="1.1"
   id="Layer_1"
   x="0px"
   y="0px"
   viewBox="0 0 321.1 321.1"
   style="enable-background:new 0 0 321.1 321.1;"
   xml:space="preserve"
   sodipodi:docname="wyoming.svg"
   inkscape:version="1.2.2 (732a01da63, 2022-12-09, custom)"
   xmlns:inkscape="http://www.inkscape.org/namespaces/inkscape"
   xmlns:sodipodi="http://sodipodi.sourceforge.net/DTD/sodipodi-0.dtd"
   xmlns="http://www.w3.org/2000/svg"
   xmlns:svg="http://www.w3.org/2000/svg"><defs
   id="defs1064" /><sodipodi:namedview
   id="namedview1062"
   pagecolor="#505050"
   bordercolor="#ffffff"
   borderopacity="1"
   inkscape:showpageshadow="0"
   inkscape:pageopacity="0"
   inkscape:pagecheckerboard="1"
   inkscape:deskcolor="#505050"
   showgrid="false"
   inkscape:zoom="2.653379"
   inkscape:cx="160.55"
   inkscape:cy="160.55"
   inkscape:window-width="1920"
   inkscape:window-height="1031"
   inkscape:window-x="0"
   inkscape:window-y="25"
   inkscape:window-maximized="1"
   inkscape:current-layer="Layer_1" />
<style
   type="text/css"
   id="style1058">
	.st0{fill:#FE8E69;}
</style>
<path
   id="Wyoming_2_"
   class="st0"
   d="m 249.72128,64.980832 c -1.00333,-0.08154 -1.78768,0.0099 -2.79102,-0.07127 -9.1345,0.07403 -19.46844,0.08943 -30.39061,0.173729 -2.57203,0.101869 -5.36305,0.0306 -7.958,-0.06357 -17.48466,0.05626 -36.16875,0.05409 -54.46069,0.0059 -4.16363,0.08923 -8.35017,-0.01777 -12.3177,0.04857 -4.16362,0.08923 -8.15409,-0.04067 -12.12162,0.02566 C 115.35726,64.98557 101.84012,64.975501 90.087754,64.759346 67.978529,64.362493 51.993781,63.647201 48.499884,62.664287 48.084789,62.514051 47.888712,62.536952 47.865771,62.340894 l -0.587955,15.373576 -0.295242,9.376435 v 0 l -0.870503,23.158415 -1.020739,23.57351 -0.259607,7.9809 -0.506501,14.37023 -1.079274,24.77293 -1.079294,24.77293 -0.868016,19.77914 -0.587975,15.37358 -0.562568,12.19038 c 0,0 14.174152,0.52944 35.499028,1.01797 0.588252,-0.0687 1.199444,0.0586 1.591599,0.0118 10.356861,0.18064 22.132145,0.59295 34.691776,0.91358 12.55963,0.32063 25.70752,0.57252 39.05148,0.80144 7.17367,0.15518 14.34732,0.31043 21.49806,0.26956 5.58205,0.14254 10.94509,0.11174 16.11206,0.10404 6.75857,0.006 13.51714,0.01 19.88354,0.0608 1.5916,0.0118 2.9871,0.0484 4.38262,0.0839 12.90595,-0.11746 24.22031,-0.24747 33.11287,-0.69073 1.17653,-0.1376 2.37595,-0.079 3.55245,-0.21651 2.37593,-0.079 4.94796,-0.18084 7.30098,-0.45598 10.65734,-0.64955 21.53367,-1.12597 32.21393,-1.57944 l -0.49436,-17.831 -0.35157,-8.10823 -0.0995,-5.9513 -0.49682,-14.4517 -1.03954,-29.29559 -0.67774,-19.39968 -0.75673,-21.77559 0.0118,-1.5916 -0.53,-16.43548 -0.38222,-13.47128 -0.079,-2.37592 -0.49436,-17.831004 -0.57335,-20.206927 c -6.34347,0.145301 -18.07291,0.125164 -33.35481,0.321479 z"
   style="stroke-width:1.9742;fill:#373e48" />
</svg>
